<?xml version="1.0" standalone="no"?><!DOCTYPE svg PUBLIC "-//W3C//DTD SVG 1.1//EN" "http://www.w3.org/Graphics/SVG/1.1/DTD/svg11.dtd" ><svg xmlns="http://www.w3.org/2000/svg"><metadata></metadata><defs><font id="1.040;ADBE;BauerBodoniStd-Italic" horiz-adv-x="1000"><font-face font-family="Bauer Bodoni Std" font-weight="400" font-stretch="normal" units-per-em="1000" panose-1="2 7 6 3 8 7 5 9 3 3" ascent="735" descent="-265" x-height="3" bbox="-188 -280 1005 945" underline-thickness="50" underline-position="-75" unicode-range="U+0020-fb02" /><missing-glyph horiz-adv-x="600" d="M100 0 l500 0 l0 700 l-500 0 l0 -700 ZM350 395 l-170 255 l340 0 l-170 -255 ZM380 350 l170 255 l0 -510 l-170 255 ZM180 50 l170 255 l170 -255 l-340 0 ZM150 605 l170 -255 l-170 -255 l0 510 Z" /><glyph glyph-name="" unicode=" " d="" /><glyph glyph-name="" unicode="!" d="M132 170 q58 182 110 290 q51 107 79 127 q-14 11 -21 31 q-7 19 -7 41 q0 14 3 28 q2 13 7 29 l-11 4 q-11 -40 -38 -78 q-27 -37 -59 -55 q1 -12 1 -24 q1 -13 1 -28 q-1 -82 -25 -176 q-23 -95 -51 -185 l11 -4 ZM40 47 q0 -23 14 -38 q13 -14 37 -15 q30 1 47 23 q16 21 16 49 q0 22 -15 38 q-14 15 -38 16 q-29 -1 -45 -23 q-16 -22 -16 -50 l0 0 Z" /><glyph glyph-name="" unicode="&quot;" d="M327 450 q0 -9 3 -19 q3 -10 14 -11 q11 1 14 11 q3 10 3 19 l16 166 q2 16 2 27 q1 12 1 23 q1 21 -6 37 q-6 16 -30 17 q-24 -1 -30 -17 q-7 -16 -6 -37 q0 -11 1 -23 q1 -11 2 -27 l16 -166 ZM183 450 q0 -9 3 -19 q3 -10 14 -11 q11 1 14 11 q3 10 3 19 l16 166 q2 16 2 27 q1 12 1 23 q1 21 -6 37 q-6 16 -30 17 q-24 -1 -30 -17 q-7 -16 -6 -37 q0 -11 1 -23 q1 -11 2 -27 l16 -166 Z" /><glyph glyph-name="" unicode="#" d="M131 0 l56 0 l32 225 l134 0 l-32 -225 l56 0 l32 225 l107 0 l7 48 l-108 0 l22 152 l107 0 l7 48 l-108 0 l32 225 l-56 0 l-31 -225 l-135 0 l32 225 l-56 0 l-32 -225 l-107 0 l-7 -48 l108 0 l-22 -152 l-107 0 l-7 -48 l108 0 l-32 -225 ZM360 273 l-135 0 l22 152 l134 0 l-21 -152 Z" /><glyph glyph-name="" unicode="$" d="M292 319 q54 -18 94 -47 q39 -29 41 -92 q-1 -75 -49 -124 q-49 -50 -135 -52 q-18 0 -35 3 l84 312 ZM305 433 q-51 18 -86 43 q-35 25 -37 73 q2 66 52 105 q50 39 118 40 q6 0 12 0 q5 -1 11 -2 l-70 -259 ZM147 -154 l15 -5 l41 150 q14 -3 31 -3 q145 7 203 90 q58 83 56 163 q-3 85 -55 124 q-52 39 -117 61 l71 264 q50 -10 80 -44 q30 -35 31 -90 q0 -19 -3 -38 q-3 -18 -7 -37 l16 -3 l57 206 l-16 5 q-1 -9 -7 -21 q-6 -12 -26 -13 q-20 2 -47 21 q-26 19 -74 30 l32 118 l-16 5 l-33 -121 q-5 1 -11 2 q-5 0 -11 0 q-111 -4 -164 -71 q-53 -68 -53 -153 q2 -74 42 -108 q40 -34 94 -52 l-85 -315 q-58 14 -93 54 q-35 40 -36 98 q1 44 13 87 l-16 3 l-69 -250 l15 -3 q6 17 15 31 q9 14 26 15 q26 -2 60 -22 q33 -20 80 -30 l-39 -148 Z" /><glyph glyph-name="" unicode="%" d="M480 111 q0 -48 28 -85 q27 -36 78 -38 q79 5 131 77 q51 71 53 145 q0 51 -27 92 q-27 42 -77 44 q-82 -3 -133 -72 q-50 -69 -53 -163 l0 0 ZM581 236 q19 58 40 77 q21 19 44 17 q19 0 32 -12 q13 -13 13 -41 q-1 -20 -11 -69 q-11 -48 -25 -91 l-14 -41 q-16 -44 -35 -58 q-19 -15 -39 -14 q-30 1 -41 16 q-12 15 -11 37 q1 27 13 69 q12 42 21 69 l13 41 ZM105 475 q0 -48 28 -85 q27 -36 78 -38 q79 5 131 77 q51 71 53 145 q0 51 -27 92 q-27 42 -77 44 q-82 -3 -133 -72 q-50 -69 -53 -163 l0 0 ZM206 600 q19 58 40 77 q21 19 44 17 q19 0 32 -12 q13 -13 13 -41 q-1 -20 -11 -69 q-11 -48 -25 -91 l-14 -41 q-16 -44 -35 -58 q-19 -15 -39 -14 q-30 1 -41 16 q-12 15 -11 37 q1 27 13 69 q12 42 21 69 l13 41 ZM185 -22 l45 0 l463 742 l-45 0 l-463 -742 Z" /><glyph glyph-name="" unicode="&amp;" d="M666 123 q-20 -44 -39 -63 q-18 -18 -34 -18 q-49 4 -84 54 q-35 49 -56 89 q12 19 48 57 q37 38 59 42 q5 0 9 -3 q3 -3 3 -9 q0 -5 -1 -11 q-1 -6 -1 -13 q0 -18 13 -34 q12 -16 42 -17 q26 1 39 18 q14 16 14 38 q1 25 -16 43 q-17 17 -57 18 q-47 -2 -89 -39 q-42 -37 -70 -79 q-26 41 -51 96 q-26 55 -50 109 l48 21 q40 19 71 54 q31 35 33 83 q-1 51 -32 75 q-31 24 -74 24 q-29 3 -86 -29 q-57 -33 -64 -141 q0 -28 6 -58 q6 -30 16 -52 q-108 -41 -163 -93 q-56 -53 -56 -124 q4 -86 54 -129 q49 -44 98 -44 q51 2 89 26 q37 24 53 41 l57 56 q23 -43 58 -82 q34 -38 87 -41 q50 2 84 42 q35 40 54 88 l-12 5 ZM364 99 q-19 -21 -45 -39 q-27 -17 -55 -18 q-39 2 -85 49 q-47 48 -51 124 q2 63 44 97 q42 34 96 54 q24 -64 54 -124 q30 -61 65 -119 l-23 -24 ZM340 412 q-12 26 -19 56 q-8 30 -8 66 q-1 32 16 68 q18 37 72 40 q38 0 59 -23 q21 -23 21 -62 q-3 -44 -33 -78 q-30 -33 -55 -45 l-53 -22 Z" /><glyph glyph-name="" unicode="&#x2019;" d="M155 420 q25 13 88 65 q63 52 71 146 q0 38 -20 63 q-21 25 -59 26 q-25 0 -40 -17 q-16 -16 -17 -42 q0 -26 16 -41 q15 -14 39 -14 q22 1 31 6 q9 5 14 6 q4 -1 5 -10 q1 -9 1 -14 q-7 -65 -61 -109 q-54 -44 -75 -55 l7 -10 Z" /><glyph glyph-name="" unicode="(" d="M174 -240 q-17 66 -27 126 q-9 59 -9 134 q1 200 80 380 q79 179 222 317 l-27 24 q-164 -157 -241 -340 q-77 -182 -76 -406 q0 -62 10 -125 q10 -62 28 -126 l40 16 Z" /><glyph glyph-name="" unicode=")" d="M-76 -256 q164 157 241 340 q77 182 76 406 q0 62 -10 125 q-10 62 -28 126 l-40 -16 q17 -66 27 -125 q9 -60 9 -135 q-1 -200 -80 -380 q-79 -179 -222 -317 l27 -24 Z" /><glyph glyph-name="" unicode="*" d="M293 584 q0 -17 -2 -39 q-2 -21 -10 -46 q-70 46 -96 85 q-25 39 -33 41 q-5 0 -7 -3 q-3 -3 -3 -10 q0 -10 3 -17 q-11 5 -22 8 q-10 4 -20 4 q-5 0 -7 -2 q-3 -2 -3 -6 q1 -6 11 -18 q10 -12 21 -19 q-7 -3 -15 -9 q-8 -7 -9 -13 q0 -3 2 -6 q2 -3 7 -3 q5 0 11 1 q5 0 12 0 q22 1 56 -7 q35 -8 85 -38 q-47 -39 -90 -57 q-44 -19 -56 -19 q-10 0 -13 -4 q-2 -4 -2 -7 q1 -6 10 -10 q10 -4 16 -5 q-5 -6 -14 -17 q-8 -11 -9 -21 q0 -4 2 -6 q3 -2 8 -2 q8 0 19 5 q11 5 22 12 q1 -12 7 -20 q5 -8 9 -8 q8 0 8 10 q0 19 24 60 q24 41 68 78 q17 -38 23 -69 q6 -31 6 -54 q0 -20 -2 -32 q-2 -13 -2 -17 q0 -4 1 -7 q1 -3 5 -3 q5 1 13 9 q8 7 11 12 q3 -7 12 -20 q8 -13 18 -14 q7 0 9 6 q1 5 1 13 q0 9 -2 17 q-1 9 -3 13 l9 0 q14 0 19 3 q5 3 5 9 q-3 6 -39 33 q-36 27 -69 105 q11 1 21 2 q10 2 20 2 q59 -2 91 -16 q32 -15 44 -17 q2 0 4 3 q2 2 2 5 q0 7 -5 13 q-5 6 -8 11 q13 2 28 8 q15 6 16 14 q-1 10 -19 14 q-17 3 -33 2 q5 6 8 13 q2 6 2 12 q0 4 -2 7 q-2 3 -7 3 q-9 -3 -38 -26 q-28 -24 -125 -36 q20 77 49 115 q29 39 32 45 q0 3 -2 5 q-3 2 -8 2 q-7 0 -12 -2 q-6 -2 -10 -4 q0 3 1 10 q0 7 0 15 q0 9 -2 17 q-3 7 -9 7 q-9 -1 -17 -15 q-8 -14 -11 -26 q-5 5 -12 10 q-8 4 -15 4 q-7 0 -7 -6 q1 -5 10 -26 q8 -21 9 -61 l0 0 Z" /><glyph glyph-name="" unicode="+" d="M270 283 l-223 0 l0 -60 l223 0 l0 -223 l60 0 l0 223 l223 0 l0 60 l-223 0 l0 223 l-60 0 l0 -223 Z" /><glyph glyph-name="" unicode="," d="M12 -192 q25 13 88 65 q63 52 71 146 q0 38 -20 63 q-21 25 -59 26 q-25 0 -40 -17 q-16 -16 -17 -42 q0 -26 16 -41 q15 -14 39 -14 q22 1 31 6 q9 5 14 6 q4 -1 5 -10 q1 -9 1 -14 q-7 -65 -61 -109 q-54 -44 -75 -55 l7 -10 Z" /><glyph glyph-name="" unicode="-" d="M298 214 l16 54 l-238 0 l-16 -54 l238 0 Z" /><glyph glyph-name="" unicode="." d="M35 47 q0 -23 14 -38 q13 -14 37 -15 q30 1 47 23 q16 21 16 49 q0 22 -15 38 q-14 15 -38 16 q-29 -1 -45 -23 q-16 -22 -16 -50 l0 0 Z" /><glyph glyph-name="" unicode="/" d="M-80 -16 l63 0 l375 736 l-63 0 l-375 -736 Z" /><glyph glyph-name="" unicode="0" d="M140 96 q2 73 28 178 q25 104 49 175 q25 81 70 160 q45 79 110 85 q37 -1 53 -28 q16 -27 16 -68 q-2 -76 -26 -176 q-24 -100 -48 -173 q-29 -94 -70 -167 q-40 -74 -100 -78 q-41 0 -61 25 q-21 24 -21 67 l0 0 ZM68 238 q-1 -86 35 -165 q35 -79 119 -85 q128 10 223 165 q94 155 99 334 q1 91 -36 156 q-36 64 -118 67 q-142 -12 -231 -167 q-88 -154 -91 -305 l0 0 Z" /><glyph glyph-name="" unicode="1" d="M83 0 l297 0 l3 16 l-101 0 l206 710 q-73 -49 -169 -103 q-96 -55 -173 -89 l6 -13 q112 45 214 110 l-180 -615 l-99 0 l-4 -16 Z" /><glyph glyph-name="" unicode="2" d="M457 139 q-5 -8 -21 -30 q-15 -22 -24 -25 l-353 0 q114 122 290 201 q177 78 195 248 q-3 94 -66 136 q-63 42 -154 41 q-86 0 -144 -45 q-58 -45 -60 -132 q-1 -34 13 -66 q14 -33 49 -35 q21 1 29 15 q8 14 8 24 q-5 38 -37 58 q-33 20 -38 53 q3 49 53 80 q49 31 108 32 q56 1 96 -31 q39 -32 41 -105 q-1 -84 -28 -142 q-28 -58 -74 -102 q-66 -54 -174 -118 q-109 -64 -166 -196 l399 0 q16 34 34 67 q18 33 37 66 l-13 6 Z" /><glyph glyph-name="" unicode="3" d="M165 377 q72 3 140 -12 q67 -14 72 -93 q2 -95 -37 -179 q-40 -83 -151 -89 q-57 2 -92 28 q-36 26 -37 54 q0 11 6 16 q6 5 17 5 q10 0 16 -3 q7 -4 21 -4 q19 0 32 14 q13 14 14 36 q0 23 -15 37 q-14 15 -36 15 q-34 -1 -56 -25 q-22 -25 -23 -58 q1 -68 50 -100 q49 -31 131 -31 q100 2 179 66 q79 63 83 168 q-1 80 -50 119 q-49 38 -130 42 l0 2 q83 5 158 49 q76 44 81 126 q-3 81 -62 116 q-59 35 -134 34 q-58 1 -116 -32 q-58 -33 -62 -107 q0 -16 11 -34 q12 -18 41 -19 q20 0 35 13 q14 13 15 35 q0 16 -8 27 q-9 11 -27 15 q-15 3 -20 6 q-5 3 -5 10 q1 18 32 43 q32 25 88 27 q49 1 82 -20 q33 -22 34 -79 q-1 -109 -54 -156 q-52 -47 -142 -46 q-54 0 -76 1 l-5 -17 Z" /><glyph glyph-name="" unicode="4" d="M146 0 l279 0 l4 16 l-93 0 l60 190 l122 0 l18 60 l-122 0 l92 292 l-111 -59 l-74 -233 l-243 0 l414 450 l-11 10 l-481 -520 l303 0 l-60 -190 l-93 0 l-4 -16 Z" /><glyph glyph-name="" unicode="5" d="M127 319 l11 0 q18 48 55 79 q36 31 89 32 q49 0 82 -27 q32 -27 33 -85 q2 -87 -48 -195 q-51 -109 -172 -119 q-37 0 -68 11 q-30 10 -32 34 q4 17 28 26 q25 9 28 48 q-1 24 -15 37 q-15 14 -37 14 q-24 0 -41 -20 q-16 -20 -17 -54 q3 -56 48 -84 q44 -28 95 -28 q156 8 244 104 q88 97 89 193 q-1 83 -49 129 q-48 45 -132 46 q-49 0 -85 -16 q-35 -16 -67 -52 l-2 2 l65 212 q69 -21 141 -21 q67 -1 118 32 q50 32 59 103 q-25 -27 -55 -39 q-30 -12 -66 -12 q-48 0 -95 10 q-47 11 -89 34 l-115 -394 Z" /><glyph glyph-name="" unicode="6" d="M546 710 q-277 -14 -385 -176 q-108 -162 -103 -308 q-1 -101 47 -168 q48 -67 157 -70 q107 3 184 81 q77 77 81 190 q-1 76 -48 124 q-48 47 -126 48 q-50 1 -92 -16 q-41 -16 -73 -55 l-2 2 q44 157 117 240 q72 83 240 92 l3 16 ZM136 116 q-2 102 40 197 q42 95 155 102 q58 -1 83 -29 q24 -28 23 -70 q0 -34 -13 -93 q-14 -58 -44 -123 q-19 -42 -47 -69 q-27 -26 -78 -27 q-53 0 -86 28 q-32 28 -33 84 l0 0 Z" /><glyph glyph-name="" unicode="7" d="M124 529 l30 64 q41 -12 81 -17 q40 -4 71 -4 q42 0 109 8 q68 8 108 28 l2 -2 q-67 -82 -182 -253 q-115 -172 -127 -281 q0 -33 15 -58 q14 -25 50 -26 q23 1 38 16 q15 15 15 38 q-5 46 -38 49 q-33 2 -38 34 q16 107 155 303 q140 196 211 282 l-9 10 q-49 -33 -113 -43 q-65 -10 -117 -9 q-39 -1 -101 5 q-63 6 -99 28 l5 14 l-12 5 q-14 -46 -31 -93 q-18 -46 -38 -93 l15 -5 Z" /><glyph glyph-name="" unicode="8" d="M400 138 q-3 -70 -55 -102 q-53 -32 -115 -32 q-73 1 -118 41 q-46 40 -47 101 q4 78 63 131 q60 53 129 75 q49 -45 96 -98 q48 -53 47 -116 l0 0 ZM242 578 q3 59 47 88 q44 28 100 28 q56 0 95 -28 q39 -27 41 -82 q0 -54 -40 -98 q-41 -45 -125 -87 q-41 36 -78 79 q-37 44 -40 100 l0 0 ZM170 515 q0 -46 20 -84 q19 -37 54 -68 q-73 -25 -132 -84 q-60 -58 -63 -132 q1 -71 52 -114 q51 -44 141 -45 q128 5 183 73 q54 67 53 132 q-1 61 -33 111 q-31 49 -75 86 q80 41 125 84 q45 43 46 116 q0 48 -39 83 q-39 35 -110 37 q-113 -5 -168 -70 q-54 -66 -54 -125 l0 0 Z" /><glyph glyph-name="" unicode="9" d="M58 -12 q277 14 385 176 q108 162 103 308 q1 101 -47 168 q-48 67 -157 70 q-107 -3 -184 -81 q-77 -77 -81 -190 q1 -76 48 -123 q48 -48 126 -49 q50 -1 92 16 q41 16 73 55 l2 -2 q-44 -157 -117 -240 q-72 -83 -240 -92 l-3 -16 ZM468 582 q2 -102 -40 -197 q-42 -95 -155 -102 q-58 1 -83 29 q-24 28 -23 70 q0 35 13 93 q14 59 44 123 q19 42 47 69 q27 26 78 27 q53 0 86 -28 q32 -28 33 -84 l0 0 Z" /><glyph glyph-name="" unicode=":" d="M110 319 q0 -23 14 -38 q13 -14 37 -15 q30 1 47 23 q16 21 16 49 q0 22 -15 38 q-14 15 -38 16 q-29 -1 -45 -23 q-16 -22 -16 -50 l0 0 ZM35 47 q0 -23 14 -38 q13 -14 37 -15 q30 1 47 23 q16 21 16 49 q0 22 -15 38 q-14 15 -38 16 q-29 -1 -45 -23 q-16 -22 -16 -50 l0 0 Z" /><glyph glyph-name="" unicode=";" d="M12 -192 q25 13 88 65 q63 52 71 146 q0 38 -20 63 q-21 25 -59 26 q-25 0 -40 -17 q-16 -16 -17 -42 q0 -26 16 -41 q15 -14 39 -14 q22 1 31 6 q9 5 14 6 q4 -1 5 -10 q1 -9 1 -14 q-7 -65 -61 -109 q-54 -44 -75 -55 l7 -10 ZM110 319 q0 -23 14 -38 q13 -14 37 -15 q30 1 47 23 q16 21 16 49 q0 22 -15 38 q-14 15 -38 16 q-29 -1 -45 -23 q-16 -22 -16 -50 l0 0 Z" /><glyph glyph-name="" unicode="&lt;" d="M553 -8 l0 62 l-435 199 l435 199 l0 62 l-506 -231 l0 -60 l506 -231 Z" /><glyph glyph-name="" unicode="=" d="M47 321 l506 0 l0 60 l-506 0 l0 -60 ZM47 125 l506 0 l0 60 l-506 0 l0 -60 Z" /><glyph glyph-name="" unicode="&gt;" d="M47 514 l0 -62 l435 -199 l-435 -199 l0 -62 l506 231 l0 60 l-506 231 Z" /><glyph glyph-name="" unicode="?" d="M116 175 l24 64 q12 34 22 48 q10 14 29 23 l126 65 q51 24 90 64 q38 41 40 112 q-2 75 -43 114 q-42 39 -104 39 q-66 -2 -106 -38 q-39 -36 -40 -86 q0 -21 11 -39 q10 -18 34 -19 q21 0 34 13 q13 12 13 32 q-1 21 -14 29 q-12 9 -20 9 q-13 2 -17 6 q-5 5 -5 10 q1 28 31 50 q30 22 75 23 q49 0 87 -28 q38 -27 40 -79 q-6 -66 -71 -99 q-65 -34 -117 -53 q-26 -10 -42 -31 q-16 -22 -40 -92 l-47 -133 l10 -4 ZM28 47 q0 -23 14 -38 q13 -14 37 -15 q30 1 47 23 q16 21 16 49 q0 22 -15 38 q-14 15 -38 16 q-29 -1 -45 -23 q-16 -22 -16 -50 l0 0 Z" /><glyph glyph-name="" unicode="@" d="M351 285 q5 101 56 156 q51 56 92 57 q26 -1 38 -17 q11 -16 11 -41 q-3 -102 -44 -172 q-41 -70 -89 -73 q-28 0 -45 21 q-18 21 -19 69 l0 0 ZM60 336 q-1 -116 96 -230 q97 -113 305 -122 q49 0 108 14 q59 14 122 49 l-10 21 q-42 -22 -94 -35 q-52 -13 -127 -13 q-148 5 -231 95 q-84 91 -85 210 q2 177 85 268 q83 91 220 91 q152 -6 233 -93 q81 -88 82 -186 q0 -81 -38 -150 q-37 -68 -108 -72 q-26 1 -35 14 q-9 13 -8 25 q0 10 1 16 q1 7 2 13 l71 276 l-73 0 l-11 -47 l-2 0 q-8 23 -29 41 q-20 18 -50 19 q-86 -3 -144 -77 q-59 -73 -61 -178 q4 -90 41 -112 q36 -23 61 -20 q44 3 78 33 q35 30 42 47 l2 0 q1 -44 30 -62 q29 -19 69 -18 q91 3 141 77 q50 74 51 176 q-4 138 -100 225 q-97 86 -245 89 q-167 -3 -276 -106 q-109 -104 -113 -278 l0 0 Z" /><glyph glyph-name="" unicode="a" d="M-65 0 l166 0 l4 16 l-31 0 q-26 0 -36 4 q-9 3 -9 9 q0 4 3 10 q2 5 9 15 l123 198 l218 0 l7 -236 l-87 0 l-4 -16 l245 0 l3 16 l-60 0 l-22 722 l-14 0 l-436 -690 q-14 -22 -28 -27 q-13 -6 -24 -5 l-24 0 l-3 -16 ZM382 268 l-206 0 l198 317 l2 0 l6 -317 Z" /><glyph glyph-name="" unicode="b" d="M-34 0 l331 0 q115 1 205 56 q90 56 95 154 q-2 77 -50 113 q-49 36 -119 38 l0 2 q96 18 162 69 q65 51 68 127 q-3 77 -52 112 q-50 34 -114 33 l-343 0 l-4 -16 l90 0 l-188 -672 l-77 0 l-4 -16 ZM243 354 l85 0 q63 3 114 -14 q50 -17 53 -91 q0 -40 -18 -93 q-17 -53 -49 -90 q-21 -23 -55 -37 q-34 -13 -87 -13 l-138 0 l95 338 ZM336 688 l115 0 q52 1 78 -22 q27 -22 27 -77 q0 -79 -43 -147 q-43 -68 -135 -72 l-131 0 l89 318 Z" /><glyph glyph-name="" unicode="c" d="M711 683 l-16 3 q-4 -11 -10 -23 q-6 -13 -26 -14 q-23 4 -63 36 q-39 31 -114 35 q-145 -3 -272 -123 q-128 -121 -136 -329 q3 -129 79 -206 q76 -76 187 -78 q132 8 200 80 q67 72 80 105 l-16 8 q-15 -35 -77 -102 q-62 -67 -182 -75 q-99 4 -135 66 q-36 62 -34 129 q0 126 74 308 q73 183 226 201 q72 -2 124 -49 q52 -47 54 -119 q0 -23 -3 -47 q-3 -23 -10 -46 l16 -4 l54 244 Z" /><glyph glyph-name="" unicode="d" d="M-34 0 l358 0 q170 8 274 140 q103 132 106 295 q1 99 -60 181 q-61 83 -196 88 l-299 0 l-4 -16 l90 0 l-188 -672 l-77 0 l-4 -16 ZM336 688 l102 0 q76 2 123 -36 q46 -39 47 -138 q1 -93 -67 -284 q-68 -192 -223 -214 l-170 0 l188 672 Z" /><glyph glyph-name="" unicode="e" d="M-34 0 l541 0 l47 216 l-16 0 q-24 -117 -95 -160 q-71 -42 -173 -40 l-121 0 l100 357 l72 0 q33 -1 45 -17 q13 -16 12 -34 q0 -12 -5 -36 q-5 -25 -12 -51 l16 0 l61 265 l-16 0 q-17 -78 -42 -96 q-26 -18 -85 -15 l-42 0 l84 299 l133 0 q52 2 93 -19 q42 -21 44 -94 q0 -12 -1 -27 q-2 -16 -5 -33 l16 0 l31 189 l-499 0 l-4 -16 l90 0 l-188 -672 l-77 0 l-4 -16 Z" /><glyph glyph-name="" unicode="f" d="M-34 0 l265 0 l4 16 l-93 0 l101 357 l52 0 q33 -1 45 -17 q13 -16 12 -34 q0 -12 -5 -36 q-5 -25 -12 -51 l16 0 l61 265 l-16 0 q-17 -78 -42 -96 q-26 -18 -85 -15 l-21 0 l84 299 l88 0 q86 1 125 -29 q40 -29 39 -96 q0 -15 -2 -28 q-1 -13 -3 -25 l15 0 l31 194 l-476 0 l-4 -16 l90 0 l-188 -672 l-77 0 l-4 -16 Z" /><glyph glyph-name="" unicode="g" d="M739 652 l-13 5 q-6 -16 -12 -26 q-6 -10 -25 -10 q-27 6 -71 50 q-45 43 -136 49 q-145 -3 -272 -123 q-128 -121 -136 -329 q3 -129 76 -206 q74 -76 181 -78 q65 3 149 42 q84 39 103 83 l38 126 l72 0 l4 16 l-253 0 l-4 -16 l74 0 l-47 -155 q-4 -19 -35 -48 q-31 -29 -101 -32 q-91 2 -130 52 q-38 50 -37 123 q0 106 79 306 q78 200 232 223 q80 -1 131 -56 q50 -56 52 -155 q0 -25 -3 -46 q-3 -20 -7 -37 l16 -4 l75 246 Z" /><glyph glyph-name="" unicode="h" d="M-34 0 l265 0 l4 16 l-87 0 l95 338 l344 0 l-95 -338 l-83 0 l-4 -16 l274 0 l4 16 l-90 0 l188 672 l77 0 l4 16 l-265 0 l-4 -16 l87 0 l-89 -318 l-344 0 l89 318 l83 0 l4 16 l-274 0 l-4 -16 l90 0 l-188 -672 l-77 0 l-4 -16 Z" /><glyph glyph-name="" unicode="i" d="M-34 0 l265 0 l4 16 l-87 0 l188 672 l83 0 l4 16 l-274 0 l-4 -16 l90 0 l-188 -672 l-77 0 l-4 -16 Z" /><glyph glyph-name="" unicode="j" d="M119 44 q-7 -31 -28 -66 q-20 -35 -73 -38 q-19 1 -34 11 q-15 10 -16 23 q0 5 3 9 q3 4 6 4 q5 0 11 -3 q6 -3 13 -3 q24 1 41 16 q16 15 17 38 q0 31 -17 45 q-17 15 -44 15 q-29 -1 -47 -21 q-18 -21 -19 -55 q1 -41 25 -68 q25 -26 67 -27 q72 4 134 63 q61 58 82 128 l159 573 l83 0 l4 16 l-274 0 l-4 -16 l90 0 l-179 -644 Z" /><glyph glyph-name="" unicode="k" d="M-34 0 l265 0 l4 16 l-87 0 l91 324 l202 -324 l-80 0 l-3 -16 l254 0 l4 16 l-59 0 l-242 380 l280 228 q37 32 70 48 q33 16 93 16 l4 16 l-218 0 l-4 -16 l28 0 q29 0 38 -4 q9 -5 8 -11 q0 -4 -3 -10 q-3 -5 -13 -13 l-353 -291 l-1 0 l92 329 l83 0 l4 16 l-274 0 l-4 -16 l90 0 l-188 -672 l-77 0 l-4 -16 Z" /><glyph glyph-name="" unicode="l" d="M-34 0 l544 0 l81 259 l-15 4 q-40 -129 -111 -188 q-71 -60 -192 -59 l-125 0 l188 672 l83 0 l4 16 l-274 0 l-4 -16 l90 0 l-188 -672 l-77 0 l-4 -16 Z" /><glyph glyph-name="" unicode="m" d="M-35 0 l182 0 l4 16 q-42 0 -58 8 q-17 9 -16 23 q0 6 1 12 q1 6 3 11 l166 592 l2 0 l28 -662 l11 0 l438 650 l2 -2 l-177 -632 l-88 0 l-4 -16 l272 0 l4 16 l-86 0 l188 672 l82 0 l4 16 l-181 0 l-375 -556 l-2 0 l-24 556 l-193 0 l-4 -16 l92 0 l-133 -471 q-33 -118 -44 -152 q-12 -34 -27 -41 q-10 -6 -31 -7 q-20 -1 -32 -1 l-4 -16 Z" /><glyph glyph-name="" unicode="n" d="M-34 0 l184 0 l4 16 l-25 0 q-35 1 -44 12 q-8 11 -7 20 q0 7 4 20 q4 12 9 31 l159 575 l2 0 l246 -680 l45 14 l180 628 q8 30 23 41 q15 12 55 11 l10 0 l4 16 l-182 0 l-4 -16 q49 0 65 -6 q15 -5 14 -20 q0 -14 -7 -39 q-6 -25 -14 -51 l-131 -455 l-2 0 l-210 587 l-194 0 l-3 -16 l91 0 l-141 -501 q-28 -107 -46 -141 q-17 -33 -54 -30 l-27 0 l-4 -16 Z" /><glyph glyph-name="" unicode="o" d="M471 720 q-184 -12 -290 -161 q-105 -148 -107 -285 q4 -151 79 -221 q75 -70 173 -69 q163 11 268 156 q105 144 109 290 q-5 151 -79 221 q-74 70 -153 69 l0 0 ZM323 0 q-59 -2 -105 33 q-46 35 -48 135 q1 60 22 159 q21 99 55 182 q32 83 84 138 q52 55 139 57 q46 3 93 -28 q46 -32 50 -137 q0 -58 -24 -165 q-24 -107 -65 -206 q-35 -82 -84 -125 q-50 -43 -117 -43 l0 0 Z" /><glyph glyph-name="" unicode="p" d="M-34 0 l276 0 l3 16 l-97 0 l87 310 l122 0 q102 -1 189 50 q87 51 93 170 q-2 86 -58 123 q-55 36 -136 35 l-296 0 l-4 -16 l90 0 l-188 -672 l-77 0 l-4 -16 ZM336 688 l85 0 q59 0 85 -26 q26 -26 25 -85 q2 -76 -41 -152 q-43 -77 -149 -83 l-102 0 l97 346 Z" /><glyph glyph-name="" unicode="q" d="M349 -15 q149 21 249 161 q101 139 105 284 q-5 151 -79 221 q-74 70 -153 69 q-184 -12 -290 -161 q-105 -148 -107 -285 q3 -127 56 -194 q53 -68 125 -87 q-12 -52 -17 -73 q-4 -20 -4 -30 q5 -67 64 -89 q60 -23 118 -21 q16 0 32 1 q16 1 32 2 l0 13 l-32 0 q-38 -1 -82 11 q-44 13 -48 58 q0 9 2 18 q3 9 5 17 l24 85 ZM323 0 q-59 -2 -105 33 q-46 35 -48 135 q1 60 22 159 q21 99 55 182 q32 83 84 138 q52 55 139 57 q46 3 93 -28 q46 -32 50 -137 q0 -58 -24 -165 q-24 -107 -65 -206 q-35 -82 -84 -125 q-50 -43 -117 -43 l0 0 Z" /><glyph glyph-name="" unicode="r" d="M336 688 l98 0 q51 -1 69 -25 q18 -24 17 -55 q0 -78 -41 -155 q-40 -77 -117 -83 l-115 0 l89 318 ZM-34 0 l265 0 l4 16 l-87 0 l95 338 l102 0 q32 0 51 -14 q20 -14 20 -46 q-2 -30 -19 -102 q-18 -72 -20 -101 q-1 -29 22 -62 q23 -32 80 -35 q39 2 61 22 q23 21 32 37 l-14 7 q-7 -10 -21 -25 q-14 -15 -45 -17 q-16 1 -21 9 q-4 8 -4 17 q2 32 17 91 q14 58 16 106 q-1 47 -32 79 q-31 31 -78 38 l0 2 q80 11 151 60 q70 49 75 147 q2 41 -32 87 q-34 46 -125 50 l-310 0 l-4 -16 l90 0 l-188 -672 l-77 0 l-4 -16 Z" /><glyph glyph-name="" unicode="s" d="M-10 3 l15 -3 q7 15 16 29 q9 14 25 15 q31 -4 72 -30 q42 -26 116 -30 q145 7 203 91 q58 83 56 159 q-19 155 -154 188 q-136 33 -155 134 q2 67 49 107 q46 40 114 41 q74 0 115 -37 q40 -37 41 -104 q0 -19 -3 -38 q-3 -19 -7 -38 l16 -4 l57 210 l-16 6 q-2 -10 -8 -22 q-6 -12 -19 -13 q-26 4 -62 28 q-35 25 -104 28 q-133 -8 -176 -90 q-43 -82 -39 -138 q18 -143 146 -169 q127 -26 145 -149 q4 -31 -31 -99 q-35 -67 -159 -75 q-79 1 -129 46 q-50 45 -52 116 q0 23 4 45 q3 22 9 44 l-16 3 l-69 -251 Z" /><glyph glyph-name="" unicode="t" d="M131 0 l261 0 l4 16 l-86 0 l190 672 l62 0 q62 1 95 -26 q33 -27 33 -93 q0 -25 -5 -49 q-5 -25 -11 -49 l16 0 l66 233 l-592 0 l-70 -233 l16 0 q8 45 63 127 q56 81 164 90 l62 0 l-188 -672 l-76 0 l-4 -16 Z" /><glyph glyph-name="" unicode="u" d="M818 704 l-194 0 l-4 -16 l22 0 q46 0 59 -6 q13 -7 11 -21 q-1 -15 -9 -48 q-9 -33 -15 -53 l-114 -390 q-25 -86 -89 -128 q-64 -42 -167 -42 q-60 0 -102 28 q-43 29 -45 88 q1 29 19 101 q19 73 45 164 l88 307 l83 0 l4 16 l-274 0 l-4 -16 l90 0 l-82 -299 q-8 -29 -32 -120 q-24 -92 -27 -128 q4 -81 74 -119 q70 -38 159 -38 q124 2 190 54 q66 52 86 126 l139 478 q9 32 30 40 q20 7 55 6 l4 16 Z" /><glyph glyph-name="" unicode="v" d="M116 -2 l15 -4 l499 670 q11 15 20 20 q10 4 32 4 l4 16 l-140 0 l-4 -16 q23 0 44 -3 q21 -3 23 -14 q0 -8 -5 -16 q-4 -7 -12 -17 l-349 -472 l-2 4 l85 518 l105 0 l3 16 l-277 0 l-4 -16 l76 0 l-113 -690 Z" /><glyph glyph-name="" unicode="w" d="M116 -2 l16 -4 l356 468 l2 -2 l-71 -462 l13 -4 l475 652 q19 28 30 35 q11 8 35 7 l4 16 l-142 0 l-3 -16 q34 0 51 -3 q17 -3 17 -14 q0 -4 -7 -15 q-7 -10 -19 -27 l-336 -470 l-2 2 l83 527 l95 0 l3 16 l-268 0 l-4 -16 l80 0 l-29 -195 l-256 -337 l-2 2 l89 530 l81 0 l4 16 l-251 0 l-4 -16 l73 0 l-113 -690 Z" /><glyph glyph-name="" unicode="x" d="M-57 0 l185 0 l4 16 l-20 0 q-23 0 -33 6 q-9 6 -9 17 q1 9 16 30 q15 21 25 34 l158 210 l76 -297 l-80 0 l-4 -16 l241 0 l3 16 l-63 0 l-99 393 l190 251 q12 16 27 22 q16 6 42 6 l8 0 l3 16 l-178 0 l-4 -16 l25 0 q19 1 33 -3 q14 -4 15 -21 q-1 -9 -9 -22 q-9 -13 -16 -23 l-141 -191 l-65 260 l72 0 l3 16 l-246 0 l-4 -16 l78 0 l88 -355 l-205 -271 q-23 -32 -44 -40 q-21 -7 -70 -6 l-2 -16 Z" /><glyph glyph-name="" unicode="y" d="M274 688 l82 0 l4 16 l-251 0 l-4 -16 l76 0 l28 -391 l-81 -281 l-77 0 l-4 -16 l265 0 l4 16 l-87 0 l76 274 l272 374 q10 14 21 19 q11 5 28 5 l8 0 l4 16 l-155 0 l-4 -16 l14 0 q22 0 42 -1 q20 -2 21 -11 q0 -9 -9 -23 q-9 -14 -23 -34 l-224 -308 l-2 0 l-24 377 Z" /><glyph glyph-name="" unicode="z" d="M-7 0 l522 0 l61 208 l-16 0 q-37 -103 -96 -148 q-58 -45 -160 -44 l-183 0 l538 688 l-487 0 l-61 -199 l16 0 q28 76 82 129 q53 52 165 54 l157 0 l-538 -688 Z" /><glyph glyph-name="" unicode="[" d="M-13 -239 l190 0 l10 42 l-145 0 l243 884 l144 0 l11 42 l-187 0 l-266 -968 Z" /><glyph glyph-name="" unicode="\" d="M103 720 l-62 0 l195 -736 l62 0 l-195 736 Z" /><glyph glyph-name="" unicode="]" d="M346 729 l-190 0 l-10 -42 l145 0 l-243 -884 l-144 0 l-11 -42 l187 0 l266 968 Z" /><glyph glyph-name="" unicode="^" d="M111 333 l62 0 l147 295 l147 -295 l62 0 l-183 365 l-52 0 l-183 -365 Z" /><glyph glyph-name="" unicode="_" d="M0 -125 l500 0 l0 50 l-500 0 l0 -50 Z" /><glyph glyph-name="" unicode="&#x2018;" d="M291 720 q-25 -13 -88 -65 q-63 -52 -71 -146 q0 -38 20 -63 q21 -25 59 -26 q25 1 41 17 q15 16 16 42 q0 26 -15 41 q-16 14 -40 14 q-22 -1 -31 -6 q-9 -5 -14 -6 q-4 1 -5 10 q-1 9 -1 14 q7 65 61 109 q54 44 75 55 l-7 10 Z" /><glyph glyph-name="" unicode="a" d="M114 84 q0 71 46 195 q45 123 141 137 q46 -2 69 -31 q23 -29 23 -58 q0 -15 -13 -51 q-13 -37 -32 -98 q-21 -72 -60 -122 q-39 -50 -102 -52 q-34 0 -53 20 q-19 20 -19 60 l0 0 ZM501 410 l-77 0 l-19 -61 l-2 0 q-5 25 -27 53 q-23 28 -71 30 q-99 -4 -181 -84 q-83 -81 -88 -190 q0 -72 39 -120 q38 -48 110 -50 q44 2 82 30 q37 27 56 60 l2 0 q-1 -26 11 -57 q12 -30 61 -33 q48 5 80 43 q31 39 41 57 l-10 10 q-12 -18 -39 -50 q-27 -32 -54 -36 q-12 0 -18 8 q-6 8 -6 20 q0 12 4 26 q3 14 7 26 l99 318 Z" /><glyph glyph-name="" unicode="b" d="M81 207 q-6 -19 -10 -43 q-5 -24 -5 -48 q2 -60 47 -94 q44 -33 107 -34 q143 10 214 110 q71 101 71 173 q-2 88 -41 125 q-39 37 -98 36 q-45 0 -90 -23 q-46 -23 -75 -65 l-2 2 l114 389 q-24 -14 -53 -20 q-28 -5 -58 -5 l-45 0 l-4 -16 l68 0 l-140 -487 ZM427 330 q2 -47 -41 -178 q-43 -131 -157 -148 q-49 2 -71 28 q-22 26 -22 49 q0 35 20 123 q21 88 68 148 q26 29 60 46 q34 18 70 18 q43 -1 59 -25 q15 -24 14 -61 l0 0 Z" /><glyph glyph-name="" unicode="c" d="M380 153 q-8 -23 -58 -82 q-49 -60 -125 -67 q-41 1 -59 26 q-18 26 -18 64 q-2 69 38 189 q39 120 143 133 q22 0 29 -5 q7 -4 6 -11 q-1 -5 -5 -14 q-5 -10 -6 -30 q0 -23 12 -35 q12 -12 32 -12 q21 0 34 13 q12 13 12 38 q0 30 -29 51 q-29 20 -81 21 q-105 -5 -185 -87 q-80 -82 -84 -187 q5 -95 58 -133 q54 -38 99 -37 q86 7 138 68 q53 61 63 92 l-14 5 Z" /><glyph glyph-name="" unicode="d" d="M434 694 l68 0 l-95 -343 l-2 0 q-7 25 -33 52 q-25 27 -80 29 q-83 -3 -166 -80 q-84 -77 -90 -193 q1 -81 41 -126 q39 -44 99 -45 q60 3 96 36 q36 32 51 56 l2 -2 q-5 -31 9 -60 q14 -28 48 -30 q32 0 58 16 q27 15 45 41 l34 47 l-12 7 l-24 -33 q-10 -15 -29 -33 q-19 -19 -38 -21 q-13 0 -19 7 q-6 7 -6 18 q0 11 2 22 q3 11 5 19 l196 657 q-24 -14 -53 -20 q-28 -5 -58 -5 l-45 0 l-4 -16 ZM114 86 q-1 90 48 205 q49 114 148 125 q39 -3 62 -34 q23 -32 23 -52 q-4 -34 -37 -129 q-33 -95 -47 -120 q-24 -33 -58 -55 q-33 -21 -70 -22 q-34 1 -51 23 q-17 22 -18 59 l0 0 Z" /><glyph glyph-name="" unicode="e" d="M374 115 q-13 -21 -57 -64 q-44 -42 -109 -47 q-54 1 -74 34 q-21 32 -20 83 q0 19 5 48 q4 28 12 57 q37 -15 76 -15 q87 1 146 38 q59 37 61 96 q-2 47 -36 67 q-33 20 -73 20 q-99 -3 -181 -79 q-83 -77 -88 -195 q5 -95 58 -133 q54 -38 99 -37 q82 5 129 49 q47 44 62 71 l-10 7 ZM348 355 q1 -35 -30 -79 q-31 -45 -111 -49 q-23 0 -41 5 q-19 5 -31 9 q16 58 51 115 q36 56 102 60 q28 -1 44 -17 q16 -17 16 -44 l0 0 Z" /><glyph glyph-name="" unicode="f" d="M39 394 l88 0 q-38 -146 -70 -298 q-33 -153 -59 -240 q-21 -61 -45 -80 q-24 -20 -38 -18 q-7 0 -11 2 q-4 3 -4 8 q1 8 10 14 q8 7 9 27 q0 18 -12 30 q-12 11 -33 11 q-18 0 -31 -14 q-13 -13 -14 -36 q1 -22 17 -39 q17 -18 43 -19 q46 -3 84 31 q38 33 87 134 q33 71 69 201 q36 130 80 286 l105 0 l3 16 l-105 0 l31 114 q11 44 46 119 q35 75 81 83 q5 0 9 -1 q5 -1 5 -7 q-1 -6 -8 -14 q-7 -8 -8 -27 q0 -17 13 -30 q13 -12 35 -13 q20 0 34 13 q13 12 14 33 q-1 28 -20 45 q-19 17 -47 17 q-33 0 -66 -18 q-33 -18 -69 -55 q-41 -42 -75 -108 q-34 -65 -56 -151 l-88 0 l-4 -16 Z" /><glyph glyph-name="" unicode="g" d="M73 255 q0 -33 16 -63 q16 -29 43 -49 q-40 -7 -73 -32 q-33 -25 -35 -69 q0 -28 13 -44 q13 -16 40 -25 l0 -3 q-43 -18 -74 -50 q-32 -32 -33 -84 q3 -56 57 -86 q55 -30 130 -30 q133 6 198 78 q66 72 66 141 q-2 70 -43 89 q-41 19 -91 16 q-39 0 -77 -2 q-38 -2 -75 -2 q-47 0 -61 9 q-15 9 -14 26 q2 24 27 40 q26 15 57 21 q13 -7 33 -11 q19 -4 38 -4 q84 3 138 53 q55 49 57 109 q0 15 -2 31 q-1 15 -8 30 q8 21 21 39 q14 19 24 20 q2 0 5 -1 q3 0 3 -4 q0 -3 -1 -6 q-2 -3 -2 -10 q0 -18 9 -29 q10 -11 30 -11 q22 1 31 14 q8 14 8 28 q0 17 -10 32 q-10 15 -37 16 q-38 -3 -60 -29 q-21 -26 -27 -42 q-18 33 -52 52 q-33 19 -69 19 q-74 -1 -135 -50 q-61 -48 -65 -127 l0 0 ZM332 -32 q18 1 38 -10 q19 -11 21 -45 q-1 -60 -58 -116 q-58 -57 -162 -61 q-89 3 -125 39 q-35 35 -34 69 q4 66 41 95 q36 30 51 29 l228 0 ZM344 344 q1 -27 -27 -111 q-28 -85 -98 -96 q-33 0 -53 18 q-20 18 -21 52 q-1 46 30 123 q30 78 99 86 q33 0 51 -19 q19 -19 19 -53 l0 0 Z" /><glyph glyph-name="" unicode="h" d="M24 0 l80 0 l60 206 q35 102 102 156 q68 54 108 54 q20 0 29 -9 q9 -9 9 -24 q-6 -41 -47 -150 q-42 -109 -48 -165 q0 -34 15 -54 q15 -20 50 -20 q55 4 90 41 q35 37 50 63 l-10 7 q-13 -18 -40 -51 q-27 -32 -60 -36 q-12 0 -17 10 q-6 9 -6 21 q6 31 48 144 q41 113 47 158 q0 35 -23 57 q-23 23 -71 24 q-59 -2 -112 -42 q-52 -39 -86 -96 l-2 0 l129 441 q-24 -14 -53 -20 q-28 -5 -58 -5 l-45 0 l-4 -16 l68 0 l-203 -694 Z" /><glyph glyph-name="" unicode="i" d="M72 394 l64 0 l-85 -273 q-5 -16 -9 -31 q-4 -15 -4 -29 q1 -36 23 -52 q21 -15 46 -15 q59 4 99 43 q40 38 51 59 l-12 8 q-10 -17 -40 -50 q-30 -32 -71 -36 q-13 1 -18 9 q-6 8 -6 17 q0 12 5 29 q5 17 11 33 l104 326 q-32 -13 -64 -18 q-32 -4 -64 -4 l-27 0 l-3 -16 ZM295 666 q1 11 -7 22 q-8 11 -31 12 q-24 -2 -41 -25 q-16 -23 -17 -49 q0 -11 7 -22 q7 -11 25 -12 q28 2 46 25 q17 23 18 49 l0 0 Z" /><glyph glyph-name="" unicode="j" d="M91 394 l62 0 q-39 -126 -78 -251 q-39 -126 -77 -254 q-12 -48 -34 -98 q-22 -51 -58 -55 q-7 0 -11 2 q-4 3 -4 11 q1 6 6 13 q5 7 6 22 q0 22 -12 33 q-12 12 -30 12 q-20 -1 -31 -17 q-11 -17 -11 -37 q1 -26 18 -40 q18 -15 39 -15 q28 0 51 10 q23 10 45 33 q45 46 84 114 q39 68 75 182 l118 373 q-32 -13 -64 -18 q-32 -4 -64 -4 l-27 0 l-3 -16 ZM314 666 q1 11 -7 22 q-8 11 -31 12 q-24 -2 -41 -25 q-16 -23 -17 -49 q0 -11 7 -22 q7 -11 25 -12 q28 2 46 25 q17 23 18 49 l0 0 Z" /><glyph glyph-name="" unicode="k" d="M24 0 l78 0 l76 262 l11 0 q53 1 65 -39 q13 -39 11 -125 q-2 -24 10 -62 q13 -38 61 -42 q58 2 90 43 q31 40 45 92 l-16 4 q-5 -28 -25 -66 q-21 -39 -54 -43 q-13 1 -18 13 q-5 12 -5 25 q2 86 -22 143 q-24 58 -101 62 l0 2 q74 19 100 82 q26 62 50 70 q11 -3 16 -27 q5 -24 36 -27 q17 0 30 11 q13 11 14 33 q0 19 -13 32 q-13 13 -41 14 q-58 -4 -80 -52 q-22 -48 -53 -90 q-16 -18 -41 -28 q-26 -10 -66 -9 l137 457 q-24 -14 -53 -20 q-28 -5 -58 -5 l-45 0 l-4 -16 l68 0 l-203 -694 Z" /><glyph glyph-name="" unicode="l" d="M54 138 q-8 -27 -13 -45 q-5 -19 -5 -32 q1 -36 23 -52 q21 -15 46 -15 q59 4 99 43 q40 38 51 59 l-12 8 q-10 -17 -40 -50 q-30 -32 -71 -36 q-13 1 -18 9 q-6 8 -6 17 q0 9 4 21 q3 12 8 27 l192 643 q-24 -14 -53 -20 q-28 -5 -58 -5 l-45 0 l-4 -16 l68 0 l-166 -556 Z" /><glyph glyph-name="" unicode="m" d="M24 0 l81 0 l64 219 q18 56 76 124 q58 67 119 73 q10 0 16 -5 q6 -5 6 -16 q1 -8 -4 -29 q-5 -21 -22 -79 l-84 -287 l81 0 l66 224 q20 56 79 121 q59 65 101 71 q20 0 29 -9 q9 -9 9 -24 q-6 -41 -47 -150 q-42 -109 -48 -165 q0 -34 15 -54 q15 -20 50 -20 q55 4 90 41 q35 37 50 63 l-10 7 q-13 -18 -40 -51 q-27 -32 -60 -36 q-12 0 -17 10 q-6 9 -6 21 q6 31 48 144 q41 113 47 158 q0 35 -23 57 q-23 23 -71 24 q-44 -1 -88 -39 q-45 -37 -84 -93 l-2 0 q5 15 7 30 q2 15 2 33 q-1 31 -21 50 q-21 19 -55 19 q-54 -2 -104 -43 q-51 -42 -82 -95 l-2 0 l41 138 q-32 -13 -64 -18 q-32 -4 -64 -4 l-21 0 l-4 -16 l62 0 l-116 -394 Z" /><glyph glyph-name="" unicode="n" d="M24 0 l80 0 l60 206 q35 102 102 156 q68 54 108 54 q20 0 29 -9 q9 -9 9 -24 q-6 -41 -47 -150 q-42 -109 -48 -165 q0 -34 15 -54 q15 -20 50 -20 q55 4 90 41 q35 37 50 63 l-10 7 q-13 -18 -40 -51 q-27 -32 -60 -36 q-12 0 -17 10 q-6 9 -6 21 q6 31 48 144 q41 113 47 158 q0 35 -23 57 q-23 23 -71 24 q-59 -2 -112 -42 q-52 -39 -86 -96 l-2 0 l41 138 q-32 -13 -64 -18 q-32 -4 -64 -4 l-21 0 l-4 -16 l62 0 l-116 -394 Z" /><glyph glyph-name="" unicode="o" d="M36 163 q0 -75 40 -124 q40 -49 122 -51 q94 3 171 81 q76 78 80 202 q-3 76 -50 118 q-47 42 -103 43 q-113 -5 -185 -88 q-73 -82 -75 -181 l0 0 ZM290 416 q43 0 65 -22 q22 -21 22 -58 q-3 -51 -30 -141 q-28 -91 -50 -131 q-6 -13 -31 -35 q-25 -23 -71 -25 q-43 1 -65 26 q-22 24 -22 61 q3 43 30 132 q27 89 45 124 q16 29 43 49 q26 19 64 20 l0 0 Z" /><glyph glyph-name="" unicode="p" d="M-119 -270 l197 0 l4 16 l-60 0 l91 321 l2 0 q8 -36 38 -57 q30 -22 78 -22 q106 5 181 87 q76 83 79 187 q-2 79 -47 124 q-44 45 -107 46 q-43 0 -80 -21 q-36 -21 -62 -57 l-2 0 l18 78 q-20 -14 -50 -18 q-30 -4 -68 -4 l-22 0 l-4 -16 l60 0 l-188 -648 l-54 0 l-4 -16 ZM413 315 q0 -79 -48 -190 q-49 -110 -144 -121 q-37 0 -66 23 q-28 22 -30 67 q0 5 2 17 q2 11 6 28 l33 114 q19 68 60 115 q41 46 105 48 q37 0 59 -24 q22 -25 23 -77 l0 0 Z" /><glyph glyph-name="" unicode="q" d="M156 -270 l201 0 l4 16 l-60 0 l201 664 l-78 0 l-17 -57 l-2 0 q-7 24 -30 50 q-24 27 -80 29 q-88 -3 -170 -80 q-83 -77 -89 -193 q1 -81 41 -126 q39 -44 99 -45 q45 2 83 29 q38 26 57 50 l2 -2 l-98 -319 l-60 0 l-4 -16 ZM114 86 q-2 82 45 200 q47 118 142 130 q59 -4 77 -39 q19 -35 17 -50 q-4 -31 -37 -126 q-33 -95 -47 -120 q-24 -33 -58 -55 q-33 -21 -70 -22 q-34 1 -51 23 q-17 22 -18 59 l0 0 Z" /><glyph glyph-name="" unicode="r" d="M31 0 l78 0 l73 248 q14 40 60 95 q45 54 84 59 q13 0 13 -10 q0 -3 -2 -9 q-3 -6 -3 -20 q0 -14 8 -25 q9 -11 30 -12 q20 0 35 13 q16 12 17 37 q0 20 -15 35 q-16 14 -49 15 q-49 -3 -94 -42 q-45 -38 -67 -78 l-2 2 l41 124 q-20 -14 -50 -18 q-31 -4 -69 -4 l-37 0 l-4 -16 l69 0 l-116 -394 Z" /><glyph glyph-name="" unicode="s" d="M108 294 q8 -75 62 -112 q54 -37 62 -95 q-1 -41 -28 -62 q-27 -21 -66 -21 q-43 1 -59 13 q-16 13 -15 24 q3 19 25 26 q21 6 24 40 q0 14 -11 28 q-11 13 -34 14 q-23 -1 -37 -18 q-14 -18 -14 -42 q-1 -30 26 -64 q26 -34 92 -37 q86 3 128 44 q41 40 41 88 q-8 90 -68 122 q-59 32 -68 89 q2 49 28 68 q25 18 57 17 q24 0 34 -6 q9 -6 9 -15 q-11 -6 -22 -18 q-10 -11 -11 -31 q0 -16 10 -29 q10 -12 32 -13 q20 0 34 12 q13 12 14 35 q0 35 -25 57 q-24 23 -71 24 q-69 -4 -109 -49 q-39 -46 -40 -89 l0 0 Z" /><glyph glyph-name="" unicode="t" d="M69 138 q-7 -21 -11 -39 q-5 -19 -5 -34 q1 -39 23 -55 q22 -16 59 -16 q57 3 103 43 q47 40 79 83 l-11 8 q-37 -53 -81 -85 q-43 -32 -69 -33 q-16 0 -23 9 q-8 8 -8 20 q0 12 2 24 q3 12 5 21 l98 310 l117 0 l5 16 l-117 0 l52 165 q-20 -15 -42 -21 q-23 -7 -48 -7 l-43 -137 l-73 0 l-5 -16 l73 0 l-80 -256 Z" /><glyph glyph-name="" unicode="u" d="M499 410 l-81 0 l-61 -190 q-31 -87 -97 -147 q-65 -60 -112 -63 q-19 0 -29 9 q-10 9 -10 25 q0 5 3 16 q2 11 7 25 l112 347 q-32 -13 -64 -18 q-32 -4 -64 -4 l-27 0 l-4 -16 l64 0 l-83 -252 q-4 -14 -10 -36 q-5 -22 -6 -36 q1 -47 27 -62 q27 -15 63 -14 q59 1 108 40 q50 38 95 99 l2 0 q-6 -19 -12 -39 q-6 -21 -6 -35 q0 -31 19 -48 q19 -17 51 -17 q49 1 80 31 q30 29 53 69 l-12 7 q-24 -37 -44 -60 q-21 -22 -47 -23 q-14 1 -21 9 q-7 8 -7 15 q0 6 2 18 q2 12 6 25 l105 325 Z" /><glyph glyph-name="" unicode="v" d="M55 124 q-3 -8 -7 -29 q-5 -20 -5 -32 q1 -34 26 -51 q25 -18 57 -18 q115 13 202 142 q87 129 91 223 q0 28 -13 50 q-13 22 -42 23 q-23 0 -36 -14 q-13 -14 -13 -37 q4 -39 34 -45 q30 -5 34 -39 q-5 -69 -76 -169 q-71 -100 -152 -110 q-17 0 -26 8 q-8 8 -8 25 q0 8 2 21 q2 12 8 31 l102 329 q-32 -13 -64 -18 q-32 -4 -64 -4 l-26 0 l-4 -16 l62 0 l-82 -270 Z" /><glyph glyph-name="" unicode="w" d="M336 179 q-4 -13 -61 -86 q-56 -73 -123 -83 q-14 0 -25 8 q-11 8 -12 22 q0 10 4 24 q4 15 12 39 l102 329 q-32 -13 -64 -18 q-32 -4 -64 -4 l-26 0 l-4 -16 l62 0 l-82 -270 q-3 -8 -7 -29 q-5 -20 -5 -32 q1 -34 26 -51 q25 -18 57 -18 q72 3 119 46 q47 43 74 87 l2 -2 q-5 -13 -8 -28 q-3 -15 -3 -29 q1 -44 29 -59 q27 -16 65 -15 q115 13 202 142 q87 129 91 223 q0 28 -13 50 q-13 22 -42 23 q-23 0 -36 -14 q-13 -14 -13 -37 q4 -39 34 -45 q30 -5 34 -39 q-5 -70 -82 -173 q-76 -103 -161 -114 q-17 0 -27 9 q-9 10 -9 27 q0 2 1 9 q2 6 4 15 l101 340 l-79 0 l-73 -231 Z" /><glyph glyph-name="" unicode="x" d="M74 311 q39 45 71 71 q32 26 63 26 q30 -1 43 -22 q12 -21 12 -50 q-2 -85 -55 -200 q-54 -115 -135 -126 q-8 0 -12 4 q-4 4 -4 9 q3 11 20 21 q17 11 17 39 q-1 16 -12 28 q-12 11 -30 12 q-23 -1 -36 -18 q-13 -18 -13 -45 q0 -34 17 -50 q17 -16 47 -16 q58 5 98 51 q40 46 53 76 l4 0 q-3 -37 10 -80 q13 -43 74 -47 q74 5 127 50 q53 45 73 73 l-11 11 q-17 -23 -56 -59 q-38 -35 -84 -39 q-24 2 -39 24 q-16 23 -16 47 q0 36 26 127 q25 90 72 148 q13 15 32 27 q19 12 39 13 q9 0 12 -5 q3 -4 3 -8 q-1 -11 -9 -19 q-9 -8 -10 -30 q0 -12 10 -23 q10 -11 28 -12 q22 1 32 16 q10 15 10 35 q-1 31 -20 47 q-18 15 -44 15 q-48 -2 -79 -33 q-32 -31 -53 -68 l-2 0 q-5 52 -33 77 q-27 24 -83 24 q-54 -2 -96 -38 q-42 -35 -72 -75 l11 -8 Z" /><glyph glyph-name="" unicode="y" d="M257 93 l-2 0 l-30 232 q-3 39 -16 72 q-12 33 -50 35 q-62 -6 -99 -59 q-38 -53 -48 -76 l14 -5 q10 19 34 56 q25 38 51 42 q14 -1 20 -17 q5 -16 7 -32 l49 -359 q-27 -53 -85 -123 q-58 -69 -119 -76 q-8 0 -13 3 q-4 2 -4 7 q1 7 9 15 q7 7 8 25 q0 24 -12 35 q-12 10 -30 10 q-20 0 -34 -15 q-13 -14 -14 -36 q1 -29 20 -45 q20 -16 52 -16 q91 5 163 99 q73 94 135 213 l115 208 q35 63 57 90 q22 27 28 26 q4 0 4 -5 q0 -7 -3 -13 q-3 -6 -3 -13 q1 -17 13 -26 q12 -9 27 -9 q19 0 31 13 q13 12 13 32 q0 27 -13 39 q-14 12 -35 12 q-38 0 -67 -38 q-30 -37 -66 -106 l-107 -195 Z" /><glyph glyph-name="" unicode="z" d="M23 43 q-18 -16 -23 -23 q-6 -7 -6 -11 q0 -6 3 -10 q4 -5 12 -5 q8 0 12 3 q3 3 3 8 q0 6 -2 8 q-2 2 -2 5 q0 6 9 9 q9 3 25 3 q40 -2 95 -18 q55 -16 92 -18 q99 3 134 42 q34 38 32 71 q0 22 -9 36 q-9 14 -26 14 q-14 0 -22 -9 q-9 -9 -9 -27 q2 -27 18 -34 q16 -7 18 -23 q-1 -10 -10 -16 q-9 -6 -21 -6 q-18 3 -62 21 q-45 18 -122 21 q-25 0 -43 -1 q-19 -1 -33 -5 l-2 2 l331 304 q10 9 15 15 q4 6 4 12 q0 6 -5 11 q-4 4 -11 4 q-7 0 -10 -5 q-4 -5 -4 -12 q0 -3 1 -5 q0 -3 0 -5 q0 -5 -14 -9 q-14 -4 -38 -4 q-40 1 -121 11 q-81 9 -121 16 q-13 -33 -26 -65 q-13 -32 -29 -63 l17 0 l22 46 l5 0 q19 -1 48 -3 q29 -2 64 -2 q32 0 70 6 q37 5 65 15 l2 -2 l-326 -302 Z" /><glyph glyph-name="" unicode="{" d="M26 -99 q-6 -21 -9 -41 q-4 -19 -4 -39 q3 -42 41 -52 q37 -10 72 -8 l8 34 q-21 -1 -49 6 q-27 6 -30 38 q0 24 7 46 q6 22 13 46 l49 172 q8 26 12 47 q4 20 4 36 q0 20 -11 35 q-10 15 -35 23 l0 2 q49 10 71 44 q21 35 37 97 l49 172 q19 72 48 104 q29 33 87 32 l8 34 q-74 2 -115 -26 q-40 -28 -63 -114 l-60 -218 q-12 -54 -36 -84 q-25 -29 -91 -42 q35 -8 52 -23 q17 -15 17 -38 q0 -13 -3 -29 q-4 -16 -9 -36 l-60 -218 Z" /><glyph glyph-name="" unicode="|" d="M106 -250 l60 0 l0 1000 l-60 0 l0 -1000 Z" /><glyph glyph-name="" unicode="}" d="M307 589 q6 22 10 41 q3 19 3 39 q-3 42 -41 52 q-37 10 -72 8 l-8 -34 q21 1 49 -5 q27 -7 30 -39 q0 -16 -7 -41 q-6 -26 -13 -51 l-49 -172 q-8 -26 -12 -47 q-4 -20 -4 -36 q0 -20 11 -35 q10 -15 35 -23 l0 -2 q-48 -10 -70 -44 q-22 -35 -38 -97 l-49 -172 q-19 -71 -48 -104 q-29 -32 -87 -32 l-8 -34 q74 -2 115 26 q40 28 63 114 l60 218 q12 54 37 84 q24 29 90 42 l0 1 q-35 7 -52 22 q-17 15 -17 38 q0 13 3 29 q4 16 9 36 l60 218 Z" /><glyph glyph-name="" unicode="~" d="M491 319 q-13 -27 -35 -47 q-22 -20 -52 -21 q-27 0 -51 8 q-24 8 -42 19 q-28 17 -56 27 q-27 10 -63 10 q-42 -1 -72 -27 q-29 -26 -51 -59 l40 -42 q13 27 35 47 q22 20 52 21 q27 0 51 -8 q24 -8 42 -19 q28 -17 56 -27 q27 -10 63 -10 q42 1 72 27 q29 26 51 59 l-40 42 Z" /><glyph glyph-name="" unicode="¡" d="M171 270 q-58 -182 -109 -289 q-52 -108 -80 -128 q14 -11 21 -31 q7 -19 7 -41 q0 -14 -3 -28 q-2 -13 -7 -29 l11 -4 q11 40 38 78 q27 37 59 55 q-1 12 -1 25 q-1 12 -1 27 q1 82 25 176 q23 95 51 185 l-11 4 ZM263 393 q0 23 -14 38 q-13 15 -37 15 q-30 -1 -46 -22 q-17 -22 -17 -50 q0 -22 15 -38 q14 -15 38 -16 q29 1 45 23 q16 22 16 50 l0 0 Z" /><glyph glyph-name="" unicode="¢" d="M221 9 q-25 9 -37 32 q-11 22 -11 53 q-2 66 36 184 q37 117 135 138 l-123 -407 ZM189 -94 l15 0 l25 84 q5 -1 9 -2 q4 0 8 0 q86 7 138 68 q53 61 63 92 l-14 5 q-8 -23 -58 -82 q-49 -60 -125 -67 q-4 0 -8 0 q-4 1 -8 2 l125 410 q19 0 25 -5 q6 -4 5 -11 q-1 -5 -5 -14 q-5 -10 -6 -30 q0 -23 12 -35 q12 -12 32 -12 q21 0 34 13 q12 13 12 38 q0 29 -28 50 q-27 20 -76 22 l24 77 l-15 0 l-24 -77 q-103 -9 -179 -90 q-77 -82 -81 -184 q3 -80 43 -119 q40 -39 83 -48 l-26 -85 Z" /><glyph glyph-name="" unicode="£" d="M81 367 l125 0 q6 -34 14 -72 q7 -39 8 -76 q0 -18 -4 -36 q-4 -19 -14 -38 q-22 11 -52 19 q-31 9 -62 9 q-73 -3 -100 -37 q-27 -34 -26 -66 q1 -42 27 -62 q25 -20 56 -20 q52 2 87 30 q35 29 65 62 q33 -37 69 -64 q36 -27 88 -28 q69 2 110 47 q41 44 59 105 l-14 5 q-13 -34 -34 -56 q-21 -22 -63 -23 q-44 2 -93 25 q-48 22 -89 41 q35 52 49 105 q14 53 13 130 l147 0 l4 16 l-151 0 q-1 12 -1 25 q-1 13 -1 27 q0 100 42 178 q41 77 123 81 q39 -2 66 -24 q27 -22 28 -45 q0 -6 -4 -12 q-5 -7 -17 -10 q-25 -5 -38 -15 q-13 -10 -13 -33 q0 -16 10 -29 q9 -12 31 -13 q28 1 44 23 q17 22 17 54 q-1 52 -38 86 q-37 33 -95 34 q-102 -2 -178 -68 q-76 -67 -80 -179 q0 -41 6 -80 l-116 0 l-5 -16 ZM-14 66 q1 39 28 61 q26 22 64 22 q30 -1 58 -16 q27 -14 48 -34 q-20 -35 -50 -64 q-30 -29 -77 -31 q-42 2 -57 22 q-15 21 -14 40 l0 0 Z" /><glyph glyph-name="" unicode="&#x2044;" d="M-151 -22 l45 0 l463 742 l-45 0 l-463 -742 Z" /><glyph glyph-name="" unicode="¥" d="M215 202 l-170 0 l-5 -16 l170 0 l-50 -170 l-82 0 l-3 -16 l264 0 l4 16 l-91 0 l49 170 l169 0 l4 16 l-168 0 l25 86 l7 9 l162 0 l4 16 l-154 0 l256 345 q10 14 21 19 q10 5 23 5 l13 0 l4 16 l-155 0 l-4 -16 l19 0 q27 0 42 -2 q16 -2 16 -12 q0 -6 -4 -13 q-5 -7 -15 -21 l-236 -321 l-6 0 l-24 369 l82 0 l4 16 l-245 0 l-4 -16 l76 0 l26 -369 l-164 0 l-4 -16 l169 0 l0 -6 l-25 -89 Z" /><glyph glyph-name="" unicode="&#x192;" d="M162 363 l84 0 l-63 -285 q-28 -138 -54 -224 q-26 -85 -74 -88 q-8 0 -12 2 q-3 3 -3 7 q1 3 5 11 q3 8 4 26 q0 15 -8 28 q-9 13 -29 14 q-19 0 -33 -12 q-13 -13 -14 -37 q1 -29 18 -46 q17 -17 42 -17 q103 11 167 157 q64 147 101 301 l43 163 l103 0 l4 16 l-104 0 l19 71 q37 133 74 189 q37 57 67 55 q3 0 6 -2 q2 -1 2 -5 q-1 -4 -6 -12 q-5 -9 -6 -25 q0 -20 10 -34 q11 -15 36 -16 q21 0 35 13 q14 13 15 35 q-1 31 -20 47 q-19 15 -45 15 q-78 -3 -148 -79 q-69 -75 -106 -184 l-22 -68 l-85 0 l-3 -16 Z" /><glyph glyph-name="" unicode="§" d="M42 245 q17 -106 139 -164 q122 -58 139 -161 q-3 -88 -60 -125 q-57 -38 -129 -37 q-52 1 -97 26 q-45 24 -48 59 q0 8 4 12 q4 4 10 4 q6 0 11 -3 q6 -3 17 -3 q17 0 32 11 q16 11 17 39 q-1 23 -15 37 q-15 15 -37 15 q-31 -1 -47 -25 q-16 -23 -16 -54 q1 -56 45 -94 q45 -38 126 -40 q119 4 180 72 q61 68 61 152 q0 34 -6 55 q-7 22 -20 40 q75 43 109 94 q34 51 33 110 q-18 106 -141 168 q-124 62 -142 152 q3 60 53 90 q49 29 104 29 q47 -1 77 -14 q30 -14 31 -35 q0 -8 -21 -8 q-21 0 -32 -13 q-12 -13 -12 -36 q0 -21 13 -34 q13 -13 34 -13 q37 2 49 23 q12 21 11 38 q-1 48 -42 78 q-42 29 -109 30 q-81 -2 -144 -54 q-63 -53 -66 -136 q0 -24 7 -46 q8 -23 24 -43 q-54 -25 -97 -77 q-43 -52 -45 -119 l0 0 ZM90 303 q2 47 33 78 q32 32 73 48 q114 -86 180 -130 q65 -45 66 -97 q-1 -39 -31 -74 q-29 -35 -71 -55 q-87 80 -166 131 q-79 50 -84 99 l0 0 Z" /><glyph glyph-name="" unicode="¤" d="M42 127 l39 -40 l68 68 q33 -29 73 -42 q40 -12 81 -12 q41 0 81 12 q40 13 73 42 l68 -68 l39 40 l-67 67 q26 33 40 73 q14 40 14 82 q0 42 -14 82 q-14 40 -40 73 l67 67 l-39 40 l-68 -68 q-34 29 -74 42 q-40 12 -80 12 q-40 0 -80 -12 q-40 -13 -74 -42 l-68 68 l-39 -40 l67 -67 q-26 -33 -40 -73 q-14 -40 -14 -82 q0 -42 14 -82 q14 -40 40 -73 l-67 -67 ZM115 349 q2 81 55 133 q52 53 133 55 q81 -2 133 -54 q53 -53 55 -134 q-2 -81 -55 -134 q-52 -52 -133 -54 q-80 2 -133 54 q-53 53 -55 134 l0 0 Z" /><glyph glyph-name="" unicode="&#39;" d="M172 450 q0 -9 3 -19 q3 -10 14 -11 q11 1 14 11 q3 10 3 19 l16 166 q2 16 2 27 q1 12 1 23 q1 21 -6 37 q-6 16 -30 17 q-24 -1 -30 -17 q-7 -16 -6 -37 q0 -11 1 -23 q1 -11 2 -27 l16 -166 Z" /><glyph glyph-name="" unicode="&#x201c;" d="M291 720 q-25 -13 -88 -65 q-63 -52 -71 -146 q0 -38 20 -63 q21 -25 59 -26 q25 1 41 17 q15 16 16 42 q0 26 -15 41 q-16 14 -40 14 q-22 -1 -31 -6 q-9 -5 -14 -6 q-4 1 -5 10 q-1 9 -1 14 q7 65 61 109 q54 44 75 55 l-7 10 ZM464 720 q-25 -13 -88 -65 q-63 -52 -71 -146 q0 -38 20 -63 q21 -25 59 -26 q25 1 41 17 q15 16 16 42 q0 26 -15 41 q-16 14 -40 14 q-22 -1 -31 -6 q-9 -5 -14 -6 q-4 1 -5 10 q-1 9 -1 14 q7 65 61 109 q54 44 75 55 l-7 10 Z" /><glyph glyph-name="" unicode="«" d="M150 65 l31 22 l-95 163 l131 141 l-28 26 l-150 -164 l111 -188 ZM283 65 l31 22 l-95 163 l131 141 l-28 26 l-150 -164 l111 -188 Z" /><glyph glyph-name="" unicode="&#x2039;" d="M161 65 l31 22 l-95 163 l131 141 l-28 26 l-150 -164 l111 -188 Z" /><glyph glyph-name="" unicode="&#x203a;" d="M228 229 l-111 188 l-31 -22 l95 -163 l-131 -141 l28 -26 l150 164 Z" /><glyph glyph-name="" unicode="&#x2013;" d="M-15 214 l500 0 l16 54 l-502 0 l-14 -54 Z" /><glyph glyph-name="" unicode="&#x2020;" d="M317 533 q0 -23 -5 -65 q-6 -41 -23 -109 q-54 3 -104 26 q-50 22 -64 25 q-4 0 -6 -3 q-2 -3 -2 -8 q0 -5 1 -11 q1 -5 2 -10 q-14 -1 -40 -7 q-25 -6 -28 -15 q2 -8 23 -14 q21 -7 38 -9 q-2 -5 -4 -12 q-2 -6 -2 -12 q0 -4 2 -6 q3 -3 5 -3 q12 3 61 22 q50 18 113 21 q-43 -138 -85 -250 q-42 -112 -90 -192 q-4 -5 -15 -20 q-11 -15 -12 -27 q0 -4 3 -7 q2 -3 8 -3 q9 0 16 7 q7 7 12 15 l2 -2 q-2 -6 -7 -29 q-4 -23 -5 -46 q0 -14 2 -22 q2 -9 9 -9 q12 5 38 46 q25 40 31 56 q3 -6 8 -11 q4 -5 10 -5 q4 0 8 3 q4 3 4 10 q1 115 26 246 q24 130 55 240 q66 -3 117 -24 q51 -22 59 -25 q5 0 8 3 q2 2 2 6 q0 5 -3 10 q-2 6 -7 13 q21 1 48 9 q27 7 30 14 q-2 10 -24 17 q-22 6 -41 8 q4 6 8 12 q4 7 4 12 q0 4 -2 6 q-1 3 -5 3 q-6 -3 -63 -24 q-58 -21 -129 -24 q62 167 101 214 q40 47 41 55 q0 9 -7 9 q-8 0 -16 -5 q-8 -4 -16 -12 l-2 3 q1 4 5 23 q4 19 4 39 q0 11 -2 18 q-2 7 -7 7 q-14 -3 -33 -33 q-20 -31 -30 -57 q-2 5 -9 14 q-8 9 -21 10 q-5 0 -7 -4 q-3 -4 -3 -10 q1 -3 8 -27 q6 -23 7 -70 l0 0 Z" /><glyph glyph-name="" unicode="&#x2021;" d="M331 526 q0 -21 -5 -50 q-5 -29 -15 -69 q-68 3 -114 24 q-45 20 -54 23 q-4 0 -6 -3 q-2 -3 -2 -6 q0 -6 3 -13 q2 -6 4 -11 q-19 0 -44 -7 q-26 -7 -28 -16 q2 -8 26 -15 q23 -8 40 -10 q-6 -4 -11 -10 q-5 -6 -5 -12 q0 -5 4 -7 q3 -1 9 -1 q8 3 56 24 q49 21 117 24 q-11 -51 -39 -138 q-28 -88 -53 -172 q-68 3 -114 24 q-46 20 -55 23 q-4 0 -5 -3 q-2 -3 -2 -6 q0 -5 3 -12 q2 -7 4 -12 q-19 0 -44 -7 q-26 -7 -28 -16 q2 -8 26 -15 q23 -8 40 -10 q-6 -4 -11 -10 q-5 -6 -5 -12 q0 -5 5 -7 q4 -1 8 -1 q8 3 56 24 q48 21 116 24 q-37 -117 -77 -164 q-41 -47 -44 -58 q1 -9 7 -9 q8 0 16 5 q8 4 16 12 l2 -3 q-1 -4 -5 -23 q-4 -20 -4 -41 q0 -11 2 -18 q2 -8 7 -8 q14 3 33 35 q20 32 30 58 q3 -5 12 -14 q9 -9 18 -10 q5 0 7 3 q3 4 3 11 q-1 16 -11 38 q-10 22 -11 73 q0 21 5 49 q4 27 14 64 q67 -3 113 -24 q45 -21 52 -24 q6 0 8 3 q2 3 2 6 q0 6 -3 13 q-2 6 -4 11 q19 0 44 7 q26 7 28 16 q-2 8 -25 16 q-24 7 -41 9 q6 4 11 10 q5 6 5 12 q0 8 -12 8 q-8 -3 -57 -23 q-48 -21 -116 -24 q24 84 50 169 q25 84 43 141 q67 -3 113 -24 q45 -21 53 -24 q5 0 7 3 q2 3 2 6 q0 6 -3 13 q-2 6 -4 11 q19 0 44 7 q26 7 28 16 q-2 8 -25 16 q-24 7 -41 9 q6 4 11 10 q5 6 5 12 q0 5 -4 7 q-3 1 -8 1 q-8 -3 -57 -23 q-48 -21 -116 -24 q37 116 77 163 q41 47 44 58 q0 9 -7 9 q-8 0 -16 -5 q-8 -4 -16 -12 l-2 3 q1 4 5 23 q4 19 4 39 q0 11 -2 18 q-2 7 -7 7 q-14 -3 -33 -33 q-20 -31 -30 -57 q-2 5 -9 14 q-8 9 -21 10 q-5 0 -7 -4 q-3 -4 -3 -10 q1 -16 12 -37 q10 -21 11 -67 l0 0 Z" /><glyph glyph-name="" unicode="·" d="M100 308 q1 -23 16 -38 q15 -15 38 -16 q23 1 38 16 q15 15 16 38 q-1 23 -16 38 q-15 15 -38 16 q-23 -1 -38 -16 q-15 -15 -16 -38 l0 0 Z" /><glyph glyph-name="" unicode="¶" d="M45 -242 l142 0 l258 930 l60 0 l-258 -930 l139 0 l4 16 l-78 0 l252 914 l80 0 l5 16 l-249 0 q-125 -1 -199 -68 q-75 -66 -77 -186 q1 -85 40 -121 q39 -37 111 -36 l-143 -519 l-83 0 l-4 -16 ZM281 313 q-48 12 -67 48 q-19 36 -18 85 q0 96 47 164 q47 67 140 73 l-102 -370 Z" /><glyph glyph-name="" unicode="&#x2022;" d="M94 352 q2 -75 52 -124 q49 -50 124 -52 q75 2 124 52 q50 49 52 124 q-2 75 -52 124 q-49 50 -124 52 q-75 -2 -124 -52 q-50 -49 -52 -124 l0 0 Z" /><glyph glyph-name="" unicode="&#x201a;" d="M12 -192 q25 13 88 65 q63 52 71 146 q0 38 -20 63 q-21 25 -59 26 q-25 0 -40 -17 q-16 -16 -17 -42 q0 -26 16 -41 q15 -14 39 -14 q22 1 31 6 q9 5 14 6 q4 -1 5 -10 q1 -9 1 -14 q-7 -65 -61 -109 q-54 -44 -75 -55 l7 -10 Z" /><glyph glyph-name="" unicode="&#x201e;" d="M163 -192 q25 13 88 65 q63 52 71 146 q0 38 -20 63 q-21 25 -59 26 q-25 0 -40 -17 q-16 -16 -17 -42 q0 -26 16 -41 q15 -14 39 -14 q22 1 31 6 q9 5 14 6 q4 -1 5 -10 q1 -9 1 -14 q-7 -65 -61 -109 q-54 -44 -75 -55 l7 -10 ZM-10 -192 q25 13 88 65 q63 52 71 146 q0 38 -20 63 q-21 25 -59 26 q-25 0 -40 -17 q-16 -16 -17 -42 q0 -26 16 -41 q15 -14 39 -14 q22 1 31 6 q9 5 14 6 q4 -1 5 -10 q1 -9 1 -14 q-7 -65 -61 -109 q-54 -44 -75 -55 l7 -10 Z" /><glyph glyph-name="" unicode="&#x201d;" d="M321 420 q25 13 88 65 q63 52 71 146 q0 38 -20 63 q-21 25 -59 26 q-25 0 -40 -17 q-16 -16 -17 -42 q0 -26 16 -41 q15 -14 39 -14 q22 1 31 6 q9 5 14 6 q4 -1 5 -10 q1 -9 1 -14 q-7 -65 -61 -109 q-54 -44 -75 -55 l7 -10 ZM148 420 q25 13 88 65 q63 52 71 146 q0 38 -20 63 q-21 25 -59 26 q-25 0 -40 -17 q-16 -16 -17 -42 q0 -26 16 -41 q15 -14 39 -14 q22 1 31 6 q9 5 14 6 q4 -1 5 -10 q1 -9 1 -14 q-7 -65 -61 -109 q-54 -44 -75 -55 l7 -10 Z" /><glyph glyph-name="" unicode="»" d="M200 65 l150 164 l-111 188 l-31 -22 l95 -163 l-131 -141 l28 -26 ZM67 65 l150 164 l-111 188 l-31 -22 l95 -163 l-131 -141 l28 -26 Z" /><glyph glyph-name="" unicode="&#x2026;" d="M48 47 q0 -23 14 -38 q13 -14 37 -15 q30 1 47 23 q16 21 16 49 q0 22 -15 38 q-14 15 -38 16 q-29 -1 -45 -23 q-16 -22 -16 -50 l0 0 ZM381 47 q0 -23 14 -38 q13 -14 37 -15 q30 1 47 23 q16 21 16 49 q0 22 -15 38 q-14 15 -38 16 q-29 -1 -45 -23 q-16 -22 -16 -50 l0 0 ZM714 47 q0 -23 14 -38 q13 -14 37 -15 q30 1 47 23 q16 21 16 49 q0 22 -15 38 q-14 15 -38 16 q-29 -1 -45 -23 q-16 -22 -16 -50 l0 0 Z" /><glyph glyph-name="" unicode="&#x2030;" d="M43 475 q0 -48 28 -85 q27 -36 78 -38 q79 5 131 77 q51 71 53 145 q0 51 -27 92 q-27 42 -77 44 q-82 -3 -133 -72 q-50 -69 -53 -163 l0 0 ZM144 600 q19 58 40 77 q21 19 44 17 q19 0 32 -12 q13 -13 13 -41 q-1 -20 -11 -69 q-11 -48 -25 -91 l-14 -41 q-16 -44 -35 -58 q-19 -15 -39 -14 q-30 1 -41 16 q-12 15 -11 37 q1 27 13 69 q12 42 21 69 l13 41 ZM656 111 q0 -48 28 -85 q27 -36 78 -38 q79 5 131 77 q51 71 53 145 q0 51 -27 92 q-27 42 -77 44 q-82 -3 -133 -72 q-50 -69 -53 -163 l0 0 ZM757 236 q19 58 40 77 q21 19 44 17 q19 0 32 -12 q13 -13 13 -41 q-1 -20 -11 -69 q-11 -48 -25 -91 l-14 -41 q-16 -44 -35 -58 q-19 -15 -39 -14 q-30 1 -41 16 q-12 15 -11 37 q1 27 13 69 q12 42 21 69 l13 41 ZM330 111 q0 -48 28 -85 q27 -36 78 -38 q79 5 131 77 q51 71 53 145 q0 51 -27 92 q-27 42 -77 44 q-82 -3 -133 -72 q-50 -69 -53 -163 l0 0 ZM431 236 q19 58 40 77 q21 19 44 17 q19 0 32 -12 q13 -13 13 -41 q-1 -20 -11 -69 q-11 -48 -25 -91 l-14 -41 q-16 -44 -35 -58 q-19 -15 -39 -14 q-30 1 -41 16 q-12 15 -11 37 q1 27 13 69 q12 42 21 69 l13 41 ZM83 -22 l45 0 l463 742 l-45 0 l-463 -742 Z" /><glyph glyph-name="" unicode="¿" d="M243 265 l-24 -64 q-12 -34 -22 -48 q-10 -14 -29 -23 l-126 -65 q-51 -24 -90 -64 q-38 -41 -40 -112 q2 -75 43 -114 q42 -39 104 -39 q66 2 106 38 q39 36 40 86 q0 21 -10 39 q-11 18 -35 19 q-21 0 -34 -13 q-13 -12 -13 -32 q1 -21 14 -29 q12 -9 20 -9 q13 -2 17 -6 q5 -5 5 -10 q-1 -28 -31 -50 q-30 -22 -75 -23 q-49 0 -87 28 q-38 27 -40 79 q6 66 71 99 q65 34 117 53 q26 10 42 31 q16 22 40 92 l47 133 l-10 4 ZM331 393 q0 23 -14 38 q-13 15 -37 15 q-30 -1 -46 -22 q-17 -22 -17 -50 q0 -22 15 -38 q14 -15 38 -16 q29 1 45 23 q16 22 16 50 l0 0 Z" /><glyph glyph-name="" unicode="`" d="M249 516 l29 0 l-120 152 q-6 9 -14 13 q-8 4 -20 4 q-12 -1 -21 -10 q-9 -10 -9 -22 q0 -10 7 -18 q6 -7 12 -13 l136 -106 Z" /><glyph glyph-name="" unicode="´" d="M148 516 l31 0 l154 96 q10 5 21 16 q11 10 12 24 q0 15 -9 24 q-9 9 -22 9 q-14 -1 -28 -12 q-15 -12 -27 -25 l-132 -132 Z" /><glyph glyph-name="" unicode="&#x2c6;" d="M50 516 l37 0 l135 107 l82 -107 l33 0 l-88 169 l-38 0 l-161 -169 Z" /><glyph glyph-name="" unicode="&#x2dc;" d="M357 642 q-6 -20 -20 -34 q-14 -13 -35 -14 q-16 1 -33 8 q-16 8 -30 16 q-17 10 -35 17 q-19 7 -39 7 q-45 -1 -71 -31 q-26 -30 -37 -71 l26 0 q6 20 20 34 q14 13 35 14 q16 -1 33 -8 q16 -8 30 -16 q17 -10 36 -17 q18 -7 38 -7 q45 2 71 32 q26 30 37 70 l-26 0 Z" /><glyph glyph-name="" unicode="¯" d="M87 557 l259 0 l8 48 l-259 0 l-8 -48 Z" /><glyph glyph-name="" unicode="&#x2d8;" d="M82 677 q-1 -68 28 -113 q30 -46 102 -48 q72 2 113 48 q41 47 55 113 l-24 0 q-16 -46 -52 -73 q-36 -27 -85 -28 q-49 0 -76 27 q-27 26 -31 74 l-30 0 Z" /><glyph glyph-name="" unicode="&#x2d9;" d="M186 581 q0 -18 7 -31 q7 -13 27 -14 q26 2 41 26 q15 24 15 48 q0 18 -10 26 q-11 8 -28 8 q-20 -2 -35 -23 q-16 -22 -17 -40 l0 0 Z" /><glyph glyph-name="" unicode="¨" d="M92 581 q0 -18 7 -31 q7 -13 27 -14 q26 2 41 26 q15 24 15 48 q0 18 -10 26 q-11 8 -28 8 q-20 -2 -35 -23 q-16 -22 -17 -40 l0 0 ZM281 581 q0 -18 7 -31 q7 -13 27 -14 q26 2 41 26 q15 24 15 48 q0 18 -10 26 q-11 8 -28 8 q-20 -2 -35 -23 q-16 -22 -17 -40 l0 0 Z" /><glyph glyph-name="" unicode="&#x2da;" d="M133 596 q1 -41 29 -68 q28 -28 68 -29 q40 1 68 29 q28 27 29 68 q-1 41 -29 68 q-28 28 -68 29 q-40 -1 -68 -29 q-28 -27 -29 -68 l0 0 ZM163 596 q1 29 20 48 q19 18 47 19 q28 -1 47 -19 q19 -19 20 -48 q-1 -29 -20 -48 q-19 -18 -47 -19 q-28 1 -47 19 q-19 19 -20 48 l0 0 Z" /><glyph glyph-name="" unicode="¸" d="M39 -93 l7 -10 q18 6 38 6 q20 0 34 -10 q13 -11 14 -29 q-2 -31 -24 -43 q-22 -12 -46 -11 q-23 0 -39 3 q-16 2 -32 7 l-14 -13 q21 -10 45 -15 q24 -6 56 -6 q44 -1 81 14 q37 16 39 66 q-1 32 -22 49 q-21 18 -48 18 q-14 0 -27 -1 q-13 -2 -24 -7 l-2 2 l50 73 l-24 0 l-62 -93 Z" /><glyph glyph-name="" unicode="&#x2dd;" d="M48 516 l31 0 l154 96 q10 5 21 16 q11 10 12 24 q0 15 -9 24 q-9 9 -22 9 q-14 -1 -28 -12 q-15 -12 -27 -25 l-132 -132 ZM248 516 l31 0 l154 96 q10 5 21 16 q11 10 12 24 q0 15 -9 24 q-9 9 -22 9 q-14 -1 -28 -12 q-15 -12 -27 -25 l-132 -132 Z" /><glyph glyph-name="" unicode="&#x2db;" d="M140 -154 q-13 -10 -28 -17 q-14 -7 -31 -7 q-20 0 -31 10 q-11 10 -11 27 q4 49 45 86 q41 37 71 55 l-17 0 q-37 -14 -97 -55 q-61 -40 -68 -104 q0 -22 13 -38 q14 -16 43 -17 q37 1 65 15 q29 14 50 31 l-4 14 Z" /><glyph glyph-name="" unicode="&#x2c7;" d="M337 685 l-37 0 l-135 -107 l-82 107 l-33 0 l88 -169 l38 0 l161 169 Z" /><glyph glyph-name="" unicode="&#x2014;" d="M-15 214 l1000 0 l16 54 l-1000 0 l-16 -54 Z" /><glyph glyph-name="" unicode="æ" d="M-79 0 l157 0 l4 16 l-50 0 q-16 0 -22 4 q-5 4 -5 7 q0 2 1 4 q1 3 4 7 l174 214 l217 0 l-67 -236 l-77 0 l-4 -16 l541 0 l47 216 l-16 0 q-24 -117 -95 -160 q-71 -42 -173 -40 l-121 0 l100 357 l72 0 q33 -1 45 -17 q13 -16 12 -34 q0 -12 -5 -36 q-5 -25 -12 -51 l16 0 l61 265 l-16 0 q-17 -78 -42 -96 q-26 -18 -85 -15 l-42 0 l84 299 l133 0 q52 2 93 -19 q42 -21 44 -94 q0 -12 -1 -27 q-2 -16 -5 -33 l16 0 l31 189 l-497 0 l-4 -16 l84 0 l-538 -657 q-10 -11 -27 -13 q-17 -2 -29 -2 l-3 -16 ZM405 268 l-209 0 l326 406 l2 -2 l-119 -404 Z" /><glyph glyph-name="" unicode="ª" d="M183 501 q0 43 28 117 q28 74 91 82 q30 -1 43 -18 q13 -17 13 -35 q0 -9 -7 -31 q-7 -21 -19 -58 q-13 -43 -39 -73 q-25 -30 -66 -31 q-44 0 -44 47 l0 0 ZM438 700 l-50 0 l-12 -40 l-2 0 q-3 15 -18 32 q-16 17 -52 18 q-68 -2 -123 -47 q-55 -46 -58 -117 q0 -43 26 -72 q27 -29 77 -30 q33 1 58 18 q25 16 37 36 l2 0 q-1 -16 7 -34 q8 -18 40 -20 q32 3 52 26 q20 23 27 34 l-7 6 q-7 -11 -25 -29 q-17 -19 -35 -21 q-8 0 -13 4 q-4 3 -4 9 q0 8 3 17 q3 9 5 16 l65 194 Z" /><glyph glyph-name="" unicode="&#x141;" d="M-34 0 l544 0 l81 259 l-15 4 q-40 -129 -111 -188 q-71 -60 -192 -59 l-125 0 l97 346 l218 117 l13 29 l-224 -120 l84 300 l83 0 l4 16 l-274 0 l-4 -16 l90 0 l-102 -364 l-88 -47 l-13 -29 l94 50 l-79 -282 l-77 0 l-4 -16 Z" /><glyph glyph-name="" unicode="ø" d="M184 81 q-14 35 -14 87 q1 60 22 159 q21 99 55 182 q32 83 84 138 q52 55 139 57 q30 1 62 -11 q32 -11 54 -44 l-402 -568 ZM596 630 q17 -34 17 -91 q0 -58 -24 -165 q-24 -107 -65 -206 q-35 -82 -84 -125 q-50 -43 -117 -43 q-40 -1 -74 13 q-34 14 -56 50 l403 567 ZM110 -24 l14 -10 l49 69 q27 -22 65 -36 q39 -14 88 -15 q163 11 268 156 q105 144 109 290 q-1 80 -25 137 q-24 56 -62 91 l51 71 l-17 9 l-49 -67 q-37 30 -72 40 q-36 10 -58 9 q-184 -12 -290 -161 q-105 -148 -107 -285 q1 -80 24 -137 q23 -57 62 -90 l-50 -71 Z" /><glyph glyph-name="" unicode="&#x152;" d="M420 16 q-23 -1 -45 -3 q-23 -3 -46 -3 q-77 0 -115 43 q-38 43 -38 126 q-6 96 60 294 q66 198 272 221 q29 0 55 -3 q26 -2 51 -3 l-194 -672 ZM619 373 l47 0 q33 -1 45 -17 q13 -16 12 -34 q0 -12 -5 -36 q-5 -25 -12 -51 l16 0 l61 265 l-16 0 q-17 -78 -42 -96 q-26 -18 -85 -15 l-16 0 l86 299 l105 0 q52 2 93 -19 q42 -21 44 -94 q0 -12 -1 -27 q-2 -16 -5 -33 l16 0 l31 189 l-371 0 q-15 0 -31 1 q-15 1 -31 2 q-16 2 -33 2 q-18 1 -37 1 q-232 -17 -326 -178 q-93 -161 -90 -258 q9 -180 98 -233 q88 -53 144 -47 q12 0 25 1 q12 1 25 2 q26 3 49 3 l437 0 l47 216 l-16 0 q-24 -117 -95 -160 q-71 -42 -173 -40 l-97 0 l101 357 Z" /><glyph glyph-name="" unicode="º" d="M225 444 q66 1 116 48 q50 47 53 122 q-2 45 -33 71 q-32 25 -73 25 q-78 -3 -126 -52 q-48 -50 -49 -109 q0 -45 27 -74 q27 -30 85 -31 l0 0 ZM173 501 q1 27 16 81 q14 54 28 77 q11 17 27 29 q16 12 41 12 q25 0 37 -13 q12 -12 12 -34 q-1 -31 -17 -85 q-16 -54 -31 -80 q-6 -11 -19 -22 q-13 -11 -44 -12 q-25 0 -38 13 q-12 12 -12 34 l0 0 Z" /><glyph glyph-name="" unicode="æ" d="M367 354 l-2 3 q-7 37 -29 56 q-22 19 -60 19 q-76 -3 -155 -83 q-79 -80 -85 -198 q0 -57 32 -108 q32 -51 92 -55 q39 2 74 33 q35 30 56 68 l2 0 q5 -57 47 -79 q42 -23 83 -22 q72 2 122 40 q50 37 74 81 l-11 8 q-28 -41 -67 -72 q-40 -31 -95 -33 q-34 1 -54 20 q-20 19 -21 51 q1 23 14 69 q12 46 20 73 q10 -4 31 -9 q21 -5 50 -5 q78 2 120 40 q42 39 42 88 q-1 44 -27 68 q-27 25 -71 25 q-30 0 -55 -13 q-25 -13 -40 -36 l-2 0 l12 37 l-77 0 l-20 -66 ZM108 76 q0 65 45 195 q44 130 126 145 q40 -1 59 -25 q18 -24 18 -64 q0 -16 -12 -51 q-12 -36 -34 -98 q-24 -71 -60 -121 q-37 -51 -84 -53 q-40 2 -50 26 q-10 23 -8 46 l0 0 ZM541 416 q20 0 30 -12 q10 -12 10 -33 q1 -58 -24 -100 q-25 -42 -86 -44 q-19 0 -35 5 q-15 4 -27 10 q13 47 42 108 q28 60 90 66 l0 0 Z" /><glyph glyph-name="" unicode="&#x131;" d="M72 394 l64 0 l-85 -273 q-5 -16 -9 -31 q-4 -15 -4 -29 q1 -36 23 -52 q21 -15 46 -15 q59 4 99 43 q40 38 51 59 l-12 8 q-10 -17 -40 -50 q-30 -32 -71 -36 q-13 1 -18 9 q-6 8 -6 17 q0 12 5 29 q5 17 11 33 l104 326 q-32 -13 -64 -18 q-32 -4 -64 -4 l-27 0 l-3 -16 Z" /><glyph glyph-name="" unicode="&#x142;" d="M41 301 l74 39 l-61 -202 q-8 -27 -13 -45 q-5 -19 -5 -32 q1 -36 23 -52 q21 -15 46 -15 q59 4 99 43 q40 38 51 59 l-12 8 q-10 -17 -40 -50 q-30 -32 -71 -36 q-13 1 -18 9 q-6 8 -6 17 q0 9 4 21 q3 12 8 27 l89 298 l82 43 l7 25 l-81 -43 l95 320 q-24 -14 -53 -20 q-28 -5 -58 -5 l-45 0 l-4 -16 l68 0 l-98 -329 l-74 -39 l-7 -25 Z" /><glyph glyph-name="" unicode="ø" d="M113 52 q-5 14 -5 32 q3 51 30 140 q27 88 45 123 q16 29 43 49 q26 19 64 20 q26 0 44 -8 q18 -8 29 -23 l-250 -333 ZM372 369 q5 -15 5 -33 q-3 -51 -30 -141 q-28 -91 -50 -131 q-6 -13 -31 -35 q-25 -23 -71 -25 q-26 0 -44 8 q-18 8 -28 23 l249 334 ZM57 -23 l13 -12 l36 48 q18 -12 41 -18 q23 -7 51 -7 q94 3 171 81 q76 78 80 202 q0 41 -16 73 q-16 31 -42 51 l37 50 l-13 10 l-37 -50 q-18 13 -39 20 q-22 7 -43 7 q-113 -5 -185 -88 q-73 -82 -75 -181 q0 -43 14 -79 q14 -36 42 -60 l-35 -47 Z" /><glyph glyph-name="" unicode="&#x153;" d="M607 117 q-12 -23 -51 -65 q-40 -43 -105 -48 q-34 1 -49 24 q-15 23 -15 57 q1 35 9 77 q8 43 15 61 q13 -5 31 -8 q19 -4 43 -4 q78 2 120 40 q42 39 42 88 q-1 44 -27 68 q-27 25 -71 25 q-44 -1 -79 -24 q-34 -23 -61 -56 q-20 37 -51 58 q-30 22 -76 22 q-103 -5 -173 -88 q-70 -82 -73 -181 q0 -75 38 -124 q37 -49 109 -52 q46 1 83 21 q37 20 67 56 q15 -30 43 -53 q28 -22 67 -23 q75 5 120 49 q44 44 56 71 l-12 9 ZM108 84 q3 51 30 140 q27 88 45 123 q16 29 39 49 q22 19 59 20 q38 -1 53 -20 q16 -20 15 -48 q-2 -56 -24 -140 q-22 -84 -38 -122 q-14 -33 -40 -57 q-27 -24 -65 -25 q-33 1 -53 23 q-20 22 -21 57 l0 0 ZM581 371 q1 -58 -24 -100 q-25 -42 -86 -44 q-14 0 -29 4 q-14 3 -28 8 q14 53 44 113 q29 59 83 64 q20 0 30 -12 q10 -12 10 -33 l0 0 Z" /><glyph glyph-name="" unicode="ß" d="M244 561 q16 62 57 112 q41 50 109 53 q41 -1 68 -26 q28 -25 29 -68 q-16 -118 -124 -174 q-108 -56 -122 -146 q12 -68 87 -104 q74 -36 85 -99 q-2 -46 -41 -72 q-39 -27 -85 -27 q-32 1 -53 15 q-21 14 -22 24 q3 15 26 25 q22 10 25 46 q0 19 -13 33 q-13 14 -33 15 q-28 -1 -42 -22 q-14 -20 -14 -42 q2 -50 38 -79 q37 -30 91 -31 q92 4 138 55 q45 52 45 109 q-10 73 -83 117 q-73 43 -83 84 q14 68 110 114 q97 46 112 145 q0 43 -35 82 q-34 39 -100 42 q-106 -1 -184 -87 q-78 -86 -117 -247 l-117 -498 q-21 -86 -48 -119 q-26 -34 -51 -33 q-6 0 -8 3 q-3 2 -3 9 q1 8 5 17 q4 8 5 25 q0 18 -11 29 q-10 11 -28 11 q-21 -1 -33 -16 q-12 -14 -12 -34 q0 -27 17 -43 q17 -17 47 -17 q89 8 148 126 q59 119 96 258 l124 435 Z" /><glyph glyph-name="" unicode="¬" d="M493 108 l60 0 l0 273 l-506 0 l0 -60 l446 0 l0 -213 Z" /><glyph glyph-name="" unicode="µ" d="M499 410 l-81 0 l-61 -190 q-31 -87 -97 -147 q-65 -60 -112 -63 q-19 0 -29 9 q-10 9 -10 25 q0 5 3 16 q2 11 7 25 l112 347 q-32 -13 -64 -18 q-32 -4 -64 -4 l-27 0 l-4 -16 l64 0 l-129 -394 q-39 -113 -60 -160 q-21 -48 -21 -76 q1 -17 11 -26 q10 -8 23 -8 q28 -1 44 16 q16 16 23 57 q8 44 23 102 q15 57 35 103 q8 -7 17 -10 q9 -4 25 -4 q59 1 108 40 q50 38 95 99 l2 0 q-6 -19 -12 -39 q-6 -21 -6 -35 q0 -31 19 -48 q19 -17 51 -17 q49 1 80 31 q30 29 53 69 l-12 7 q-24 -37 -44 -60 q-21 -22 -47 -23 q-14 1 -21 9 q-7 8 -7 15 q0 6 2 18 q2 12 6 25 l105 325 Z" /><glyph glyph-name="" unicode="&#x2122;" d="M287 688 l49 0 q31 -1 51 -22 q19 -21 20 -50 l16 0 l0 88 l-338 0 l0 -88 l16 0 q1 29 20 50 q20 21 51 22 l49 0 l0 -313 q0 -35 -4 -47 q-5 -13 -20 -12 l-26 0 l0 -16 l166 0 l0 16 l-20 0 q-18 -1 -24 12 q-6 12 -6 47 l0 313 ZM716 300 l9 0 l155 308 l2 0 l0 -233 q0 -35 -5 -47 q-5 -13 -21 -12 l-24 0 l0 -16 l166 0 l0 16 l-24 0 q-16 -1 -21 12 q-5 12 -5 47 l0 253 q0 27 7 44 q8 16 28 16 l22 0 l0 16 l-101 0 l-164 -315 l-157 315 l-115 0 l0 -16 l13 0 q20 -1 37 -17 q17 -16 18 -36 l0 -252 q1 -31 -6 -49 q-6 -18 -30 -18 l-16 0 l0 -16 l130 0 l0 16 l-14 0 q-25 0 -33 18 q-8 18 -7 49 l0 225 l2 0 l154 -308 Z" /><glyph glyph-name="" unicode="ð" d="M-34 0 l358 0 q170 8 274 140 q103 132 106 295 q1 99 -60 181 q-61 83 -196 88 l-299 0 l-4 -16 l90 0 l-81 -288 l-83 0 l-6 -24 l83 0 l-101 -360 l-77 0 l-4 -16 ZM249 376 l179 0 l6 24 l-179 0 l81 288 l102 0 q76 2 123 -36 q46 -39 47 -138 q1 -93 -67 -284 q-68 -192 -223 -214 l-170 0 l101 360 Z" /><glyph glyph-name="" unicode="½" d="M720 54 l-224 0 q70 71 184 117 q114 47 126 149 q-2 56 -43 81 q-41 25 -100 25 q-56 0 -94 -27 q-38 -27 -39 -79 q0 -20 9 -40 q9 -20 31 -21 q14 1 19 9 q5 8 5 15 q-2 23 -20 35 q-17 12 -20 31 q1 29 28 45 q27 16 68 16 q37 1 63 -16 q26 -18 27 -59 q0 -51 -18 -86 q-19 -35 -49 -61 q-41 -32 -112 -70 q-71 -39 -109 -118 l259 0 l47 80 l-9 3 l-29 -29 ZM143 300 l-64 0 l-4 -16 l193 0 l3 16 l-66 0 l133 410 q-47 -29 -109 -61 q-63 -32 -113 -52 l3 -13 q37 13 71 29 q35 16 68 35 l-115 -348 ZM154 -22 l45 0 l463 742 l-45 0 l-463 -742 Z" /><glyph glyph-name="" unicode="±" d="M270 332 l-223 0 l0 -60 l223 0 l0 -174 l60 0 l0 174 l223 0 l0 60 l-223 0 l0 174 l-60 0 l0 -174 ZM47 0 l506 0 l0 60 l-506 0 l0 -60 Z" /><glyph glyph-name="" unicode="þ" d="M-34 0 l265 0 l4 16 l-87 0 l55 198 l123 0 q102 -1 189 50 q87 50 93 167 q1 67 -43 113 q-44 46 -151 48 l-105 0 l27 96 l83 0 l4 16 l-274 0 l-4 -16 l90 0 l-188 -672 l-77 0 l-4 -16 ZM305 576 l82 0 q75 0 95 -29 q21 -29 18 -85 q2 -74 -41 -150 q-43 -76 -149 -82 l-102 0 l97 346 Z" /><glyph glyph-name="" unicode="¼" d="M441 124 l197 0 l-36 -108 l-62 0 l-4 -16 l181 0 l4 16 l-59 0 l36 108 l80 0 l11 42 l-79 0 l60 169 l-72 -36 l-48 -133 l-151 0 l264 266 l-9 6 l-313 -314 ZM143 300 l-64 0 l-4 -16 l193 0 l3 16 l-66 0 l133 410 q-47 -29 -109 -61 q-63 -32 -113 -52 l3 -13 q37 13 71 29 q35 16 68 35 l-115 -348 ZM198 -22 l45 0 l463 742 l-45 0 l-463 -742 Z" /><glyph glyph-name="" unicode="÷" d="M240 46 q1 -25 18 -42 q17 -17 42 -18 q25 1 42 19 q17 18 18 41 q-1 25 -18 42 q-17 17 -42 18 q-25 -1 -42 -18 q-17 -17 -18 -42 l0 0 ZM240 460 q1 -25 18 -42 q17 -17 42 -18 q25 1 42 19 q17 18 18 41 q-1 25 -18 42 q-17 17 -42 18 q-25 -1 -42 -18 q-17 -17 -18 -42 l0 0 ZM47 223 l506 0 l0 60 l-506 0 l0 -60 Z" /><glyph glyph-name="" unicode="¦" d="M106 -175 l60 0 l0 350 l-60 0 l0 -350 ZM106 325 l60 0 l0 350 l-60 0 l0 -350 Z" /><glyph glyph-name="" unicode="°" d="M143 567 q1 43 31 74 q30 31 76 33 q46 -2 76 -33 q30 -31 31 -74 q-1 -43 -31 -74 q-30 -31 -76 -33 q-46 2 -76 33 q-30 31 -31 74 l0 0 ZM107 567 q1 -63 42 -102 q40 -40 101 -41 q61 1 102 41 q40 39 41 102 q-1 63 -41 102 q-41 40 -102 41 q-61 -1 -101 -41 q-41 -39 -42 -102 l0 0 Z" /><glyph glyph-name="" unicode="þ" d="M-119 -270 l197 0 l4 16 l-60 0 l91 321 l2 0 q8 -36 38 -57 q30 -22 78 -22 q106 5 181 87 q76 83 79 187 q-2 79 -47 124 q-44 45 -107 46 q-43 0 -80 -21 q-36 -21 -62 -57 l-2 0 l107 381 q-24 -14 -53 -20 q-28 -5 -58 -5 l-45 0 l-4 -16 l68 0 l-269 -948 l-54 0 l-4 -16 ZM413 315 q0 -79 -48 -190 q-49 -110 -144 -121 q-37 0 -66 23 q-28 22 -30 67 q0 5 2 17 q2 11 6 28 l33 114 q19 68 60 115 q41 46 105 48 q37 0 59 -24 q22 -25 23 -77 l0 0 Z" /><glyph glyph-name="" unicode="¾" d="M159 507 q17 0 35 0 q17 -1 36 -3 q19 -1 42 -14 q23 -13 25 -50 q0 -52 -25 -98 q-24 -45 -74 -48 q-48 1 -77 12 q-29 11 -30 26 q2 20 17 18 q14 -1 22 -3 q12 0 21 9 q9 8 9 19 q0 14 -9 22 q-9 9 -24 9 q-22 -1 -37 -16 q-14 -15 -15 -39 q1 -37 33 -55 q32 -18 85 -18 q65 1 116 39 q51 38 54 101 q-1 48 -32 71 q-32 23 -85 25 l0 2 q44 2 98 28 q53 25 58 76 q-2 48 -40 69 q-39 21 -88 21 q-39 0 -75 -18 q-37 -18 -40 -58 q0 -13 6 -25 q7 -13 23 -14 q14 0 26 8 q11 7 12 19 q-3 25 -21 27 q-19 2 -22 9 q1 11 22 23 q22 12 58 13 q32 1 52 -10 q20 -11 21 -43 q0 -23 -9 -51 q-9 -29 -28 -45 q-24 -18 -66 -20 q-42 -3 -70 -2 l-4 -16 ZM441 124 l197 0 l-36 -108 l-62 0 l-4 -16 l181 0 l4 16 l-59 0 l36 108 l80 0 l11 42 l-79 0 l60 169 l-72 -36 l-48 -133 l-151 0 l264 266 l-9 6 l-313 -314 ZM211 -22 l45 0 l463 742 l-45 0 l-463 -742 Z" /><glyph glyph-name="" unicode="®" d="M425 720 q-156 -4 -260 -108 q-104 -104 -108 -260 q4 -156 108 -260 q104 -104 260 -108 q157 4 261 108 q103 104 107 260 q-4 156 -107 260 q-104 104 -261 108 l0 0 ZM425 672 q133 -4 222 -95 q89 -92 92 -225 q-3 -134 -92 -225 q-89 -91 -222 -95 q-133 4 -222 95 q-89 91 -92 225 q3 133 92 225 q89 91 222 95 l0 0 ZM250 160 l172 0 l0 16 l-23 0 q-18 -1 -24 9 q-6 10 -6 43 l0 107 l53 0 q57 -81 86 -128 q29 -46 55 -47 l65 0 l0 16 q-19 2 -42 27 q-22 26 -45 56 l-56 83 q39 10 60 39 q22 28 22 71 q-2 54 -39 78 q-38 23 -89 23 l-189 0 l0 -16 l23 0 q18 1 24 -9 q6 -10 6 -43 l0 -257 q0 -33 -6 -43 q-6 -10 -24 -9 l-23 0 l0 -16 ZM369 537 l48 0 q34 0 59 -19 q24 -20 25 -65 q0 -46 -20 -74 q-20 -27 -61 -28 l-51 0 l0 186 Z" /><glyph glyph-name="" unicode="&#x2212;" d="M47 223 l506 0 l0 60 l-506 0 l0 -60 Z" /><glyph glyph-name="" unicode="ð" d="M193 572 l10 -18 l108 54 q23 -33 43 -89 q20 -57 23 -121 l-2 0 q-14 15 -35 25 q-20 9 -44 9 q-113 -5 -185 -88 q-73 -82 -75 -181 q0 -75 40 -124 q40 -49 122 -51 q101 1 174 92 q74 91 77 256 q-3 122 -39 191 q-36 69 -63 99 l97 49 l-10 18 l-103 -52 q-23 24 -48 45 q-26 22 -55 38 l-12 -12 q23 -17 46 -40 q24 -22 39 -46 l-108 -54 ZM108 84 q3 51 30 140 q27 88 45 123 q16 29 43 49 q26 19 64 20 q43 0 65 -22 q22 -21 22 -58 q-2 -51 -30 -142 q-28 -90 -52 -133 q-9 -18 -30 -37 q-22 -18 -70 -20 q-43 0 -65 22 q-22 21 -22 58 l0 0 Z" /><glyph glyph-name="" unicode="×" d="M259 253 l-186 -186 l41 -41 l185 187 l187 -187 l41 41 l-187 186 l187 186 l-41 41 l-187 -187 l-185 187 l-41 -41 l186 -186 Z" /><glyph glyph-name="" unicode="©" d="M425 720 q-156 -4 -260 -108 q-104 -104 -108 -260 q4 -156 108 -260 q104 -104 260 -108 q157 4 261 108 q103 104 107 260 q-4 156 -107 260 q-104 104 -261 108 l0 0 ZM425 672 q133 -4 222 -95 q89 -92 92 -225 q-3 -134 -92 -225 q-89 -91 -222 -95 q-133 4 -222 95 q-89 91 -92 225 q3 133 92 225 q89 91 222 95 l0 0 ZM608 261 l-15 0 q-14 -37 -46 -66 q-33 -28 -89 -30 q-86 2 -127 58 q-41 55 -40 142 q1 80 40 131 q40 51 119 53 q66 -2 96 -33 q30 -30 29 -66 l16 0 l0 74 q0 7 -6 13 q-7 5 -19 9 q-20 7 -45 13 q-25 6 -67 6 q-121 -4 -178 -69 q-57 -65 -57 -136 q3 -112 68 -162 q65 -50 160 -49 q39 0 69 6 q30 6 46 12 q12 4 19 8 q8 4 10 12 l17 74 Z" /><glyph glyph-name="" unicode="á" d="M-65 0 l166 0 l4 16 l-31 0 q-26 0 -36 4 q-9 3 -9 9 q0 4 3 10 q2 5 9 15 l123 198 l218 0 l7 -236 l-87 0 l-4 -16 l245 0 l3 16 l-60 0 l-22 722 l-14 0 l-436 -690 q-14 -22 -28 -27 q-13 -6 -24 -5 l-24 0 l-3 -16 ZM382 268 l-206 0 l198 317 l2 0 l6 -317 ZM405 768 l31 0 l154 96 q10 5 21 16 q11 10 12 24 q0 15 -9 24 q-9 9 -22 9 q-14 -1 -28 -12 q-15 -12 -27 -25 l-132 -132 Z" /><glyph glyph-name="" unicode="â" d="M-65 0 l166 0 l4 16 l-31 0 q-26 0 -36 4 q-9 3 -9 9 q0 4 3 10 q2 5 9 15 l123 198 l218 0 l7 -236 l-87 0 l-4 -16 l245 0 l3 16 l-60 0 l-22 722 l-14 0 l-436 -690 q-14 -22 -28 -27 q-13 -6 -24 -5 l-24 0 l-3 -16 ZM382 268 l-206 0 l198 317 l2 0 l6 -317 ZM325 768 l37 0 l135 107 l82 -107 l33 0 l-88 169 l-38 0 l-161 -169 Z" /><glyph glyph-name="" unicode="ä" d="M-65 0 l166 0 l4 16 l-31 0 q-26 0 -36 4 q-9 3 -9 9 q0 4 3 10 q2 5 9 15 l123 198 l218 0 l7 -236 l-87 0 l-4 -16 l245 0 l3 16 l-60 0 l-22 722 l-14 0 l-436 -690 q-14 -22 -28 -27 q-13 -6 -24 -5 l-24 0 l-3 -16 ZM382 268 l-206 0 l198 317 l2 0 l6 -317 ZM349 833 q0 -18 7 -31 q7 -13 27 -14 q26 2 41 26 q15 24 15 48 q0 18 -10 26 q-11 8 -28 8 q-20 -2 -35 -23 q-16 -22 -17 -40 l0 0 ZM538 833 q0 -18 7 -31 q7 -13 27 -14 q26 2 41 26 q15 24 15 48 q0 18 -10 26 q-11 8 -28 8 q-20 -2 -35 -23 q-16 -22 -17 -40 l0 0 Z" /><glyph glyph-name="" unicode="à" d="M-65 0 l166 0 l4 16 l-31 0 q-26 0 -36 4 q-9 3 -9 9 q0 4 3 10 q2 5 9 15 l123 198 l218 0 l7 -236 l-87 0 l-4 -16 l245 0 l3 16 l-60 0 l-22 722 l-14 0 l-436 -690 q-14 -22 -28 -27 q-13 -6 -24 -5 l-24 0 l-3 -16 ZM382 268 l-206 0 l198 317 l2 0 l6 -317 ZM506 748 l29 0 l-120 152 q-6 9 -14 13 q-8 4 -20 4 q-12 -1 -21 -10 q-9 -10 -9 -22 q0 -10 7 -18 q6 -7 12 -13 l136 -106 Z" /><glyph glyph-name="" unicode="å" d="M-65 0 l166 0 l4 16 l-31 0 q-26 0 -36 4 q-9 3 -9 9 q0 4 3 10 q2 5 9 15 l123 198 l218 0 l7 -236 l-87 0 l-4 -16 l245 0 l3 16 l-60 0 l-22 722 l-14 0 l-436 -690 q-14 -22 -28 -27 q-13 -6 -24 -5 l-24 0 l-3 -16 ZM382 268 l-206 0 l198 317 l2 0 l6 -317 ZM378 848 q1 -41 29 -68 q28 -28 68 -29 q40 1 68 29 q28 27 29 68 q-1 41 -29 68 q-28 28 -68 29 q-40 -1 -68 -29 q-28 -27 -29 -68 l0 0 ZM408 848 q1 29 20 48 q19 18 47 19 q28 -1 47 -19 q19 -19 20 -48 q-1 -29 -20 -48 q-19 -18 -47 -19 q-28 1 -47 19 q-19 19 -20 48 l0 0 Z" /><glyph glyph-name="" unicode="ã" d="M-65 0 l166 0 l4 16 l-31 0 q-26 0 -36 4 q-9 3 -9 9 q0 4 3 10 q2 5 9 15 l123 198 l218 0 l7 -236 l-87 0 l-4 -16 l245 0 l3 16 l-60 0 l-22 722 l-14 0 l-436 -690 q-14 -22 -28 -27 q-13 -6 -24 -5 l-24 0 l-3 -16 ZM382 268 l-206 0 l198 317 l2 0 l6 -317 ZM614 894 q-6 -20 -20 -34 q-14 -13 -35 -14 q-16 1 -33 8 q-16 8 -30 16 q-17 10 -35 17 q-19 7 -39 7 q-45 -1 -71 -31 q-26 -30 -37 -71 l26 0 q6 20 20 34 q14 13 35 14 q16 -1 33 -8 q16 -8 30 -16 q17 -10 36 -17 q18 -7 38 -7 q45 2 71 32 q26 30 37 70 l-26 0 Z" /><glyph glyph-name="" unicode="ç" d="M711 683 l-16 3 q-4 -11 -10 -23 q-6 -13 -26 -14 q-23 4 -63 36 q-39 31 -114 35 q-145 -3 -272 -123 q-128 -121 -136 -329 q2 -114 62 -187 q60 -73 154 -90 l-56 -84 l7 -10 q18 6 38 6 q20 0 34 -10 q13 -11 14 -29 q-2 -31 -24 -43 q-22 -12 -46 -11 q-23 0 -39 3 q-16 2 -32 7 l-14 -13 q21 -10 45 -15 q24 -6 56 -6 q44 -1 81 14 q37 16 39 66 q-1 32 -22 49 q-21 18 -48 18 q-14 0 -27 -1 q-13 -2 -24 -7 l-2 2 l41 60 q6 -1 14 -2 q7 -1 15 -1 q132 8 200 80 q67 72 80 105 l-16 8 q-15 -35 -77 -102 q-62 -67 -182 -75 q-99 4 -135 66 q-36 62 -34 129 q0 126 74 308 q73 183 226 201 q72 -2 124 -49 q52 -47 54 -119 q0 -23 -3 -47 q-3 -23 -10 -46 l16 -4 l54 244 Z" /><glyph glyph-name="" unicode="é" d="M-34 0 l541 0 l47 216 l-16 0 q-24 -117 -95 -160 q-71 -42 -173 -40 l-121 0 l100 357 l72 0 q33 -1 45 -17 q13 -16 12 -34 q0 -12 -5 -36 q-5 -25 -12 -51 l16 0 l61 265 l-16 0 q-17 -78 -42 -96 q-26 -18 -85 -15 l-42 0 l84 299 l133 0 q52 2 93 -19 q42 -21 44 -94 q0 -12 -1 -27 q-2 -16 -5 -33 l16 0 l31 189 l-499 0 l-4 -16 l90 0 l-188 -672 l-77 0 l-4 -16 ZM341 768 l31 0 l154 96 q10 5 21 16 q11 10 12 24 q0 15 -9 24 q-9 9 -22 9 q-14 -1 -28 -12 q-15 -12 -27 -25 l-132 -132 Z" /><glyph glyph-name="" unicode="ê" d="M-34 0 l541 0 l47 216 l-16 0 q-24 -117 -95 -160 q-71 -42 -173 -40 l-121 0 l100 357 l72 0 q33 -1 45 -17 q13 -16 12 -34 q0 -12 -5 -36 q-5 -25 -12 -51 l16 0 l61 265 l-16 0 q-17 -78 -42 -96 q-26 -18 -85 -15 l-42 0 l84 299 l133 0 q52 2 93 -19 q42 -21 44 -94 q0 -12 -1 -27 q-2 -16 -5 -33 l16 0 l31 189 l-499 0 l-4 -16 l90 0 l-188 -672 l-77 0 l-4 -16 ZM277 768 l37 0 l135 107 l82 -107 l33 0 l-88 169 l-38 0 l-161 -169 Z" /><glyph glyph-name="" unicode="ë" d="M-34 0 l541 0 l47 216 l-16 0 q-24 -117 -95 -160 q-71 -42 -173 -40 l-121 0 l100 357 l72 0 q33 -1 45 -17 q13 -16 12 -34 q0 -12 -5 -36 q-5 -25 -12 -51 l16 0 l61 265 l-16 0 q-17 -78 -42 -96 q-26 -18 -85 -15 l-42 0 l84 299 l133 0 q52 2 93 -19 q42 -21 44 -94 q0 -12 -1 -27 q-2 -16 -5 -33 l16 0 l31 189 l-499 0 l-4 -16 l90 0 l-188 -672 l-77 0 l-4 -16 ZM311 833 q0 -18 7 -31 q7 -13 27 -14 q26 2 41 26 q15 24 15 48 q0 18 -10 26 q-11 8 -28 8 q-20 -2 -35 -23 q-16 -22 -17 -40 l0 0 ZM500 833 q0 -18 7 -31 q7 -13 27 -14 q26 2 41 26 q15 24 15 48 q0 18 -10 26 q-11 8 -28 8 q-20 -2 -35 -23 q-16 -22 -17 -40 l0 0 Z" /><glyph glyph-name="" unicode="è" d="M-34 0 l541 0 l47 216 l-16 0 q-24 -117 -95 -160 q-71 -42 -173 -40 l-121 0 l100 357 l72 0 q33 -1 45 -17 q13 -16 12 -34 q0 -12 -5 -36 q-5 -25 -12 -51 l16 0 l61 265 l-16 0 q-17 -78 -42 -96 q-26 -18 -85 -15 l-42 0 l84 299 l133 0 q52 2 93 -19 q42 -21 44 -94 q0 -12 -1 -27 q-2 -16 -5 -33 l16 0 l31 189 l-499 0 l-4 -16 l90 0 l-188 -672 l-77 0 l-4 -16 ZM442 768 l29 0 l-120 152 q-6 9 -14 13 q-8 4 -20 4 q-12 -1 -21 -10 q-9 -10 -9 -22 q0 -10 7 -18 q6 -7 12 -13 l136 -106 Z" /><glyph glyph-name="" unicode="í" d="M-34 0 l265 0 l4 16 l-87 0 l188 672 l83 0 l4 16 l-274 0 l-4 -16 l90 0 l-188 -672 l-77 0 l-4 -16 ZM221 768 l31 0 l154 96 q10 5 21 16 q11 10 12 24 q0 15 -9 24 q-9 9 -22 9 q-14 -1 -28 -12 q-15 -12 -27 -25 l-132 -132 Z" /><glyph glyph-name="" unicode="î" d="M-34 0 l265 0 l4 16 l-87 0 l188 672 l83 0 l4 16 l-274 0 l-4 -16 l90 0 l-188 -672 l-77 0 l-4 -16 ZM157 768 l37 0 l135 107 l82 -107 l33 0 l-88 169 l-38 0 l-161 -169 Z" /><glyph glyph-name="" unicode="ï" d="M-34 0 l265 0 l4 16 l-87 0 l188 672 l83 0 l4 16 l-274 0 l-4 -16 l90 0 l-188 -672 l-77 0 l-4 -16 ZM181 833 q0 -18 7 -31 q7 -13 27 -14 q26 2 41 26 q15 24 15 48 q0 18 -10 26 q-11 8 -28 8 q-20 -2 -35 -23 q-16 -22 -17 -40 l0 0 ZM370 833 q0 -18 7 -31 q7 -13 27 -14 q26 2 41 26 q15 24 15 48 q0 18 -10 26 q-11 8 -28 8 q-20 -2 -35 -23 q-16 -22 -17 -40 l0 0 Z" /><glyph glyph-name="" unicode="ì" d="M-34 0 l265 0 l4 16 l-87 0 l188 672 l83 0 l4 16 l-274 0 l-4 -16 l90 0 l-188 -672 l-77 0 l-4 -16 ZM322 768 l29 0 l-120 152 q-6 9 -14 13 q-8 4 -20 4 q-12 -1 -21 -10 q-9 -10 -9 -22 q0 -10 7 -18 q6 -7 12 -13 l136 -106 Z" /><glyph glyph-name="" unicode="ñ" d="M-34 0 l184 0 l4 16 l-25 0 q-35 1 -44 12 q-8 11 -7 20 q0 7 4 20 q4 12 9 31 l159 575 l2 0 l246 -680 l45 14 l180 628 q8 30 23 41 q15 12 55 11 l10 0 l4 16 l-182 0 l-4 -16 q49 0 65 -6 q15 -5 14 -20 q0 -14 -7 -39 q-6 -25 -14 -51 l-131 -455 l-2 0 l-210 587 l-194 0 l-3 -16 l91 0 l-141 -501 q-28 -107 -46 -141 q-17 -33 -54 -30 l-27 0 l-4 -16 ZM624 894 q-6 -20 -20 -34 q-14 -13 -35 -14 q-16 1 -33 8 q-16 8 -30 16 q-17 10 -35 17 q-19 7 -39 7 q-45 -1 -71 -31 q-26 -30 -37 -71 l26 0 q6 20 20 34 q14 13 35 14 q16 -1 33 -8 q16 -8 30 -16 q17 -10 36 -17 q18 -7 38 -7 q45 2 71 32 q26 30 37 70 l-26 0 Z" /><glyph glyph-name="" unicode="ó" d="M471 720 q-184 -12 -290 -161 q-105 -148 -107 -285 q4 -151 79 -221 q75 -70 173 -69 q163 11 268 156 q105 144 109 290 q-5 151 -79 221 q-74 70 -153 69 l0 0 ZM323 0 q-59 -2 -105 33 q-46 35 -48 135 q1 60 22 159 q21 99 55 182 q32 83 84 138 q52 55 139 57 q46 3 93 -28 q46 -32 50 -137 q0 -58 -24 -165 q-24 -107 -65 -206 q-35 -82 -84 -125 q-50 -43 -117 -43 l0 0 ZM415 768 l31 0 l154 96 q10 5 21 16 q11 10 12 24 q0 15 -9 24 q-9 9 -22 9 q-14 -1 -28 -12 q-15 -12 -27 -25 l-132 -132 Z" /><glyph glyph-name="" unicode="ô" d="M471 720 q-184 -12 -290 -161 q-105 -148 -107 -285 q4 -151 79 -221 q75 -70 173 -69 q163 11 268 156 q105 144 109 290 q-5 151 -79 221 q-74 70 -153 69 l0 0 ZM323 0 q-59 -2 -105 33 q-46 35 -48 135 q1 60 22 159 q21 99 55 182 q32 83 84 138 q52 55 139 57 q46 3 93 -28 q46 -32 50 -137 q0 -58 -24 -165 q-24 -107 -65 -206 q-35 -82 -84 -125 q-50 -43 -117 -43 l0 0 ZM335 768 l37 0 l135 107 l82 -107 l33 0 l-88 169 l-38 0 l-161 -169 Z" /><glyph glyph-name="" unicode="ö" d="M471 720 q-184 -12 -290 -161 q-105 -148 -107 -285 q4 -151 79 -221 q75 -70 173 -69 q163 11 268 156 q105 144 109 290 q-5 151 -79 221 q-74 70 -153 69 l0 0 ZM323 0 q-59 -2 -105 33 q-46 35 -48 135 q1 60 22 159 q21 99 55 182 q32 83 84 138 q52 55 139 57 q46 3 93 -28 q46 -32 50 -137 q0 -58 -24 -165 q-24 -107 -65 -206 q-35 -82 -84 -125 q-50 -43 -117 -43 l0 0 ZM359 833 q0 -18 7 -31 q7 -13 27 -14 q26 2 41 26 q15 24 15 48 q0 18 -10 26 q-11 8 -28 8 q-20 -2 -35 -23 q-16 -22 -17 -40 l0 0 ZM548 833 q0 -18 7 -31 q7 -13 27 -14 q26 2 41 26 q15 24 15 48 q0 18 -10 26 q-11 8 -28 8 q-20 -2 -35 -23 q-16 -22 -17 -40 l0 0 Z" /><glyph glyph-name="" unicode="ò" d="M471 720 q-184 -12 -290 -161 q-105 -148 -107 -285 q4 -151 79 -221 q75 -70 173 -69 q163 11 268 156 q105 144 109 290 q-5 151 -79 221 q-74 70 -153 69 l0 0 ZM323 0 q-59 -2 -105 33 q-46 35 -48 135 q1 60 22 159 q21 99 55 182 q32 83 84 138 q52 55 139 57 q46 3 93 -28 q46 -32 50 -137 q0 -58 -24 -165 q-24 -107 -65 -206 q-35 -82 -84 -125 q-50 -43 -117 -43 l0 0 ZM516 768 l29 0 l-120 152 q-6 9 -14 13 q-8 4 -20 4 q-12 -1 -21 -10 q-9 -10 -9 -22 q0 -10 7 -18 q6 -7 12 -13 l136 -106 Z" /><glyph glyph-name="" unicode="õ" d="M471 720 q-184 -12 -290 -161 q-105 -148 -107 -285 q4 -151 79 -221 q75 -70 173 -69 q163 11 268 156 q105 144 109 290 q-5 151 -79 221 q-74 70 -153 69 l0 0 ZM323 0 q-59 -2 -105 33 q-46 35 -48 135 q1 60 22 159 q21 99 55 182 q32 83 84 138 q52 55 139 57 q46 3 93 -28 q46 -32 50 -137 q0 -58 -24 -165 q-24 -107 -65 -206 q-35 -82 -84 -125 q-50 -43 -117 -43 l0 0 ZM624 894 q-6 -20 -20 -34 q-14 -13 -35 -14 q-16 1 -33 8 q-16 8 -30 16 q-17 10 -35 17 q-19 7 -39 7 q-45 -1 -71 -31 q-26 -30 -37 -71 l26 0 q6 20 20 34 q14 13 35 14 q16 -1 33 -8 q16 -8 30 -16 q17 -10 36 -17 q18 -7 38 -7 q45 2 71 32 q26 30 37 70 l-26 0 Z" /><glyph glyph-name="" unicode="&#x160;" d="M-10 3 l15 -3 q7 15 16 29 q9 14 25 15 q31 -4 72 -30 q42 -26 116 -30 q145 7 203 91 q58 83 56 159 q-19 155 -154 188 q-136 33 -155 134 q2 67 49 107 q46 40 114 41 q74 0 115 -37 q40 -37 41 -104 q0 -19 -3 -38 q-3 -19 -7 -38 l16 -4 l57 210 l-16 6 q-2 -10 -8 -22 q-6 -12 -19 -13 q-26 4 -62 28 q-35 25 -104 28 q-133 -8 -176 -90 q-43 -82 -39 -138 q18 -143 146 -169 q127 -26 145 -149 q4 -31 -31 -99 q-35 -67 -159 -75 q-79 1 -129 46 q-50 45 -52 116 q0 23 4 45 q3 22 9 44 l-16 3 l-69 -251 ZM555 937 l-37 0 l-135 -107 l-82 107 l-33 0 l88 -169 l38 0 l161 169 Z" /><glyph glyph-name="" unicode="ú" d="M818 704 l-194 0 l-4 -16 l22 0 q46 0 59 -6 q13 -7 11 -21 q-1 -15 -9 -48 q-9 -33 -15 -53 l-114 -390 q-25 -86 -89 -128 q-64 -42 -167 -42 q-60 0 -102 28 q-43 29 -45 88 q1 29 19 101 q19 73 45 164 l88 307 l83 0 l4 16 l-274 0 l-4 -16 l90 0 l-82 -299 q-8 -29 -32 -120 q-24 -92 -27 -128 q4 -81 74 -119 q70 -38 159 -38 q124 2 190 54 q66 52 86 126 l139 478 q9 32 30 40 q20 7 55 6 l4 16 ZM415 768 l31 0 l154 96 q10 5 21 16 q11 10 12 24 q0 15 -9 24 q-9 9 -22 9 q-14 -1 -28 -12 q-15 -12 -27 -25 l-132 -132 Z" /><glyph glyph-name="" unicode="û" d="M818 704 l-194 0 l-4 -16 l22 0 q46 0 59 -6 q13 -7 11 -21 q-1 -15 -9 -48 q-9 -33 -15 -53 l-114 -390 q-25 -86 -89 -128 q-64 -42 -167 -42 q-60 0 -102 28 q-43 29 -45 88 q1 29 19 101 q19 73 45 164 l88 307 l83 0 l4 16 l-274 0 l-4 -16 l90 0 l-82 -299 q-8 -29 -32 -120 q-24 -92 -27 -128 q4 -81 74 -119 q70 -38 159 -38 q124 2 190 54 q66 52 86 126 l139 478 q9 32 30 40 q20 7 55 6 l4 16 ZM351 768 l37 0 l135 107 l82 -107 l33 0 l-88 169 l-38 0 l-161 -169 Z" /><glyph glyph-name="" unicode="ü" d="M818 704 l-194 0 l-4 -16 l22 0 q46 0 59 -6 q13 -7 11 -21 q-1 -15 -9 -48 q-9 -33 -15 -53 l-114 -390 q-25 -86 -89 -128 q-64 -42 -167 -42 q-60 0 -102 28 q-43 29 -45 88 q1 29 19 101 q19 73 45 164 l88 307 l83 0 l4 16 l-274 0 l-4 -16 l90 0 l-82 -299 q-8 -29 -32 -120 q-24 -92 -27 -128 q4 -81 74 -119 q70 -38 159 -38 q124 2 190 54 q66 52 86 126 l139 478 q9 32 30 40 q20 7 55 6 l4 16 ZM385 833 q0 -18 7 -31 q7 -13 27 -14 q26 2 41 26 q15 24 15 48 q0 18 -10 26 q-11 8 -28 8 q-20 -2 -35 -23 q-16 -22 -17 -40 l0 0 ZM574 833 q0 -18 7 -31 q7 -13 27 -14 q26 2 41 26 q15 24 15 48 q0 18 -10 26 q-11 8 -28 8 q-20 -2 -35 -23 q-16 -22 -17 -40 l0 0 Z" /><glyph glyph-name="" unicode="ù" d="M818 704 l-194 0 l-4 -16 l22 0 q46 0 59 -6 q13 -7 11 -21 q-1 -15 -9 -48 q-9 -33 -15 -53 l-114 -390 q-25 -86 -89 -128 q-64 -42 -167 -42 q-60 0 -102 28 q-43 29 -45 88 q1 29 19 101 q19 73 45 164 l88 307 l83 0 l4 16 l-274 0 l-4 -16 l90 0 l-82 -299 q-8 -29 -32 -120 q-24 -92 -27 -128 q4 -81 74 -119 q70 -38 159 -38 q124 2 190 54 q66 52 86 126 l139 478 q9 32 30 40 q20 7 55 6 l4 16 ZM516 768 l29 0 l-120 152 q-6 9 -14 13 q-8 4 -20 4 q-12 -1 -21 -10 q-9 -10 -9 -22 q0 -10 7 -18 q6 -7 12 -13 l136 -106 Z" /><glyph glyph-name="" unicode="ý" d="M274 688 l82 0 l4 16 l-251 0 l-4 -16 l76 0 l28 -391 l-81 -281 l-77 0 l-4 -16 l265 0 l4 16 l-87 0 l76 274 l272 374 q10 14 21 19 q11 5 28 5 l8 0 l4 16 l-155 0 l-4 -16 l14 0 q22 0 42 -1 q20 -2 21 -11 q0 -9 -9 -23 q-9 -14 -23 -34 l-224 -308 l-2 0 l-24 377 ZM334 768 l31 0 l154 96 q10 5 21 16 q11 10 12 24 q0 15 -9 24 q-9 9 -22 9 q-14 -1 -28 -12 q-15 -12 -27 -25 l-132 -132 Z" /><glyph glyph-name="" unicode="&#x178;" d="M274 688 l82 0 l4 16 l-251 0 l-4 -16 l76 0 l28 -391 l-81 -281 l-77 0 l-4 -16 l265 0 l4 16 l-87 0 l76 274 l272 374 q10 14 21 19 q11 5 28 5 l8 0 l4 16 l-155 0 l-4 -16 l14 0 q22 0 42 -1 q20 -2 21 -11 q0 -9 -9 -23 q-9 -14 -23 -34 l-224 -308 l-2 0 l-24 377 ZM274 833 q0 -18 7 -31 q7 -13 27 -14 q26 2 41 26 q15 24 15 48 q0 18 -10 26 q-11 8 -28 8 q-20 -2 -35 -23 q-16 -22 -17 -40 l0 0 ZM463 833 q0 -18 7 -31 q7 -13 27 -14 q26 2 41 26 q15 24 15 48 q0 18 -10 26 q-11 8 -28 8 q-20 -2 -35 -23 q-16 -22 -17 -40 l0 0 Z" /><glyph glyph-name="" unicode="&#x17d;" d="M-7 0 l522 0 l61 208 l-16 0 q-37 -103 -96 -148 q-58 -45 -160 -44 l-183 0 l538 688 l-487 0 l-61 -199 l16 0 q28 76 82 129 q53 52 165 54 l157 0 l-538 -688 ZM549 937 l-37 0 l-135 -107 l-82 107 l-33 0 l88 -169 l38 0 l161 169 Z" /><glyph glyph-name="" unicode="á" d="M114 84 q0 71 46 195 q45 123 141 137 q46 -2 69 -31 q23 -29 23 -58 q0 -15 -13 -51 q-13 -37 -32 -98 q-21 -72 -60 -122 q-39 -50 -102 -52 q-34 0 -53 20 q-19 20 -19 60 l0 0 ZM501 410 l-77 0 l-19 -61 l-2 0 q-5 25 -27 53 q-23 28 -71 30 q-99 -4 -181 -84 q-83 -81 -88 -190 q0 -72 39 -120 q38 -48 110 -50 q44 2 82 30 q37 27 56 60 l2 0 q-1 -26 11 -57 q12 -30 61 -33 q48 5 80 43 q31 39 41 57 l-10 10 q-12 -18 -39 -50 q-27 -32 -54 -36 q-12 0 -18 8 q-6 8 -6 20 q0 12 4 26 q3 14 7 26 l99 318 ZM287 552 l31 0 l154 96 q10 5 21 16 q11 10 12 24 q0 15 -9 24 q-9 9 -22 9 q-14 -1 -28 -12 q-15 -12 -27 -25 l-132 -132 Z" /><glyph glyph-name="" unicode="â" d="M114 84 q0 71 46 195 q45 123 141 137 q46 -2 69 -31 q23 -29 23 -58 q0 -15 -13 -51 q-13 -37 -32 -98 q-21 -72 -60 -122 q-39 -50 -102 -52 q-34 0 -53 20 q-19 20 -19 60 l0 0 ZM501 410 l-77 0 l-19 -61 l-2 0 q-5 25 -27 53 q-23 28 -71 30 q-99 -4 -181 -84 q-83 -81 -88 -190 q0 -72 39 -120 q38 -48 110 -50 q44 2 82 30 q37 27 56 60 l2 0 q-1 -26 11 -57 q12 -30 61 -33 q48 5 80 43 q31 39 41 57 l-10 10 q-12 -18 -39 -50 q-27 -32 -54 -36 q-12 0 -18 8 q-6 8 -6 20 q0 12 4 26 q3 14 7 26 l99 318 ZM189 552 l37 0 l135 107 l82 -107 l33 0 l-88 169 l-38 0 l-161 -169 Z" /><glyph glyph-name="" unicode="ä" d="M114 84 q0 71 46 195 q45 123 141 137 q46 -2 69 -31 q23 -29 23 -58 q0 -15 -13 -51 q-13 -37 -32 -98 q-21 -72 -60 -122 q-39 -50 -102 -52 q-34 0 -53 20 q-19 20 -19 60 l0 0 ZM501 410 l-77 0 l-19 -61 l-2 0 q-5 25 -27 53 q-23 28 -71 30 q-99 -4 -181 -84 q-83 -81 -88 -190 q0 -72 39 -120 q38 -48 110 -50 q44 2 82 30 q37 27 56 60 l2 0 q-1 -26 11 -57 q12 -30 61 -33 q48 5 80 43 q31 39 41 57 l-10 10 q-12 -18 -39 -50 q-27 -32 -54 -36 q-12 0 -18 8 q-6 8 -6 20 q0 12 4 26 q3 14 7 26 l99 318 ZM219 617 q0 -18 7 -31 q7 -13 27 -14 q26 2 41 26 q15 24 15 48 q0 18 -10 26 q-11 8 -28 8 q-20 -2 -35 -23 q-16 -22 -17 -40 l0 0 ZM408 617 q0 -18 7 -31 q7 -13 27 -14 q26 2 41 26 q15 24 15 48 q0 18 -10 26 q-11 8 -28 8 q-20 -2 -35 -23 q-16 -22 -17 -40 l0 0 Z" /><glyph glyph-name="" unicode="à" d="M114 84 q0 71 46 195 q45 123 141 137 q46 -2 69 -31 q23 -29 23 -58 q0 -15 -13 -51 q-13 -37 -32 -98 q-21 -72 -60 -122 q-39 -50 -102 -52 q-34 0 -53 20 q-19 20 -19 60 l0 0 ZM501 410 l-77 0 l-19 -61 l-2 0 q-5 25 -27 53 q-23 28 -71 30 q-99 -4 -181 -84 q-83 -81 -88 -190 q0 -72 39 -120 q38 -48 110 -50 q44 2 82 30 q37 27 56 60 l2 0 q-1 -26 11 -57 q12 -30 61 -33 q48 5 80 43 q31 39 41 57 l-10 10 q-12 -18 -39 -50 q-27 -32 -54 -36 q-12 0 -18 8 q-6 8 -6 20 q0 12 4 26 q3 14 7 26 l99 318 ZM376 552 l29 0 l-120 152 q-6 9 -14 13 q-8 4 -20 4 q-12 -1 -21 -10 q-9 -10 -9 -22 q0 -10 7 -18 q6 -7 12 -13 l136 -106 Z" /><glyph glyph-name="" unicode="å" d="M114 84 q0 71 46 195 q45 123 141 137 q46 -2 69 -31 q23 -29 23 -58 q0 -15 -13 -51 q-13 -37 -32 -98 q-21 -72 -60 -122 q-39 -50 -102 -52 q-34 0 -53 20 q-19 20 -19 60 l0 0 ZM501 410 l-77 0 l-19 -61 l-2 0 q-5 25 -27 53 q-23 28 -71 30 q-99 -4 -181 -84 q-83 -81 -88 -190 q0 -72 39 -120 q38 -48 110 -50 q44 2 82 30 q37 27 56 60 l2 0 q-1 -26 11 -57 q12 -30 61 -33 q48 5 80 43 q31 39 41 57 l-10 10 q-12 -18 -39 -50 q-27 -32 -54 -36 q-12 0 -18 8 q-6 8 -6 20 q0 12 4 26 q3 14 7 26 l99 318 ZM272 632 q1 -41 29 -68 q28 -28 68 -29 q40 1 68 29 q28 27 29 68 q-1 41 -29 68 q-28 28 -68 29 q-40 -1 -68 -29 q-28 -27 -29 -68 l0 0 ZM302 632 q1 29 20 48 q19 18 47 19 q28 -1 47 -19 q19 -19 20 -48 q-1 -29 -20 -48 q-19 -18 -47 -19 q-28 1 -47 19 q-19 19 -20 48 l0 0 Z" /><glyph glyph-name="" unicode="ã" d="M114 84 q0 71 46 195 q45 123 141 137 q46 -2 69 -31 q23 -29 23 -58 q0 -15 -13 -51 q-13 -37 -32 -98 q-21 -72 -60 -122 q-39 -50 -102 -52 q-34 0 -53 20 q-19 20 -19 60 l0 0 ZM501 410 l-77 0 l-19 -61 l-2 0 q-5 25 -27 53 q-23 28 -71 30 q-99 -4 -181 -84 q-83 -81 -88 -190 q0 -72 39 -120 q38 -48 110 -50 q44 2 82 30 q37 27 56 60 l2 0 q-1 -26 11 -57 q12 -30 61 -33 q48 5 80 43 q31 39 41 57 l-10 10 q-12 -18 -39 -50 q-27 -32 -54 -36 q-12 0 -18 8 q-6 8 -6 20 q0 12 4 26 q3 14 7 26 l99 318 ZM496 678 q-6 -20 -20 -34 q-14 -13 -35 -14 q-16 1 -33 8 q-16 8 -30 16 q-17 10 -35 17 q-19 7 -39 7 q-45 -1 -71 -31 q-26 -30 -37 -71 l26 0 q6 20 20 34 q14 13 35 14 q16 -1 33 -8 q16 -8 30 -16 q17 -10 36 -17 q18 -7 38 -7 q45 2 71 32 q26 30 37 70 l-26 0 Z" /><glyph glyph-name="" unicode="ç" d="M380 153 q-8 -23 -58 -82 q-49 -60 -125 -67 q-41 1 -59 26 q-18 26 -18 64 q-2 69 38 189 q39 120 143 133 q22 0 29 -5 q7 -4 6 -11 q-1 -5 -5 -14 q-5 -10 -6 -30 q0 -23 12 -35 q12 -12 32 -12 q21 0 34 13 q12 13 12 38 q0 30 -29 51 q-29 20 -81 21 q-105 -5 -185 -87 q-80 -82 -84 -187 q3 -81 44 -120 q41 -39 84 -46 l-57 -85 l7 -10 q18 6 38 6 q20 0 34 -10 q13 -11 14 -29 q-2 -31 -24 -43 q-22 -12 -46 -11 q-23 0 -39 3 q-16 2 -32 7 l-14 -13 q21 -10 45 -15 q24 -6 56 -6 q44 -1 81 14 q37 16 39 66 q-1 32 -22 49 q-21 18 -48 18 q-14 0 -27 -1 q-13 -2 -24 -7 l-2 2 l42 62 q5 -1 8 -1 q86 7 138 68 q53 61 63 92 l-14 5 Z" /><glyph glyph-name="" unicode="é" d="M374 115 q-13 -21 -57 -64 q-44 -42 -109 -47 q-54 1 -74 34 q-21 32 -20 83 q0 19 5 48 q4 28 12 57 q37 -15 76 -15 q87 1 146 38 q59 37 61 96 q-2 47 -36 67 q-33 20 -73 20 q-99 -3 -181 -79 q-83 -77 -88 -195 q5 -95 58 -133 q54 -38 99 -37 q82 5 129 49 q47 44 62 71 l-10 7 ZM348 355 q1 -35 -30 -79 q-31 -45 -111 -49 q-23 0 -41 5 q-19 5 -31 9 q16 58 51 115 q36 56 102 60 q28 -1 44 -17 q16 -17 16 -44 l0 0 ZM231 552 l31 0 l154 96 q10 5 21 16 q11 10 12 24 q0 15 -9 24 q-9 9 -22 9 q-14 -1 -28 -12 q-15 -12 -27 -25 l-132 -132 Z" /><glyph glyph-name="" unicode="ê" d="M374 115 q-13 -21 -57 -64 q-44 -42 -109 -47 q-54 1 -74 34 q-21 32 -20 83 q0 19 5 48 q4 28 12 57 q37 -15 76 -15 q87 1 146 38 q59 37 61 96 q-2 47 -36 67 q-33 20 -73 20 q-99 -3 -181 -79 q-83 -77 -88 -195 q5 -95 58 -133 q54 -38 99 -37 q82 5 129 49 q47 44 62 71 l-10 7 ZM348 355 q1 -35 -30 -79 q-31 -45 -111 -49 q-23 0 -41 5 q-19 5 -31 9 q16 58 51 115 q36 56 102 60 q28 -1 44 -17 q16 -17 16 -44 l0 0 ZM133 552 l37 0 l135 107 l82 -107 l33 0 l-88 169 l-38 0 l-161 -169 Z" /><glyph glyph-name="" unicode="ë" d="M374 115 q-13 -21 -57 -64 q-44 -42 -109 -47 q-54 1 -74 34 q-21 32 -20 83 q0 19 5 48 q4 28 12 57 q37 -15 76 -15 q87 1 146 38 q59 37 61 96 q-2 47 -36 67 q-33 20 -73 20 q-99 -3 -181 -79 q-83 -77 -88 -195 q5 -95 58 -133 q54 -38 99 -37 q82 5 129 49 q47 44 62 71 l-10 7 ZM348 355 q1 -35 -30 -79 q-31 -45 -111 -49 q-23 0 -41 5 q-19 5 -31 9 q16 58 51 115 q36 56 102 60 q28 -1 44 -17 q16 -17 16 -44 l0 0 ZM163 617 q0 -18 7 -31 q7 -13 27 -14 q26 2 41 26 q15 24 15 48 q0 18 -10 26 q-11 8 -28 8 q-20 -2 -35 -23 q-16 -22 -17 -40 l0 0 ZM352 617 q0 -18 7 -31 q7 -13 27 -14 q26 2 41 26 q15 24 15 48 q0 18 -10 26 q-11 8 -28 8 q-20 -2 -35 -23 q-16 -22 -17 -40 l0 0 Z" /><glyph glyph-name="" unicode="è" d="M374 115 q-13 -21 -57 -64 q-44 -42 -109 -47 q-54 1 -74 34 q-21 32 -20 83 q0 19 5 48 q4 28 12 57 q37 -15 76 -15 q87 1 146 38 q59 37 61 96 q-2 47 -36 67 q-33 20 -73 20 q-99 -3 -181 -79 q-83 -77 -88 -195 q5 -95 58 -133 q54 -38 99 -37 q82 5 129 49 q47 44 62 71 l-10 7 ZM348 355 q1 -35 -30 -79 q-31 -45 -111 -49 q-23 0 -41 5 q-19 5 -31 9 q16 58 51 115 q36 56 102 60 q28 -1 44 -17 q16 -17 16 -44 l0 0 ZM320 552 l29 0 l-120 152 q-6 9 -14 13 q-8 4 -20 4 q-12 -1 -21 -10 q-9 -10 -9 -22 q0 -10 7 -18 q6 -7 12 -13 l136 -106 Z" /><glyph glyph-name="" unicode="í" d="M72 394 l64 0 l-85 -273 q-5 -16 -9 -31 q-4 -15 -4 -29 q1 -36 23 -52 q21 -15 46 -15 q59 4 99 43 q40 38 51 59 l-12 8 q-10 -17 -40 -50 q-30 -32 -71 -36 q-13 1 -18 9 q-6 8 -6 17 q0 12 5 29 q5 17 11 33 l104 326 q-32 -13 -64 -18 q-32 -4 -64 -4 l-27 0 l-3 -16 ZM148 552 l31 0 l154 96 q10 5 21 16 q11 10 12 24 q0 15 -9 24 q-9 9 -22 9 q-14 -1 -28 -12 q-15 -12 -27 -25 l-132 -132 Z" /><glyph glyph-name="" unicode="î" d="M72 394 l64 0 l-85 -273 q-5 -16 -9 -31 q-4 -15 -4 -29 q1 -36 23 -52 q21 -15 46 -15 q59 4 99 43 q40 38 51 59 l-12 8 q-10 -17 -40 -50 q-30 -32 -71 -36 q-13 1 -18 9 q-6 8 -6 17 q0 12 5 29 q5 17 11 33 l104 326 q-32 -13 -64 -18 q-32 -4 -64 -4 l-27 0 l-3 -16 ZM50 552 l37 0 l135 107 l82 -107 l33 0 l-88 169 l-38 0 l-161 -169 Z" /><glyph glyph-name="" unicode="ï" d="M72 394 l64 0 l-85 -273 q-5 -16 -9 -31 q-4 -15 -4 -29 q1 -36 23 -52 q21 -15 46 -15 q59 4 99 43 q40 38 51 59 l-12 8 q-10 -17 -40 -50 q-30 -32 -71 -36 q-13 1 -18 9 q-6 8 -6 17 q0 12 5 29 q5 17 11 33 l104 326 q-32 -13 -64 -18 q-32 -4 -64 -4 l-27 0 l-3 -16 ZM80 617 q0 -18 7 -31 q7 -13 27 -14 q26 2 41 26 q15 24 15 48 q0 18 -10 26 q-11 8 -28 8 q-20 -2 -35 -23 q-16 -22 -17 -40 l0 0 ZM269 617 q0 -18 7 -31 q7 -13 27 -14 q26 2 41 26 q15 24 15 48 q0 18 -10 26 q-11 8 -28 8 q-20 -2 -35 -23 q-16 -22 -17 -40 l0 0 Z" /><glyph glyph-name="" unicode="ì" d="M72 394 l64 0 l-85 -273 q-5 -16 -9 -31 q-4 -15 -4 -29 q1 -36 23 -52 q21 -15 46 -15 q59 4 99 43 q40 38 51 59 l-12 8 q-10 -17 -40 -50 q-30 -32 -71 -36 q-13 1 -18 9 q-6 8 -6 17 q0 12 5 29 q5 17 11 33 l104 326 q-32 -13 -64 -18 q-32 -4 -64 -4 l-27 0 l-3 -16 ZM237 552 l29 0 l-120 152 q-6 9 -14 13 q-8 4 -20 4 q-12 -1 -21 -10 q-9 -10 -9 -22 q0 -10 7 -18 q6 -7 12 -13 l136 -106 Z" /><glyph glyph-name="" unicode="ñ" d="M24 0 l80 0 l60 206 q35 102 102 156 q68 54 108 54 q20 0 29 -9 q9 -9 9 -24 q-6 -41 -47 -150 q-42 -109 -48 -165 q0 -34 15 -54 q15 -20 50 -20 q55 4 90 41 q35 37 50 63 l-10 7 q-13 -18 -40 -51 q-27 -32 -60 -36 q-12 0 -17 10 q-6 9 -6 21 q6 31 48 144 q41 113 47 158 q0 35 -23 57 q-23 23 -71 24 q-59 -2 -112 -42 q-52 -39 -86 -96 l-2 0 l41 138 q-32 -13 -64 -18 q-32 -4 -64 -4 l-21 0 l-4 -16 l62 0 l-116 -394 ZM496 678 q-6 -20 -20 -34 q-14 -13 -35 -14 q-16 1 -33 8 q-16 8 -30 16 q-17 10 -35 17 q-19 7 -39 7 q-45 -1 -71 -31 q-26 -30 -37 -71 l26 0 q6 20 20 34 q14 13 35 14 q16 -1 33 -8 q16 -8 30 -16 q17 -10 36 -17 q18 -7 38 -7 q45 2 71 32 q26 30 37 70 l-26 0 Z" /><glyph glyph-name="" unicode="ó" d="M36 163 q0 -75 40 -124 q40 -49 122 -51 q94 3 171 81 q76 78 80 202 q-3 76 -50 118 q-47 42 -103 43 q-113 -5 -185 -88 q-73 -82 -75 -181 l0 0 ZM290 416 q43 0 65 -22 q22 -21 22 -58 q-3 -51 -30 -141 q-28 -91 -50 -131 q-6 -13 -31 -35 q-25 -23 -71 -25 q-43 1 -65 26 q-22 24 -22 61 q3 43 30 132 q27 89 45 124 q16 29 43 49 q26 19 64 20 l0 0 ZM259 552 l31 0 l154 96 q10 5 21 16 q11 10 12 24 q0 15 -9 24 q-9 9 -22 9 q-14 -1 -28 -12 q-15 -12 -27 -25 l-132 -132 Z" /><glyph glyph-name="" unicode="ô" d="M36 163 q0 -75 40 -124 q40 -49 122 -51 q94 3 171 81 q76 78 80 202 q-3 76 -50 118 q-47 42 -103 43 q-113 -5 -185 -88 q-73 -82 -75 -181 l0 0 ZM290 416 q43 0 65 -22 q22 -21 22 -58 q-3 -51 -30 -141 q-28 -91 -50 -131 q-6 -13 -31 -35 q-25 -23 -71 -25 q-43 1 -65 26 q-22 24 -22 61 q3 43 30 132 q27 89 45 124 q16 29 43 49 q26 19 64 20 l0 0 ZM161 552 l37 0 l135 107 l82 -107 l33 0 l-88 169 l-38 0 l-161 -169 Z" /><glyph glyph-name="" unicode="ö" d="M36 163 q0 -75 40 -124 q40 -49 122 -51 q94 3 171 81 q76 78 80 202 q-3 76 -50 118 q-47 42 -103 43 q-113 -5 -185 -88 q-73 -82 -75 -181 l0 0 ZM290 416 q43 0 65 -22 q22 -21 22 -58 q-3 -51 -30 -141 q-28 -91 -50 -131 q-6 -13 -31 -35 q-25 -23 -71 -25 q-43 1 -65 26 q-22 24 -22 61 q3 43 30 132 q27 89 45 124 q16 29 43 49 q26 19 64 20 l0 0 ZM191 617 q0 -18 7 -31 q7 -13 27 -14 q26 2 41 26 q15 24 15 48 q0 18 -10 26 q-11 8 -28 8 q-20 -2 -35 -23 q-16 -22 -17 -40 l0 0 ZM380 617 q0 -18 7 -31 q7 -13 27 -14 q26 2 41 26 q15 24 15 48 q0 18 -10 26 q-11 8 -28 8 q-20 -2 -35 -23 q-16 -22 -17 -40 l0 0 Z" /><glyph glyph-name="" unicode="ò" d="M36 163 q0 -75 40 -124 q40 -49 122 -51 q94 3 171 81 q76 78 80 202 q-3 76 -50 118 q-47 42 -103 43 q-113 -5 -185 -88 q-73 -82 -75 -181 l0 0 ZM290 416 q43 0 65 -22 q22 -21 22 -58 q-3 -51 -30 -141 q-28 -91 -50 -131 q-6 -13 -31 -35 q-25 -23 -71 -25 q-43 1 -65 26 q-22 24 -22 61 q3 43 30 132 q27 89 45 124 q16 29 43 49 q26 19 64 20 l0 0 ZM348 552 l29 0 l-120 152 q-6 9 -14 13 q-8 4 -20 4 q-12 -1 -21 -10 q-9 -10 -9 -22 q0 -10 7 -18 q6 -7 12 -13 l136 -106 Z" /><glyph glyph-name="" unicode="õ" d="M36 163 q0 -75 40 -124 q40 -49 122 -51 q94 3 171 81 q76 78 80 202 q-3 76 -50 118 q-47 42 -103 43 q-113 -5 -185 -88 q-73 -82 -75 -181 l0 0 ZM290 416 q43 0 65 -22 q22 -21 22 -58 q-3 -51 -30 -141 q-28 -91 -50 -131 q-6 -13 -31 -35 q-25 -23 -71 -25 q-43 1 -65 26 q-22 24 -22 61 q3 43 30 132 q27 89 45 124 q16 29 43 49 q26 19 64 20 l0 0 ZM468 678 q-6 -20 -20 -34 q-14 -13 -35 -14 q-16 1 -33 8 q-16 8 -30 16 q-17 10 -35 17 q-19 7 -39 7 q-45 -1 -71 -31 q-26 -30 -37 -71 l26 0 q6 20 20 34 q14 13 35 14 q16 -1 33 -8 q16 -8 30 -16 q17 -10 36 -17 q18 -7 38 -7 q45 2 71 32 q26 30 37 70 l-26 0 Z" /><glyph glyph-name="" unicode="&#x161;" d="M108 294 q8 -75 62 -112 q54 -37 62 -95 q-1 -41 -28 -62 q-27 -21 -66 -21 q-43 1 -59 13 q-16 13 -15 24 q3 19 25 26 q21 6 24 40 q0 14 -11 28 q-11 13 -34 14 q-23 -1 -37 -18 q-14 -18 -14 -42 q-1 -30 26 -64 q26 -34 92 -37 q86 3 128 44 q41 40 41 88 q-8 90 -68 122 q-59 32 -68 89 q2 49 28 68 q25 18 57 17 q24 0 34 -6 q9 -6 9 -15 q-11 -6 -22 -18 q-10 -11 -11 -31 q0 -16 10 -29 q10 -12 32 -13 q20 0 34 12 q13 12 14 35 q0 35 -25 57 q-24 23 -71 24 q-69 -4 -109 -49 q-39 -46 -40 -89 l0 0 ZM433 711 l-37 0 l-135 -107 l-82 107 l-33 0 l88 -169 l38 0 l161 169 Z" /><glyph glyph-name="" unicode="ú" d="M499 410 l-81 0 l-61 -190 q-31 -87 -97 -147 q-65 -60 -112 -63 q-19 0 -29 9 q-10 9 -10 25 q0 5 3 16 q2 11 7 25 l112 347 q-32 -13 -64 -18 q-32 -4 -64 -4 l-27 0 l-4 -16 l64 0 l-83 -252 q-4 -14 -10 -36 q-5 -22 -6 -36 q1 -47 27 -62 q27 -15 63 -14 q59 1 108 40 q50 38 95 99 l2 0 q-6 -19 -12 -39 q-6 -21 -6 -35 q0 -31 19 -48 q19 -17 51 -17 q49 1 80 31 q30 29 53 69 l-12 7 q-24 -37 -44 -60 q-21 -22 -47 -23 q-14 1 -21 9 q-7 8 -7 15 q0 6 2 18 q2 12 6 25 l105 325 ZM287 552 l31 0 l154 96 q10 5 21 16 q11 10 12 24 q0 15 -9 24 q-9 9 -22 9 q-14 -1 -28 -12 q-15 -12 -27 -25 l-132 -132 Z" /><glyph glyph-name="" unicode="û" d="M499 410 l-81 0 l-61 -190 q-31 -87 -97 -147 q-65 -60 -112 -63 q-19 0 -29 9 q-10 9 -10 25 q0 5 3 16 q2 11 7 25 l112 347 q-32 -13 -64 -18 q-32 -4 -64 -4 l-27 0 l-4 -16 l64 0 l-83 -252 q-4 -14 -10 -36 q-5 -22 -6 -36 q1 -47 27 -62 q27 -15 63 -14 q59 1 108 40 q50 38 95 99 l2 0 q-6 -19 -12 -39 q-6 -21 -6 -35 q0 -31 19 -48 q19 -17 51 -17 q49 1 80 31 q30 29 53 69 l-12 7 q-24 -37 -44 -60 q-21 -22 -47 -23 q-14 1 -21 9 q-7 8 -7 15 q0 6 2 18 q2 12 6 25 l105 325 ZM199 552 l37 0 l135 107 l82 -107 l33 0 l-88 169 l-38 0 l-161 -169 Z" /><glyph glyph-name="" unicode="ü" d="M499 410 l-81 0 l-61 -190 q-31 -87 -97 -147 q-65 -60 -112 -63 q-19 0 -29 9 q-10 9 -10 25 q0 5 3 16 q2 11 7 25 l112 347 q-32 -13 -64 -18 q-32 -4 -64 -4 l-27 0 l-4 -16 l64 0 l-83 -252 q-4 -14 -10 -36 q-5 -22 -6 -36 q1 -47 27 -62 q27 -15 63 -14 q59 1 108 40 q50 38 95 99 l2 0 q-6 -19 -12 -39 q-6 -21 -6 -35 q0 -31 19 -48 q19 -17 51 -17 q49 1 80 31 q30 29 53 69 l-12 7 q-24 -37 -44 -60 q-21 -22 -47 -23 q-14 1 -21 9 q-7 8 -7 15 q0 6 2 18 q2 12 6 25 l105 325 ZM219 617 q0 -18 7 -31 q7 -13 27 -14 q26 2 41 26 q15 24 15 48 q0 18 -10 26 q-11 8 -28 8 q-20 -2 -35 -23 q-16 -22 -17 -40 l0 0 ZM408 617 q0 -18 7 -31 q7 -13 27 -14 q26 2 41 26 q15 24 15 48 q0 18 -10 26 q-11 8 -28 8 q-20 -2 -35 -23 q-16 -22 -17 -40 l0 0 Z" /><glyph glyph-name="" unicode="ù" d="M499 410 l-81 0 l-61 -190 q-31 -87 -97 -147 q-65 -60 -112 -63 q-19 0 -29 9 q-10 9 -10 25 q0 5 3 16 q2 11 7 25 l112 347 q-32 -13 -64 -18 q-32 -4 -64 -4 l-27 0 l-4 -16 l64 0 l-83 -252 q-4 -14 -10 -36 q-5 -22 -6 -36 q1 -47 27 -62 q27 -15 63 -14 q59 1 108 40 q50 38 95 99 l2 0 q-6 -19 -12 -39 q-6 -21 -6 -35 q0 -31 19 -48 q19 -17 51 -17 q49 1 80 31 q30 29 53 69 l-12 7 q-24 -37 -44 -60 q-21 -22 -47 -23 q-14 1 -21 9 q-7 8 -7 15 q0 6 2 18 q2 12 6 25 l105 325 ZM376 552 l29 0 l-120 152 q-6 9 -14 13 q-8 4 -20 4 q-12 -1 -21 -10 q-9 -10 -9 -22 q0 -10 7 -18 q6 -7 12 -13 l136 -106 Z" /><glyph glyph-name="" unicode="ý" d="M257 93 l-2 0 l-30 232 q-3 39 -16 72 q-12 33 -50 35 q-62 -6 -99 -59 q-38 -53 -48 -76 l14 -5 q10 19 34 56 q25 38 51 42 q14 -1 20 -17 q5 -16 7 -32 l49 -359 q-27 -53 -85 -123 q-58 -69 -119 -76 q-8 0 -13 3 q-4 2 -4 7 q1 7 9 15 q7 7 8 25 q0 24 -12 35 q-12 10 -30 10 q-20 0 -34 -15 q-13 -14 -14 -36 q1 -29 20 -45 q20 -16 52 -16 q91 5 163 99 q73 94 135 213 l115 208 q35 63 57 90 q22 27 28 26 q4 0 4 -5 q0 -7 -3 -13 q-3 -6 -3 -13 q1 -17 13 -26 q12 -9 27 -9 q19 0 31 13 q13 12 13 32 q0 27 -13 39 q-14 12 -35 12 q-38 0 -67 -38 q-30 -37 -66 -106 l-107 -195 ZM259 552 l31 0 l154 96 q10 5 21 16 q11 10 12 24 q0 15 -9 24 q-9 9 -22 9 q-14 -1 -28 -12 q-15 -12 -27 -25 l-132 -132 Z" /><glyph glyph-name="" unicode="ÿ" d="M257 93 l-2 0 l-30 232 q-3 39 -16 72 q-12 33 -50 35 q-62 -6 -99 -59 q-38 -53 -48 -76 l14 -5 q10 19 34 56 q25 38 51 42 q14 -1 20 -17 q5 -16 7 -32 l49 -359 q-27 -53 -85 -123 q-58 -69 -119 -76 q-8 0 -13 3 q-4 2 -4 7 q1 7 9 15 q7 7 8 25 q0 24 -12 35 q-12 10 -30 10 q-20 0 -34 -15 q-13 -14 -14 -36 q1 -29 20 -45 q20 -16 52 -16 q91 5 163 99 q73 94 135 213 l115 208 q35 63 57 90 q22 27 28 26 q4 0 4 -5 q0 -7 -3 -13 q-3 -6 -3 -13 q1 -17 13 -26 q12 -9 27 -9 q19 0 31 13 q13 12 13 32 q0 27 -13 39 q-14 12 -35 12 q-38 0 -67 -38 q-30 -37 -66 -106 l-107 -195 ZM191 617 q0 -18 7 -31 q7 -13 27 -14 q26 2 41 26 q15 24 15 48 q0 18 -10 26 q-11 8 -28 8 q-20 -2 -35 -23 q-16 -22 -17 -40 l0 0 ZM380 617 q0 -18 7 -31 q7 -13 27 -14 q26 2 41 26 q15 24 15 48 q0 18 -10 26 q-11 8 -28 8 q-20 -2 -35 -23 q-16 -22 -17 -40 l0 0 Z" /><glyph glyph-name="" unicode="&#x17e;" d="M23 43 q-18 -16 -23 -23 q-6 -7 -6 -11 q0 -6 3 -10 q4 -5 12 -5 q8 0 12 3 q3 3 3 8 q0 6 -2 8 q-2 2 -2 5 q0 6 9 9 q9 3 25 3 q40 -2 95 -18 q55 -16 92 -18 q99 3 134 42 q34 38 32 71 q0 22 -9 36 q-9 14 -26 14 q-14 0 -22 -9 q-9 -9 -9 -27 q2 -27 18 -34 q16 -7 18 -23 q-1 -10 -10 -16 q-9 -6 -21 -6 q-18 3 -62 21 q-45 18 -122 21 q-25 0 -43 -1 q-19 -1 -33 -5 l-2 2 l331 304 q10 9 15 15 q4 6 4 12 q0 6 -5 11 q-4 4 -11 4 q-7 0 -10 -5 q-4 -5 -4 -12 q0 -3 1 -5 q0 -3 0 -5 q0 -5 -14 -9 q-14 -4 -38 -4 q-40 1 -121 11 q-81 9 -121 16 q-13 -33 -26 -65 q-13 -32 -29 -63 l17 0 l22 46 l5 0 q19 -1 48 -3 q29 -2 64 -2 q32 0 70 6 q37 5 65 15 l2 -2 l-326 -302 ZM420 721 l-37 0 l-135 -107 l-82 107 l-33 0 l88 -169 l38 0 l161 169 Z" /><glyph glyph-name="" unicode="&#xfb01;" d="M39 394 l88 0 q-38 -146 -70 -298 q-33 -153 -59 -240 q-21 -61 -45 -80 q-24 -20 -38 -18 q-7 0 -11 2 q-4 3 -4 8 q1 8 10 14 q8 7 9 27 q0 18 -12 30 q-12 11 -33 11 q-18 0 -31 -14 q-13 -13 -14 -36 q1 -22 17 -39 q17 -18 43 -19 q46 -3 84 31 q38 33 87 134 q33 71 69 201 q36 130 80 286 l189 0 l-83 -273 q-5 -16 -9 -31 q-4 -15 -4 -29 q1 -36 23 -52 q21 -15 46 -15 q59 4 99 43 q40 38 51 59 l-12 8 q-10 -17 -40 -50 q-30 -32 -71 -36 q-13 1 -18 9 q-6 8 -6 17 q0 12 5 29 q5 17 11 33 l104 326 q-32 -13 -64 -18 q-32 -4 -64 -4 l-153 0 q25 118 65 214 q40 96 166 102 q22 0 44 -6 q21 -7 23 -19 q0 -4 -3 -5 q-3 -2 -6 -2 q-18 0 -29 -12 q-12 -12 -12 -32 q0 -21 12 -33 q12 -13 33 -13 q22 1 36 16 q14 15 15 35 q-2 47 -38 68 q-36 20 -77 19 q-132 -6 -207 -106 q-74 -100 -104 -226 l-88 0 l-4 -16 Z" /><glyph glyph-name="" unicode="&#xfb02;" d="M39 394 l88 0 q-38 -146 -70 -298 q-33 -153 -59 -240 q-21 -61 -45 -80 q-24 -20 -38 -18 q-7 0 -11 2 q-4 3 -4 8 q1 8 10 14 q8 7 9 27 q0 18 -12 30 q-12 11 -33 11 q-18 0 -31 -14 q-13 -13 -14 -36 q1 -22 17 -39 q17 -18 43 -19 q46 -3 84 31 q38 33 87 134 q33 71 69 201 q36 130 80 286 l105 0 l3 16 l-105 0 q26 118 66 214 q40 96 166 102 q20 0 33 -7 q13 -8 13 -20 q-4 -16 -28 -20 q-25 -4 -29 -44 q0 -12 7 -21 q7 -9 17 -16 l-137 -460 q-8 -27 -13 -45 q-5 -19 -5 -32 q1 -36 23 -52 q21 -15 46 -15 q59 4 99 43 q40 38 51 59 l-12 8 q-10 -17 -39 -50 q-30 -32 -66 -36 q-17 1 -24 9 q-6 8 -6 17 q0 9 4 21 q3 12 8 27 l192 650 q-10 -9 -25 -16 q-16 -7 -31 -7 q-7 0 -14 4 q-7 3 -15 8 q-9 4 -21 7 q-12 4 -30 4 q-132 -6 -207 -106 q-74 -100 -104 -226 l-88 0 l-4 -16 Z" /><glyph glyph-name="" unicode="&#xf724;" d="M292 319 q54 -18 94 -47 q39 -29 41 -92 q-1 -75 -49 -124 q-49 -50 -135 -52 q-18 0 -35 3 l84 312 ZM305 433 q-51 18 -86 43 q-35 25 -37 73 q2 66 52 105 q50 39 118 40 q6 0 12 0 q5 -1 11 -2 l-70 -259 ZM147 -154 l15 -5 l41 150 q14 -3 31 -3 q145 7 203 90 q58 83 56 163 q-3 85 -55 124 q-52 39 -117 61 l71 264 q50 -10 80 -44 q30 -35 31 -90 q0 -19 -3 -38 q-3 -18 -7 -37 l16 -3 l57 206 l-16 5 q-1 -9 -7 -21 q-6 -12 -26 -13 q-20 2 -47 21 q-26 19 -74 30 l32 118 l-16 5 l-33 -121 q-5 1 -11 2 q-5 0 -11 0 q-111 -4 -164 -71 q-53 -68 -53 -153 q2 -74 42 -108 q40 -34 94 -52 l-85 -315 q-58 14 -93 54 q-35 40 -36 98 q1 44 13 87 l-16 3 l-69 -250 l15 -3 q6 17 15 31 q9 14 26 15 q26 -2 60 -22 q33 -20 80 -30 l-39 -148 Z" /><glyph glyph-name="" unicode="&#xf730;" d="M42 175 q-3 -56 34 -119 q37 -63 157 -68 q122 5 191 98 q69 94 70 221 q0 79 -39 122 q-39 43 -118 43 q-127 -3 -209 -85 q-83 -83 -86 -212 l0 0 ZM126 133 q0 101 55 208 q54 106 166 115 q61 0 96 -38 q34 -39 35 -120 q-2 -111 -68 -200 q-66 -89 -173 -94 q-66 3 -89 45 q-23 42 -22 84 l0 0 Z" /><glyph glyph-name="" unicode="&#xf731;" d="M-27 0 l279 0 l5 16 l-97 0 l122 428 l92 0 l5 16 l-279 0 l-5 -16 l97 0 l-122 -428 l-92 0 l-5 -16 Z" /><glyph glyph-name="" unicode="&#xf732;" d="M404 134 l-13 6 l-39 -68 l-297 0 l0 2 q32 28 84 52 q53 24 110 48 q67 28 111 67 q43 39 44 95 q-2 65 -53 100 q-51 36 -121 36 q-65 0 -116 -31 q-51 -31 -54 -93 q-1 -21 11 -43 q11 -21 42 -23 q22 0 32 13 q11 13 11 32 q-3 34 -27 44 q-24 10 -27 26 q1 17 29 37 q29 20 80 22 q56 -2 80 -36 q24 -34 23 -76 q-2 -71 -42 -112 q-41 -40 -102 -68 q-96 -47 -130 -82 q-33 -35 -52 -82 l350 0 l66 134 Z" /><glyph glyph-name="" unicode="&#xf733;" d="M72 138 q108 2 155 -24 q47 -26 46 -101 q-1 -106 -49 -177 q-49 -72 -134 -75 q-51 1 -84 25 q-33 25 -34 58 q0 8 5 14 q5 5 14 5 q8 0 16 -3 q8 -3 16 -3 q22 0 36 15 q14 14 15 38 q-1 27 -17 38 q-16 11 -40 11 q-27 0 -48 -23 q-20 -24 -21 -68 q-1 -40 33 -80 q34 -40 121 -43 q109 1 186 65 q78 63 81 171 q-3 84 -56 120 q-54 35 -120 42 l0 2 q80 7 153 51 q73 45 78 135 q0 55 -48 97 q-48 42 -143 44 q-64 0 -115 -35 q-51 -34 -54 -101 q0 -24 13 -41 q12 -16 40 -17 q22 0 35 13 q14 13 14 37 q-1 20 -11 28 q-11 8 -22 9 q-15 3 -21 6 q-6 3 -6 10 q2 31 38 53 q36 21 77 22 q57 -1 85 -29 q28 -29 28 -76 q-1 -90 -51 -143 q-51 -53 -138 -54 l-69 0 l-4 -16 Z" /><glyph glyph-name="" unicode="&#xf734;" d="M154 -235 l90 0 l72 235 l94 0 l18 60 l-94 0 l122 412 l-42 0 l-481 -472 l293 0 l-72 -235 ZM244 60 l-230 0 l325 318 l2 -2 l-97 -316 Z" /><glyph glyph-name="" unicode="&#xf735;" d="M145 359 q32 -12 62 -17 q30 -6 58 -6 q71 0 119 32 q48 33 57 104 q-30 -32 -61 -42 q-32 -11 -69 -10 q-30 0 -70 10 q-39 9 -82 30 l-110 -374 q-3 -8 -3 -11 q0 -2 1 -3 q1 -1 4 -1 q4 0 10 13 q6 14 29 43 q20 24 47 40 q28 15 61 15 q33 2 63 -22 q31 -23 33 -90 q3 -60 -41 -178 q-44 -117 -170 -131 q-53 1 -70 15 q-17 13 -16 25 q0 10 7 17 q8 7 19 11 q13 5 20 18 q8 12 8 29 q0 26 -14 38 q-13 13 -37 13 q-27 -1 -42 -20 q-15 -19 -15 -48 q1 -55 41 -84 q40 -30 104 -30 q141 8 224 104 q82 96 84 189 q-1 77 -46 125 q-46 48 -121 49 q-46 0 -80 -18 q-35 -18 -66 -51 l-2 2 l64 214 Z" /><glyph glyph-name="" unicode="&#xf736;" d="M59 235 q1 -120 52 -183 q50 -63 135 -64 q124 6 190 93 q66 86 67 180 q-3 92 -51 135 q-48 42 -104 42 q-52 0 -85 -24 q-34 -24 -35 -66 q0 -23 12 -36 q12 -14 32 -14 q19 0 32 11 q13 12 14 38 q-1 19 -9 30 q-9 10 -10 18 q0 11 12 19 q12 8 40 8 q39 -1 54 -29 q15 -29 14 -72 q3 -39 -34 -170 q-36 -130 -142 -147 q-46 0 -75 31 q-30 31 -31 97 q3 148 91 345 q88 196 219 215 q11 0 17 -4 q7 -3 7 -11 q-1 -10 -11 -22 q-11 -12 -12 -31 q0 -20 13 -35 q13 -14 37 -15 q28 1 40 18 q12 17 12 36 q-1 39 -29 60 q-29 20 -74 20 q-155 -12 -269 -164 q-113 -153 -119 -309 l0 0 Z" /><glyph glyph-name="" unicode="&#xf737;" d="M30 269 l32 74 q1 2 3 4 q2 1 4 1 q3 -1 37 -8 q34 -7 101 -8 q74 0 117 10 q42 10 77 24 l2 -2 q-49 -58 -94 -114 q-44 -55 -79 -103 q-49 -65 -101 -159 q-52 -94 -56 -171 q0 -27 15 -49 q15 -22 45 -23 q18 0 36 13 q19 13 20 42 q0 24 -13 38 q-13 15 -41 15 q-15 0 -20 6 q-6 5 -6 17 q1 30 34 93 q33 62 88 147 q40 61 120 162 q80 101 154 182 l-11 12 q-43 -29 -107 -40 q-65 -11 -117 -10 q-54 0 -108 9 q-54 8 -58 21 q0 6 4 22 q4 17 11 38 l-15 3 q-19 -64 -40 -124 q-22 -59 -47 -119 l13 -3 Z" /><glyph glyph-name="" unicode="&#xf738;" d="M358 142 q1 -39 -31 -86 q-33 -48 -116 -52 q-94 4 -129 52 q-36 47 -34 86 q3 72 58 127 q56 54 127 77 q62 -65 93 -112 q32 -48 32 -92 l0 0 ZM214 571 q-1 51 32 85 q33 35 109 36 q50 0 86 -27 q35 -28 37 -84 q-6 -71 -64 -118 q-57 -46 -95 -62 q-42 44 -73 85 q-30 42 -32 85 l0 0 ZM32 143 q1 -67 48 -110 q48 -43 129 -45 q97 2 161 61 q64 58 66 148 q-2 58 -36 107 q-34 50 -70 85 q67 34 114 80 q48 46 50 111 q-1 66 -41 97 q-39 31 -105 31 q-83 -2 -140 -55 q-58 -53 -60 -139 q1 -53 21 -87 q20 -34 51 -68 q-56 -20 -119 -72 q-64 -52 -69 -144 l0 0 Z" /><glyph glyph-name="" unicode="&#xf739;" d="M53 193 q3 -94 53 -136 q49 -42 106 -41 q43 1 78 25 q36 24 38 64 q0 22 -11 37 q-11 14 -34 15 q-24 -1 -34 -15 q-11 -14 -11 -33 q1 -21 9 -30 q8 -9 9 -19 q-1 -13 -16 -20 q-16 -8 -35 -8 q-36 0 -52 27 q-16 27 -16 75 q-2 50 35 178 q37 128 138 144 q78 -4 95 -54 q17 -50 14 -93 q-3 -127 -90 -327 q-87 -200 -220 -221 q-14 0 -20 4 q-5 4 -5 11 q2 10 12 23 q11 12 12 31 q-1 22 -15 36 q-15 15 -37 15 q-22 0 -36 -15 q-14 -16 -14 -43 q2 -40 32 -59 q30 -19 71 -19 q138 8 259 152 q121 143 129 324 q-3 131 -59 192 q-55 60 -128 59 q-105 -3 -179 -83 q-75 -80 -78 -196 l0 0 Z" /><glyph glyph-name="" unicode="&#xf7a2;" d="M221 9 q-25 9 -37 32 q-11 22 -11 53 q-2 66 36 184 q37 117 135 138 l-123 -407 ZM189 -94 l15 0 l25 84 q5 -1 9 -2 q4 0 8 0 q86 7 138 68 q53 61 63 92 l-14 5 q-8 -23 -58 -82 q-49 -60 -125 -67 q-4 0 -8 0 q-4 1 -8 2 l125 410 q19 0 25 -5 q6 -4 5 -11 q-1 -5 -5 -14 q-5 -10 -6 -30 q0 -23 12 -35 q12 -12 32 -12 q21 0 34 13 q12 13 12 38 q0 29 -28 50 q-27 20 -76 22 l24 77 l-15 0 l-24 -77 q-103 -9 -179 -90 q-77 -82 -81 -184 q3 -80 43 -119 q40 -39 83 -48 l-26 -85 Z" /><glyph glyph-name="" unicode="¹" d="M162 300 l-64 0 l-4 -16 l193 0 l3 16 l-66 0 l133 410 q-47 -29 -109 -61 q-63 -32 -113 -52 l3 -13 q37 13 71 29 q35 16 68 35 l-115 -348 Z" /><glyph glyph-name="" unicode="²" d="M309 338 l-224 0 q70 71 184 117 q114 47 126 149 q-2 56 -43 81 q-41 25 -100 25 q-56 0 -94 -27 q-38 -27 -39 -79 q0 -20 9 -40 q9 -20 31 -21 q14 1 19 9 q5 8 5 15 q-2 23 -20 35 q-17 12 -20 31 q1 29 28 45 q27 16 68 16 q37 1 63 -16 q26 -18 27 -59 q0 -51 -18 -86 q-19 -35 -49 -61 q-41 -32 -112 -70 q-71 -39 -109 -118 l259 0 l47 80 l-9 3 l-29 -29 Z" /><glyph glyph-name="" unicode="³" d="M152 507 q47 2 91 -6 q44 -8 47 -54 q2 -57 -24 -103 q-26 -47 -98 -50 q-41 1 -62 15 q-22 15 -22 27 q0 7 4 9 q4 3 11 3 q6 0 11 -2 q4 -2 13 -2 q12 0 21 9 q9 8 9 21 q0 13 -9 21 q-9 9 -24 9 q-22 -1 -37 -15 q-14 -15 -15 -34 q1 -40 33 -59 q32 -18 85 -18 q65 1 116 39 q51 38 54 100 q-1 48 -32 71 q-32 23 -85 25 l0 2 q54 3 103 30 q50 26 53 75 q-2 48 -40 69 q-39 21 -88 21 q-37 0 -73 -19 q-36 -20 -39 -64 q0 -10 6 -20 q7 -11 24 -12 q13 0 23 8 q10 7 10 21 q0 9 -5 16 q-6 7 -18 9 q-10 1 -13 3 q-3 2 -3 6 q0 11 21 23 q21 12 57 13 q30 1 51 -9 q20 -10 21 -44 q-1 -65 -34 -92 q-34 -27 -90 -26 l-49 0 l-4 -16 Z" /><glyph glyph-name="" unicode="&#x2206;" d="M539 0 l4 19 l-118 687 l-32 -10 l-401 -677 l-4 -19 l551 0 ZM465 39 l-423 0 l329 563 l94 -563 Z" /><glyph glyph-name="" unicode="&#x2126;" d="M672 131 l-22 1 q-26 -52 -44 -66 q-17 -15 -48 -13 l-112 0 q68 57 140 142 q72 85 99 196 q29 150 -31 232 q-61 82 -187 83 q-125 -2 -224 -88 q-100 -86 -135 -236 q-21 -124 17 -206 q38 -81 79 -123 l-110 0 q-28 -1 -41 14 q-13 15 -18 65 l-21 -1 l-5 -131 l225 0 l11 18 q-31 67 -56 157 q-26 89 -6 201 q37 162 113 233 q75 72 163 70 q82 2 131 -67 q49 -69 18 -231 q-29 -117 -98 -211 q-68 -94 -119 -153 l2 -17 l228 0 l51 131 Z" /><glyph glyph-name="" unicode="&#x3bc;" d="M499 410 l-81 0 l-61 -190 q-31 -87 -97 -147 q-65 -60 -112 -63 q-19 0 -29 9 q-10 9 -10 25 q0 5 3 16 q2 11 7 25 l112 347 q-32 -13 -64 -18 q-32 -4 -64 -4 l-27 0 l-4 -16 l64 0 l-129 -394 q-39 -113 -60 -160 q-21 -48 -21 -76 q1 -17 11 -26 q10 -8 23 -8 q28 -1 44 16 q16 16 23 57 q8 44 23 102 q15 57 35 103 q8 -7 17 -10 q9 -4 25 -4 q59 1 108 40 q50 38 95 99 l2 0 q-6 -19 -12 -39 q-6 -21 -6 -35 q0 -31 19 -48 q19 -17 51 -17 q49 1 80 31 q30 29 53 69 l-12 7 q-24 -37 -44 -60 q-21 -22 -47 -23 q-14 1 -21 9 q-7 8 -7 15 q0 6 2 18 q2 12 6 25 l105 325 Z" /><glyph glyph-name="" unicode="&#x3c0;" d="M557 475 q-17 -21 -32 -28 q-14 -7 -35 -6 q-75 0 -143 2 q-68 2 -122 2 q-73 -2 -115 -30 q-42 -28 -67 -55 l9 -18 q29 22 59 36 q31 14 82 14 q-17 -86 -61 -201 q-44 -115 -115 -188 l2 -15 q12 1 29 7 q16 5 29 10 q16 12 60 101 q44 90 83 262 l5 23 q33 0 79 -1 q46 0 93 -1 q-18 -63 -36 -134 q-19 -71 -34 -141 q-15 -73 1 -100 q16 -27 54 -26 q25 0 54 15 q28 15 56 51 l-10 17 q-17 -17 -30 -26 q-14 -8 -30 -8 q-26 0 -31 25 q-5 24 5 69 q12 58 28 132 q16 74 30 123 q22 0 41 1 q18 1 31 3 q12 13 25 31 q13 18 25 45 l-19 9 Z" /><glyph glyph-name="" unicode="&#x20ac;" d="M585 572 l11 78 q-11 21 -45 40 q-35 19 -109 20 q-124 -1 -197 -77 q-73 -76 -115 -216 l-55 0 l-21 -33 l66 0 q-2 -7 -4 -16 q-2 -9 -3 -15 q-2 -7 -4 -18 q-2 -10 -3 -17 l-52 0 l-21 -34 l70 0 q-21 -146 25 -220 q46 -75 161 -75 q68 1 112 18 q43 18 68 45 l21 75 l-18 0 q-22 -57 -68 -81 q-45 -24 -95 -23 q-85 1 -119 68 q-34 67 -16 193 l240 0 l21 34 l-255 0 q1 6 3 16 q2 10 4 18 q1 7 3 16 q2 9 4 16 l283 0 l21 33 l-295 0 q35 120 92 188 q57 68 152 69 q57 0 90 -25 q33 -25 29 -77 l19 0 Z" /><glyph glyph-name="" unicode="&#x2113;" d="M333 108 q-27 -31 -59 -52 q-32 -20 -67 -21 q-43 -2 -60 35 q-18 36 3 137 l22 100 q74 63 132 138 q58 75 79 166 q12 54 -1 91 q-13 37 -54 39 q-21 0 -41 -10 q-21 -10 -42 -30 q-40 -33 -62 -92 q-23 -59 -49 -187 l-27 -125 l-86 -61 l8 -20 l72 48 l-20 -90 q-13 -59 -11 -92 q1 -33 13 -53 q11 -19 33 -29 q21 -10 53 -10 q102 1 177 103 l-13 15 ZM209 485 q26 121 50 175 q24 54 53 53 q25 -1 31 -29 q7 -29 -3 -74 q-15 -67 -59 -137 q-43 -69 -101 -125 l29 137 Z" /><glyph glyph-name="" unicode="&#x212e;" d="M937 338 l0 10 q-4 153 -117 255 q-113 101 -284 105 q-170 -4 -283 -105 q-113 -102 -117 -255 q4 -152 117 -254 q113 -101 283 -105 q98 1 180 38 q82 37 137 101 l-58 0 q-48 -55 -114 -86 q-66 -32 -144 -33 q-72 1 -135 29 q-62 28 -110 77 q-9 10 -9 23 l0 196 q0 4 6 4 l648 0 ZM790 364 q0 -2 -1 -4 q-1 -2 -4 -2 l-496 0 q-3 0 -4 2 q-2 2 -2 4 l0 193 q0 15 10 25 q48 49 110 77 q62 27 134 28 q72 -1 134 -28 q61 -27 109 -74 q10 -10 10 -24 l0 -197 Z" /><glyph glyph-name="" unicode="&#x2202;" d="M303 435 q-47 -1 -93 -22 q-46 -21 -80 -54 q-31 -29 -56 -71 q-25 -42 -37 -94 q-19 -96 17 -150 q37 -53 119 -54 q68 1 126 43 q57 43 102 112 q39 61 64 132 q26 70 37 127 q11 45 15 109 q3 63 -13 123 q-19 67 -59 104 q-40 37 -109 38 q-42 -1 -79 -13 q-38 -12 -67 -30 q-9 -17 -3 -34 q5 -17 17 -16 q32 22 69 37 q37 15 76 16 q50 -2 80 -36 q30 -35 37 -75 q7 -41 4 -82 q-2 -42 -11 -81 q-7 -29 -14 -55 q-7 -26 -15 -51 q-19 40 -54 58 q-35 19 -72 19 l-1 0 ZM313 399 q44 -2 71 -29 q26 -27 31 -51 q-20 -60 -40 -105 q-20 -45 -51 -90 q-27 -41 -64 -73 q-38 -31 -83 -33 q-51 2 -71 44 q-20 42 -8 101 q11 50 31 96 q21 45 52 80 q31 32 64 46 q33 14 67 14 l1 0 Z" /><glyph glyph-name="" unicode="&#x220f;" d="M738 696 l-610 0 l0 -23 q61 -3 76 -13 q15 -10 13 -45 l0 -611 q2 -43 -13 -55 q-16 -12 -73 -15 l0 -22 l230 0 l0 22 q-57 4 -69 17 q-13 13 -10 53 l0 636 q-1 17 6 23 q7 5 27 4 l235 0 q21 1 28 -5 q7 -6 6 -26 l0 -632 q2 -44 -13 -56 q-15 -11 -74 -14 l0 -22 l238 0 l0 22 q-59 3 -74 16 q-15 13 -13 54 l0 611 q-2 34 13 44 q15 11 77 14 l0 23 Z" /><glyph glyph-name="" unicode="&#x2211;" d="M620 84 l-23 7 q-27 -84 -51 -105 q-24 -20 -85 -17 l-270 0 l225 365 l-197 333 l215 0 q55 0 76 -6 q20 -7 27 -23 q9 -14 17 -39 q8 -25 14 -62 l23 5 q-3 49 -7 94 q-4 44 -5 60 l-444 0 l0 -20 l222 -382 l-228 -364 l0 -19 l450 0 l41 173 Z" /><glyph glyph-name="" unicode="&#x2219;" d="M100 308 q1 -23 16 -38 q15 -15 38 -16 q23 1 38 16 q15 15 16 38 q-1 23 -16 38 q-15 15 -38 16 q-23 -1 -38 -16 q-15 -15 -16 -38 l0 0 Z" /><glyph glyph-name="" unicode="&#x221a;" d="M624 901 l-33 9 l-138 -914 l-2 0 l-179 466 l-140 -69 l10 -28 l86 42 l220 -557 l16 10 l160 1041 Z" /><glyph glyph-name="" unicode="&#x221e;" d="M746 290 q-1 66 -38 106 q-38 40 -102 42 q-60 -2 -102 -37 q-42 -35 -79 -80 q-39 47 -83 81 q-44 34 -98 36 q-66 -1 -108 -43 q-41 -43 -42 -110 q2 -64 42 -106 q41 -42 102 -43 q59 2 102 36 q44 34 81 80 q50 -58 92 -87 q41 -29 86 -29 q60 1 102 41 q43 41 45 112 l0 1 ZM244 179 q-47 1 -75 31 q-28 29 -29 74 q0 46 26 78 q25 32 72 33 q52 -2 89 -36 q37 -34 69 -75 q-30 -35 -67 -69 q-37 -33 -84 -36 l-1 0 ZM601 395 q44 0 71 -29 q27 -28 28 -81 q0 -40 -25 -72 q-25 -32 -72 -34 q-38 0 -73 28 q-35 28 -82 81 q26 30 64 67 q39 37 88 40 l1 0 Z" /><glyph glyph-name="" unicode="&#x222b;" d="M263 27 q3 -82 -9 -130 q-13 -48 -38 -49 q-15 3 -22 20 q-8 18 -25 20 q-18 0 -30 -11 q-12 -11 -12 -27 q0 -17 15 -29 q14 -12 39 -13 q63 -8 105 79 q43 87 33 358 l-17 394 q-4 106 13 143 q17 36 36 34 q16 -2 23 -18 q7 -17 27 -19 q15 0 25 9 q10 9 10 26 q-1 20 -18 30 q-16 10 -34 10 q-66 6 -107 -79 q-42 -84 -33 -328 l19 -420 Z" /><glyph glyph-name="" unicode="&#x2248;" d="M510 423 q-20 -36 -41 -54 q-22 -19 -51 -19 q-25 0 -46 10 q-20 9 -45 24 q-20 12 -47 25 q-27 14 -62 15 q-42 0 -76 -25 q-35 -24 -57 -67 l31 -25 q18 30 40 51 q23 21 56 22 q24 0 46 -10 q22 -10 44 -23 q34 -19 59 -30 q26 -11 54 -11 q45 1 75 27 q30 26 49 65 l-29 25 ZM510 261 q-20 -36 -41 -54 q-22 -19 -51 -19 q-26 0 -47 10 q-21 10 -44 24 q-20 12 -47 25 q-26 13 -62 14 q-42 0 -76 -25 q-35 -24 -57 -67 l31 -25 q18 30 40 51 q23 21 57 22 q23 0 45 -10 q22 -10 44 -23 q34 -19 59 -29 q26 -11 54 -11 q45 1 75 27 q30 26 49 64 l-29 26 Z" /><glyph glyph-name="" unicode="&#x2260;" d="M444 494 l-36 17 l-51 -112 l-247 0 l0 -46 l228 0 l-64 -142 l-164 0 l0 -44 l145 0 l-45 -98 l36 -16 l52 114 l255 0 l0 44 l-236 0 l65 142 l171 0 l0 46 l-152 0 l43 95 Z" /><glyph glyph-name="" unicode="&#x2264;" d="M566 100 l0 54 l-385 189 l0 2 l385 186 l0 54 l-435 -218 l0 -48 l435 -219 ZM569 13 l0 47 l-443 0 l0 -47 l443 0 Z" /><glyph glyph-name="" unicode="&#x2265;" d="M132 585 l0 -54 l385 -187 l0 -2 l-385 -188 l0 -54 l435 219 l0 48 l-435 218 ZM568 13 l0 47 l-441 0 l0 -47 l441 0 Z" /><glyph glyph-name="" unicode="&#x25ca;" d="M603 336 l-200 409 l-51 0 l-200 -409 l199 -405 l52 0 l200 405 ZM551 336 l-171 -355 l-3 0 l-173 357 l173 355 l3 0 l171 -357 Z" /><glyph glyph-name="" unicode=" " d="" /><glyph glyph-name="" unicode="­" d="M298 214 l16 54 l-238 0 l-16 -54 l238 0 Z" /><glyph glyph-name="" unicode="&#x2c9;" d="M87 557 l259 0 l8 48 l-259 0 l-8 -48 Z" /><glyph glyph-name="" unicode="&#xf643;" d="M52 175 q-3 -56 34 -119 q37 -63 157 -68 q122 5 191 98 q69 94 70 221 q0 79 -39 122 q-39 43 -118 43 q-127 -3 -209 -85 q-83 -83 -86 -212 l0 0 ZM136 133 q0 101 55 208 q54 106 166 115 q61 0 96 -38 q34 -39 35 -120 q-2 -111 -68 -200 q-66 -89 -173 -94 q-66 3 -89 45 q-23 42 -22 84 l0 0 Z" /><glyph glyph-name="" unicode="&#xf644;" d="M75 0 l279 0 l5 16 l-97 0 l122 428 l92 0 l5 16 l-279 0 l-5 -16 l97 0 l-122 -428 l-92 0 l-5 -16 Z" /><glyph glyph-name="" unicode="&#xf645;" d="M450 134 l-13 6 l-39 -68 l-297 0 l0 2 q32 28 84 52 q53 24 110 48 q67 28 111 67 q43 39 44 95 q-2 65 -53 100 q-51 36 -121 36 q-65 0 -116 -31 q-51 -31 -54 -93 q-1 -21 11 -43 q11 -21 42 -23 q22 0 32 13 q11 13 11 32 q-3 34 -27 44 q-24 10 -27 26 q1 17 29 37 q29 20 80 22 q56 -2 80 -36 q24 -34 23 -76 q-2 -71 -42 -112 q-41 -40 -102 -68 q-96 -47 -130 -82 q-33 -35 -52 -82 l350 0 l66 134 Z" /><glyph glyph-name="" unicode="&#xf646;" d="M118 138 q108 2 155 -24 q47 -26 46 -101 q-1 -106 -49 -177 q-49 -72 -134 -75 q-51 1 -84 25 q-33 25 -34 58 q0 8 5 14 q5 5 14 5 q8 0 16 -3 q8 -3 16 -3 q22 0 36 15 q14 14 15 38 q-1 27 -17 38 q-16 11 -40 11 q-27 0 -48 -23 q-20 -24 -21 -68 q-1 -40 33 -80 q34 -40 121 -43 q109 1 186 65 q78 63 81 171 q-3 84 -56 120 q-54 35 -120 42 l0 2 q80 7 153 51 q73 45 78 135 q0 55 -48 97 q-48 42 -143 44 q-64 0 -115 -35 q-51 -34 -54 -101 q0 -24 13 -41 q12 -16 40 -17 q22 0 35 13 q14 13 14 37 q-1 20 -11 28 q-11 8 -22 9 q-15 3 -21 6 q-6 3 -6 10 q2 31 38 53 q36 21 77 22 q57 -1 85 -29 q28 -29 28 -76 q-1 -90 -51 -143 q-51 -53 -138 -54 l-69 0 l-4 -16 Z" /><glyph glyph-name="" unicode="&#xf647;" d="M182 -235 l90 0 l72 235 l94 0 l18 60 l-94 0 l122 412 l-42 0 l-481 -472 l293 0 l-72 -235 ZM272 60 l-230 0 l325 318 l2 -2 l-97 -316 Z" /><glyph glyph-name="" unicode="&#xf648;" d="M191 359 q32 -12 62 -17 q30 -6 58 -6 q71 0 119 32 q48 33 57 104 q-30 -32 -61 -42 q-32 -11 -69 -10 q-30 0 -70 10 q-39 9 -82 30 l-110 -374 q-3 -8 -3 -11 q0 -2 1 -3 q1 -1 4 -1 q4 0 10 13 q6 14 29 43 q20 24 47 40 q28 15 61 15 q33 2 63 -22 q31 -23 33 -90 q3 -60 -41 -178 q-44 -117 -170 -131 q-53 1 -70 15 q-17 13 -16 25 q0 10 7 17 q8 7 19 11 q13 5 20 18 q8 12 8 29 q0 26 -14 38 q-13 13 -37 13 q-27 -1 -42 -20 q-15 -19 -15 -48 q1 -55 41 -84 q40 -30 104 -30 q141 8 224 104 q82 96 84 189 q-1 77 -46 125 q-46 48 -121 49 q-46 0 -80 -18 q-35 -18 -66 -51 l-2 2 l64 214 Z" /><glyph glyph-name="" unicode="&#xf649;" d="M59 235 q1 -120 52 -183 q50 -63 135 -64 q124 6 190 93 q66 86 67 180 q-3 92 -51 135 q-48 42 -104 42 q-52 0 -85 -24 q-34 -24 -35 -66 q0 -23 12 -36 q12 -14 32 -14 q19 0 32 11 q13 12 14 38 q-1 19 -9 30 q-9 10 -10 18 q0 11 12 19 q12 8 40 8 q39 -1 54 -29 q15 -29 14 -72 q3 -39 -34 -170 q-36 -130 -142 -147 q-46 0 -75 31 q-30 31 -31 97 q3 148 91 345 q88 196 219 215 q11 0 17 -4 q7 -3 7 -11 q-1 -10 -11 -22 q-11 -12 -12 -31 q0 -20 13 -35 q13 -14 37 -15 q28 1 40 18 q12 17 12 36 q-1 39 -29 60 q-29 20 -74 20 q-155 -12 -269 -164 q-113 -153 -119 -309 l0 0 Z" /><glyph glyph-name="" unicode="&#xf64a;" d="M76 269 l32 74 q1 2 3 4 q2 1 4 1 q3 -1 37 -8 q34 -7 101 -8 q74 0 117 10 q42 10 77 24 l2 -2 q-49 -58 -94 -114 q-44 -55 -79 -103 q-49 -65 -101 -159 q-52 -94 -56 -171 q0 -27 15 -49 q15 -22 45 -23 q18 0 36 13 q19 13 20 42 q0 24 -13 38 q-13 15 -41 15 q-15 0 -20 6 q-6 5 -6 17 q1 30 34 93 q33 62 88 147 q40 61 120 162 q80 101 154 182 l-11 12 q-43 -29 -107 -40 q-65 -11 -117 -10 q-54 0 -108 9 q-54 8 -58 21 q0 6 4 22 q4 17 11 38 l-15 3 q-19 -64 -40 -124 q-22 -59 -47 -119 l13 -3 Z" /><glyph glyph-name="" unicode="&#xf64b;" d="M386 142 q1 -39 -31 -86 q-33 -48 -116 -52 q-94 4 -129 52 q-36 47 -34 86 q3 72 58 127 q56 54 127 77 q62 -65 93 -112 q32 -48 32 -92 l0 0 ZM242 571 q-1 51 32 85 q33 35 109 36 q50 0 86 -27 q35 -28 37 -84 q-6 -71 -64 -118 q-57 -46 -95 -62 q-42 44 -73 85 q-30 42 -32 85 l0 0 ZM60 143 q1 -67 48 -110 q48 -43 129 -45 q97 2 161 61 q64 58 66 148 q-2 58 -36 107 q-34 50 -70 85 q67 34 114 80 q48 46 50 111 q-1 66 -41 97 q-39 31 -105 31 q-83 -2 -140 -55 q-58 -53 -60 -139 q1 -53 21 -87 q20 -34 51 -68 q-56 -20 -119 -72 q-64 -52 -69 -144 l0 0 Z" /><glyph glyph-name="" unicode="&#xf64c;" d="M53 193 q3 -94 53 -136 q49 -42 106 -41 q43 1 78 25 q36 24 38 64 q0 22 -11 37 q-11 14 -34 15 q-24 -1 -34 -15 q-11 -14 -11 -33 q1 -21 9 -30 q8 -9 9 -19 q-1 -13 -16 -20 q-16 -8 -35 -8 q-36 0 -52 27 q-16 27 -16 75 q-2 50 35 178 q37 128 138 144 q78 -4 95 -54 q17 -50 14 -93 q-3 -127 -90 -327 q-87 -200 -220 -221 q-14 0 -20 4 q-5 4 -5 11 q2 10 12 23 q11 12 12 31 q-1 22 -15 36 q-15 15 -37 15 q-22 0 -36 -15 q-14 -16 -14 -43 q2 -40 32 -59 q30 -19 71 -19 q138 8 259 152 q121 143 129 324 q-3 131 -59 192 q-55 60 -128 59 q-105 -3 -179 -83 q-75 -80 -78 -196 l0 0 Z" /><glyph glyph-name="" unicode="&#xf653;" d="M292 319 q54 -18 94 -47 q39 -29 41 -92 q-1 -75 -49 -124 q-49 -50 -135 -52 q-18 0 -35 3 l84 312 ZM305 433 q-51 18 -86 43 q-35 25 -37 73 q2 66 52 105 q50 39 118 40 q6 0 12 0 q5 -1 11 -2 l-70 -259 ZM147 -154 l15 -5 l41 150 q14 -3 31 -3 q145 7 203 90 q58 83 56 163 q-3 85 -55 124 q-52 39 -117 61 l71 264 q50 -10 80 -44 q30 -35 31 -90 q0 -19 -3 -38 q-3 -18 -7 -37 l16 -3 l57 206 l-16 5 q-1 -9 -7 -21 q-6 -12 -26 -13 q-20 2 -47 21 q-26 19 -74 30 l32 118 l-16 5 l-33 -121 q-5 1 -11 2 q-5 0 -11 0 q-111 -4 -164 -71 q-53 -68 -53 -153 q2 -74 42 -108 q40 -34 94 -52 l-85 -315 q-58 14 -93 54 q-35 40 -36 98 q1 44 13 87 l-16 3 l-69 -250 l15 -3 q6 17 15 31 q9 14 26 15 q26 -2 60 -22 q33 -20 80 -30 l-39 -148 Z" /><glyph glyph-name="" unicode="&#xf654;" d="M221 9 q-25 9 -37 32 q-11 22 -11 53 q-2 66 36 184 q37 117 135 138 l-123 -407 ZM189 -94 l15 0 l25 84 q5 -1 9 -2 q4 0 8 0 q86 7 138 68 q53 61 63 92 l-14 5 q-8 -23 -58 -82 q-49 -60 -125 -67 q-4 0 -8 0 q-4 1 -8 2 l125 410 q19 0 25 -5 q6 -4 5 -11 q-1 -5 -5 -14 q-5 -10 -6 -30 q0 -23 12 -35 q12 -12 32 -12 q21 0 34 13 q12 13 12 38 q0 29 -28 50 q-27 20 -76 22 l24 77 l-15 0 l-24 -77 q-103 -9 -179 -90 q-77 -82 -81 -184 q3 -80 43 -119 q40 -39 83 -48 l-26 -85 Z" /><glyph glyph-name="" unicode="&#x2215;" d="M-151 -22 l45 0 l463 742 l-45 0 l-463 -742 Z" /><glyph glyph-name="" unicode="&#x3a9;" d="M672 131 l-22 1 q-26 -52 -44 -66 q-17 -15 -48 -13 l-112 0 q68 57 140 142 q72 85 99 196 q29 150 -31 232 q-61 82 -187 83 q-125 -2 -224 -88 q-100 -86 -135 -236 q-21 -124 17 -206 q38 -81 79 -123 l-110 0 q-28 -1 -41 14 q-13 15 -18 65 l-21 -1 l-5 -131 l225 0 l11 18 q-31 67 -56 157 q-26 89 -6 201 q37 162 113 233 q75 72 163 70 q82 2 131 -67 q49 -69 18 -231 q-29 -117 -98 -211 q-68 -94 -119 -153 l2 -17 l228 0 l51 131 Z" /></font>
</defs>
</svg>
