<?xml version="1.0" standalone="no"?><!DOCTYPE svg PUBLIC "-//W3C//DTD SVG 1.1//EN" "http://www.w3.org/Graphics/SVG/1.1/DTD/svg11.dtd" ><svg xmlns="http://www.w3.org/2000/svg"><metadata></metadata><defs><font id="1.040;ADBE;BauerBodoniStd-Roman" horiz-adv-x="1000"><font-face font-family="Bauer Bodoni Std" font-weight="400" font-stretch="normal" units-per-em="1000" panose-1="2 7 6 3 8 7 6 2 3 3" ascent="735" descent="-265" x-height="3" bbox="-170 -281 1000 941" underline-thickness="50" underline-position="-75" unicode-range="U+0020-fb02" /><missing-glyph horiz-adv-x="500" d="M0 0 l500 0 l0 700 l-500 0 l0 -700 ZM250 395 l-170 255 l340 0 l-170 -255 ZM280 350 l170 255 l0 -510 l-170 255 ZM80 50 l170 255 l170 -255 l-340 0 ZM50 605 l170 -255 l-170 -255 l0 510 Z" /><glyph glyph-name="" unicode=" " d="" /><glyph glyph-name="" unicode="!" d="M186 148 l16 0 l0 58 q-1 73 10 195 q11 121 42 209 q-17 22 -30 49 q-14 27 -25 53 q-1 4 -2 6 q-2 2 -3 2 q-1 0 -2 -2 q-2 -2 -3 -6 q-11 -26 -24 -53 q-14 -27 -31 -49 q31 -88 42 -209 q11 -122 10 -195 l0 -58 ZM194 90 q-22 -1 -36 -15 q-14 -14 -15 -36 q1 -22 15 -36 q14 -14 36 -15 q21 1 36 15 q14 14 15 36 q-1 22 -15 36 q-15 14 -36 15 l0 0 Z" /><glyph glyph-name="" unicode="&quot;" d="M355 621 q1 11 2 22 q1 11 1 22 q1 15 -4 34 q-6 19 -32 21 q-26 -2 -31 -21 q-6 -19 -5 -34 q0 -22 3 -44 l16 -160 q0 -6 3 -17 q3 -10 14 -11 q11 1 14 11 q3 11 3 17 l16 160 ZM211 621 q1 11 2 22 q1 11 1 22 q1 15 -4 34 q-6 19 -32 21 q-26 -2 -31 -21 q-6 -19 -5 -34 q0 -22 3 -44 l16 -160 q0 -6 3 -17 q3 -10 14 -11 q11 1 14 11 q3 11 3 17 l16 160 Z" /><glyph glyph-name="" unicode="#" d="M106 0 l56 0 l32 225 l134 0 l-32 -225 l56 0 l32 225 l114 0 l0 48 l-108 0 l22 152 l114 0 l0 48 l-108 0 l32 225 l-56 0 l-31 -225 l-135 0 l32 225 l-56 0 l-32 -225 l-114 0 l0 -48 l108 0 l-22 -152 l-114 0 l0 -48 l108 0 l-32 -225 ZM335 273 l-135 0 l22 152 l134 0 l-21 -152 Z" /><glyph glyph-name="" unicode="$" d="M273 305 q72 -7 125 -34 q53 -27 56 -119 q-1 -67 -46 -107 q-46 -40 -119 -41 q-4 0 -8 0 q-4 1 -8 2 l0 299 ZM257 420 q-67 8 -113 34 q-46 26 -48 97 q1 67 41 105 q40 37 109 38 q5 0 11 -1 l0 -273 ZM257 -159 l16 0 l0 148 q6 -1 12 -1 q109 3 163 65 q54 62 54 152 q-4 120 -74 161 q-70 41 -155 51 l0 275 q83 -11 127 -69 q43 -59 49 -142 l16 0 l0 206 l-16 0 q-2 -10 -7 -23 q-6 -13 -25 -14 q-17 3 -51 26 q-34 22 -93 32 l0 66 l-16 0 l0 -65 q-2 1 -5 1 q-3 0 -5 0 q-89 -2 -138 -56 q-48 -53 -49 -137 q3 -123 61 -163 q58 -40 136 -46 l0 -301 q-81 9 -133 68 q-52 59 -54 171 l-16 0 l0 -248 l16 0 q-1 13 4 27 q4 13 21 14 q24 -2 63 -22 q38 -19 99 -27 l0 -149 Z" /><glyph glyph-name="" unicode="%" d="M522 167 q0 -77 37 -127 q36 -50 106 -52 q70 2 106 52 q37 50 37 127 q0 77 -37 127 q-36 50 -106 52 q-70 -2 -106 -52 q-37 -50 -37 -127 l0 0 ZM594 167 q-2 50 8 104 q11 54 63 59 q52 -5 63 -59 q10 -54 8 -104 q2 -50 -8 -104 q-11 -54 -63 -59 q-52 5 -63 59 q-10 54 -8 104 l0 0 ZM153 531 q-2 50 8 104 q11 54 63 59 q52 -5 63 -59 q10 -54 8 -104 q2 -50 -8 -104 q-11 -54 -63 -59 q-52 5 -63 59 q-10 54 -8 104 l0 0 ZM81 531 q0 -77 37 -127 q36 -50 106 -52 q70 2 106 52 q37 50 37 127 q0 77 -37 127 q-36 50 -106 52 q-70 -2 -106 -52 q-37 -50 -37 -127 l0 0 ZM235 -22 l43 0 l376 742 l-43 0 l-376 -742 Z" /><glyph glyph-name="" unicode="&amp;" d="M428 547 q-1 -45 -27 -80 q-27 -35 -67 -54 q-25 36 -47 76 q-22 41 -23 76 q0 35 20 56 q20 21 54 21 q39 0 64 -25 q25 -24 26 -70 l0 0 ZM734 136 q-7 -19 -28 -46 q-21 -27 -51 -30 q-41 2 -82 42 q-41 39 -79 89 q25 41 51 69 q25 28 33 29 q5 0 8 -6 q2 -6 2 -19 q0 -19 12 -33 q12 -14 35 -15 q26 0 41 15 q15 15 15 40 q-1 32 -19 49 q-18 16 -44 16 q-46 -4 -82 -49 q-36 -46 -61 -82 q-73 96 -142 195 q44 26 72 61 q28 34 29 87 q-1 51 -31 80 q-31 29 -83 30 q-61 -1 -102 -41 q-40 -40 -42 -101 q2 -40 25 -81 q23 -42 45 -75 q-59 -31 -115 -83 q-57 -52 -61 -122 q2 -69 50 -117 q48 -48 117 -50 q59 2 108 42 q49 39 81 86 q46 -62 90 -95 q43 -33 75 -33 q58 3 92 49 q34 45 54 94 l-13 5 ZM164 219 q1 54 29 79 q27 26 71 51 q40 -55 80 -110 q39 -56 82 -109 q-23 -35 -49 -58 q-26 -23 -70 -24 q-57 5 -99 61 q-42 56 -44 110 l0 0 Z" /><glyph glyph-name="" unicode="&#x2019;" d="M119 433 q42 35 68 79 q26 44 27 100 q0 44 -22 75 q-22 32 -70 33 q-27 0 -42 -14 q-16 -14 -16 -38 q0 -20 12 -32 q12 -13 33 -13 q19 0 32 9 q12 9 13 29 q0 14 -5 24 q-6 11 -15 17 l2 2 q36 -7 49 -33 q14 -26 13 -56 q0 -57 -24 -97 q-24 -39 -66 -74 l11 -11 Z" /><glyph glyph-name="" unicode="(" d="M283 741 q-92 -104 -135 -229 q-43 -125 -42 -267 q-1 -142 42 -267 q43 -125 135 -229 l28 21 q-86 100 -125 219 q-39 118 -38 256 q-1 138 38 256 q39 119 125 219 l-28 21 Z" /><glyph glyph-name="" unicode=")" d="M106 -251 q92 104 135 229 q43 125 42 267 q1 142 -42 267 q-43 125 -135 229 l-28 -21 q86 -100 125 -219 q39 -118 38 -256 q1 -138 -38 -256 q-39 -119 -125 -219 l28 -21 Z" /><glyph glyph-name="" unicode="*" d="M87 396 q1 -8 9 -12 q8 -4 17 -5 q-6 -8 -12 -20 q-6 -12 -6 -20 q0 -5 2 -7 q1 -3 5 -3 q6 1 19 8 q13 7 21 13 q3 -6 9 -14 q5 -8 12 -9 q9 1 12 12 q3 11 3 18 q6 31 25 63 q18 32 39 57 q19 -34 28 -71 q8 -37 8 -70 q0 -9 1 -17 q1 -7 5 -8 q7 1 14 7 q6 7 10 13 q7 -9 18 -20 q11 -11 20 -12 q4 0 5 4 q1 4 1 11 q0 10 -3 21 q-2 10 -4 15 q9 1 19 5 q9 4 10 11 q-1 10 -32 27 q-32 16 -87 93 q16 2 29 2 q14 1 27 1 q40 -1 69 -9 q29 -9 37 -10 q5 0 7 3 q2 2 2 5 q0 4 -5 11 q-4 7 -11 13 q9 3 26 12 q16 8 18 16 q-2 9 -22 11 q-19 2 -25 2 q0 15 -2 24 q-2 9 -8 9 q-5 0 -8 -4 q-4 -4 -9 -9 q-28 -27 -62 -41 q-34 -15 -67 -23 q10 66 35 105 q26 39 29 48 q0 6 -3 8 q-3 2 -6 2 q-5 0 -12 -2 q-6 -3 -10 -6 q0 14 -4 31 q-3 17 -11 19 q-9 -1 -16 -16 q-7 -15 -10 -27 q-5 3 -11 6 q-6 2 -12 2 q-6 0 -9 -3 q-4 -2 -4 -7 q2 -9 16 -39 q13 -30 15 -91 q0 -15 -1 -29 q-56 29 -88 67 q-32 38 -40 42 q-8 -1 -10 -12 q-1 -11 -1 -18 q-6 2 -16 3 q-9 2 -16 2 q-6 0 -13 -1 q-6 -1 -7 -5 q1 -9 12 -19 q11 -10 22 -17 q-6 -4 -11 -11 q-5 -8 -5 -12 q0 -3 2 -6 q1 -4 7 -4 q9 0 18 1 q9 1 18 1 q32 0 63 -6 q31 -7 60 -18 q-27 -28 -60 -47 q-34 -18 -70 -32 q-4 -1 -9 -4 q-6 -3 -6 -8 l0 0 Z" /><glyph glyph-name="" unicode="+" d="M270 283 l-223 0 l0 -60 l223 0 l0 -223 l60 0 l0 223 l223 0 l0 60 l-223 0 l0 223 l-60 0 l0 -223 Z" /><glyph glyph-name="" unicode="," d="M119 -197 q42 35 68 79 q26 44 27 100 q0 44 -22 75 q-22 32 -70 33 q-27 0 -42 -14 q-16 -14 -16 -38 q0 -20 12 -32 q12 -13 33 -13 q19 0 32 9 q12 9 13 29 q0 14 -5 24 q-6 11 -15 17 l2 2 q36 -7 49 -33 q14 -26 13 -56 q0 -57 -24 -97 q-24 -39 -66 -74 l11 -11 Z" /><glyph glyph-name="" unicode="-" d="M65 211 q61 2 122 2 q61 0 121 -2 l16 60 q-59 -2 -119 -2 q-60 0 -124 2 l-16 -60 Z" /><glyph glyph-name="" unicode="." d="M139 90 q-22 -1 -36 -15 q-14 -14 -15 -36 q1 -22 15 -36 q14 -14 36 -15 q21 1 36 15 q14 14 15 36 q-1 22 -15 36 q-15 14 -36 15 l0 0 Z" /><glyph glyph-name="" unicode="/" d="M14 -16 l64 0 l297 736 l-64 0 l-297 -736 Z" /><glyph glyph-name="" unicode="0" d="M149 349 q-5 89 12 211 q17 122 117 134 q100 -12 117 -134 q17 -122 12 -211 q5 -89 -12 -211 q-17 -122 -117 -134 q-100 12 -117 134 q-17 122 -12 211 l0 0 ZM53 349 q0 -147 55 -251 q55 -105 170 -110 q115 5 170 110 q55 104 55 251 q0 147 -55 251 q-55 105 -170 110 q-115 -5 -170 -110 q-55 -104 -55 -251 l0 0 Z" /><glyph glyph-name="" unicode="1" d="M256 16 l-94 0 l0 -16 l282 0 l0 16 l-92 0 l0 682 l-41 0 q-50 -51 -112 -94 q-61 -42 -113 -70 l0 -17 q47 26 96 50 q49 23 63 25 q7 0 9 -7 q2 -6 2 -17 l0 -552 Z" /><glyph glyph-name="" unicode="2" d="M500 193 l-17 0 l-15 -109 l-358 0 q132 141 247 220 q115 79 122 202 q-3 99 -65 151 q-62 53 -152 53 q-86 1 -146 -43 q-60 -45 -63 -140 q-2 -32 15 -58 q17 -26 45 -28 q19 -2 36 11 q17 12 17 40 q-1 24 -15 35 q-14 10 -35 10 q-16 0 -25 5 q-8 6 -8 23 q3 61 51 95 q47 33 102 34 q75 -2 111 -52 q36 -51 36 -125 q-15 -187 -147 -286 q-132 -100 -197 -231 l437 0 l24 193 Z" /><glyph glyph-name="" unicode="3" d="M116 385 l114 0 q99 -5 131 -65 q32 -60 29 -122 q2 -93 -39 -143 q-40 -50 -141 -51 q-45 1 -94 23 q-48 23 -52 59 q0 5 3 7 q2 3 7 3 q6 0 11 -1 q5 -2 12 -2 q19 0 34 13 q15 13 16 36 q0 28 -15 41 q-14 12 -38 12 q-28 -1 -44 -21 q-16 -20 -16 -42 q4 -81 64 -113 q59 -32 127 -31 q89 0 172 53 q83 52 89 156 q-6 110 -76 152 q-69 42 -128 44 l0 2 q49 6 109 40 q60 33 65 124 q-3 76 -63 114 q-60 37 -139 37 q-62 0 -116 -30 q-54 -31 -58 -98 q0 -20 13 -37 q13 -17 39 -18 q16 0 30 11 q13 10 14 31 q0 25 -13 37 q-13 11 -34 11 q-6 0 -10 -1 q-4 -1 -6 -1 q-2 0 -3 2 q0 3 0 5 q1 20 38 45 q36 25 94 27 q66 -1 95 -36 q30 -36 29 -99 q-1 -106 -46 -134 q-46 -28 -130 -24 l-74 0 l0 -16 Z" /><glyph glyph-name="" unicode="4" d="M312 16 l-94 0 l0 -16 l275 0 l0 16 l-91 0 l0 231 l100 0 l0 66 l-100 0 l0 246 l-90 0 l0 -246 l-220 0 l311 407 l-19 0 l-361 -473 l289 0 l0 -231 Z" /><glyph glyph-name="" unicode="5" d="M420 710 q1 -10 -4 -18 q-5 -9 -22 -9 q-31 1 -78 11 q-46 9 -108 10 q-36 0 -66 -8 q-31 -7 -48 -16 q4 -18 10 -60 q5 -43 6 -85 q0 -49 -7 -100 q-6 -51 -13 -69 l15 0 q19 19 51 31 q33 13 79 13 q87 -2 129 -60 q42 -58 42 -143 q2 -85 -38 -143 q-39 -58 -146 -60 q-66 1 -106 25 q-40 24 -41 57 q0 11 11 14 q10 3 25 3 q20 0 32 11 q12 11 12 32 q0 19 -13 33 q-13 13 -34 14 q-33 -1 -48 -21 q-15 -19 -15 -46 q2 -72 55 -105 q53 -33 127 -33 q109 0 190 57 q81 56 85 168 q-4 102 -77 157 q-73 55 -173 56 q-43 0 -76 -7 q-32 -8 -64 -29 q5 27 9 62 q5 34 5 75 q0 28 -1 44 q-1 15 -2 30 q7 10 21 14 q14 5 37 5 q27 -1 67 -7 q40 -7 79 -8 q34 -1 67 17 q34 18 36 64 q0 11 -1 24 l-9 0 Z" /><glyph glyph-name="" unicode="6" d="M459 720 q-172 -30 -288 -148 q-115 -119 -120 -302 q-1 -117 53 -198 q54 -81 174 -84 q103 3 165 70 q61 67 62 165 q-2 106 -60 163 q-57 57 -142 58 q-54 -1 -94 -28 q-40 -27 -60 -63 l-2 0 q15 159 89 243 q74 83 227 108 l-4 16 ZM409 226 q3 -72 -21 -144 q-24 -72 -110 -78 q-90 4 -112 84 q-22 80 -19 184 q0 11 1 22 q1 10 2 20 q14 48 53 80 q39 33 85 34 q76 -4 99 -65 q24 -61 22 -137 l0 0 Z" /><glyph glyph-name="" unicode="7" d="M44 527 l16 0 q4 21 11 46 q7 25 12 41 l345 0 l-46 -116 q-63 -154 -105 -261 q-41 -107 -43 -172 q0 -33 14 -52 q13 -19 36 -19 q19 0 33 11 q14 10 15 34 q0 23 -14 34 q-13 11 -34 11 q-5 0 -12 -1 q-6 -2 -12 -2 q-5 0 -8 3 q-2 2 -2 7 q4 40 48 145 q44 104 86 190 l133 272 l-450 0 l-23 -171 Z" /><glyph glyph-name="" unicode="8" d="M172 547 q-3 60 16 103 q18 42 90 44 q72 -2 90 -44 q19 -43 16 -103 q0 -57 -13 -92 q-13 -34 -40 -50 q-15 -9 -29 -15 q-15 -6 -24 -6 q-9 0 -23 6 q-15 6 -30 15 q-27 16 -40 50 q-13 35 -13 92 l0 0 ZM82 547 q3 -81 55 -118 q52 -36 116 -52 l0 -2 q-81 -25 -142 -72 q-61 -48 -64 -129 q5 -100 76 -143 q71 -44 155 -43 q84 -1 155 43 q72 43 76 143 q-3 81 -64 129 q-61 47 -142 72 l0 2 q64 16 116 52 q52 37 55 118 q-3 78 -62 121 q-59 42 -134 42 q-75 0 -134 -42 q-59 -43 -62 -121 l0 0 ZM143 171 q1 50 13 86 q11 36 25 54 q23 29 53 43 q29 14 44 14 q15 0 44 -14 q30 -14 53 -43 q14 -18 25 -54 q12 -36 13 -86 q1 -68 -29 -116 q-31 -49 -106 -51 q-75 2 -106 51 q-30 48 -29 116 l0 0 Z" /><glyph glyph-name="" unicode="9" d="M147 472 q-3 72 21 144 q24 72 110 78 q90 -4 112 -84 q22 -80 19 -184 q0 -11 -1 -22 q-1 -10 -2 -20 q-13 -48 -52 -80 q-39 -33 -86 -34 q-76 4 -99 65 q-24 61 -22 137 l0 0 ZM97 -22 q172 30 288 149 q115 118 120 301 q1 117 -53 198 q-53 81 -174 84 q-103 -3 -164 -70 q-62 -67 -63 -165 q2 -106 60 -163 q57 -57 142 -58 q54 1 94 28 q40 27 60 63 l2 0 q-15 -159 -89 -243 q-74 -83 -227 -108 l4 -16 Z" /><glyph glyph-name="" unicode=":" d="M139 378 q-22 -1 -36 -15 q-14 -14 -15 -36 q1 -22 15 -36 q14 -14 36 -15 q21 1 36 15 q14 14 15 36 q-1 22 -15 36 q-15 14 -36 15 l0 0 ZM139 90 q-22 -1 -36 -15 q-14 -14 -15 -36 q1 -22 15 -36 q14 -14 36 -15 q21 1 36 15 q14 14 15 36 q-1 22 -15 36 q-15 14 -36 15 l0 0 Z" /><glyph glyph-name="" unicode=";" d="M119 -197 q42 35 68 79 q26 44 27 100 q0 44 -22 75 q-22 32 -70 33 q-27 0 -42 -14 q-16 -14 -16 -38 q0 -20 12 -32 q12 -13 33 -13 q19 0 32 9 q12 9 13 29 q0 14 -5 24 q-6 11 -15 17 l2 2 q36 -7 49 -33 q14 -26 13 -56 q0 -57 -24 -97 q-24 -39 -66 -74 l11 -11 ZM139 378 q-22 -1 -36 -15 q-14 -14 -15 -36 q1 -22 15 -36 q14 -14 36 -15 q21 1 36 15 q14 14 15 36 q-1 22 -15 36 q-15 14 -36 15 l0 0 Z" /><glyph glyph-name="" unicode="&lt;" d="M553 -8 l0 62 l-435 199 l435 199 l0 62 l-506 -231 l0 -60 l506 -231 Z" /><glyph glyph-name="" unicode="=" d="M47 321 l506 0 l0 60 l-506 0 l0 -60 ZM47 125 l506 0 l0 60 l-506 0 l0 -60 Z" /><glyph glyph-name="" unicode="&gt;" d="M47 514 l0 -62 l435 -199 l-435 -199 l0 -62 l506 231 l0 60 l-506 231 Z" /><glyph glyph-name="" unicode="?" d="M196 149 q-2 10 -4 24 q-2 13 -2 34 q-1 40 32 79 q33 39 105 104 q28 23 48 59 q19 36 20 101 q0 76 -40 122 q-41 47 -118 48 q-55 -1 -93 -33 q-37 -33 -39 -85 q0 -23 14 -44 q13 -21 39 -22 q21 0 35 11 q13 11 14 34 q-4 41 -33 44 q-29 3 -33 19 q2 29 34 44 q31 16 62 16 q50 0 88 -27 q38 -28 40 -82 q-12 -92 -99 -147 q-88 -56 -100 -179 q0 -31 5 -62 q4 -31 12 -61 l13 3 ZM194 90 q-22 -1 -36 -15 q-14 -14 -15 -36 q1 -22 15 -36 q14 -14 36 -15 q21 1 36 15 q14 14 15 36 q-1 22 -15 36 q-15 14 -36 15 l0 0 Z" /><glyph glyph-name="" unicode="@" d="M321 285 q5 101 56 156 q51 56 92 57 q26 -1 38 -17 q11 -16 11 -41 q-3 -102 -44 -172 q-41 -70 -89 -73 q-28 0 -45 21 q-18 21 -19 69 l0 0 ZM619 527 l-73 0 l-11 -47 l-2 0 q-8 23 -29 41 q-20 18 -50 19 q-86 -3 -144 -77 q-59 -73 -61 -178 q4 -90 41 -112 q36 -23 61 -20 q44 3 78 33 q35 30 42 47 l2 0 q1 -44 30 -62 q29 -19 69 -18 q91 3 141 77 q50 74 51 176 q-4 138 -100 225 q-97 86 -245 89 q-167 -3 -276 -106 q-109 -104 -113 -278 q-1 -116 96 -230 q97 -113 305 -122 q49 0 108 14 q59 14 122 49 l-10 21 q-42 -22 -94 -35 q-52 -13 -127 -13 q-148 5 -231 95 q-84 91 -85 210 q2 177 85 268 q83 91 220 91 q152 -6 233 -93 q81 -88 82 -186 q0 -81 -38 -150 q-37 -68 -108 -72 q-26 1 -35 14 q-9 13 -8 25 q0 10 1 16 q1 7 2 13 l71 276 Z" /><glyph glyph-name="" unicode="a" d="M462 16 l-98 0 l0 -16 l293 0 l0 16 l-83 0 l-243 704 l-11 0 l-215 -645 q-13 -40 -27 -50 q-13 -11 -36 -9 l-32 0 l0 -16 l206 0 l0 16 l-52 0 q-24 0 -34 7 q-10 7 -10 18 q0 13 5 29 q4 17 10 32 l41 126 l214 0 l72 -212 ZM385 244 l-203 0 l98 303 l2 0 l103 -303 Z" /><glyph glyph-name="" unicode="b" d="M207 688 l52 0 q107 -4 148 -55 q40 -51 38 -95 q-2 -99 -52 -129 q-50 -30 -120 -27 l-66 0 l0 306 ZM105 16 l-95 0 l0 -16 l342 0 q75 -1 142 44 q67 45 72 145 q-4 94 -69 136 q-66 42 -151 47 l0 2 q60 1 128 32 q67 31 73 142 q-1 63 -60 108 q-60 46 -172 48 l-305 0 l0 -16 l95 0 l0 -672 ZM207 366 l54 0 q87 0 138 -42 q52 -42 53 -126 q0 -88 -41 -135 q-41 -47 -120 -47 l-84 0 l0 350 Z" /><glyph glyph-name="" unicode="c" d="M597 690 l-16 0 q0 -18 -8 -30 q-8 -13 -29 -13 q-26 5 -67 37 q-41 31 -116 36 q-131 -4 -221 -107 q-91 -103 -95 -261 q4 -158 95 -261 q90 -103 221 -107 q76 5 120 39 q44 34 66 39 q18 -1 26 -17 q8 -17 8 -33 l16 0 l0 237 l-16 0 q-2 -98 -63 -171 q-61 -74 -157 -78 q-129 10 -168 127 q-38 117 -34 225 q-4 108 34 225 q39 117 168 127 q94 -3 156 -71 q62 -67 64 -157 l16 0 l0 214 Z" /><glyph glyph-name="" unicode="d" d="M105 16 l-95 0 l0 -16 l314 0 q156 2 247 94 q91 93 93 258 q4 109 -71 226 q-74 116 -270 126 l-313 0 l0 -16 l95 0 l0 -672 ZM207 688 l49 0 q179 -5 239 -104 q60 -99 55 -232 q-8 -219 -95 -281 q-87 -62 -162 -55 l-86 0 l0 672 Z" /><glyph glyph-name="" unicode="e" d="M105 16 l-88 0 l0 -16 l583 0 l0 205 l-16 0 q0 -123 -59 -158 q-60 -35 -181 -31 l-137 0 l0 334 l74 0 q76 0 97 -32 q21 -32 18 -90 l16 0 l0 266 l-16 0 q3 -51 -18 -88 q-21 -38 -96 -40 l-75 0 l0 322 l157 0 q81 1 131 -34 q50 -35 51 -120 l16 0 l-12 170 l-533 0 l0 -16 l88 0 l0 -672 Z" /><glyph glyph-name="" unicode="f" d="M116 16 l-91 0 l0 -16 l287 0 l0 16 l-94 0 l0 334 l74 0 q76 0 97 -32 q21 -32 18 -90 l16 0 l0 266 l-16 0 q3 -51 -18 -88 q-21 -38 -96 -40 l-75 0 l0 322 l159 0 q83 1 130 -33 q46 -35 50 -121 l17 0 l-14 170 l-535 0 l0 -16 l91 0 l0 -672 Z" /><glyph glyph-name="" unicode="g" d="M522 122 q-1 -67 -44 -95 q-44 -28 -117 -27 q-129 10 -168 128 q-38 117 -34 224 q-4 108 34 225 q39 117 168 127 q96 -3 159 -68 q63 -64 68 -148 l16 0 l0 214 l-16 0 q1 -20 -6 -34 q-7 -15 -29 -16 q-23 4 -67 34 q-44 30 -125 34 q-131 -4 -221 -107 q-91 -103 -95 -261 q3 -178 91 -272 q88 -95 225 -96 q113 4 178 43 q66 40 91 64 l0 119 l79 0 l0 16 l-279 0 l0 -16 l92 0 l0 -88 Z" /><glyph glyph-name="" unicode="h" d="M105 16 l-88 0 l0 -16 l284 0 l0 16 l-94 0 l0 338 l364 0 l0 -338 l-94 0 l0 -16 l284 0 l0 16 l-88 0 l0 672 l88 0 l0 16 l-284 0 l0 -16 l94 0 l0 -318 l-364 0 l0 318 l94 0 l0 16 l-284 0 l0 -16 l88 0 l0 -672 Z" /><glyph glyph-name="" unicode="i" d="M116 16 l-91 0 l0 -16 l284 0 l0 16 l-91 0 l0 672 l91 0 l0 16 l-284 0 l0 -16 l91 0 l0 -672 Z" /><glyph glyph-name="" unicode="j" d="M177 73 q1 -13 11 -27 q9 -13 10 -49 q-1 -32 -23 -45 q-22 -13 -55 -12 q-26 0 -40 8 q-14 8 -14 19 q3 11 25 17 q22 6 25 37 q-1 23 -15 35 q-14 11 -33 11 q-22 0 -38 -14 q-15 -15 -16 -45 q0 -35 27 -59 q27 -24 79 -25 q73 1 116 49 q42 47 43 133 l0 582 l100 0 l0 16 l-302 0 l0 -16 l100 0 l0 -615 Z" /><glyph glyph-name="" unicode="k" d="M116 16 l-91 0 l0 -16 l294 0 l0 16 l-101 0 l0 321 l13 10 l256 -331 l-93 0 l0 -16 l310 0 l0 16 l-55 0 q-20 0 -30 9 q-11 9 -24 26 l-289 369 l197 189 q24 24 61 50 q36 27 81 29 l34 0 l0 16 l-262 0 l0 -16 l56 0 q24 0 33 -6 q8 -5 8 -15 q-4 -18 -42 -59 q-38 -40 -65 -66 l-189 -182 l0 328 l101 0 l0 16 l-294 0 l0 -16 l91 0 l0 -672 Z" /><glyph glyph-name="" unicode="l" d="M125 16 l-100 0 l0 -16 l595 0 l0 230 l-16 0 q2 -137 -54 -178 q-56 -40 -198 -36 l-125 0 l0 672 l100 0 l0 16 l-302 0 l0 -16 l100 0 l0 -672 Z" /><glyph glyph-name="" unicode="m" d="M105 99 q1 -48 -11 -66 q-12 -18 -51 -17 l-26 0 l0 -16 l206 0 l0 16 l-40 0 q-39 -1 -51 17 q-12 18 -11 66 l0 539 l2 0 l248 -622 l9 0 l244 634 l2 0 l0 -634 l-94 0 l0 -16 l284 0 l0 16 l-88 0 l0 672 l88 0 l0 16 l-190 0 l-206 -532 l-210 532 l-193 0 l0 -16 l88 0 l0 -589 Z" /><glyph glyph-name="" unicode="n" d="M603 -6 l13 0 l0 640 q-1 30 10 42 q10 12 42 12 l44 0 l0 16 l-211 0 l0 -16 l47 0 q32 0 43 -12 q10 -12 9 -42 l0 -452 l-2 0 l-378 522 l-210 0 l0 -16 l96 0 l0 -615 q0 -35 -14 -46 q-14 -12 -48 -11 l-34 0 l0 -16 l214 0 l0 16 l-40 0 q-34 -1 -48 11 q-14 11 -14 46 l0 583 l2 0 l479 -662 Z" /><glyph glyph-name="" unicode="o" d="M45 352 q4 -158 95 -261 q90 -103 221 -107 q131 4 221 107 q91 103 95 261 q-4 158 -95 261 q-90 103 -221 107 q-131 -4 -221 -107 q-91 -103 -95 -261 l0 0 ZM159 352 q-4 108 34 225 q39 117 168 127 q129 -10 168 -127 q38 -117 34 -225 q4 -108 -34 -225 q-39 -117 -168 -127 q-129 10 -168 127 q-38 117 -34 225 l0 0 Z" /><glyph glyph-name="" unicode="p" d="M116 16 l-99 0 l0 -16 l303 0 l0 16 l-102 0 l0 315 q16 -8 42 -12 q26 -5 52 -5 q95 -1 172 45 q77 45 82 150 q-3 107 -76 152 q-74 44 -188 43 l-285 0 l0 -16 l99 0 l0 -672 ZM218 688 l61 0 q89 1 134 -45 q45 -45 45 -143 q-4 -99 -57 -136 q-52 -36 -106 -34 q-25 0 -45 7 q-20 6 -32 14 l0 337 Z" /><glyph glyph-name="" unicode="q" d="M412 -10 q113 24 188 123 q74 98 77 239 q-4 158 -95 261 q-90 103 -221 107 q-131 -4 -221 -107 q-91 -103 -95 -261 q3 -141 78 -240 q75 -99 187 -122 l0 -97 q4 -67 71 -87 q66 -20 149 -18 q15 0 30 1 q14 1 29 3 l0 16 q-9 -2 -22 -3 q-13 -1 -25 -1 q-79 0 -105 20 q-27 20 -25 53 l0 113 ZM159 352 q-4 108 34 225 q39 117 168 127 q129 -10 168 -127 q38 -117 34 -225 q4 -108 -34 -225 q-39 -117 -168 -127 q-129 10 -168 127 q-38 117 -34 225 l0 0 Z" /><glyph glyph-name="" unicode="r" d="M125 16 l-100 0 l0 -16 l304 0 l0 16 l-102 0 l0 338 l65 0 q82 -2 109 -36 q26 -35 29 -84 l7 -60 q7 -87 31 -133 q24 -47 112 -47 q28 0 47 4 q20 4 35 9 l-6 13 q-7 -3 -17 -6 q-11 -4 -24 -4 q-14 -2 -30 9 q-16 11 -22 54 l-14 122 q-11 96 -58 129 q-47 33 -133 38 l0 2 q61 5 134 39 q73 35 80 124 q-4 110 -77 145 q-73 35 -163 32 l-307 0 l0 -16 l100 0 l0 -672 ZM227 688 l68 0 q104 -3 138 -50 q34 -48 31 -111 q-1 -86 -49 -122 q-49 -36 -138 -35 l-50 0 l0 318 Z" /><glyph glyph-name="" unicode="s" d="M54 -6 l16 0 q-1 14 4 27 q4 14 21 15 q27 -3 71 -26 q45 -23 119 -26 q109 2 163 65 q54 64 54 164 q1 96 -48 141 q-49 44 -158 62 q-121 20 -162 48 q-41 27 -38 92 q1 70 41 109 q39 38 104 39 q100 -3 149 -66 q50 -63 56 -151 l16 0 l0 210 l-16 0 q-2 -11 -7 -24 q-5 -13 -22 -14 q-24 4 -62 31 q-39 26 -114 30 q-85 -2 -135 -56 q-51 -54 -52 -141 q0 -122 57 -163 q57 -42 174 -56 q86 -12 128 -44 q41 -33 41 -109 q-1 -68 -46 -109 q-46 -41 -119 -42 q-92 0 -154 61 q-63 60 -65 186 l-16 0 l0 -253 Z" /><glyph glyph-name="" unicode="t" d="M283 16 l-103 0 l0 -16 l308 0 l0 16 l-103 0 l0 672 l22 0 q130 3 175 -34 q45 -37 42 -157 l16 0 l0 207 l-612 0 l0 -207 l16 0 q-3 120 42 157 q46 37 176 34 l21 0 l0 -672 Z" /><glyph glyph-name="" unicode="u" d="M10 688 l95 0 l0 -506 q2 -117 74 -159 q73 -42 198 -39 q103 -1 172 52 q70 52 73 168 l0 415 q-1 38 11 54 q11 15 43 15 l45 0 l0 16 l-232 0 l0 -16 l56 0 q33 1 47 -14 q14 -14 14 -54 l0 -404 q-1 -111 -61 -164 q-61 -52 -167 -52 q-66 0 -117 40 q-51 40 -54 125 l0 523 l106 0 l0 16 l-303 0 l0 -16 Z" /><glyph glyph-name="" unicode="v" d="M213 688 l97 0 l0 16 l-293 0 l0 -16 l81 0 l249 -712 l10 0 l232 643 q10 31 29 50 q18 19 60 19 l27 0 l0 16 l-218 0 l0 -16 l11 0 q50 0 65 -11 q15 -10 13 -27 q0 -12 -8 -36 q-9 -25 -27 -74 l-142 -399 l-2 0 l-184 547 Z" /><glyph glyph-name="" unicode="w" d="M336 -24 l13 0 l123 342 l2 0 l113 -342 l13 0 l231 645 q11 34 30 50 q19 17 57 17 l9 0 l0 16 l-178 0 l0 -16 l29 0 q25 0 35 -8 q9 -8 9 -20 q0 -5 -2 -15 q-3 -9 -10 -30 l-171 -481 l-2 0 l-111 336 l59 163 q11 34 30 45 q19 11 49 10 l27 0 l0 16 l-407 0 l0 -16 l60 0 l119 -344 l-75 -210 l-2 0 l-190 554 l53 0 l0 16 l-232 0 l0 -16 l71 0 l248 -712 ZM448 688 l83 0 q26 0 34 -8 q7 -8 6 -17 q0 -7 -2 -17 q-2 -10 -7 -24 l-46 -129 l-2 0 l-66 195 Z" /><glyph glyph-name="" unicode="x" d="M255 688 l84 0 l0 16 l-293 0 l0 -16 l87 0 l195 -341 l-181 -280 q-22 -34 -49 -43 q-27 -9 -63 -8 l-25 0 l0 -16 l235 0 l0 16 l-50 0 q-19 0 -29 5 q-10 4 -10 13 q-1 4 5 16 q6 11 30 49 l147 230 l174 -313 l-91 0 l0 -16 l291 0 l0 16 l-81 0 l-229 409 l128 202 q20 33 39 47 q20 14 50 14 l33 0 l0 16 l-217 0 l0 -16 l31 0 q35 0 47 -7 q12 -6 11 -19 q0 -6 -3 -13 q-3 -7 -11 -19 l-119 -188 l-136 246 Z" /><glyph glyph-name="" unicode="y" d="M288 16 l-106 0 l0 -16 l314 0 l0 16 l-106 0 l0 258 l162 359 q9 22 22 38 q13 16 41 17 l42 0 l0 16 l-205 0 l0 -16 l38 0 q24 0 35 -7 q10 -7 10 -20 q0 -14 -6 -32 q-7 -19 -20 -48 l-124 -280 l-167 387 l83 0 l0 16 l-291 0 l0 -16 l91 0 l187 -430 l0 -242 Z" /><glyph glyph-name="" unicode="z" d="M38 0 l559 0 l0 200 l-16 0 l0 -40 q-6 -100 -100 -124 q-93 -24 -199 -20 l-119 0 l428 688 l-511 0 l0 -194 l16 0 q-6 76 27 126 q33 50 180 52 l161 0 l-426 -688 Z" /><glyph glyph-name="" unicode="[" d="M135 -239 l191 0 l0 42 l-149 0 l0 884 l149 0 l0 42 l-191 0 l0 -968 Z" /><glyph glyph-name="" unicode="\" d="M78 720 l-64 0 l297 -736 l64 0 l-297 736 Z" /><glyph glyph-name="" unicode="]" d="M254 729 l-191 0 l0 -42 l149 0 l0 -884 l-149 0 l0 -42 l191 0 l0 968 Z" /><glyph glyph-name="" unicode="^" d="M91 333 l62 0 l147 295 l147 -295 l62 0 l-183 365 l-52 0 l-183 -365 Z" /><glyph glyph-name="" unicode="_" d="M0 -125 l500 0 l0 50 l-500 0 l0 -50 Z" /><glyph glyph-name="" unicode="&#x2018;" d="M159 720 q-42 -35 -68 -79 q-26 -44 -27 -100 q0 -44 22 -75 q22 -32 70 -33 q27 0 42 14 q16 14 16 38 q0 20 -12 32 q-12 13 -33 13 q-19 0 -31 -9 q-13 -9 -14 -29 q0 -14 6 -24 q5 -11 14 -17 l-2 -2 q-36 7 -49 33 q-14 26 -13 56 q0 57 24 97 q24 39 66 74 l-11 11 Z" /><glyph glyph-name="" unicode="a" d="M397 316 q-3 58 -54 87 q-52 29 -112 29 q-75 -2 -114 -34 q-40 -33 -40 -73 q0 -26 12 -41 q11 -15 32 -15 q20 0 33 12 q13 12 13 30 q-2 31 -16 37 q-15 6 -17 21 q3 27 38 37 q34 10 59 10 q30 1 55 -11 q25 -13 27 -47 l0 -123 l-19 0 q-83 2 -165 -28 q-81 -30 -87 -112 q1 -51 33 -79 q33 -28 92 -28 q49 0 85 14 q35 15 60 48 l2 0 q6 -27 29 -44 q23 -17 59 -18 q32 0 53 15 q21 14 35 39 l-11 8 q-11 -16 -23 -28 q-12 -11 -29 -12 q-20 1 -25 15 q-6 14 -5 29 l0 262 ZM313 219 l0 -131 q0 -18 -26 -45 q-26 -28 -82 -31 q-47 1 -60 28 q-14 27 -13 70 q3 77 55 95 q51 17 109 14 l17 0 Z" /><glyph glyph-name="" unicode="b" d="M79 16 l-69 0 l0 -16 l153 0 l0 73 l2 0 q10 -26 44 -54 q33 -29 87 -31 q95 3 150 67 q55 64 56 155 q-1 78 -54 148 q-54 69 -145 74 q-54 -2 -89 -33 q-35 -32 -49 -69 l-2 0 l0 405 q-15 -17 -37 -21 q-23 -5 -47 -4 l-69 0 l0 -16 l69 0 l0 -678 ZM163 261 q1 58 39 105 q38 47 101 50 q64 0 85 -52 q20 -51 18 -154 q2 -111 -18 -159 q-21 -48 -92 -47 q-47 0 -89 35 q-41 35 -44 106 l0 116 Z" /><glyph glyph-name="" unicode="c" d="M402 141 q-5 -49 -41 -91 q-36 -43 -111 -46 q-81 2 -100 51 q-19 48 -16 116 l0 87 q-2 72 24 115 q25 42 96 43 q24 0 48 -7 q25 -8 27 -24 q-2 -9 -12 -17 q-11 -8 -13 -36 q0 -16 12 -29 q13 -13 36 -14 q19 0 33 14 q14 13 15 36 q-2 47 -46 70 q-43 23 -98 23 q-91 -3 -153 -70 q-62 -68 -65 -169 q1 -87 58 -145 q56 -58 154 -60 q75 2 120 48 q45 46 48 105 l-16 0 Z" /><glyph glyph-name="" unicode="d" d="M393 144 q-1 -63 -41 -101 q-39 -38 -92 -39 q-71 -1 -92 47 q-20 48 -18 159 q-2 103 19 154 q20 52 84 52 q63 -3 101 -50 q38 -47 39 -105 l0 -117 ZM393 0 l153 0 l0 16 l-69 0 l0 719 q-15 -17 -37 -21 q-23 -5 -47 -4 l-80 0 l0 -16 l80 0 l0 -364 l-2 0 q-14 37 -49 69 q-35 31 -89 33 q-91 -5 -144 -74 q-54 -70 -55 -148 q1 -91 56 -155 q55 -64 150 -67 q52 2 86 30 q33 27 45 55 l2 0 l0 -73 Z" /><glyph glyph-name="" unicode="e" d="M134 249 l261 0 q9 0 9 9 q0 38 -45 103 q-45 64 -134 71 q-83 -5 -134 -75 q-52 -69 -53 -147 q1 -100 56 -160 q54 -60 143 -62 q70 1 117 43 q46 41 59 111 l-16 0 q-11 -62 -54 -100 q-42 -37 -106 -38 q-68 3 -87 49 q-19 46 -16 102 l0 94 ZM308 272 q0 -3 -2 -5 q-1 -2 -5 -2 l-167 0 l0 28 q-1 50 19 86 q20 35 72 37 q49 -2 66 -37 q18 -36 17 -86 l0 -21 Z" /><glyph glyph-name="" unicode="f" d="M112 16 l-90 0 l0 -16 l265 0 l0 16 l-91 0 l0 378 l114 0 l0 16 l-114 0 l0 171 q0 81 21 111 q20 29 56 27 q21 0 35 -8 q14 -7 15 -19 q-3 -13 -27 -18 q-24 -5 -27 -37 q0 -15 10 -27 q10 -12 32 -13 q23 1 36 15 q12 13 12 32 q0 36 -22 63 q-22 27 -68 28 q-75 -4 -116 -81 q-41 -77 -41 -175 l0 -69 l-90 0 l0 -16 l90 0 l0 -378 Z" /><glyph glyph-name="" unicode="g" d="M109 46 q-18 0 -31 11 q-12 11 -13 30 q1 35 29 49 q27 14 69 14 q8 -4 26 -11 q17 -6 49 -7 q62 1 112 42 q51 41 54 105 q0 29 -11 55 q-11 27 -28 45 q10 15 26 25 q16 11 31 12 q-5 -4 -8 -11 q-3 -7 -3 -22 q0 -12 9 -21 q9 -9 23 -10 q16 0 28 9 q11 8 12 26 q0 22 -15 33 q-14 12 -36 12 q-25 -1 -44 -14 q-20 -13 -33 -29 q-21 22 -51 32 q-30 11 -66 11 q-69 -1 -116 -45 q-48 -43 -50 -111 q0 -40 21 -66 q20 -27 54 -48 l0 -2 q-48 0 -73 -24 q-25 -23 -25 -75 q0 -42 20 -67 q20 -25 61 -26 l0 -2 q-34 -15 -66 -45 q-32 -30 -34 -72 q3 -71 62 -100 q59 -30 131 -29 q94 0 161 55 q67 54 70 156 q-2 68 -34 92 q-33 24 -77 23 l-234 0 ZM336 -32 q40 1 67 -14 q26 -15 27 -53 q-3 -76 -63 -120 q-59 -44 -139 -45 q-61 -1 -104 27 q-44 28 -46 90 q0 50 23 78 q23 28 68 37 l167 0 ZM156 282 q-3 43 10 87 q13 44 72 47 q59 -1 72 -37 q13 -36 10 -97 q3 -55 -10 -94 q-13 -38 -72 -40 q-59 2 -72 43 q-13 41 -10 91 l0 0 Z" /><glyph glyph-name="" unicode="h" d="M92 16 l-79 0 l0 -16 l239 0 l0 16 l-76 0 l0 282 q13 30 48 72 q35 42 97 46 q25 1 42 -16 q16 -16 17 -57 l0 -327 l-79 0 l0 -16 l242 0 l0 16 l-79 0 l0 303 q1 46 -28 79 q-30 32 -109 34 q-55 -2 -92 -33 q-37 -31 -57 -69 l-2 0 l0 405 q-15 -17 -37 -21 q-23 -5 -47 -4 l-79 0 l0 -16 l79 0 l0 -678 Z" /><glyph glyph-name="" unicode="i" d="M97 16 l-80 0 l0 -16 l244 0 l0 16 l-80 0 l0 416 q-15 -14 -37 -18 q-23 -4 -47 -4 l-80 0 l0 -16 l80 0 l0 -378 ZM88 612 q1 -22 15 -36 q14 -14 36 -15 q22 1 36 15 q14 14 15 36 q-1 22 -15 36 q-14 14 -36 15 q-22 -1 -36 -15 q-14 -14 -15 -36 l0 0 Z" /><glyph glyph-name="" unicode="j" d="M97 -102 q1 -42 8 -64 q6 -22 7 -48 q0 -16 -9 -29 q-9 -12 -26 -13 q2 3 3 7 q1 4 1 11 q0 15 -9 25 q-10 11 -30 11 q-19 -1 -29 -12 q-10 -11 -10 -27 q0 -14 11 -26 q10 -12 34 -13 q50 3 91 54 q40 50 42 109 l0 549 q-15 -14 -37 -18 q-23 -4 -47 -4 l-94 0 l0 -16 l94 0 l0 -496 ZM88 612 q1 -22 15 -36 q14 -14 36 -15 q22 1 36 15 q14 14 15 36 q-1 22 -15 36 q-14 14 -36 15 q-22 -1 -36 -15 q-14 -14 -15 -36 l0 0 Z" /><glyph glyph-name="" unicode="k" d="M92 16 l-79 0 l0 -16 l233 0 l0 16 l-70 0 l0 140 l35 33 l140 -173 l-72 0 l0 -16 l251 0 l0 16 l-51 0 q-13 0 -23 9 q-10 9 -26 29 l-157 195 l111 105 q24 24 42 32 q18 9 42 8 l35 0 l0 16 l-211 0 l0 -16 l34 0 q23 0 34 -4 q11 -4 11 -12 q0 -5 -9 -18 q-9 -12 -26 -28 l-160 -154 l0 557 q-15 -17 -37 -21 q-23 -5 -47 -4 l-79 0 l0 -16 l79 0 l0 -678 Z" /><glyph glyph-name="" unicode="l" d="M97 16 l-80 0 l0 -16 l244 0 l0 16 l-80 0 l0 719 q-15 -17 -37 -21 q-23 -5 -47 -4 l-80 0 l0 -16 l80 0 l0 -678 Z" /><glyph glyph-name="" unicode="m" d="M13 0 l239 0 l0 16 l-76 0 l0 282 q22 54 55 86 q34 31 79 32 q30 0 48 -16 q17 -16 17 -53 l0 -331 l-79 0 l0 -16 l239 0 l0 16 l-76 0 l0 267 q16 54 50 93 q35 38 79 40 q29 1 49 -17 q20 -18 21 -71 l0 -312 l-79 0 l0 -16 l242 0 l0 16 l-79 0 l0 294 q1 49 -30 84 q-31 36 -106 38 q-56 -1 -93 -32 q-37 -31 -52 -75 l-2 0 q-8 65 -48 87 q-39 22 -89 20 q-56 -2 -90 -31 q-34 -29 -54 -67 l-2 0 l0 98 q-13 -16 -31 -19 q-18 -4 -53 -3 l-79 0 l0 -16 l79 0 l0 -378 l-79 0 l0 -16 Z" /><glyph glyph-name="" unicode="n" d="M92 16 l-79 0 l0 -16 l239 0 l0 16 l-76 0 l0 282 q13 30 48 72 q35 42 97 46 q25 1 42 -16 q16 -16 17 -57 l0 -327 l-79 0 l0 -16 l242 0 l0 16 l-79 0 l0 303 q1 46 -28 79 q-30 32 -109 34 q-55 -2 -92 -33 q-37 -31 -57 -69 l-2 0 l0 102 q-13 -16 -31 -19 q-18 -4 -53 -3 l-79 0 l0 -16 l79 0 l0 -378 Z" /><glyph glyph-name="" unicode="o" d="M38 210 q1 -89 58 -154 q56 -65 154 -68 q98 3 154 68 q57 65 58 154 q-1 89 -58 154 q-56 65 -154 68 q-98 -3 -154 -68 q-57 -65 -58 -154 l0 0 ZM366 171 q3 -68 -16 -116 q-19 -49 -100 -51 q-81 2 -100 51 q-19 48 -16 116 l0 78 q-3 68 16 116 q19 49 100 51 q81 -2 100 -51 q19 -48 16 -116 l0 -78 Z" /><glyph glyph-name="" unicode="p" d="M79 -254 l-69 0 l0 -16 l230 0 l0 16 l-77 0 l0 327 l2 0 q12 -28 45 -55 q34 -28 86 -30 q95 3 150 67 q55 64 56 155 q-1 78 -54 148 q-54 69 -145 74 q-54 -2 -89 -33 q-35 -32 -49 -69 l-2 0 l0 102 q-15 -14 -37 -18 q-23 -4 -47 -4 l-69 0 l0 -16 l69 0 l0 -648 ZM163 261 q1 58 39 105 q38 47 101 50 q64 0 85 -52 q20 -51 18 -154 q2 -111 -18 -159 q-21 -48 -92 -47 q-56 1 -94 41 q-38 39 -39 99 l0 117 Z" /><glyph glyph-name="" unicode="q" d="M149 210 q-2 103 19 154 q20 52 84 52 q63 -3 101 -50 q38 -47 39 -105 l0 -117 q-2 -63 -41 -101 q-39 -38 -92 -39 q-71 -1 -92 47 q-20 48 -18 159 l0 0 ZM393 -254 l-77 0 l0 -16 l230 0 l0 16 l-69 0 l0 648 l69 0 l0 16 l-69 0 q-12 0 -24 1 q-11 1 -22 3 q-11 2 -21 6 q-9 5 -17 12 l0 -102 l-2 0 q-14 37 -49 69 q-35 31 -89 33 q-91 -5 -144 -74 q-54 -70 -55 -148 q1 -91 56 -155 q55 -64 150 -67 q51 2 85 30 q34 27 46 55 l2 0 l0 -327 Z" /><glyph glyph-name="" unicode="r" d="M97 16 l-84 0 l0 -16 l259 0 l0 16 l-91 0 l0 205 q3 98 42 146 q39 49 73 49 q4 0 7 0 q4 -1 7 -3 q-9 -5 -15 -15 q-7 -11 -7 -28 q0 -20 10 -32 q10 -12 34 -12 q23 1 34 14 q12 13 12 33 q-1 27 -19 43 q-19 16 -47 16 q-61 -3 -91 -42 q-30 -39 -38 -76 l-2 0 l0 118 q-15 -14 -37 -18 q-23 -4 -47 -4 l-84 0 l0 -16 l84 0 l0 -378 Z" /><glyph glyph-name="" unicode="s" d="M51 -6 l15 0 q1 16 2 26 q1 11 10 11 q13 -3 39 -21 q26 -19 84 -22 q59 1 98 42 q40 41 41 112 q0 52 -27 83 q-27 31 -87 35 l-34 2 q-50 2 -77 19 q-28 17 -28 55 q1 39 27 60 q26 20 65 20 q58 -1 85 -33 q27 -32 31 -76 l13 0 l-4 119 l-14 0 l0 -8 q0 -10 -1 -16 q-2 -5 -6 -5 q-8 2 -34 18 q-26 15 -67 17 q-59 -1 -92 -37 q-32 -37 -33 -92 q2 -75 40 -96 q37 -22 88 -24 q42 -2 76 -16 q35 -13 37 -70 q-1 -43 -28 -68 q-27 -25 -69 -25 q-77 4 -106 51 q-29 48 -33 90 l-13 0 l2 -151 Z" /><glyph glyph-name="" unicode="t" d="M97 77 q1 -49 32 -69 q31 -21 84 -20 q55 3 80 29 q25 27 30 47 l-15 3 q-4 -15 -22 -38 q-19 -23 -56 -25 q-24 0 -36 12 q-13 12 -13 42 l0 336 l138 0 l0 16 l-138 0 l0 140 l-12 0 q-11 -73 -47 -107 q-35 -35 -112 -33 l0 -16 l87 0 l0 -317 Z" /><glyph glyph-name="" unicode="u" d="M97 99 q-1 -45 31 -77 q31 -32 105 -34 q66 4 100 43 q34 38 40 60 l2 0 l0 -91 l164 0 l0 16 l-80 0 l0 416 q-15 -14 -37 -18 q-23 -4 -47 -4 l-79 0 l0 -16 l79 0 l0 -237 q-2 -58 -40 -104 q-38 -46 -92 -49 q-29 0 -45 19 q-17 18 -17 51 l0 358 q-15 -14 -37 -18 q-23 -4 -47 -4 l-80 0 l0 -16 l80 0 l0 -295 Z" /><glyph glyph-name="" unicode="v" d="M245 -24 l8 0 l163 367 q14 34 30 43 q16 9 49 8 l0 16 l-174 0 l0 -16 l35 0 q14 1 29 -4 q15 -5 16 -22 q0 -8 -4 -22 q-5 -14 -13 -33 l-98 -223 l-126 304 l74 0 l0 16 l-229 0 l0 -16 l58 0 l182 -418 Z" /><glyph glyph-name="" unicode="w" d="M243 -24 l7 0 l106 249 l111 -249 l7 0 l147 339 q15 38 33 59 q18 20 63 20 l0 16 l-174 0 l0 -16 l27 0 q25 0 36 -8 q11 -8 11 -22 q0 -11 -3 -24 q-4 -14 -13 -34 l-95 -219 l-132 307 l80 0 l0 16 l-449 0 l0 -16 l54 0 l184 -418 ZM157 394 l125 0 l66 -150 l-64 -150 l-127 300 Z" /><glyph glyph-name="" unicode="x" d="M198 394 l60 0 l0 16 l-232 0 l0 -16 l72 0 l122 -201 l-81 -105 q-29 -39 -51 -56 q-22 -16 -58 -16 l-25 0 l0 -16 l195 0 l0 16 l-45 0 q-14 0 -19 5 q-5 4 -5 11 q0 8 6 22 q6 13 18 29 l73 96 l100 -163 l-78 0 l0 -16 l245 0 l0 16 l-66 0 l-146 238 l73 93 q19 25 37 36 q18 11 46 11 l30 0 l0 16 l-185 0 l0 -16 l21 0 q22 0 33 -4 q11 -4 11 -14 q0 -6 -8 -19 q-8 -12 -17 -25 l-49 -65 l-77 127 Z" /><glyph glyph-name="" unicode="y" d="M156 394 l72 0 l0 16 l-223 0 l0 -16 l54 0 l185 -426 q-7 -34 -27 -113 q-21 -79 -48 -89 q-4 0 -6 3 q-2 2 -2 7 q0 4 1 7 q0 4 0 9 q0 15 -12 26 q-11 11 -30 12 q-22 0 -35 -13 q-13 -14 -13 -35 q0 -25 16 -38 q15 -14 39 -14 q50 -1 75 51 q25 52 52 169 q4 13 20 55 q15 42 37 96 l89 224 q15 41 30 56 q15 14 61 13 l0 16 l-195 0 l0 -16 l41 0 q31 0 44 -5 q14 -6 14 -21 q0 -9 -3 -21 q-4 -11 -10 -27 l-94 -239 l-132 313 Z" /><glyph glyph-name="" unicode="z" d="M17 0 l374 0 l0 149 l-16 0 q1 -77 -32 -105 q-33 -29 -112 -28 l-98 0 l285 394 l-363 0 l0 -154 l16 0 q-2 63 26 100 q27 37 112 38 l95 0 l-287 -394 Z" /><glyph glyph-name="" unicode="{" d="M298 -205 q-70 0 -85 30 q-15 30 -12 88 l0 190 q2 62 -11 95 q-13 34 -58 46 l0 2 q45 12 58 46 q13 33 11 95 l0 190 q-3 56 14 87 q16 31 83 31 l0 34 q-75 2 -107 -26 q-33 -28 -32 -114 l0 -218 q2 -54 -13 -84 q-16 -29 -79 -42 q63 -13 79 -42 q15 -30 13 -84 l0 -218 q-1 -86 32 -114 q32 -28 107 -26 l0 34 Z" /><glyph glyph-name="" unicode="|" d="M81 -250 l60 0 l0 1000 l-60 0 l0 -1000 Z" /><glyph glyph-name="" unicode="}" d="M91 -239 q75 -2 107 26 q33 28 32 114 l0 218 q-2 54 13 84 q16 29 79 42 q-63 13 -79 42 q-15 30 -13 84 l0 218 q1 86 -32 114 q-32 28 -107 26 l0 -34 q70 0 85 -30 q15 -30 12 -88 l0 -190 q-1 -62 11 -95 q13 -34 58 -46 l0 -2 q-45 -12 -58 -46 q-12 -33 -11 -95 l0 -190 q3 -56 -14 -87 q-16 -31 -83 -31 l0 -34 Z" /><glyph glyph-name="" unicode="~" d="M491 319 q-13 -27 -35 -47 q-22 -20 -52 -21 q-27 0 -51 8 q-24 8 -42 19 q-28 17 -56 27 q-27 10 -63 10 q-42 -1 -72 -27 q-29 -26 -51 -59 l40 -42 q13 27 35 47 q22 20 52 21 q27 0 51 -8 q24 -8 42 -19 q28 -17 56 -27 q27 -10 63 -10 q42 1 72 27 q29 26 51 59 l-40 42 Z" /><glyph glyph-name="" unicode="¡" d="M202 292 l-16 0 l0 -58 q1 -73 -10 -194 q-11 -122 -42 -210 q17 -22 31 -49 q13 -27 24 -53 q1 -4 3 -6 q1 -2 2 -2 q1 0 3 2 q1 2 2 6 q11 26 25 53 q13 27 30 49 q-31 88 -42 210 q-11 121 -10 194 l0 58 ZM194 350 q22 1 36 15 q14 14 15 36 q-1 22 -15 36 q-14 14 -36 15 q-21 -1 -36 -15 q-14 -14 -15 -36 q1 -22 15 -36 q15 -14 36 -15 l0 0 Z" /><glyph glyph-name="" unicode="¢" d="M282 6 q-68 8 -84 55 q-17 47 -14 110 l0 87 q-1 66 19 107 q21 42 79 49 l0 -408 ZM282 -127 l16 0 l0 115 q77 2 122 48 q45 46 48 105 l-16 0 q-5 -49 -41 -91 q-36 -43 -113 -46 l0 412 l6 0 q24 0 48 -7 q25 -8 27 -24 q-2 -9 -12 -17 q-11 -8 -13 -36 q0 -16 12 -29 q13 -13 36 -14 q19 0 33 14 q14 13 15 36 q-2 47 -46 70 q-43 23 -98 23 l-8 0 l0 71 l-16 0 l0 -73 q-82 -12 -137 -78 q-55 -65 -57 -159 q1 -82 52 -139 q52 -57 142 -64 l0 -117 Z" /><glyph glyph-name="" unicode="£" d="M30 333 l125 0 q20 -34 36 -67 q16 -33 17 -73 q0 -10 -2 -20 q-1 -10 -5 -22 q-8 1 -18 2 q-10 0 -21 0 q-45 0 -90 -26 q-45 -26 -48 -76 q1 -27 18 -42 q17 -15 43 -15 q36 1 63 27 q27 26 42 60 q48 -25 104 -58 q56 -32 109 -35 q46 2 75 35 q29 32 54 68 l-14 7 q-13 -16 -29 -32 q-17 -17 -37 -18 q-37 6 -114 49 q-76 43 -124 51 q5 15 8 33 q2 17 2 35 q0 30 -6 61 q-5 30 -12 56 l220 0 l0 16 l-225 0 q-14 44 -27 88 q-13 43 -14 86 q0 78 38 124 q38 46 117 47 q60 0 111 -29 q51 -30 54 -84 q0 -9 -2 -14 q-3 -6 -9 -6 q-7 0 -11 3 q-5 3 -17 3 q-17 0 -31 -12 q-13 -12 -14 -36 q1 -23 15 -35 q14 -13 34 -13 q29 1 44 21 q15 21 15 53 q-3 88 -65 127 q-63 39 -147 38 q-91 1 -158 -44 q-67 -45 -70 -143 q1 -48 25 -92 q24 -44 55 -82 l-114 0 l0 -16 ZM40 51 q1 31 21 43 q21 12 48 11 q18 0 36 -5 q19 -5 32 -13 q-15 -32 -37 -54 q-23 -22 -53 -23 q-25 1 -36 12 q-11 12 -11 29 l0 0 Z" /><glyph glyph-name="" unicode="&#x2044;" d="M-170 -22 l45 0 l463 742 l-45 0 l-463 -742 Z" /><glyph glyph-name="" unicode="¥" d="M329 186 l159 0 l0 16 l-159 0 l0 68 l10 27 l149 0 l0 16 l-143 0 l114 314 q8 23 21 39 q14 15 42 16 l38 0 l0 16 l-201 0 l0 -16 l38 0 q24 0 35 -7 q10 -7 10 -20 q0 -14 -6 -32 q-5 -19 -16 -49 l-90 -261 l-12 0 l-129 369 l83 0 l0 16 l-276 0 l0 -16 l88 0 l134 -369 l-138 0 l0 -16 l144 0 l15 -43 l0 -52 l-159 0 l0 -16 l159 0 l0 -170 l-106 0 l0 -16 l302 0 l0 16 l-106 0 l0 170 Z" /><glyph glyph-name="" unicode="&#x192;" d="M99 357 l0 -16 l136 0 l-31 -369 q-11 -114 -38 -154 q-28 -40 -57 -37 q-5 0 -8 3 q-3 3 -3 8 q1 11 6 20 q4 8 5 19 q0 19 -10 30 q-10 11 -30 11 q-18 0 -31 -11 q-12 -12 -13 -33 q1 -37 23 -51 q23 -13 55 -12 q97 9 139 132 q41 122 55 251 l26 193 l143 0 l0 16 l-141 0 l15 127 q9 88 31 148 q21 60 69 62 q12 0 20 -4 q7 -3 7 -10 q-2 -15 -13 -24 q-11 -8 -13 -30 q0 -18 10 -31 q11 -13 33 -14 q23 1 35 16 q12 16 12 40 q-1 33 -25 53 q-23 20 -53 20 q-93 -8 -143 -105 q-50 -96 -62 -179 l-11 -69 l-138 0 Z" /><glyph glyph-name="" unicode="§" d="M266 472 q-49 23 -72 46 q-23 22 -24 70 q2 56 39 86 q38 30 92 30 q61 -2 90 -25 q28 -24 28 -49 q0 -4 0 -7 q0 -3 -1 -5 q-6 5 -13 9 q-7 4 -21 4 q-21 0 -33 -12 q-13 -11 -13 -33 q1 -20 14 -32 q14 -13 33 -13 q29 0 43 18 q15 18 15 49 q-2 54 -43 83 q-42 29 -99 29 q-91 -3 -138 -61 q-47 -59 -47 -138 q0 -31 12 -57 q12 -27 38 -45 q-48 -37 -77 -85 q-28 -48 -29 -110 q0 -45 35 -78 q35 -33 104 -68 l120 -63 q59 -30 82 -53 q23 -23 22 -62 q-3 -68 -54 -97 q-50 -30 -109 -29 q-41 0 -81 20 q-40 20 -43 53 q0 12 4 18 q4 -4 11 -9 q7 -5 21 -5 q18 0 31 12 q13 12 14 37 q0 17 -11 32 q-12 14 -36 15 q-30 -1 -44 -22 q-14 -22 -14 -50 q1 -55 42 -85 q40 -31 106 -32 q90 1 146 48 q57 48 59 137 q1 47 -14 80 q-15 34 -57 58 q38 33 69 82 q31 48 33 90 q-2 77 -38 109 q-35 32 -81 53 l-111 57 ZM454 211 q-1 -37 -23 -68 q-22 -30 -50 -53 l-219 116 q-36 18 -51 35 q-15 17 -15 42 q2 39 29 73 q27 35 55 52 l172 -87 q36 -17 68 -42 q32 -25 34 -68 l0 0 Z" /><glyph glyph-name="" unicode="¤" d="M17 127 l39 -40 l68 68 q33 -29 73 -42 q40 -12 81 -12 q41 0 81 12 q40 13 73 42 l68 -68 l39 40 l-67 67 q26 33 40 73 q14 40 14 82 q0 42 -14 82 q-14 40 -40 73 l67 67 l-39 40 l-68 -68 q-34 29 -74 42 q-40 12 -80 12 q-40 0 -80 -12 q-40 -13 -74 -42 l-68 68 l-39 -40 l67 -67 q-26 -33 -40 -73 q-14 -40 -14 -82 q0 -42 14 -82 q14 -40 40 -73 l-67 -67 ZM90 349 q2 81 55 133 q52 53 133 55 q81 -2 133 -54 q53 -53 55 -134 q-2 -81 -55 -134 q-52 -52 -133 -54 q-80 2 -133 54 q-53 53 -55 134 l0 0 Z" /><glyph glyph-name="" unicode="&#39;" d="M172 621 q1 11 2 22 q1 11 1 22 q1 15 -4 34 q-6 19 -32 21 q-26 -2 -31 -21 q-6 -19 -5 -34 q0 -22 3 -44 l16 -160 q0 -6 3 -17 q3 -10 14 -11 q11 1 14 11 q3 11 3 17 l16 160 Z" /><glyph glyph-name="" unicode="&#x201c;" d="M173 720 q-42 -35 -68 -79 q-26 -44 -27 -100 q0 -44 22 -75 q22 -32 70 -33 q27 0 42 14 q16 14 16 38 q0 20 -12 32 q-12 13 -33 13 q-19 0 -31 -9 q-13 -9 -14 -29 q0 -14 6 -24 q5 -11 14 -17 l-2 -2 q-36 7 -49 33 q-14 26 -13 56 q0 57 24 97 q24 39 66 74 l-11 11 ZM367 720 q-42 -35 -68 -79 q-26 -44 -27 -100 q0 -44 22 -75 q22 -32 70 -33 q27 0 42 14 q16 14 16 38 q0 20 -12 32 q-12 13 -33 13 q-19 0 -31 -9 q-13 -9 -14 -29 q0 -14 6 -24 q5 -11 14 -17 l-2 -2 q-36 7 -49 33 q-14 26 -13 56 q0 57 24 97 q24 39 66 74 l-11 11 Z" /><glyph glyph-name="" unicode="«" d="M228 241 l145 -164 l29 25 l-122 139 l122 139 l-29 25 l-145 -164 ZM98 241 l145 -164 l29 25 l-122 139 l122 139 l-29 25 l-145 -164 Z" /><glyph glyph-name="" unicode="&#x2039;" d="M52 241 l145 -164 l29 25 l-122 139 l122 139 l-29 25 l-145 -164 Z" /><glyph glyph-name="" unicode="&#x203a;" d="M226 241 l-145 164 l-29 -25 l122 -139 l-122 -139 l29 -25 l145 164 Z" /><glyph glyph-name="" unicode="&#x2013;" d="M0 214 l500 0 l0 54 l-500 0 l0 -54 Z" /><glyph glyph-name="" unicode="&#x2020;" d="M23 386 q2 -9 23 -14 q21 -4 37 -7 q-2 -8 -3 -16 q-2 -8 -2 -13 q0 -6 3 -8 q3 -2 6 -2 q11 3 38 26 q27 23 145 26 q-4 -262 -33 -389 q-29 -128 -33 -133 q0 -5 2 -8 q3 -4 8 -4 q7 0 16 5 q8 4 18 11 q8 -62 15 -83 q6 -21 15 -19 q9 -2 15 19 q7 21 15 83 q10 -7 18 -11 q9 -5 16 -5 q5 0 8 4 q2 3 2 8 q-4 5 -33 133 q-29 127 -33 389 q118 -3 145 -26 q27 -23 38 -26 q3 0 6 2 q3 2 3 8 q0 5 -2 13 q-1 8 -3 16 q16 3 37 7 q21 5 23 14 q-2 9 -23 14 q-21 4 -37 7 q2 8 3 16 q2 8 2 13 q0 6 -3 8 q-3 2 -6 2 q-11 -3 -38 -26 q-27 -23 -145 -26 q4 130 28 177 q25 47 28 57 q0 4 -2 5 q-2 2 -5 2 q-8 0 -16 -3 q-8 -4 -15 -7 q-1 14 -7 47 q-7 34 -19 38 q-12 -4 -19 -38 q-6 -33 -7 -47 q-7 3 -15 7 q-8 3 -16 3 q-3 0 -5 -2 q-2 -1 -2 -5 q4 -10 28 -57 q25 -47 28 -177 q-118 3 -145 26 q-27 23 -38 26 q-3 0 -6 -2 q-3 -2 -3 -8 q0 -5 2 -13 q1 -8 3 -16 q-16 -3 -37 -7 q-21 -5 -23 -14 l0 0 Z" /><glyph glyph-name="" unicode="&#x2021;" d="M278 710 q-12 -4 -19 -38 q-6 -33 -8 -47 q-6 3 -14 7 q-8 3 -16 3 q-3 0 -5 -2 q-2 -1 -2 -5 q3 -8 27 -56 q24 -48 29 -145 q-119 3 -148 28 q-29 24 -37 27 q-7 0 -9 -4 q-2 -4 -2 -9 q1 -15 10 -27 q-20 -3 -40 -8 q-20 -5 -21 -15 q1 -9 21 -14 q20 -5 40 -9 q-9 -12 -10 -27 q0 -5 2 -9 q2 -4 9 -4 q8 3 37 28 q29 24 148 27 q0 -58 -9 -97 q-8 -40 -29 -80 q21 -40 29 -79 q9 -40 9 -98 q-119 3 -148 28 q-29 24 -37 27 q-7 0 -9 -4 q-2 -4 -2 -9 q1 -15 10 -27 q-20 -3 -40 -8 q-20 -5 -21 -15 q1 -9 21 -14 q20 -5 40 -9 q-9 -12 -10 -27 q0 -5 2 -9 q2 -4 9 -4 q8 3 37 28 q29 24 148 27 q-5 -97 -29 -145 q-24 -48 -27 -56 q0 -4 2 -5 q2 -2 5 -2 q8 0 16 4 q8 3 14 6 q2 -14 8 -47 q7 -34 19 -38 q12 4 19 38 q7 33 8 47 q6 -3 14 -6 q8 -4 16 -4 q3 0 5 2 q2 1 2 5 q-3 8 -27 56 q-24 48 -29 145 q119 -3 148 -27 q29 -25 37 -28 q7 0 9 4 q2 4 2 9 q0 15 -10 27 q20 4 40 9 q20 5 21 14 q-1 10 -21 15 q-20 5 -40 8 q10 12 10 27 q0 5 -2 9 q-2 4 -9 4 q-8 -3 -37 -27 q-29 -25 -148 -28 q0 58 9 98 q8 39 29 79 q-21 40 -29 80 q-9 39 -9 97 q119 -3 148 -27 q29 -25 37 -28 q7 0 9 4 q2 4 2 9 q0 15 -10 27 q20 4 40 9 q20 5 21 14 q-1 10 -21 15 q-20 5 -40 8 q10 12 10 27 q0 5 -2 9 q-2 4 -9 4 q-8 -3 -37 -27 q-29 -25 -148 -28 q5 97 29 145 q24 48 27 56 q0 4 -2 5 q-2 2 -5 2 q-8 0 -16 -3 q-8 -4 -14 -7 q-1 14 -8 47 q-7 34 -19 38 l0 0 Z" /><glyph glyph-name="" unicode="·" d="M139 260 q21 1 36 15 q14 14 15 36 q-1 22 -15 36 q-15 14 -36 15 q-22 -1 -36 -15 q-14 -14 -15 -36 q1 -22 15 -36 q14 -14 36 -15 l0 0 Z" /><glyph glyph-name="" unicode="¶" d="M545 704 l-268 0 q-118 0 -164 -49 q-47 -50 -45 -149 q-1 -96 44 -154 q45 -57 154 -59 l0 -503 l-82 0 l0 -16 l142 0 l0 914 l78 0 l0 -914 l141 0 l0 16 l-81 0 l0 898 l81 0 l0 16 ZM266 309 q-50 0 -87 50 q-37 50 -39 145 q0 96 32 140 q32 45 94 44 l0 -379 Z" /><glyph glyph-name="" unicode="&#x2022;" d="M74 352 q2 -75 52 -124 q49 -50 124 -52 q75 2 124 52 q50 49 52 124 q-2 75 -52 124 q-49 50 -124 52 q-75 -2 -124 -52 q-50 -49 -52 -124 l0 0 Z" /><glyph glyph-name="" unicode="&#x201a;" d="M119 -197 q42 35 68 79 q26 44 27 100 q0 44 -22 75 q-22 32 -70 33 q-27 0 -42 -14 q-16 -14 -16 -38 q0 -20 12 -32 q12 -13 33 -13 q19 0 32 9 q12 9 13 29 q0 14 -5 24 q-6 11 -15 17 l2 2 q36 -7 49 -33 q14 -26 13 -56 q0 -57 -24 -97 q-24 -39 -66 -74 l11 -11 Z" /><glyph glyph-name="" unicode="&#x201e;" d="M327 -197 q42 35 68 79 q26 44 27 100 q0 44 -22 75 q-22 32 -70 33 q-27 0 -42 -14 q-16 -14 -16 -38 q0 -20 12 -32 q12 -13 33 -13 q19 0 32 9 q12 9 13 29 q0 14 -5 24 q-6 11 -15 17 l2 2 q36 -7 49 -33 q14 -26 13 -56 q0 -57 -24 -97 q-24 -39 -66 -74 l11 -11 ZM133 -197 q42 35 68 79 q26 44 27 100 q0 44 -22 75 q-22 32 -70 33 q-27 0 -42 -14 q-16 -14 -16 -38 q0 -20 12 -32 q12 -13 33 -13 q19 0 32 9 q12 9 13 29 q0 14 -5 24 q-6 11 -15 17 l2 2 q36 -7 49 -33 q14 -26 13 -56 q0 -57 -24 -97 q-24 -39 -66 -74 l11 -11 Z" /><glyph glyph-name="" unicode="&#x201d;" d="M327 433 q42 35 68 79 q26 44 27 100 q0 44 -22 75 q-22 32 -70 33 q-27 0 -42 -14 q-16 -14 -16 -38 q0 -20 12 -32 q12 -13 33 -13 q19 0 32 9 q12 9 13 29 q0 14 -5 24 q-6 11 -15 17 l2 2 q36 -7 49 -33 q14 -26 13 -56 q0 -57 -24 -97 q-24 -39 -66 -74 l11 -11 ZM133 433 q42 35 68 79 q26 44 27 100 q0 44 -22 75 q-22 32 -70 33 q-27 0 -42 -14 q-16 -14 -16 -38 q0 -20 12 -32 q12 -13 33 -13 q19 0 32 9 q12 9 13 29 q0 14 -5 24 q-6 11 -15 17 l2 2 q36 -7 49 -33 q14 -26 13 -56 q0 -57 -24 -97 q-24 -39 -66 -74 l11 -11 Z" /><glyph glyph-name="" unicode="»" d="M272 241 l-145 164 l-29 -25 l122 -139 l-122 -139 l29 -25 l145 164 ZM402 241 l-145 164 l-29 -25 l122 -139 l-122 -139 l29 -25 l145 164 Z" /><glyph glyph-name="" unicode="&#x2026;" d="M167 90 q-21 -1 -36 -15 q-14 -14 -15 -36 q1 -22 15 -36 q14 -14 36 -15 q22 1 36 15 q14 14 15 36 q-1 22 -15 36 q-15 14 -36 15 l0 0 ZM500 90 q-21 -1 -36 -15 q-14 -14 -15 -36 q1 -22 15 -36 q14 -14 36 -15 q22 1 36 15 q14 14 15 36 q-1 22 -15 36 q-15 14 -36 15 l0 0 ZM833 90 q-21 -1 -36 -15 q-14 -14 -15 -36 q1 -22 15 -36 q14 -14 36 -15 q22 1 36 15 q14 14 15 36 q-1 22 -15 36 q-15 14 -36 15 l0 0 Z" /><glyph glyph-name="" unicode="&#x2030;" d="M694 166 q0 -68 30 -122 q30 -53 97 -56 q67 3 97 56 q31 54 30 122 q1 68 -30 122 q-30 53 -97 56 q-67 -3 -97 -56 q-30 -54 -30 -122 l0 0 ZM760 166 q-2 78 8 120 q9 42 53 42 q44 0 53 -42 q10 -42 8 -120 q2 -78 -8 -120 q-9 -42 -53 -42 q-44 0 -53 42 q-10 42 -8 120 l0 0 ZM52 532 q0 -68 30 -122 q30 -53 97 -56 q67 3 97 56 q31 54 30 122 q1 68 -30 122 q-30 53 -97 56 q-67 -3 -97 -56 q-30 -54 -30 -122 l0 0 ZM118 532 q-2 78 8 120 q9 42 53 42 q44 0 53 -42 q10 -42 8 -120 q2 -78 -8 -120 q-9 -42 -53 -42 q-44 0 -53 42 q-10 42 -8 120 l0 0 ZM380 166 q0 -68 30 -122 q30 -53 97 -56 q67 3 97 56 q31 54 30 122 q1 68 -30 122 q-30 53 -97 56 q-67 -3 -97 -56 q-30 -54 -30 -122 l0 0 ZM446 166 q-2 78 8 120 q9 42 53 42 q44 0 53 -42 q10 -42 8 -120 q2 -78 -8 -120 q-9 -42 -53 -42 q-44 0 -53 42 q-10 42 -8 120 l0 0 ZM130 -22 l43 0 l376 742 l-43 0 l-376 -742 Z" /><glyph glyph-name="" unicode="¿" d="M304 291 q2 -10 4 -24 q2 -13 2 -34 q1 -40 -32 -79 q-33 -39 -105 -104 q-28 -23 -47 -59 q-20 -36 -21 -101 q0 -76 40 -122 q41 -47 118 -48 q55 1 93 34 q37 32 39 84 q0 23 -14 44 q-13 21 -39 22 q-21 0 -35 -11 q-13 -11 -14 -34 q4 -41 33 -44 q29 -3 33 -19 q-2 -29 -34 -44 q-31 -16 -62 -16 q-50 0 -88 28 q-38 27 -40 81 q12 92 100 147 q87 56 99 179 q0 32 -5 62 q-4 31 -12 61 l-13 -3 ZM306 350 q22 1 36 15 q14 14 15 36 q-1 22 -15 36 q-14 14 -36 15 q-21 -1 -36 -15 q-14 -14 -15 -36 q1 -22 15 -36 q15 -14 36 -15 l0 0 Z" /><glyph glyph-name="" unicode="`" d="M183 516 l35 0 l-145 144 q-10 11 -20 18 q-10 7 -23 7 q-11 0 -21 -9 q-10 -10 -11 -25 q0 -14 10 -24 q10 -9 30 -21 l145 -90 Z" /><glyph glyph-name="" unicode="´" d="M60 516 l35 0 l145 90 q20 12 30 21 q10 10 10 24 q-1 15 -11 25 q-10 9 -21 9 q-13 0 -23 -7 q-10 -7 -20 -18 l-145 -144 Z" /><glyph glyph-name="" unicode="&#x2c6;" d="M-11 516 l33 0 l117 106 l117 -106 l33 0 l-122 169 l-56 0 l-122 -169 Z" /><glyph glyph-name="" unicode="&#x2dc;" d="M276 642 q-6 -20 -20 -34 q-14 -13 -35 -14 q-16 1 -33 8 q-16 8 -30 16 q-17 10 -35 17 q-19 7 -39 7 q-45 -1 -71 -31 q-26 -30 -37 -71 l26 0 q6 20 20 34 q14 13 35 14 q16 -1 33 -8 q16 -8 30 -16 q17 -10 36 -17 q18 -7 38 -7 q45 2 71 32 q26 30 37 70 l-26 0 Z" /><glyph glyph-name="" unicode="¯" d="M6 557 l266 0 l0 48 l-266 0 l0 -48 Z" /><glyph glyph-name="" unicode="&#x2d8;" d="M0 671 q5 -68 39 -111 q34 -43 100 -44 q66 1 100 44 q34 43 39 111 l-30 0 q-8 -49 -34 -75 q-27 -26 -75 -26 q-48 0 -75 26 q-26 26 -34 75 l-30 0 Z" /><glyph glyph-name="" unicode="&#x2d9;" d="M139 626 q-19 -1 -32 -13 q-13 -13 -13 -32 q0 -19 13 -31 q13 -13 32 -14 q19 1 32 14 q12 12 13 31 q-1 19 -13 32 q-13 12 -32 13 l0 0 Z" /><glyph glyph-name="" unicode="¨" d="M233 626 q-19 -1 -32 -13 q-13 -13 -13 -32 q0 -19 13 -31 q13 -13 32 -14 q19 1 32 14 q12 12 13 31 q-1 19 -13 32 q-13 12 -32 13 l0 0 ZM45 626 q-19 -1 -32 -13 q-13 -13 -13 -32 q0 -19 13 -31 q13 -13 32 -14 q19 1 32 14 q12 12 13 31 q-1 19 -13 32 q-13 12 -32 13 l0 0 Z" /><glyph glyph-name="" unicode="&#x2da;" d="M139 705 q-38 -1 -64 -27 q-25 -25 -26 -63 q1 -38 26 -63 q26 -26 64 -27 q38 1 64 27 q25 25 26 63 q-1 38 -26 63 q-26 26 -64 27 l0 0 ZM139 675 q25 -1 42 -18 q17 -17 18 -42 q-1 -25 -18 -42 q-17 -17 -42 -18 q-25 1 -42 18 q-17 17 -18 42 q1 25 18 42 q17 17 42 18 l0 0 Z" /><glyph glyph-name="" unicode="¸" d="M145 0 l-59 -99 l17 -7 q21 6 41 6 q19 -1 29 -12 q9 -12 9 -28 q0 -28 -18 -41 q-17 -13 -48 -11 q-23 0 -39 3 q-16 3 -30 8 l-8 -13 q25 -9 51 -15 q26 -7 54 -7 q39 -1 76 17 q37 17 40 61 q-2 29 -26 46 q-24 16 -53 16 q-17 0 -32 -2 q-15 -2 -29 -8 l-2 2 l51 84 l-24 0 Z" /><glyph glyph-name="" unicode="&#x2dd;" d="M-40 516 l35 0 l145 90 q20 12 30 21 q10 10 10 24 q-1 15 -11 25 q-10 9 -21 9 q-13 0 -23 -7 q-10 -7 -20 -18 l-145 -144 ZM160 516 l35 0 l145 90 q20 12 30 21 q10 10 10 24 q-1 15 -11 25 q-10 9 -21 9 q-13 0 -23 -7 q-10 -7 -20 -18 l-145 -144 Z" /><glyph glyph-name="" unicode="&#x2db;" d="M165 -154 q-10 -10 -24 -17 q-13 -7 -30 -7 q-20 0 -34 11 q-14 11 -15 33 q3 44 32 80 q30 35 54 54 l-17 0 q-32 -15 -81 -53 q-49 -38 -54 -91 q0 -33 18 -51 q18 -19 48 -19 q37 1 65 15 q27 14 45 31 l-7 14 Z" /><glyph glyph-name="" unicode="&#x2c7;" d="M289 685 l-33 0 l-117 -106 l-117 106 l-33 0 l122 -169 l56 0 l122 169 Z" /><glyph glyph-name="" unicode="&#x2014;" d="M0 214 l1000 0 l0 54 l-1000 0 l0 -54 Z" /><glyph glyph-name="" unicode="æ" d="M568 688 l138 0 q81 1 131 -34 q50 -35 51 -120 l16 0 l-12 170 l-542 0 l0 -16 l107 0 l-328 -603 q-19 -36 -42 -52 q-23 -17 -58 -17 l-19 0 l0 -16 l219 0 l0 16 l-37 0 q-29 0 -43 6 q-13 6 -13 17 q0 14 6 28 q6 14 17 34 l68 127 l239 0 l0 -212 l-110 0 l0 -16 l586 0 l0 205 l-16 0 q0 -123 -59 -158 q-60 -35 -181 -31 l-118 0 l0 334 l74 0 q76 0 97 -32 q21 -32 18 -90 l16 0 l0 266 l-16 0 q3 -51 -18 -88 q-21 -38 -96 -40 l-75 0 l0 322 ZM466 244 l-231 0 l229 424 l2 0 l0 -424 Z" /><glyph glyph-name="" unicode="ª" d="M263 632 q-2 40 -35 59 q-33 19 -78 19 q-47 0 -76 -18 q-30 -18 -31 -51 q0 -15 10 -24 q9 -10 26 -10 q17 0 26 9 q10 9 10 22 q-2 17 -14 21 q-12 4 -14 13 q2 16 24 22 q22 6 38 6 q20 1 34 -6 q13 -7 14 -28 l0 -74 q-109 -2 -145 -28 q-35 -27 -32 -56 q1 -34 25 -49 q24 -15 64 -15 q32 0 54 9 q22 9 34 32 l1 0 q4 -19 19 -30 q15 -11 42 -11 q22 0 36 9 q15 8 24 23 l-8 5 q-7 -9 -14 -15 q-8 -6 -19 -6 q-9 1 -12 9 q-3 8 -3 17 l0 146 ZM197 506 q-10 -25 -27 -36 q-18 -10 -37 -10 q-26 0 -34 16 q-8 15 -7 41 q0 44 25 55 q26 12 80 10 l0 -76 Z" /><glyph glyph-name="" unicode="&#x141;" d="M125 16 l-100 0 l0 -16 l595 0 l0 230 l-16 0 q2 -137 -54 -178 q-56 -40 -198 -36 l-125 0 l0 378 l169 111 l0 22 l-169 -112 l0 273 l100 0 l0 16 l-302 0 l0 -16 l100 0 l0 -340 l-97 -64 l0 -22 l97 64 l0 -310 Z" /><glyph glyph-name="" unicode="ø" d="M184 156 q-15 49 -20 101 q-5 51 -5 95 q-4 108 34 225 q39 117 168 127 q69 -1 110 -39 q41 -39 60 -97 l-347 -412 ZM538 547 q15 -49 20 -100 q5 -51 5 -95 q4 -108 -34 -225 q-39 -117 -168 -127 q-69 1 -110 39 q-41 38 -60 97 l347 411 ZM47 -6 l14 -12 l86 102 q43 -48 98 -74 q55 -26 116 -26 q131 4 221 107 q91 103 95 261 q0 75 -24 139 q-23 64 -65 115 l87 104 l-14 12 l-86 -102 q-42 47 -97 73 q-55 27 -117 27 q-131 -4 -221 -107 q-91 -103 -95 -261 q0 -75 24 -140 q24 -65 66 -114 l-88 -104 Z" /><glyph glyph-name="" unicode="&#x152;" d="M477 10 q-24 -4 -51 -7 q-28 -3 -55 -3 q-145 9 -181 125 q-37 116 -31 227 q-6 111 31 227 q36 116 181 125 q27 0 55 -3 q27 -3 51 -7 l0 -684 ZM579 688 l127 0 q81 1 131 -34 q50 -35 51 -120 l16 0 l-12 170 l-313 0 q-26 0 -53 3 q-27 2 -53 5 q-25 3 -51 6 q-25 2 -51 2 q-166 -7 -246 -122 q-80 -114 -80 -246 q0 -132 80 -246 q80 -115 246 -122 q26 0 53 3 q26 2 52 5 q24 3 48 6 q24 2 48 2 l370 0 l0 205 l-16 0 q0 -123 -59 -158 q-60 -35 -181 -31 l-107 0 l0 334 l63 0 q76 0 97 -32 q21 -32 18 -90 l16 0 l0 266 l-16 0 q3 -51 -18 -88 q-21 -38 -96 -40 l-64 0 l0 322 Z" /><glyph glyph-name="" unicode="º" d="M20 577 q1 -54 38 -92 q38 -39 105 -41 q67 2 104 41 q37 38 38 92 q-1 54 -38 92 q-37 39 -104 41 q-67 -2 -105 -41 q-37 -38 -38 -92 l0 0 ZM92 577 q-2 58 9 90 q11 32 62 33 q50 -1 61 -33 q11 -32 9 -90 q2 -58 -9 -90 q-11 -32 -61 -33 q-51 1 -62 33 q-11 32 -9 90 l0 0 Z" /><glyph glyph-name="" unicode="æ" d="M308 219 l0 -140 q-1 -21 -28 -43 q-27 -22 -75 -24 q-47 1 -60 28 q-14 27 -13 70 q3 77 55 95 q51 17 109 14 l12 0 ZM398 265 l0 28 q-1 50 20 86 q21 35 78 37 q54 -2 72 -37 q19 -36 18 -86 l0 -21 q0 -3 -2 -5 q-1 -2 -5 -2 l-181 0 ZM398 249 l275 0 q9 0 9 9 q0 38 -46 103 q-46 64 -140 71 q-45 -1 -77 -18 q-31 -17 -44 -33 q-12 16 -46 33 q-35 17 -98 18 q-75 -2 -114 -34 q-40 -33 -40 -73 q0 -26 12 -41 q11 -15 32 -15 q20 0 33 12 q13 12 13 30 q-2 31 -16 37 q-15 6 -17 21 q3 27 38 37 q34 10 59 10 q30 1 53 -11 q23 -13 24 -47 l0 -123 l-14 0 q-83 2 -165 -28 q-81 -30 -87 -112 q1 -51 33 -79 q33 -28 92 -28 q48 -1 85 14 q37 15 68 56 q22 -35 67 -53 q45 -17 128 -17 q70 1 117 42 q46 42 59 111 l-17 0 q-12 -61 -55 -98 q-44 -38 -104 -39 q-78 3 -99 49 q-21 47 -18 102 l0 94 Z" /><glyph glyph-name="" unicode="&#x131;" d="M97 16 l-80 0 l0 -16 l244 0 l0 16 l-80 0 l0 416 q-15 -14 -37 -18 q-23 -4 -47 -4 l-80 0 l0 -16 l80 0 l0 -378 Z" /><glyph glyph-name="" unicode="&#x142;" d="M97 16 l-80 0 l0 -16 l244 0 l0 16 l-80 0 l0 393 l80 52 l0 21 l-80 -52 l0 305 q-15 -17 -38 -21 q-22 -5 -47 -4 l-79 0 l0 -16 l80 0 l0 -318 l-80 -52 l0 -21 l80 52 l0 -339 Z" /><glyph glyph-name="" unicode="ø" d="M138 105 q-4 32 -4 66 l0 78 q-3 68 16 116 q19 49 100 51 q52 -1 77 -22 q24 -21 31 -57 l-220 -232 ZM363 316 q2 -16 3 -33 q0 -17 0 -34 l0 -78 q3 -68 -16 -116 q-19 -49 -100 -51 q-53 1 -78 22 q-24 22 -31 57 l222 233 ZM34 -4 l13 -12 l59 62 q26 -27 63 -42 q37 -16 81 -16 q98 3 154 68 q57 65 58 154 q0 43 -14 82 q-15 39 -42 69 l60 63 l-13 12 l-60 -63 q-27 28 -63 43 q-36 16 -80 16 q-98 -3 -154 -68 q-57 -65 -58 -154 q0 -42 15 -81 q14 -40 41 -70 l-60 -63 Z" /><glyph glyph-name="" unicode="&#x153;" d="M454 249 l275 0 q9 0 9 9 q0 38 -46 103 q-46 64 -140 71 q-50 -1 -82 -23 q-32 -23 -55 -57 q-28 38 -69 59 q-40 21 -96 21 q-98 -3 -154 -68 q-57 -65 -58 -154 q1 -89 58 -154 q56 -65 154 -68 q49 0 88 19 q39 18 68 55 q28 -37 65 -55 q36 -19 100 -19 q70 1 117 42 q46 42 59 111 l-16 0 q-11 -62 -54 -99 q-42 -37 -106 -38 q-78 3 -99 49 q-21 47 -18 102 l0 94 ZM134 210 q-4 96 15 151 q18 54 101 55 q82 -1 100 -55 q18 -55 14 -151 q4 -96 -14 -151 q-18 -54 -100 -55 q-83 1 -101 55 q-19 55 -15 151 l0 0 ZM454 265 l0 28 q-1 50 20 86 q21 35 78 37 q54 -2 72 -37 q19 -36 18 -86 l0 -21 q0 -3 -2 -5 q-1 -2 -5 -2 l-181 0 Z" /><glyph glyph-name="" unicode="ß" d="M97 16 l-80 0 l0 -16 l241 0 l0 16 l-77 0 l0 470 q-3 90 21 160 q24 69 115 73 q63 0 93 -37 q29 -37 29 -106 q-8 -89 -65 -146 q-58 -56 -66 -113 q14 -68 108 -92 q95 -25 108 -111 q-3 -55 -43 -82 q-41 -28 -82 -28 q-41 0 -66 10 q-25 10 -26 29 q3 23 24 28 q20 5 23 39 q0 20 -12 32 q-13 11 -31 11 q-17 0 -31 -14 q-14 -14 -15 -48 q1 -49 36 -76 q34 -27 95 -27 q79 2 121 53 q43 50 43 130 q-13 112 -102 137 q-89 24 -102 60 q8 33 66 90 q57 57 65 132 q-2 68 -52 106 q-50 38 -118 39 q-102 -4 -161 -90 q-58 -86 -59 -206 l0 -29 l-80 0 l0 -16 l80 0 l0 -378 Z" /><glyph glyph-name="" unicode="¬" d="M493 108 l60 0 l0 273 l-506 0 l0 -60 l446 0 l0 -213 Z" /><glyph glyph-name="" unicode="µ" d="M459 432 q-15 -14 -37 -18 q-23 -4 -47 -4 l-79 0 l0 -16 l79 0 l0 -237 q-2 -58 -40 -104 q-38 -46 -92 -49 q-29 0 -45 19 q-17 18 -17 51 l0 358 q-15 -14 -37 -18 q-23 -4 -47 -4 l-80 0 l0 -16 l80 0 l0 -410 q0 -74 -4 -119 q-3 -45 -4 -86 q0 -25 11 -37 q11 -12 34 -12 q23 0 34 12 q11 12 11 37 q-1 54 -7 115 q-6 61 -7 117 q18 -13 34 -18 q17 -5 34 -5 q66 4 100 43 q34 38 40 60 l2 0 l0 -91 l164 0 l0 16 l-80 0 l0 416 Z" /><glyph glyph-name="" unicode="&#x2122;" d="M237 688 l49 0 q31 -1 51 -22 q19 -21 20 -50 l16 0 l0 88 l-338 0 l0 -88 l16 0 q1 29 20 50 q20 21 51 22 l49 0 l0 -313 q0 -35 -4 -47 q-5 -13 -20 -12 l-26 0 l0 -16 l166 0 l0 16 l-20 0 q-18 -1 -24 12 q-6 12 -6 47 l0 313 ZM666 300 l9 0 l155 308 l2 0 l0 -233 q0 -35 -5 -47 q-5 -13 -21 -12 l-24 0 l0 -16 l166 0 l0 16 l-24 0 q-16 -1 -21 12 q-5 12 -5 47 l0 253 q0 27 7 44 q8 16 28 16 l22 0 l0 16 l-101 0 l-164 -315 l-157 315 l-115 0 l0 -16 l13 0 q20 -1 37 -17 q17 -16 18 -36 l0 -252 q1 -31 -6 -49 q-6 -18 -30 -18 l-16 0 l0 -16 l130 0 l0 16 l-14 0 q-25 0 -33 18 q-8 18 -7 49 l0 225 l2 0 l154 -308 Z" /><glyph glyph-name="" unicode="ð" d="M207 688 l49 0 q179 -5 239 -104 q60 -99 55 -232 q-8 -219 -95 -281 q-87 -62 -162 -55 l-86 0 l0 368 l168 0 l0 16 l-168 0 l0 288 ZM105 16 l-95 0 l0 -16 l314 0 q156 2 247 94 q91 93 93 258 q4 109 -71 226 q-74 116 -270 126 l-313 0 l0 -16 l95 0 l0 -288 l-77 0 l0 -16 l77 0 l0 -368 Z" /><glyph glyph-name="" unicode="½" d="M154 -22 l45 0 l463 742 l-45 0 l-463 -742 ZM137 294 l-61 0 l0 -10 l193 0 l0 10 l-60 0 l0 404 l-36 0 q-33 -27 -73 -52 q-40 -24 -73 -42 l0 -10 q31 15 62 29 q32 14 41 15 q5 0 6 -4 q1 -4 1 -10 l0 -330 ZM807 116 l-12 0 l-9 -62 l-226 0 q84 82 159 129 q74 47 79 121 q-2 59 -43 90 q-41 32 -103 32 q-56 0 -96 -26 q-40 -27 -42 -84 q0 -18 9 -35 q10 -18 30 -19 q16 0 26 8 q11 8 11 25 q0 14 -10 21 q-9 6 -23 6 q-9 0 -14 3 q-5 4 -5 14 q2 36 32 57 q30 20 65 20 q45 -1 68 -31 q23 -30 23 -75 q-10 -112 -96 -171 q-86 -60 -128 -139 l289 0 l16 116 Z" /><glyph glyph-name="" unicode="±" d="M270 332 l-223 0 l0 -60 l223 0 l0 -174 l60 0 l0 174 l223 0 l0 60 l-223 0 l0 174 l-60 0 l0 -174 ZM47 0 l506 0 l0 60 l-506 0 l0 -60 Z" /><glyph glyph-name="" unicode="þ" d="M116 16 l-99 0 l0 -16 l303 0 l0 16 l-102 0 l0 203 q16 -8 42 -12 q26 -5 52 -5 q95 -1 172 45 q77 45 82 150 q-3 107 -76 152 q-74 44 -188 43 l-84 0 l0 96 l102 0 l0 16 l-303 0 l0 -16 l99 0 l0 -672 ZM218 576 l61 0 q89 1 134 -45 q45 -45 45 -143 q-4 -99 -57 -136 q-52 -36 -106 -34 q-25 0 -45 7 q-20 6 -32 14 l0 337 Z" /><glyph glyph-name="" unicode="¼" d="M174 -22 l45 0 l463 742 l-45 0 l-463 -742 ZM137 294 l-61 0 l0 -10 l193 0 l0 10 l-60 0 l0 404 l-36 0 q-33 -27 -73 -52 q-40 -24 -73 -42 l0 -10 q31 15 62 29 q32 14 41 15 q5 0 6 -4 q1 -4 1 -10 l0 -330 ZM676 10 l-61 0 l0 -10 l186 0 l0 10 l-59 0 l0 130 l65 0 l0 48 l-65 0 l0 144 l-66 0 l0 -144 l-143 0 l202 244 l-14 0 l-243 -292 l198 0 l0 -130 Z" /><glyph glyph-name="" unicode="÷" d="M47 223 l506 0 l0 60 l-506 0 l0 -60 ZM240 460 q1 -25 18 -42 q17 -17 42 -18 q25 1 42 19 q17 18 18 41 q-1 25 -18 42 q-17 17 -42 18 q-25 -1 -42 -18 q-17 -17 -18 -42 l0 0 ZM240 46 q1 -25 18 -42 q17 -17 42 -18 q25 1 42 19 q17 18 18 41 q-1 25 -18 42 q-17 17 -42 18 q-25 -1 -42 -18 q-17 -17 -18 -42 l0 0 Z" /><glyph glyph-name="" unicode="¦" d="M81 -175 l60 0 l0 350 l-60 0 l0 -350 ZM81 325 l60 0 l0 350 l-60 0 l0 -350 Z" /><glyph glyph-name="" unicode="°" d="M93 567 q1 43 31 74 q30 31 76 33 q46 -2 76 -33 q30 -31 31 -74 q-1 -43 -31 -74 q-30 -31 -76 -33 q-46 2 -76 33 q-30 31 -31 74 l0 0 ZM57 567 q1 -63 42 -102 q40 -40 101 -41 q61 1 102 41 q40 39 41 102 q-1 63 -41 102 q-41 40 -102 41 q-61 -1 -101 -41 q-41 -39 -42 -102 l0 0 Z" /><glyph glyph-name="" unicode="þ" d="M79 -254 l-69 0 l0 -16 l230 0 l0 16 l-77 0 l0 327 l2 0 q11 -28 43 -55 q31 -28 88 -30 q95 3 150 67 q55 64 56 155 q-1 78 -54 148 q-54 69 -145 74 q-54 -2 -89 -33 q-35 -32 -49 -69 l-2 0 l0 405 q-15 -17 -37 -21 q-23 -5 -47 -4 l-69 0 l0 -16 l69 0 l0 -948 ZM163 261 q1 58 39 105 q38 47 101 50 q64 0 85 -52 q20 -51 18 -154 q2 -111 -18 -159 q-21 -48 -92 -47 q-61 1 -96 41 q-36 39 -37 99 l0 117 Z" /><glyph glyph-name="" unicode="¾" d="M194 -22 l45 0 l463 742 l-45 0 l-463 -742 ZM79 515 l75 0 q64 -3 85 -39 q21 -36 19 -72 q1 -56 -25 -86 q-26 -30 -87 -30 q-30 0 -61 14 q-31 14 -34 35 q0 2 2 4 q1 2 4 2 q4 0 7 -1 q4 -1 8 -1 q13 0 23 8 q9 8 10 24 q0 15 -10 25 q-10 9 -27 9 q-20 -1 -30 -14 q-11 -13 -11 -29 q2 -48 42 -67 q39 -20 86 -19 q61 0 116 32 q55 31 59 93 q-4 65 -49 90 q-45 25 -84 26 l0 2 q32 4 71 24 q39 19 42 74 q-2 46 -41 69 q-40 22 -95 22 q-43 0 -79 -19 q-36 -19 -38 -61 q0 -14 9 -25 q8 -10 23 -11 q16 0 27 8 q11 9 11 23 q-1 16 -11 22 q-10 7 -23 7 q-4 0 -6 0 q-3 -1 -4 -1 q-1 0 -2 1 q0 1 0 3 q1 12 24 27 q24 15 61 16 q40 0 59 -22 q19 -21 19 -59 q0 -64 -31 -80 q-30 -16 -85 -14 l-49 0 l0 -10 ZM676 10 l-61 0 l0 -10 l186 0 l0 10 l-59 0 l0 130 l65 0 l0 48 l-65 0 l0 144 l-66 0 l0 -144 l-143 0 l202 244 l-14 0 l-243 -292 l198 0 l0 -130 Z" /><glyph glyph-name="" unicode="®" d="M400 720 q-156 -4 -260 -108 q-104 -104 -108 -260 q4 -156 108 -260 q104 -104 260 -108 q157 4 261 108 q103 104 107 260 q-4 156 -107 260 q-104 104 -261 108 l0 0 ZM400 672 q133 -4 222 -95 q89 -92 92 -225 q-3 -134 -92 -225 q-89 -91 -222 -95 q-133 4 -222 95 q-89 91 -92 225 q3 133 92 225 q89 91 222 95 l0 0 ZM225 160 l172 0 l0 16 l-23 0 q-18 -1 -24 9 q-6 10 -6 43 l0 107 l53 0 q57 -81 86 -128 q29 -46 55 -47 l65 0 l0 16 q-19 2 -42 27 q-22 26 -45 56 l-56 83 q39 10 60 39 q22 28 22 71 q-2 54 -39 78 q-38 23 -89 23 l-189 0 l0 -16 l23 0 q18 1 24 -9 q6 -10 6 -43 l0 -257 q0 -33 -6 -43 q-6 -10 -24 -9 l-23 0 l0 -16 ZM344 537 l48 0 q34 0 59 -19 q24 -20 25 -65 q0 -46 -20 -74 q-20 -27 -61 -28 l-51 0 l0 186 Z" /><glyph glyph-name="" unicode="&#x2212;" d="M553 223 l0 60 l-506 0 l0 -60 l506 0 Z" /><glyph glyph-name="" unicode="ð" d="M132 572 l10 -14 l105 58 q36 -38 70 -101 q33 -64 49 -129 l-2 0 q-25 27 -53 37 q-28 10 -61 9 q-98 -3 -154 -68 q-57 -65 -58 -154 q1 -89 58 -154 q56 -65 154 -68 q97 0 154 67 q57 66 58 197 q-6 177 -68 269 q-63 92 -108 117 l92 51 l-10 14 l-98 -55 q-29 22 -70 42 q-42 20 -75 30 l-9 -12 q35 -15 65 -36 q30 -21 53 -43 l-102 -57 ZM366 171 q3 -68 -16 -116 q-19 -49 -100 -51 q-81 2 -100 51 q-19 48 -16 116 l0 78 q-3 68 16 116 q19 49 100 51 q81 -2 100 -51 q19 -48 16 -116 l0 -78 Z" /><glyph glyph-name="" unicode="×" d="M259 253 l-186 -186 l41 -41 l185 187 l187 -187 l41 41 l-187 186 l187 186 l-41 41 l-187 -187 l-185 187 l-41 -41 l186 -186 Z" /><glyph glyph-name="" unicode="©" d="M400 720 q-156 -4 -260 -108 q-104 -104 -108 -260 q4 -156 108 -260 q104 -104 260 -108 q157 4 261 108 q103 104 107 260 q-4 156 -107 260 q-104 104 -261 108 l0 0 ZM400 672 q133 -4 222 -95 q89 -92 92 -225 q-3 -134 -92 -225 q-89 -91 -222 -95 q-133 4 -222 95 q-89 91 -92 225 q3 133 92 225 q89 91 222 95 l0 0 ZM583 261 l-15 0 q-14 -37 -46 -66 q-33 -28 -89 -30 q-86 2 -127 58 q-41 55 -40 142 q1 80 40 131 q40 51 119 53 q66 -2 96 -33 q30 -30 29 -66 l16 0 l0 74 q0 7 -6 13 q-7 5 -19 9 q-20 7 -45 13 q-25 6 -67 6 q-121 -4 -178 -69 q-57 -65 -57 -136 q3 -112 68 -162 q65 -50 160 -49 q39 0 69 6 q30 6 46 12 q12 4 19 8 q8 4 10 12 l17 74 Z" /><glyph glyph-name="" unicode="á" d="M462 16 l-98 0 l0 -16 l293 0 l0 16 l-83 0 l-243 704 l-11 0 l-215 -645 q-13 -40 -27 -50 q-13 -11 -36 -9 l-32 0 l0 -16 l206 0 l0 16 l-52 0 q-24 0 -34 7 q-10 7 -10 18 q0 13 5 29 q4 17 10 32 l41 126 l214 0 l72 -212 ZM385 244 l-203 0 l98 303 l2 0 l103 -303 ZM255 772 l35 0 l145 90 q20 12 30 21 q10 10 10 24 q-1 15 -11 25 q-10 9 -21 9 q-13 0 -23 -7 q-10 -7 -20 -18 l-145 -144 Z" /><glyph glyph-name="" unicode="â" d="M462 16 l-98 0 l0 -16 l293 0 l0 16 l-83 0 l-243 704 l-11 0 l-215 -645 q-13 -40 -27 -50 q-13 -11 -36 -9 l-32 0 l0 -16 l206 0 l0 16 l-52 0 q-24 0 -34 7 q-10 7 -10 18 q0 13 5 29 q4 17 10 32 l41 126 l214 0 l72 -212 ZM385 244 l-203 0 l98 303 l2 0 l103 -303 ZM184 772 l33 0 l117 106 l117 -106 l33 0 l-122 169 l-56 0 l-122 -169 Z" /><glyph glyph-name="" unicode="ä" d="M462 16 l-98 0 l0 -16 l293 0 l0 16 l-83 0 l-243 704 l-11 0 l-215 -645 q-13 -40 -27 -50 q-13 -11 -36 -9 l-32 0 l0 -16 l206 0 l0 16 l-52 0 q-24 0 -34 7 q-10 7 -10 18 q0 13 5 29 q4 17 10 32 l41 126 l214 0 l72 -212 ZM385 244 l-203 0 l98 303 l2 0 l103 -303 ZM428 882 q-19 -1 -32 -13 q-13 -13 -13 -32 q0 -19 13 -31 q13 -13 32 -14 q19 1 32 14 q12 12 13 31 q-1 19 -13 32 q-13 12 -32 13 l0 0 ZM240 882 q-19 -1 -32 -13 q-13 -13 -13 -32 q0 -19 13 -31 q13 -13 32 -14 q19 1 32 14 q12 12 13 31 q-1 19 -13 32 q-13 12 -32 13 l0 0 Z" /><glyph glyph-name="" unicode="à" d="M462 16 l-98 0 l0 -16 l293 0 l0 16 l-83 0 l-243 704 l-11 0 l-215 -645 q-13 -40 -27 -50 q-13 -11 -36 -9 l-32 0 l0 -16 l206 0 l0 16 l-52 0 q-24 0 -34 7 q-10 7 -10 18 q0 13 5 29 q4 17 10 32 l41 126 l214 0 l72 -212 ZM385 244 l-203 0 l98 303 l2 0 l103 -303 ZM378 772 l35 0 l-145 144 q-10 11 -20 18 q-10 7 -23 7 q-11 0 -21 -9 q-10 -10 -11 -25 q0 -14 10 -24 q10 -9 30 -21 l145 -90 Z" /><glyph glyph-name="" unicode="å" d="M462 16 l-98 0 l0 -16 l293 0 l0 16 l-83 0 l-243 704 l-11 0 l-215 -645 q-13 -40 -27 -50 q-13 -11 -36 -9 l-32 0 l0 -16 l206 0 l0 16 l-52 0 q-24 0 -34 7 q-10 7 -10 18 q0 13 5 29 q4 17 10 32 l41 126 l214 0 l72 -212 ZM385 244 l-203 0 l98 303 l2 0 l103 -303 ZM327 911 q-38 -1 -64 -27 q-25 -25 -26 -63 q1 -38 26 -63 q26 -26 64 -27 q38 1 64 27 q25 25 26 63 q-1 38 -26 63 q-26 26 -64 27 l0 0 ZM327 881 q25 -1 42 -18 q17 -17 18 -42 q-1 -25 -18 -42 q-17 -17 -42 -18 q-25 1 -42 18 q-17 17 -18 42 q1 25 18 42 q17 17 42 18 l0 0 Z" /><glyph glyph-name="" unicode="ã" d="M462 16 l-98 0 l0 -16 l293 0 l0 16 l-83 0 l-243 704 l-11 0 l-215 -645 q-13 -40 -27 -50 q-13 -11 -36 -9 l-32 0 l0 -16 l206 0 l0 16 l-52 0 q-24 0 -34 7 q-10 7 -10 18 q0 13 5 29 q4 17 10 32 l41 126 l214 0 l72 -212 ZM385 244 l-203 0 l98 303 l2 0 l103 -303 ZM471 898 q-6 -20 -20 -34 q-14 -13 -35 -14 q-16 1 -33 8 q-16 8 -30 16 q-17 10 -35 17 q-19 7 -39 7 q-45 -1 -71 -31 q-26 -30 -37 -71 l26 0 q6 20 20 34 q14 13 35 14 q16 -1 33 -8 q16 -8 30 -16 q17 -10 36 -17 q18 -7 38 -7 q45 2 71 32 q26 30 37 70 l-26 0 Z" /><glyph glyph-name="" unicode="ç" d="M597 690 l-16 0 q0 -18 -8 -30 q-8 -13 -29 -13 q-26 5 -67 37 q-41 31 -116 36 q-131 -4 -221 -107 q-91 -103 -95 -261 q4 -152 89 -254 q84 -101 208 -113 l-51 -84 l17 -7 q21 6 41 6 q19 -1 29 -12 q9 -12 9 -28 q0 -28 -18 -41 q-17 -13 -48 -11 q-23 0 -39 3 q-16 3 -30 8 l-8 -13 q25 -9 51 -15 q26 -7 54 -7 q39 -1 76 17 q37 17 40 61 q-2 29 -26 46 q-24 16 -53 16 q-17 0 -32 -2 q-15 -2 -29 -8 l-2 2 l41 68 q75 6 118 40 q43 33 65 38 q18 -1 26 -17 q8 -17 8 -33 l16 0 l0 237 l-16 0 q-2 -98 -63 -171 q-61 -74 -157 -78 q-129 10 -168 127 q-38 117 -34 225 q-4 108 34 225 q39 117 168 127 q94 -3 156 -71 q62 -67 64 -157 l16 0 l0 214 Z" /><glyph glyph-name="" unicode="é" d="M105 16 l-88 0 l0 -16 l583 0 l0 205 l-16 0 q0 -123 -59 -158 q-60 -35 -181 -31 l-137 0 l0 334 l74 0 q76 0 97 -32 q21 -32 18 -90 l16 0 l0 266 l-16 0 q3 -51 -18 -88 q-21 -38 -96 -40 l-75 0 l0 322 l157 0 q81 1 131 -34 q50 -35 51 -120 l16 0 l-12 170 l-533 0 l0 -16 l88 0 l0 -672 ZM255 772 l35 0 l145 90 q20 12 30 21 q10 10 10 24 q-1 15 -11 25 q-10 9 -21 9 q-13 0 -23 -7 q-10 -7 -20 -18 l-145 -144 Z" /><glyph glyph-name="" unicode="ê" d="M105 16 l-88 0 l0 -16 l583 0 l0 205 l-16 0 q0 -123 -59 -158 q-60 -35 -181 -31 l-137 0 l0 334 l74 0 q76 0 97 -32 q21 -32 18 -90 l16 0 l0 266 l-16 0 q3 -51 -18 -88 q-21 -38 -96 -40 l-75 0 l0 322 l157 0 q81 1 131 -34 q50 -35 51 -120 l16 0 l-12 170 l-533 0 l0 -16 l88 0 l0 -672 ZM184 772 l33 0 l117 106 l117 -106 l33 0 l-122 169 l-56 0 l-122 -169 Z" /><glyph glyph-name="" unicode="ë" d="M105 16 l-88 0 l0 -16 l583 0 l0 205 l-16 0 q0 -123 -59 -158 q-60 -35 -181 -31 l-137 0 l0 334 l74 0 q76 0 97 -32 q21 -32 18 -90 l16 0 l0 266 l-16 0 q3 -51 -18 -88 q-21 -38 -96 -40 l-75 0 l0 322 l157 0 q81 1 131 -34 q50 -35 51 -120 l16 0 l-12 170 l-533 0 l0 -16 l88 0 l0 -672 ZM428 882 q-19 -1 -32 -13 q-13 -13 -13 -32 q0 -19 13 -31 q13 -13 32 -14 q19 1 32 14 q12 12 13 31 q-1 19 -13 32 q-13 12 -32 13 l0 0 ZM240 882 q-19 -1 -32 -13 q-13 -13 -13 -32 q0 -19 13 -31 q13 -13 32 -14 q19 1 32 14 q12 12 13 31 q-1 19 -13 32 q-13 12 -32 13 l0 0 Z" /><glyph glyph-name="" unicode="è" d="M105 16 l-88 0 l0 -16 l583 0 l0 205 l-16 0 q0 -123 -59 -158 q-60 -35 -181 -31 l-137 0 l0 334 l74 0 q76 0 97 -32 q21 -32 18 -90 l16 0 l0 266 l-16 0 q3 -51 -18 -88 q-21 -38 -96 -40 l-75 0 l0 322 l157 0 q81 1 131 -34 q50 -35 51 -120 l16 0 l-12 170 l-533 0 l0 -16 l88 0 l0 -672 ZM378 772 l35 0 l-145 144 q-10 11 -20 18 q-10 7 -23 7 q-11 0 -21 -9 q-10 -10 -11 -25 q0 -14 10 -24 q10 -9 30 -21 l145 -90 Z" /><glyph glyph-name="" unicode="í" d="M116 16 l-91 0 l0 -16 l284 0 l0 16 l-91 0 l0 672 l91 0 l0 16 l-284 0 l0 -16 l91 0 l0 -672 ZM88 772 l35 0 l145 90 q20 12 30 21 q10 10 10 24 q-1 15 -11 25 q-10 9 -21 9 q-13 0 -23 -7 q-10 -7 -20 -18 l-145 -144 Z" /><glyph glyph-name="" unicode="î" d="M116 16 l-91 0 l0 -16 l284 0 l0 16 l-91 0 l0 672 l91 0 l0 16 l-284 0 l0 -16 l91 0 l0 -672 ZM17 772 l33 0 l117 106 l117 -106 l33 0 l-122 169 l-56 0 l-122 -169 Z" /><glyph glyph-name="" unicode="ï" d="M116 16 l-91 0 l0 -16 l284 0 l0 16 l-91 0 l0 672 l91 0 l0 16 l-284 0 l0 -16 l91 0 l0 -672 ZM261 882 q-19 -1 -32 -13 q-13 -13 -13 -32 q0 -19 13 -31 q13 -13 32 -14 q19 1 32 14 q12 12 13 31 q-1 19 -13 32 q-13 12 -32 13 l0 0 ZM73 882 q-19 -1 -32 -13 q-13 -13 -13 -32 q0 -19 13 -31 q13 -13 32 -14 q19 1 32 14 q12 12 13 31 q-1 19 -13 32 q-13 12 -32 13 l0 0 Z" /><glyph glyph-name="" unicode="ì" d="M116 16 l-91 0 l0 -16 l284 0 l0 16 l-91 0 l0 672 l91 0 l0 16 l-284 0 l0 -16 l91 0 l0 -672 ZM211 772 l35 0 l-145 144 q-10 11 -20 18 q-10 7 -23 7 q-11 0 -21 -9 q-10 -10 -11 -25 q0 -14 10 -24 q10 -9 30 -21 l145 -90 Z" /><glyph glyph-name="" unicode="ñ" d="M603 -6 l13 0 l0 640 q-1 30 10 42 q10 12 42 12 l44 0 l0 16 l-211 0 l0 -16 l47 0 q32 0 43 -12 q10 -12 9 -42 l0 -452 l-2 0 l-378 522 l-210 0 l0 -16 l96 0 l0 -615 q0 -35 -14 -46 q-14 -12 -48 -11 l-34 0 l0 -16 l214 0 l0 16 l-40 0 q-34 -1 -48 11 q-14 11 -14 46 l0 583 l2 0 l479 -662 ZM498 898 q-6 -20 -20 -34 q-14 -13 -35 -14 q-16 1 -33 8 q-16 8 -30 16 q-17 10 -35 17 q-19 7 -39 7 q-45 -1 -71 -31 q-26 -30 -37 -71 l26 0 q6 20 20 34 q14 13 35 14 q16 -1 33 -8 q16 -8 30 -16 q17 -10 36 -17 q18 -7 38 -7 q45 2 71 32 q26 30 37 70 l-26 0 Z" /><glyph glyph-name="" unicode="ó" d="M45 352 q4 -158 95 -261 q90 -103 221 -107 q131 4 221 107 q91 103 95 261 q-4 158 -95 261 q-90 103 -221 107 q-131 -4 -221 -107 q-91 -103 -95 -261 l0 0 ZM159 352 q-4 108 34 225 q39 117 168 127 q129 -10 168 -127 q38 -117 34 -225 q4 -108 -34 -225 q-39 -117 -168 -127 q-129 10 -168 127 q-38 117 -34 225 l0 0 ZM282 772 l35 0 l145 90 q20 12 30 21 q10 10 10 24 q-1 15 -11 25 q-10 9 -21 9 q-13 0 -23 -7 q-10 -7 -20 -18 l-145 -144 Z" /><glyph glyph-name="" unicode="ô" d="M45 352 q4 -158 95 -261 q90 -103 221 -107 q131 4 221 107 q91 103 95 261 q-4 158 -95 261 q-90 103 -221 107 q-131 -4 -221 -107 q-91 -103 -95 -261 l0 0 ZM159 352 q-4 108 34 225 q39 117 168 127 q129 -10 168 -127 q38 -117 34 -225 q4 -108 -34 -225 q-39 -117 -168 -127 q-129 10 -168 127 q-38 117 -34 225 l0 0 ZM211 772 l33 0 l117 106 l117 -106 l33 0 l-122 169 l-56 0 l-122 -169 Z" /><glyph glyph-name="" unicode="ö" d="M45 352 q4 -158 95 -261 q90 -103 221 -107 q131 4 221 107 q91 103 95 261 q-4 158 -95 261 q-90 103 -221 107 q-131 -4 -221 -107 q-91 -103 -95 -261 l0 0 ZM159 352 q-4 108 34 225 q39 117 168 127 q129 -10 168 -127 q38 -117 34 -225 q4 -108 -34 -225 q-39 -117 -168 -127 q-129 10 -168 127 q-38 117 -34 225 l0 0 ZM455 882 q-19 -1 -32 -13 q-13 -13 -13 -32 q0 -19 13 -31 q13 -13 32 -14 q19 1 32 14 q12 12 13 31 q-1 19 -13 32 q-13 12 -32 13 l0 0 ZM267 882 q-19 -1 -32 -13 q-13 -13 -13 -32 q0 -19 13 -31 q13 -13 32 -14 q19 1 32 14 q12 12 13 31 q-1 19 -13 32 q-13 12 -32 13 l0 0 Z" /><glyph glyph-name="" unicode="ò" d="M45 352 q4 -158 95 -261 q90 -103 221 -107 q131 4 221 107 q91 103 95 261 q-4 158 -95 261 q-90 103 -221 107 q-131 -4 -221 -107 q-91 -103 -95 -261 l0 0 ZM159 352 q-4 108 34 225 q39 117 168 127 q129 -10 168 -127 q38 -117 34 -225 q4 -108 -34 -225 q-39 -117 -168 -127 q-129 10 -168 127 q-38 117 -34 225 l0 0 ZM405 772 l35 0 l-145 144 q-10 11 -20 18 q-10 7 -23 7 q-11 0 -21 -9 q-10 -10 -11 -25 q0 -14 10 -24 q10 -9 30 -21 l145 -90 Z" /><glyph glyph-name="" unicode="õ" d="M45 352 q4 -158 95 -261 q90 -103 221 -107 q131 4 221 107 q91 103 95 261 q-4 158 -95 261 q-90 103 -221 107 q-131 -4 -221 -107 q-91 -103 -95 -261 l0 0 ZM159 352 q-4 108 34 225 q39 117 168 127 q129 -10 168 -127 q38 -117 34 -225 q4 -108 -34 -225 q-39 -117 -168 -127 q-129 10 -168 127 q-38 117 -34 225 l0 0 ZM498 898 q-6 -20 -20 -34 q-14 -13 -35 -14 q-16 1 -33 8 q-16 8 -30 16 q-17 10 -35 17 q-19 7 -39 7 q-45 -1 -71 -31 q-26 -30 -37 -71 l26 0 q6 20 20 34 q14 13 35 14 q16 -1 33 -8 q16 -8 30 -16 q17 -10 36 -17 q18 -7 38 -7 q45 2 71 32 q26 30 37 70 l-26 0 Z" /><glyph glyph-name="" unicode="&#x160;" d="M54 -6 l16 0 q-1 14 4 27 q4 14 21 15 q27 -3 71 -26 q45 -23 119 -26 q109 2 163 65 q54 64 54 164 q1 96 -48 141 q-49 44 -158 62 q-121 20 -162 48 q-41 27 -38 92 q1 70 41 109 q39 38 104 39 q100 -3 149 -66 q50 -63 56 -151 l16 0 l0 210 l-16 0 q-2 -11 -7 -24 q-5 -13 -22 -14 q-24 4 -62 31 q-39 26 -114 30 q-85 -2 -135 -56 q-51 -54 -52 -141 q0 -122 57 -163 q57 -42 174 -56 q86 -12 128 -44 q41 -33 41 -109 q-1 -68 -46 -109 q-46 -41 -119 -42 q-92 0 -154 61 q-63 60 -65 186 l-16 0 l0 -253 ZM428 941 l-33 0 l-117 -106 l-117 106 l-33 0 l122 -169 l56 0 l122 169 Z" /><glyph glyph-name="" unicode="ú" d="M10 688 l95 0 l0 -506 q2 -117 74 -159 q73 -42 198 -39 q103 -1 172 52 q70 52 73 168 l0 415 q-1 38 11 54 q11 15 43 15 l45 0 l0 16 l-232 0 l0 -16 l56 0 q33 1 47 -14 q14 -14 14 -54 l0 -404 q-1 -111 -61 -164 q-61 -52 -167 -52 q-66 0 -117 40 q-51 40 -54 125 l0 523 l106 0 l0 16 l-303 0 l0 -16 ZM282 772 l35 0 l145 90 q20 12 30 21 q10 10 10 24 q-1 15 -11 25 q-10 9 -21 9 q-13 0 -23 -7 q-10 -7 -20 -18 l-145 -144 Z" /><glyph glyph-name="" unicode="û" d="M10 688 l95 0 l0 -506 q2 -117 74 -159 q73 -42 198 -39 q103 -1 172 52 q70 52 73 168 l0 415 q-1 38 11 54 q11 15 43 15 l45 0 l0 16 l-232 0 l0 -16 l56 0 q33 1 47 -14 q14 -14 14 -54 l0 -404 q-1 -111 -61 -164 q-61 -52 -167 -52 q-66 0 -117 40 q-51 40 -54 125 l0 523 l106 0 l0 16 l-303 0 l0 -16 ZM211 772 l33 0 l117 106 l117 -106 l33 0 l-122 169 l-56 0 l-122 -169 Z" /><glyph glyph-name="" unicode="ü" d="M10 688 l95 0 l0 -506 q2 -117 74 -159 q73 -42 198 -39 q103 -1 172 52 q70 52 73 168 l0 415 q-1 38 11 54 q11 15 43 15 l45 0 l0 16 l-232 0 l0 -16 l56 0 q33 1 47 -14 q14 -14 14 -54 l0 -404 q-1 -111 -61 -164 q-61 -52 -167 -52 q-66 0 -117 40 q-51 40 -54 125 l0 523 l106 0 l0 16 l-303 0 l0 -16 ZM455 882 q-19 -1 -32 -13 q-13 -13 -13 -32 q0 -19 13 -31 q13 -13 32 -14 q19 1 32 14 q12 12 13 31 q-1 19 -13 32 q-13 12 -32 13 l0 0 ZM267 882 q-19 -1 -32 -13 q-13 -13 -13 -32 q0 -19 13 -31 q13 -13 32 -14 q19 1 32 14 q12 12 13 31 q-1 19 -13 32 q-13 12 -32 13 l0 0 Z" /><glyph glyph-name="" unicode="ù" d="M10 688 l95 0 l0 -506 q2 -117 74 -159 q73 -42 198 -39 q103 -1 172 52 q70 52 73 168 l0 415 q-1 38 11 54 q11 15 43 15 l45 0 l0 16 l-232 0 l0 -16 l56 0 q33 1 47 -14 q14 -14 14 -54 l0 -404 q-1 -111 -61 -164 q-61 -52 -167 -52 q-66 0 -117 40 q-51 40 -54 125 l0 523 l106 0 l0 16 l-303 0 l0 -16 ZM405 772 l35 0 l-145 144 q-10 11 -20 18 q-10 7 -23 7 q-11 0 -21 -9 q-10 -10 -11 -25 q0 -14 10 -24 q10 -9 30 -21 l145 -90 Z" /><glyph glyph-name="" unicode="ý" d="M288 16 l-106 0 l0 -16 l314 0 l0 16 l-106 0 l0 258 l162 359 q9 22 22 38 q13 16 41 17 l42 0 l0 16 l-205 0 l0 -16 l38 0 q24 0 35 -7 q10 -7 10 -20 q0 -14 -6 -32 q-7 -19 -20 -48 l-124 -280 l-167 387 l83 0 l0 16 l-291 0 l0 -16 l91 0 l187 -430 l0 -242 ZM255 772 l35 0 l145 90 q20 12 30 21 q10 10 10 24 q-1 15 -11 25 q-10 9 -21 9 q-13 0 -23 -7 q-10 -7 -20 -18 l-145 -144 Z" /><glyph glyph-name="" unicode="&#x178;" d="M288 16 l-106 0 l0 -16 l314 0 l0 16 l-106 0 l0 258 l162 359 q9 22 22 38 q13 16 41 17 l42 0 l0 16 l-205 0 l0 -16 l38 0 q24 0 35 -7 q10 -7 10 -20 q0 -14 -6 -32 q-7 -19 -20 -48 l-124 -280 l-167 387 l83 0 l0 16 l-291 0 l0 -16 l91 0 l187 -430 l0 -242 ZM428 882 q-19 -1 -32 -13 q-13 -13 -13 -32 q0 -19 13 -31 q13 -13 32 -14 q19 1 32 14 q12 12 13 31 q-1 19 -13 32 q-13 12 -32 13 l0 0 ZM240 882 q-19 -1 -32 -13 q-13 -13 -13 -32 q0 -19 13 -31 q13 -13 32 -14 q19 1 32 14 q12 12 13 31 q-1 19 -13 32 q-13 12 -32 13 l0 0 Z" /><glyph glyph-name="" unicode="&#x17d;" d="M38 0 l559 0 l0 200 l-16 0 l0 -40 q-6 -100 -100 -124 q-93 -24 -199 -20 l-119 0 l428 688 l-511 0 l0 -194 l16 0 q-6 76 27 126 q33 50 180 52 l161 0 l-426 -688 ZM484 941 l-33 0 l-117 -106 l-117 106 l-33 0 l122 -169 l56 0 l122 169 Z" /><glyph glyph-name="" unicode="á" d="M397 316 q-3 58 -54 87 q-52 29 -112 29 q-75 -2 -114 -34 q-40 -33 -40 -73 q0 -26 12 -41 q11 -15 32 -15 q20 0 33 12 q13 12 13 30 q-2 31 -16 37 q-15 6 -17 21 q3 27 38 37 q34 10 59 10 q30 1 55 -11 q25 -13 27 -47 l0 -123 l-19 0 q-83 2 -165 -28 q-81 -30 -87 -112 q1 -51 33 -79 q33 -28 92 -28 q49 0 85 14 q35 15 60 48 l2 0 q6 -27 29 -44 q23 -17 59 -18 q32 0 53 15 q21 14 35 39 l-11 8 q-11 -16 -23 -28 q-12 -11 -29 -12 q-20 1 -25 15 q-6 14 -5 29 l0 262 ZM313 219 l0 -131 q0 -18 -26 -45 q-26 -28 -82 -31 q-47 1 -60 28 q-14 27 -13 70 q3 77 55 95 q51 17 109 14 l17 0 ZM171 552 l35 0 l145 90 q20 12 30 21 q10 10 10 24 q-1 15 -11 25 q-10 9 -21 9 q-13 0 -23 -7 q-10 -7 -20 -18 l-145 -144 Z" /><glyph glyph-name="" unicode="â" d="M397 316 q-3 58 -54 87 q-52 29 -112 29 q-75 -2 -114 -34 q-40 -33 -40 -73 q0 -26 12 -41 q11 -15 32 -15 q20 0 33 12 q13 12 13 30 q-2 31 -16 37 q-15 6 -17 21 q3 27 38 37 q34 10 59 10 q30 1 55 -11 q25 -13 27 -47 l0 -123 l-19 0 q-83 2 -165 -28 q-81 -30 -87 -112 q1 -51 33 -79 q33 -28 92 -28 q49 0 85 14 q35 15 60 48 l2 0 q6 -27 29 -44 q23 -17 59 -18 q32 0 53 15 q21 14 35 39 l-11 8 q-11 -16 -23 -28 q-12 -11 -29 -12 q-20 1 -25 15 q-6 14 -5 29 l0 262 ZM313 219 l0 -131 q0 -18 -26 -45 q-26 -28 -82 -31 q-47 1 -60 28 q-14 27 -13 70 q3 77 55 95 q51 17 109 14 l17 0 ZM100 552 l33 0 l117 106 l117 -106 l33 0 l-122 169 l-56 0 l-122 -169 Z" /><glyph glyph-name="" unicode="ä" d="M397 316 q-3 58 -54 87 q-52 29 -112 29 q-75 -2 -114 -34 q-40 -33 -40 -73 q0 -26 12 -41 q11 -15 32 -15 q20 0 33 12 q13 12 13 30 q-2 31 -16 37 q-15 6 -17 21 q3 27 38 37 q34 10 59 10 q30 1 55 -11 q25 -13 27 -47 l0 -123 l-19 0 q-83 2 -165 -28 q-81 -30 -87 -112 q1 -51 33 -79 q33 -28 92 -28 q49 0 85 14 q35 15 60 48 l2 0 q6 -27 29 -44 q23 -17 59 -18 q32 0 53 15 q21 14 35 39 l-11 8 q-11 -16 -23 -28 q-12 -11 -29 -12 q-20 1 -25 15 q-6 14 -5 29 l0 262 ZM313 219 l0 -131 q0 -18 -26 -45 q-26 -28 -82 -31 q-47 1 -60 28 q-14 27 -13 70 q3 77 55 95 q51 17 109 14 l17 0 ZM344 662 q-19 -1 -32 -13 q-13 -13 -13 -32 q0 -19 13 -31 q13 -13 32 -14 q19 1 32 14 q12 12 13 31 q-1 19 -13 32 q-13 12 -32 13 l0 0 ZM156 662 q-19 -1 -32 -13 q-13 -13 -13 -32 q0 -19 13 -31 q13 -13 32 -14 q19 1 32 14 q12 12 13 31 q-1 19 -13 32 q-13 12 -32 13 l0 0 Z" /><glyph glyph-name="" unicode="à" d="M397 316 q-3 58 -54 87 q-52 29 -112 29 q-75 -2 -114 -34 q-40 -33 -40 -73 q0 -26 12 -41 q11 -15 32 -15 q20 0 33 12 q13 12 13 30 q-2 31 -16 37 q-15 6 -17 21 q3 27 38 37 q34 10 59 10 q30 1 55 -11 q25 -13 27 -47 l0 -123 l-19 0 q-83 2 -165 -28 q-81 -30 -87 -112 q1 -51 33 -79 q33 -28 92 -28 q49 0 85 14 q35 15 60 48 l2 0 q6 -27 29 -44 q23 -17 59 -18 q32 0 53 15 q21 14 35 39 l-11 8 q-11 -16 -23 -28 q-12 -11 -29 -12 q-20 1 -25 15 q-6 14 -5 29 l0 262 ZM313 219 l0 -131 q0 -18 -26 -45 q-26 -28 -82 -31 q-47 1 -60 28 q-14 27 -13 70 q3 77 55 95 q51 17 109 14 l17 0 ZM294 552 l35 0 l-145 144 q-10 11 -20 18 q-10 7 -23 7 q-11 0 -21 -9 q-10 -10 -11 -25 q0 -14 10 -24 q10 -9 30 -21 l145 -90 Z" /><glyph glyph-name="" unicode="å" d="M397 316 q-3 58 -54 87 q-52 29 -112 29 q-75 -2 -114 -34 q-40 -33 -40 -73 q0 -26 12 -41 q11 -15 32 -15 q20 0 33 12 q13 12 13 30 q-2 31 -16 37 q-15 6 -17 21 q3 27 38 37 q34 10 59 10 q30 1 55 -11 q25 -13 27 -47 l0 -123 l-19 0 q-83 2 -165 -28 q-81 -30 -87 -112 q1 -51 33 -79 q33 -28 92 -28 q49 0 85 14 q35 15 60 48 l2 0 q6 -27 29 -44 q23 -17 59 -18 q32 0 53 15 q21 14 35 39 l-11 8 q-11 -16 -23 -28 q-12 -11 -29 -12 q-20 1 -25 15 q-6 14 -5 29 l0 262 ZM313 219 l0 -131 q0 -18 -26 -45 q-26 -28 -82 -31 q-47 1 -60 28 q-14 27 -13 70 q3 77 55 95 q51 17 109 14 l17 0 ZM250 701 q-38 -1 -64 -27 q-25 -25 -26 -63 q1 -38 26 -63 q26 -26 64 -27 q38 1 64 27 q25 25 26 63 q-1 38 -26 63 q-26 26 -64 27 l0 0 ZM250 671 q25 -1 42 -18 q17 -17 18 -42 q-1 -25 -18 -42 q-17 -17 -42 -18 q-25 1 -42 18 q-17 17 -18 42 q1 25 18 42 q17 17 42 18 l0 0 Z" /><glyph glyph-name="" unicode="ã" d="M397 316 q-3 58 -54 87 q-52 29 -112 29 q-75 -2 -114 -34 q-40 -33 -40 -73 q0 -26 12 -41 q11 -15 32 -15 q20 0 33 12 q13 12 13 30 q-2 31 -16 37 q-15 6 -17 21 q3 27 38 37 q34 10 59 10 q30 1 55 -11 q25 -13 27 -47 l0 -123 l-19 0 q-83 2 -165 -28 q-81 -30 -87 -112 q1 -51 33 -79 q33 -28 92 -28 q49 0 85 14 q35 15 60 48 l2 0 q6 -27 29 -44 q23 -17 59 -18 q32 0 53 15 q21 14 35 39 l-11 8 q-11 -16 -23 -28 q-12 -11 -29 -12 q-20 1 -25 15 q-6 14 -5 29 l0 262 ZM313 219 l0 -131 q0 -18 -26 -45 q-26 -28 -82 -31 q-47 1 -60 28 q-14 27 -13 70 q3 77 55 95 q51 17 109 14 l17 0 ZM387 678 q-6 -20 -20 -34 q-14 -13 -35 -14 q-16 1 -33 8 q-16 8 -30 16 q-17 10 -35 17 q-19 7 -39 7 q-45 -1 -71 -31 q-26 -30 -37 -71 l26 0 q6 20 20 34 q14 13 35 14 q16 -1 33 -8 q16 -8 30 -16 q17 -10 36 -17 q18 -7 38 -7 q45 2 71 32 q26 30 37 70 l-26 0 Z" /><glyph glyph-name="" unicode="ç" d="M402 141 q-5 -49 -41 -91 q-36 -43 -111 -46 q-81 2 -100 51 q-19 48 -16 116 l0 87 q-2 72 24 115 q25 42 96 43 q24 0 48 -7 q25 -8 27 -24 q-2 -9 -12 -17 q-11 -8 -13 -36 q0 -16 12 -29 q13 -13 36 -14 q19 0 33 14 q14 13 15 36 q-2 47 -46 70 q-43 23 -98 23 q-91 -3 -153 -70 q-62 -68 -65 -169 q1 -80 50 -136 q48 -56 134 -66 l-53 -90 l17 -7 q21 6 41 6 q19 -1 29 -12 q9 -12 9 -28 q0 -28 -18 -41 q-17 -13 -48 -11 q-23 0 -39 3 q-16 3 -30 8 l-8 -13 q25 -9 51 -15 q26 -7 54 -7 q39 -1 76 17 q37 17 40 61 q-2 29 -26 46 q-24 16 -53 16 q-17 0 -32 -2 q-15 -2 -29 -8 l-2 2 l44 73 q2 -1 5 -1 q75 2 120 48 q45 46 48 105 l-16 0 Z" /><glyph glyph-name="" unicode="é" d="M134 249 l261 0 q9 0 9 9 q0 38 -45 103 q-45 64 -134 71 q-83 -5 -134 -75 q-52 -69 -53 -147 q1 -100 56 -160 q54 -60 143 -62 q70 1 117 43 q46 41 59 111 l-16 0 q-11 -62 -54 -100 q-42 -37 -106 -38 q-68 3 -87 49 q-19 46 -16 102 l0 94 ZM308 272 q0 -3 -2 -5 q-1 -2 -5 -2 l-167 0 l0 28 q-1 50 19 86 q20 35 72 37 q49 -2 66 -37 q18 -36 17 -86 l0 -21 ZM143 552 l35 0 l145 90 q20 12 30 21 q10 10 10 24 q-1 15 -11 25 q-10 9 -21 9 q-13 0 -23 -7 q-10 -7 -20 -18 l-145 -144 Z" /><glyph glyph-name="" unicode="ê" d="M134 249 l261 0 q9 0 9 9 q0 38 -45 103 q-45 64 -134 71 q-83 -5 -134 -75 q-52 -69 -53 -147 q1 -100 56 -160 q54 -60 143 -62 q70 1 117 43 q46 41 59 111 l-16 0 q-11 -62 -54 -100 q-42 -37 -106 -38 q-68 3 -87 49 q-19 46 -16 102 l0 94 ZM308 272 q0 -3 -2 -5 q-1 -2 -5 -2 l-167 0 l0 28 q-1 50 19 86 q20 35 72 37 q49 -2 66 -37 q18 -36 17 -86 l0 -21 ZM72 552 l33 0 l117 106 l117 -106 l33 0 l-122 169 l-56 0 l-122 -169 Z" /><glyph glyph-name="" unicode="ë" d="M134 249 l261 0 q9 0 9 9 q0 38 -45 103 q-45 64 -134 71 q-83 -5 -134 -75 q-52 -69 -53 -147 q1 -100 56 -160 q54 -60 143 -62 q70 1 117 43 q46 41 59 111 l-16 0 q-11 -62 -54 -100 q-42 -37 -106 -38 q-68 3 -87 49 q-19 46 -16 102 l0 94 ZM308 272 q0 -3 -2 -5 q-1 -2 -5 -2 l-167 0 l0 28 q-1 50 19 86 q20 35 72 37 q49 -2 66 -37 q18 -36 17 -86 l0 -21 ZM316 662 q-19 -1 -32 -13 q-13 -13 -13 -32 q0 -19 13 -31 q13 -13 32 -14 q19 1 32 14 q12 12 13 31 q-1 19 -13 32 q-13 12 -32 13 l0 0 ZM128 662 q-19 -1 -32 -13 q-13 -13 -13 -32 q0 -19 13 -31 q13 -13 32 -14 q19 1 32 14 q12 12 13 31 q-1 19 -13 32 q-13 12 -32 13 l0 0 Z" /><glyph glyph-name="" unicode="è" d="M134 249 l261 0 q9 0 9 9 q0 38 -45 103 q-45 64 -134 71 q-83 -5 -134 -75 q-52 -69 -53 -147 q1 -100 56 -160 q54 -60 143 -62 q70 1 117 43 q46 41 59 111 l-16 0 q-11 -62 -54 -100 q-42 -37 -106 -38 q-68 3 -87 49 q-19 46 -16 102 l0 94 ZM308 272 q0 -3 -2 -5 q-1 -2 -5 -2 l-167 0 l0 28 q-1 50 19 86 q20 35 72 37 q49 -2 66 -37 q18 -36 17 -86 l0 -21 ZM266 552 l35 0 l-145 144 q-10 11 -20 18 q-10 7 -23 7 q-11 0 -21 -9 q-10 -10 -11 -25 q0 -14 10 -24 q10 -9 30 -21 l145 -90 Z" /><glyph glyph-name="" unicode="í" d="M97 16 l-80 0 l0 -16 l244 0 l0 16 l-80 0 l0 416 q-15 -14 -37 -18 q-23 -4 -47 -4 l-80 0 l0 -16 l80 0 l0 -378 ZM60 552 l35 0 l145 90 q20 12 30 21 q10 10 10 24 q-1 15 -11 25 q-10 9 -21 9 q-13 0 -23 -7 q-10 -7 -20 -18 l-145 -144 Z" /><glyph glyph-name="" unicode="î" d="M97 16 l-80 0 l0 -16 l244 0 l0 16 l-80 0 l0 416 q-15 -14 -37 -18 q-23 -4 -47 -4 l-80 0 l0 -16 l80 0 l0 -378 ZM-11 552 l33 0 l117 106 l117 -106 l33 0 l-122 169 l-56 0 l-122 -169 Z" /><glyph glyph-name="" unicode="ï" d="M97 16 l-80 0 l0 -16 l244 0 l0 16 l-80 0 l0 416 q-15 -14 -37 -18 q-23 -4 -47 -4 l-80 0 l0 -16 l80 0 l0 -378 ZM233 662 q-19 -1 -32 -13 q-13 -13 -13 -32 q0 -19 13 -31 q13 -13 32 -14 q19 1 32 14 q12 12 13 31 q-1 19 -13 32 q-13 12 -32 13 l0 0 ZM45 662 q-19 -1 -32 -13 q-13 -13 -13 -32 q0 -19 13 -31 q13 -13 32 -14 q19 1 32 14 q12 12 13 31 q-1 19 -13 32 q-13 12 -32 13 l0 0 Z" /><glyph glyph-name="" unicode="ì" d="M97 16 l-80 0 l0 -16 l244 0 l0 16 l-80 0 l0 416 q-15 -14 -37 -18 q-23 -4 -47 -4 l-80 0 l0 -16 l80 0 l0 -378 ZM183 552 l35 0 l-145 144 q-10 11 -20 18 q-10 7 -23 7 q-11 0 -21 -9 q-10 -10 -11 -25 q0 -14 10 -24 q10 -9 30 -21 l145 -90 Z" /><glyph glyph-name="" unicode="ñ" d="M92 16 l-79 0 l0 -16 l239 0 l0 16 l-76 0 l0 282 q13 30 48 72 q35 42 97 46 q25 1 42 -16 q16 -16 17 -57 l0 -327 l-79 0 l0 -16 l242 0 l0 16 l-79 0 l0 303 q1 46 -28 79 q-30 32 -109 34 q-55 -2 -92 -33 q-37 -31 -57 -69 l-2 0 l0 102 q-13 -16 -31 -19 q-18 -4 -53 -3 l-79 0 l0 -16 l79 0 l0 -378 ZM415 678 q-6 -20 -20 -34 q-14 -13 -35 -14 q-16 1 -33 8 q-16 8 -30 16 q-17 10 -35 17 q-19 7 -39 7 q-45 -1 -71 -31 q-26 -30 -37 -71 l26 0 q6 20 20 34 q14 13 35 14 q16 -1 33 -8 q16 -8 30 -16 q17 -10 36 -17 q18 -7 38 -7 q45 2 71 32 q26 30 37 70 l-26 0 Z" /><glyph glyph-name="" unicode="ó" d="M38 210 q1 -89 58 -154 q56 -65 154 -68 q98 3 154 68 q57 65 58 154 q-1 89 -58 154 q-56 65 -154 68 q-98 -3 -154 -68 q-57 -65 -58 -154 l0 0 ZM366 171 q3 -68 -16 -116 q-19 -49 -100 -51 q-81 2 -100 51 q-19 48 -16 116 l0 78 q-3 68 16 116 q19 49 100 51 q81 -2 100 -51 q19 -48 16 -116 l0 -78 ZM171 552 l35 0 l145 90 q20 12 30 21 q10 10 10 24 q-1 15 -11 25 q-10 9 -21 9 q-13 0 -23 -7 q-10 -7 -20 -18 l-145 -144 Z" /><glyph glyph-name="" unicode="ô" d="M38 210 q1 -89 58 -154 q56 -65 154 -68 q98 3 154 68 q57 65 58 154 q-1 89 -58 154 q-56 65 -154 68 q-98 -3 -154 -68 q-57 -65 -58 -154 l0 0 ZM366 171 q3 -68 -16 -116 q-19 -49 -100 -51 q-81 2 -100 51 q-19 48 -16 116 l0 78 q-3 68 16 116 q19 49 100 51 q81 -2 100 -51 q19 -48 16 -116 l0 -78 ZM100 552 l33 0 l117 106 l117 -106 l33 0 l-122 169 l-56 0 l-122 -169 Z" /><glyph glyph-name="" unicode="ö" d="M38 210 q1 -89 58 -154 q56 -65 154 -68 q98 3 154 68 q57 65 58 154 q-1 89 -58 154 q-56 65 -154 68 q-98 -3 -154 -68 q-57 -65 -58 -154 l0 0 ZM366 171 q3 -68 -16 -116 q-19 -49 -100 -51 q-81 2 -100 51 q-19 48 -16 116 l0 78 q-3 68 16 116 q19 49 100 51 q81 -2 100 -51 q19 -48 16 -116 l0 -78 ZM344 662 q-19 -1 -32 -13 q-13 -13 -13 -32 q0 -19 13 -31 q13 -13 32 -14 q19 1 32 14 q12 12 13 31 q-1 19 -13 32 q-13 12 -32 13 l0 0 ZM156 662 q-19 -1 -32 -13 q-13 -13 -13 -32 q0 -19 13 -31 q13 -13 32 -14 q19 1 32 14 q12 12 13 31 q-1 19 -13 32 q-13 12 -32 13 l0 0 Z" /><glyph glyph-name="" unicode="ò" d="M38 210 q1 -89 58 -154 q56 -65 154 -68 q98 3 154 68 q57 65 58 154 q-1 89 -58 154 q-56 65 -154 68 q-98 -3 -154 -68 q-57 -65 -58 -154 l0 0 ZM366 171 q3 -68 -16 -116 q-19 -49 -100 -51 q-81 2 -100 51 q-19 48 -16 116 l0 78 q-3 68 16 116 q19 49 100 51 q81 -2 100 -51 q19 -48 16 -116 l0 -78 ZM294 552 l35 0 l-145 144 q-10 11 -20 18 q-10 7 -23 7 q-11 0 -21 -9 q-10 -10 -11 -25 q0 -14 10 -24 q10 -9 30 -21 l145 -90 Z" /><glyph glyph-name="" unicode="õ" d="M38 210 q1 -89 58 -154 q56 -65 154 -68 q98 3 154 68 q57 65 58 154 q-1 89 -58 154 q-56 65 -154 68 q-98 -3 -154 -68 q-57 -65 -58 -154 l0 0 ZM366 171 q3 -68 -16 -116 q-19 -49 -100 -51 q-81 2 -100 51 q-19 48 -16 116 l0 78 q-3 68 16 116 q19 49 100 51 q81 -2 100 -51 q19 -48 16 -116 l0 -78 ZM387 678 q-6 -20 -20 -34 q-14 -13 -35 -14 q-16 1 -33 8 q-16 8 -30 16 q-17 10 -35 17 q-19 7 -39 7 q-45 -1 -71 -31 q-26 -30 -37 -71 l26 0 q6 20 20 34 q14 13 35 14 q16 -1 33 -8 q16 -8 30 -16 q17 -10 36 -17 q18 -7 38 -7 q45 2 71 32 q26 30 37 70 l-26 0 Z" /><glyph glyph-name="" unicode="&#x161;" d="M51 -6 l15 0 q1 16 2 26 q1 11 10 11 q13 -3 39 -21 q26 -19 84 -22 q59 1 98 42 q40 41 41 112 q0 52 -27 83 q-27 31 -87 35 l-34 2 q-50 2 -77 19 q-28 17 -28 55 q1 39 27 60 q26 20 65 20 q58 -1 85 -33 q27 -32 31 -76 l13 0 l-4 119 l-14 0 l0 -8 q0 -10 -1 -16 q-2 -5 -6 -5 q-8 2 -34 18 q-26 15 -67 17 q-59 -1 -92 -37 q-32 -37 -33 -92 q2 -75 40 -96 q37 -22 88 -24 q42 -2 76 -16 q35 -13 37 -70 q-1 -43 -28 -68 q-27 -25 -69 -25 q-77 4 -106 51 q-29 48 -33 90 l-13 0 l2 -151 ZM345 721 l-33 0 l-117 -106 l-117 106 l-33 0 l122 -169 l56 0 l122 169 Z" /><glyph glyph-name="" unicode="ú" d="M97 99 q-1 -45 31 -77 q31 -32 105 -34 q66 4 100 43 q34 38 40 60 l2 0 l0 -91 l164 0 l0 16 l-80 0 l0 416 q-15 -14 -37 -18 q-23 -4 -47 -4 l-79 0 l0 -16 l79 0 l0 -237 q-2 -58 -40 -104 q-38 -46 -92 -49 q-29 0 -45 19 q-17 18 -17 51 l0 358 q-15 -14 -37 -18 q-23 -4 -47 -4 l-80 0 l0 -16 l80 0 l0 -295 ZM199 552 l35 0 l145 90 q20 12 30 21 q10 10 10 24 q-1 15 -11 25 q-10 9 -21 9 q-13 0 -23 -7 q-10 -7 -20 -18 l-145 -144 Z" /><glyph glyph-name="" unicode="û" d="M97 99 q-1 -45 31 -77 q31 -32 105 -34 q66 4 100 43 q34 38 40 60 l2 0 l0 -91 l164 0 l0 16 l-80 0 l0 416 q-15 -14 -37 -18 q-23 -4 -47 -4 l-79 0 l0 -16 l79 0 l0 -237 q-2 -58 -40 -104 q-38 -46 -92 -49 q-29 0 -45 19 q-17 18 -17 51 l0 358 q-15 -14 -37 -18 q-23 -4 -47 -4 l-80 0 l0 -16 l80 0 l0 -295 ZM128 552 l33 0 l117 106 l117 -106 l33 0 l-122 169 l-56 0 l-122 -169 Z" /><glyph glyph-name="" unicode="ü" d="M97 99 q-1 -45 31 -77 q31 -32 105 -34 q66 4 100 43 q34 38 40 60 l2 0 l0 -91 l164 0 l0 16 l-80 0 l0 416 q-15 -14 -37 -18 q-23 -4 -47 -4 l-79 0 l0 -16 l79 0 l0 -237 q-2 -58 -40 -104 q-38 -46 -92 -49 q-29 0 -45 19 q-17 18 -17 51 l0 358 q-15 -14 -37 -18 q-23 -4 -47 -4 l-80 0 l0 -16 l80 0 l0 -295 ZM372 662 q-19 -1 -32 -13 q-13 -13 -13 -32 q0 -19 13 -31 q13 -13 32 -14 q19 1 32 14 q12 12 13 31 q-1 19 -13 32 q-13 12 -32 13 l0 0 ZM184 662 q-19 -1 -32 -13 q-13 -13 -13 -32 q0 -19 13 -31 q13 -13 32 -14 q19 1 32 14 q12 12 13 31 q-1 19 -13 32 q-13 12 -32 13 l0 0 Z" /><glyph glyph-name="" unicode="ù" d="M97 99 q-1 -45 31 -77 q31 -32 105 -34 q66 4 100 43 q34 38 40 60 l2 0 l0 -91 l164 0 l0 16 l-80 0 l0 416 q-15 -14 -37 -18 q-23 -4 -47 -4 l-79 0 l0 -16 l79 0 l0 -237 q-2 -58 -40 -104 q-38 -46 -92 -49 q-29 0 -45 19 q-17 18 -17 51 l0 358 q-15 -14 -37 -18 q-23 -4 -47 -4 l-80 0 l0 -16 l80 0 l0 -295 ZM322 552 l35 0 l-145 144 q-10 11 -20 18 q-10 7 -23 7 q-11 0 -21 -9 q-10 -10 -11 -25 q0 -14 10 -24 q10 -9 30 -21 l145 -90 Z" /><glyph glyph-name="" unicode="ý" d="M156 394 l72 0 l0 16 l-223 0 l0 -16 l54 0 l185 -426 q-7 -34 -27 -113 q-21 -79 -48 -89 q-4 0 -6 3 q-2 2 -2 7 q0 4 1 7 q0 4 0 9 q0 15 -12 26 q-11 11 -30 12 q-22 0 -35 -13 q-13 -14 -13 -35 q0 -25 16 -38 q15 -14 39 -14 q50 -1 75 51 q25 52 52 169 q4 13 20 55 q15 42 37 96 l89 224 q15 41 30 56 q15 14 61 13 l0 16 l-195 0 l0 -16 l41 0 q31 0 44 -5 q14 -6 14 -21 q0 -9 -3 -21 q-4 -11 -10 -27 l-94 -239 l-132 313 ZM171 552 l35 0 l145 90 q20 12 30 21 q10 10 10 24 q-1 15 -11 25 q-10 9 -21 9 q-13 0 -23 -7 q-10 -7 -20 -18 l-145 -144 Z" /><glyph glyph-name="" unicode="ÿ" d="M156 394 l72 0 l0 16 l-223 0 l0 -16 l54 0 l185 -426 q-7 -34 -27 -113 q-21 -79 -48 -89 q-4 0 -6 3 q-2 2 -2 7 q0 4 1 7 q0 4 0 9 q0 15 -12 26 q-11 11 -30 12 q-22 0 -35 -13 q-13 -14 -13 -35 q0 -25 16 -38 q15 -14 39 -14 q50 -1 75 51 q25 52 52 169 q4 13 20 55 q15 42 37 96 l89 224 q15 41 30 56 q15 14 61 13 l0 16 l-195 0 l0 -16 l41 0 q31 0 44 -5 q14 -6 14 -21 q0 -9 -3 -21 q-4 -11 -10 -27 l-94 -239 l-132 313 ZM344 662 q-19 -1 -32 -13 q-13 -13 -13 -32 q0 -19 13 -31 q13 -13 32 -14 q19 1 32 14 q12 12 13 31 q-1 19 -13 32 q-13 12 -32 13 l0 0 ZM156 662 q-19 -1 -32 -13 q-13 -13 -13 -32 q0 -19 13 -31 q13 -13 32 -14 q19 1 32 14 q12 12 13 31 q-1 19 -13 32 q-13 12 -32 13 l0 0 Z" /><glyph glyph-name="" unicode="&#x17e;" d="M17 0 l374 0 l0 149 l-16 0 q1 -77 -32 -105 q-33 -29 -112 -28 l-98 0 l285 394 l-363 0 l0 -154 l16 0 q-2 63 26 100 q27 37 112 38 l95 0 l-287 -394 ZM372 721 l-33 0 l-117 -106 l-117 106 l-33 0 l122 -169 l56 0 l122 169 Z" /><glyph glyph-name="" unicode="&#xfb01;" d="M112 16 l-90 0 l0 -16 l251 0 l0 16 l-77 0 l0 378 l179 0 l0 -378 l-73 0 l0 -16 l237 0 l0 16 l-80 0 l0 416 q-15 -14 -37 -18 q-23 -4 -47 -4 l-179 0 l0 145 q-2 77 27 120 q30 43 122 44 q35 -1 58 -11 q23 -10 24 -21 q-3 -12 -27 -17 q-25 -5 -28 -37 q0 -20 13 -32 q13 -13 33 -13 q23 0 37 15 q13 14 13 39 q-3 54 -46 74 q-43 20 -90 19 q-111 -4 -165 -82 q-55 -78 -55 -177 l0 -66 l-90 0 l0 -16 l90 0 l0 -378 Z" /><glyph glyph-name="" unicode="&#xfb02;" d="M112 16 l-90 0 l0 -16 l251 0 l0 16 l-77 0 l0 378 l103 0 l0 16 l-103 0 l0 180 q3 83 42 107 q38 25 73 22 q20 0 40 -7 q19 -6 21 -22 q-3 -8 -24 -18 q-22 -9 -25 -44 q1 -22 14 -31 q13 -9 21 -9 q7 0 10 1 q4 1 7 2 l0 -575 l-73 0 l0 -16 l237 0 l0 16 l-80 0 l0 717 l-59 -37 q-13 17 -35 28 q-22 11 -58 11 q-48 4 -118 -57 q-70 -60 -77 -234 l0 -34 l-90 0 l0 -16 l90 0 l0 -378 Z" /><glyph glyph-name="" unicode="&#xf721;" d="M186 148 l16 0 l0 58 q-1 73 10 195 q11 121 42 209 q-17 22 -30 49 q-14 27 -25 53 q-1 4 -2 6 q-2 2 -3 2 q-1 0 -2 -2 q-2 -2 -3 -6 q-11 -26 -24 -53 q-14 -27 -31 -49 q31 -88 42 -209 q11 -122 10 -195 l0 -58 ZM194 90 q-22 -1 -36 -15 q-14 -14 -15 -36 q1 -22 15 -36 q14 -14 36 -15 q21 1 36 15 q14 14 15 36 q-1 22 -15 36 q-15 14 -36 15 l0 0 Z" /><glyph glyph-name="" unicode="&#xf6f8;" d="M-40 516 l35 0 l145 90 q20 12 30 21 q10 10 10 24 q-1 15 -11 25 q-10 9 -21 9 q-13 0 -23 -7 q-10 -7 -20 -18 l-145 -144 ZM160 516 l35 0 l145 90 q20 12 30 21 q10 10 10 24 q-1 15 -11 25 q-10 9 -21 9 q-13 0 -23 -7 q-10 -7 -20 -18 l-145 -144 Z" /><glyph glyph-name="" unicode="&#xf724;" d="M273 305 q72 -7 125 -34 q53 -27 56 -119 q-1 -67 -46 -107 q-46 -40 -119 -41 q-4 0 -8 0 q-4 1 -8 2 l0 299 ZM257 420 q-67 8 -113 34 q-46 26 -48 97 q1 67 41 105 q40 37 109 38 q5 0 11 -1 l0 -273 ZM257 -159 l16 0 l0 148 q6 -1 12 -1 q109 3 163 65 q54 62 54 152 q-4 120 -74 161 q-70 41 -155 51 l0 275 q83 -11 127 -69 q43 -59 49 -142 l16 0 l0 206 l-16 0 q-2 -10 -7 -23 q-6 -13 -25 -14 q-17 3 -51 26 q-34 22 -93 32 l0 66 l-16 0 l0 -65 q-2 1 -5 1 q-3 0 -5 0 q-89 -2 -138 -56 q-48 -53 -49 -137 q3 -123 61 -163 q58 -40 136 -46 l0 -301 q-81 9 -133 68 q-52 59 -54 171 l-16 0 l0 -248 l16 0 q-1 13 4 27 q4 13 21 14 q24 -2 63 -22 q38 -19 99 -27 l0 -149 Z" /><glyph glyph-name="" unicode="&#xf726;" d="M168 384 q0 24 13 38 q14 14 37 14 q22 -1 36 -19 q15 -19 15 -43 q-1 -34 -18 -56 q-17 -22 -42 -36 q-15 23 -28 48 q-12 26 -13 54 l0 0 ZM218 269 q30 19 48 44 q18 25 19 61 q-1 37 -23 57 q-22 21 -55 21 q-44 -1 -71 -31 q-27 -30 -28 -74 q0 -27 8 -53 q9 -26 25 -52 q-43 -28 -73 -63 q-31 -35 -32 -80 q0 -32 26 -68 q27 -36 79 -39 q47 0 76 19 q30 19 61 52 q26 -34 53 -52 q27 -19 53 -19 q48 2 75 34 q27 32 43 68 l-10 6 q-12 -18 -28 -38 q-15 -20 -39 -22 q-24 2 -51 32 q-27 30 -48 57 q9 15 29 43 q20 27 31 31 q-2 -4 -4 -10 q-1 -6 -1 -14 q0 -12 9 -24 q9 -11 27 -12 q19 0 30 12 q12 11 12 32 q-1 22 -14 34 q-13 12 -30 12 q-26 0 -45 -22 q-20 -22 -52 -73 l-100 131 ZM96 160 q0 17 13 33 q13 15 41 35 q22 -31 55 -75 q34 -45 62 -79 q-12 -16 -29 -28 q-17 -11 -37 -12 q-37 6 -70 54 q-33 48 -35 72 l0 0 Z" /><glyph glyph-name="" unicode="&#xf7b4;" d="M60 516 l35 0 l145 90 q20 12 30 21 q10 10 10 24 q-1 15 -11 25 q-10 9 -21 9 q-13 0 -23 -7 q-10 -7 -20 -18 l-145 -144 Z" /><glyph glyph-name="" unicode="&#xf730;" d="M144 226 q6 142 59 182 q53 39 88 34 q75 -2 120 -61 q46 -59 47 -155 q-3 -111 -53 -164 q-50 -52 -111 -52 q-82 3 -116 66 q-35 62 -34 150 l0 0 ZM54 226 q1 -109 61 -174 q59 -64 163 -66 q103 3 153 72 q51 70 51 168 q2 80 -42 157 q-44 77 -165 83 q-98 -2 -159 -67 q-60 -66 -62 -173 l0 0 Z" /><glyph glyph-name="" unicode="&#xf731;" d="M43 0 l246 0 l0 16 l-81 0 l0 420 l81 0 l0 16 l-246 0 l0 -16 l81 0 l0 -420 l-81 0 l0 -16 Z" /><glyph glyph-name="" unicode="&#xf732;" d="M46 0 l363 0 l25 174 l-16 0 l-15 -102 l-277 0 l0 2 l122 65 q55 27 101 70 q46 43 49 111 q0 56 -42 100 q-42 44 -130 46 q-61 1 -115 -29 q-54 -30 -58 -99 q0 -20 15 -37 q15 -16 41 -17 q23 1 37 14 q15 14 15 32 q-1 22 -11 32 q-11 10 -26 12 q-13 2 -21 6 q-8 3 -8 14 q0 11 28 33 q27 21 75 23 q67 -1 90 -40 q22 -38 20 -99 q3 -81 -52 -137 q-56 -56 -210 -117 l0 -57 Z" /><glyph glyph-name="" unicode="&#xf733;" d="M120 163 l0 -16 l34 0 q49 6 121 -23 q73 -28 80 -160 q1 -85 -35 -140 q-37 -54 -127 -56 q-71 2 -107 29 q-37 26 -37 50 q0 6 4 12 q4 6 16 6 q10 0 16 -1 q6 -2 12 -2 q20 0 29 12 q10 13 10 36 q-1 22 -16 36 q-15 14 -39 15 q-30 -1 -46 -22 q-16 -20 -16 -49 q1 -60 49 -99 q48 -38 127 -39 q92 0 169 52 q76 52 81 156 q5 46 -35 111 q-40 65 -182 83 l0 2 q39 0 110 28 q70 28 78 127 q-2 69 -53 112 q-51 42 -133 43 q-62 0 -110 -32 q-47 -31 -50 -98 q0 -22 13 -38 q13 -17 39 -18 q22 1 33 15 q11 14 11 33 q0 19 -9 30 q-9 10 -24 12 q-14 2 -23 4 q-10 3 -10 10 q1 16 33 40 q32 24 87 26 q63 -2 88 -42 q25 -40 24 -98 q-1 -87 -49 -118 q-48 -31 -130 -29 l-33 0 Z" /><glyph glyph-name="" unicode="&#xf734;" d="M254 -228 l84 0 l0 228 l98 0 l0 60 l-98 0 l0 258 l-84 0 l0 -258 l-218 0 l304 418 l-20 0 l-350 -478 l284 0 l0 -228 Z" /><glyph glyph-name="" unicode="&#xf735;" d="M358 477 q1 -9 -4 -21 q-4 -11 -21 -12 q-6 0 -23 2 q-18 3 -42 8 q-24 5 -51 8 q-28 4 -55 4 q-32 0 -57 -6 q-24 -7 -39 -16 q6 -20 12 -61 q6 -40 7 -103 q0 -43 -4 -73 q-5 -31 -15 -71 l11 -7 q15 16 45 30 q29 14 77 15 q69 -1 112 -54 q43 -54 44 -150 q2 -74 -36 -136 q-37 -62 -136 -66 q-63 2 -96 29 q-34 27 -34 55 q0 9 3 14 q3 4 11 4 q5 0 12 -1 q6 -2 15 -2 q20 1 29 15 q10 14 10 29 q-1 28 -18 37 q-16 10 -32 9 q-23 0 -43 -17 q-20 -18 -21 -54 q1 -55 46 -94 q44 -38 121 -40 q111 0 184 57 q72 58 75 174 q0 75 -59 139 q-59 64 -173 68 q-46 0 -75 -10 q-30 -9 -52 -26 q6 28 11 60 q4 31 4 77 q0 24 -2 46 q-3 23 -3 37 q1 7 18 13 q17 7 44 7 q24 -1 60 -8 q36 -7 65 -8 q25 -3 57 13 q31 16 34 86 l-16 0 Z" /><glyph glyph-name="" unicode="&#xf736;" d="M413 230 q3 -76 -21 -149 q-24 -74 -114 -79 q-91 6 -115 86 q-23 80 -20 156 q5 110 55 146 q50 37 89 34 q77 -4 102 -66 q26 -62 24 -128 l0 0 ZM461 714 q-44 7 -214 -88 q-171 -95 -194 -370 q0 -107 57 -187 q57 -79 168 -83 q103 3 163 73 q61 70 62 169 q0 86 -51 148 q-51 61 -149 64 q-72 -3 -106 -34 q-34 -31 -46 -54 l-2 0 q5 123 69 214 q64 91 243 132 l0 16 Z" /><glyph glyph-name="" unicode="&#xf737;" d="M19 284 l16 0 l19 90 l323 0 l-172 -438 q-15 -40 -21 -69 q-6 -29 -6 -46 q0 -29 13 -48 q13 -20 41 -21 q21 0 35 12 q13 13 13 36 q-1 20 -12 31 q-12 11 -28 11 q-9 0 -14 -3 q-5 -3 -13 -3 q-5 0 -8 3 q-3 3 -3 8 q11 70 107 281 q96 211 142 299 l13 25 l-423 0 l-22 -168 Z" /><glyph glyph-name="" unicode="&#xf738;" d="M45 160 q4 -88 73 -131 q69 -43 160 -43 q91 0 160 43 q69 43 73 131 q-4 89 -69 138 q-65 49 -141 68 l0 2 q71 17 122 55 q52 38 54 106 q-1 74 -56 122 q-54 47 -143 49 q-89 -2 -143 -49 q-55 -48 -56 -122 q2 -68 54 -106 q51 -38 122 -55 l0 -2 q-76 -19 -141 -68 q-65 -49 -69 -138 l0 0 ZM141 167 q1 91 39 135 q38 44 98 55 q60 -11 98 -55 q38 -44 39 -135 q0 -66 -32 -114 q-33 -49 -105 -51 q-72 2 -104 51 q-33 48 -33 114 l0 0 ZM163 541 q0 58 27 100 q27 41 88 43 q61 -2 88 -43 q28 -42 27 -100 q0 -71 -30 -113 q-29 -42 -85 -55 q-56 13 -85 55 q-30 42 -30 113 l0 0 Z" /><glyph glyph-name="" unicode="&#xf739;" d="M143 222 q-3 76 21 149 q24 74 114 79 q91 -6 115 -86 q23 -80 20 -156 q-5 -110 -55 -146 q-50 -37 -89 -34 q-77 4 -102 66 q-26 62 -24 128 l0 0 ZM95 -262 q44 -7 215 88 q170 95 193 370 q0 107 -57 187 q-57 79 -168 83 q-103 -3 -163 -73 q-61 -70 -62 -169 q0 -86 51 -148 q51 -61 149 -64 q72 3 106 34 q34 31 46 54 l2 0 q-5 -123 -69 -214 q-64 -91 -243 -132 l0 -16 Z" /><glyph glyph-name="" unicode="&#xf73f;" d="M196 149 q-2 10 -4 24 q-2 13 -2 34 q-1 40 32 79 q33 39 105 104 q28 23 48 59 q19 36 20 101 q0 76 -40 122 q-41 47 -118 48 q-55 -1 -93 -33 q-37 -33 -39 -85 q0 -23 14 -44 q13 -21 39 -22 q21 0 35 11 q13 11 14 34 q-4 41 -33 44 q-29 3 -33 19 q2 29 34 44 q31 16 62 16 q50 0 88 -27 q38 -28 40 -82 q-12 -92 -99 -147 q-88 -56 -100 -179 q0 -31 5 -62 q4 -31 12 -61 l13 3 ZM194 90 q-22 -1 -36 -15 q-14 -14 -15 -36 q1 -22 15 -36 q14 -14 36 -15 q21 1 36 15 q14 14 15 36 q-1 22 -15 36 q-15 14 -36 15 l0 0 Z" /><glyph glyph-name="" unicode="&#xf6f6;" d="M-11 516 l33 0 l117 106 l117 -106 l33 0 l-122 169 l-56 0 l-122 -169 Z" /><glyph glyph-name="" unicode="&#xf760;" d="M183 516 l35 0 l-145 144 q-10 11 -20 18 q-10 7 -23 7 q-11 0 -21 -9 q-10 -10 -11 -25 q0 -14 10 -24 q10 -9 30 -21 l145 -90 Z" /><glyph glyph-name="" unicode="&#xf761;" d="M235 452 l-5 0 l-156 -391 q-9 -22 -20 -34 q-12 -11 -30 -11 l-22 0 l0 -16 l137 0 l0 16 l-28 0 q-12 0 -21 3 q-9 3 -9 12 q0 7 2 12 q2 5 4 11 l37 91 l136 0 l50 -129 l-57 0 l0 -16 l208 0 l0 16 l-55 0 l-171 436 ZM193 324 l61 -163 l-125 0 l64 163 Z" /><glyph glyph-name="" unicode="&#xf762;" d="M180 428 l34 0 q68 -3 84 -36 q15 -34 12 -60 q-1 -51 -27 -70 q-25 -19 -66 -18 l-37 0 l0 184 ZM96 16 l-72 0 l0 -16 l203 0 q64 -2 120 22 q56 24 60 96 q-3 63 -53 89 q-49 25 -105 28 l0 2 q27 -2 83 19 q56 20 62 87 q-3 68 -55 86 q-52 18 -111 15 l-204 0 l0 -16 l72 0 l0 -412 ZM180 228 l38 0 q27 2 62 -14 q34 -16 37 -87 q-3 -78 -37 -96 q-34 -18 -63 -15 l-37 0 l0 212 Z" /><glyph glyph-name="" unicode="&#xf763;" d="M409 432 l-10 0 q-1 -8 -6 -17 q-4 -8 -15 -9 q-11 3 -40 23 q-29 20 -78 23 q-106 -4 -163 -72 q-56 -69 -57 -158 q1 -94 61 -161 q59 -66 159 -69 q51 3 79 24 q28 21 39 24 q12 0 15 -10 q4 -9 6 -22 l10 0 l0 156 l-10 0 q-5 -67 -42 -111 q-37 -43 -101 -45 q-70 3 -96 67 q-25 63 -24 147 q-2 84 24 148 q26 63 98 66 q64 0 99 -41 q34 -41 43 -97 l9 0 l0 134 Z" /><glyph glyph-name="" unicode="&#xf764;" d="M96 16 l-72 0 l0 -16 l215 0 q142 5 192 77 q49 72 46 145 q7 25 -28 117 q-36 91 -199 105 l-226 0 l0 -16 l72 0 l0 -412 ZM180 428 q66 6 131 -25 q65 -32 70 -175 q-3 -152 -62 -185 q-59 -34 -139 -27 l0 412 Z" /><glyph glyph-name="" unicode="&#xf765;" d="M96 16 l-72 0 l0 -16 l397 0 l0 134 l-16 0 q0 -61 -29 -89 q-29 -29 -83 -29 l-113 0 l0 203 l37 0 q47 1 61 -14 q13 -16 13 -64 l16 0 l0 172 l-16 0 q0 -48 -13 -64 q-14 -15 -61 -14 l-37 0 l0 193 l95 0 q53 1 78 -22 q25 -22 28 -75 l16 0 l-12 113 l-361 0 l0 -16 l72 0 l0 -412 Z" /><glyph glyph-name="" unicode="&#xf766;" d="M96 16 l-72 0 l0 -16 l240 0 l0 16 l-84 0 l0 203 l37 0 q47 1 61 -14 q13 -16 13 -64 l16 0 l0 172 l-16 0 q0 -48 -13 -64 q-14 -15 -61 -14 l-37 0 l0 193 l85 0 q59 1 88 -21 q28 -22 33 -82 l16 0 l-16 119 l-362 0 l0 -16 l72 0 l0 -412 Z" /><glyph glyph-name="" unicode="&#xf767;" d="M287 156 l0 -16 l72 0 l0 -59 q-4 -49 -41 -62 q-38 -13 -54 -11 q-92 7 -112 80 q-20 73 -16 122 q-3 69 19 141 q23 71 112 77 q29 2 77 -23 q47 -25 66 -104 l16 0 l0 143 l-16 0 q0 -15 -4 -28 q-5 -12 -16 -13 q-14 3 -44 25 q-29 21 -89 24 q-75 2 -144 -54 q-68 -55 -73 -186 q2 -100 63 -159 q61 -60 162 -61 q69 2 115 26 q45 23 63 40 l0 82 l66 0 l0 16 l-222 0 Z" /><glyph glyph-name="" unicode="&#xf768;" d="M96 16 l-72 0 l0 -16 l230 0 l0 16 l-74 0 l0 203 l214 0 l0 -203 l-74 0 l0 -16 l230 0 l0 16 l-72 0 l0 412 l72 0 l0 16 l-230 0 l0 -16 l74 0 l0 -193 l-214 0 l0 193 l74 0 l0 16 l-230 0 l0 -16 l72 0 l0 -412 Z" /><glyph glyph-name="" unicode="&#xf769;" d="M97 16 l-73 0 l0 -16 l230 0 l0 16 l-73 0 l0 412 l73 0 l0 16 l-230 0 l0 -16 l73 0 l0 -412 Z" /><glyph glyph-name="" unicode="&#xf76a;" d="M204 428 l76 0 l0 16 l-239 0 l0 -16 l79 0 l0 -326 q1 -33 10 -54 q8 -21 9 -41 q-1 -33 -17 -42 q-17 -9 -33 -8 q-17 0 -26 4 q-9 4 -9 12 q0 7 5 10 q5 3 12 6 q7 3 12 9 q5 6 5 18 q0 17 -9 25 q-9 9 -26 9 q-12 0 -24 -8 q-12 -9 -13 -33 q0 -27 20 -44 q20 -17 58 -18 q66 3 89 50 q23 46 21 98 l0 333 Z" /><glyph glyph-name="" unicode="&#xf76b;" d="M96 16 l-72 0 l0 -16 l223 0 l0 16 l-67 0 l0 199 l6 5 l147 -204 l-64 0 l0 -16 l236 0 l0 16 l-38 0 q-17 0 -26 5 q-10 5 -14 11 l-176 246 l143 134 q8 8 14 12 q7 4 19 4 l51 0 l0 16 l-174 0 l0 -16 l58 0 q5 0 9 -1 q4 -2 4 -6 q0 -7 -7 -13 q-6 -5 -14 -12 l-174 -162 l0 194 l74 0 l0 16 l-230 0 l0 -16 l72 0 l0 -412 Z" /><glyph glyph-name="" unicode="&#xf76c;" d="M96 16 l-80 0 l0 -16 l406 0 l0 149 l-16 0 q1 -71 -27 -102 q-29 -32 -102 -31 l-97 0 l0 412 l82 0 l0 16 l-246 0 l0 -16 l80 0 l0 -412 Z" /><glyph glyph-name="" unicode="&#xf76d;" d="M96 57 q1 -18 -7 -29 q-9 -12 -35 -12 l-30 0 l0 -16 l160 0 l0 16 l-30 0 q-26 0 -34 12 q-9 11 -8 29 l0 339 l2 0 l160 -387 l8 0 l166 396 l2 0 l0 -389 l-74 0 l0 -16 l230 0 l0 16 l-72 0 l0 412 l72 0 l0 16 l-160 0 l-131 -314 l-134 314 l-157 0 l0 -16 l72 0 l0 -371 Z" /><glyph glyph-name="" unicode="&#xf76e;" d="M90 428 l0 -371 q1 -18 -7 -29 q-9 -12 -35 -12 l-32 0 l0 -16 l166 0 l0 16 l-34 0 q-26 0 -34 12 q-9 11 -8 29 l0 352 l2 0 l309 -409 l12 0 l0 387 q-1 18 8 29 q8 12 34 12 l32 0 l0 16 l-162 0 l0 -16 l30 0 q26 0 35 -12 q8 -11 7 -29 l0 -246 l-2 0 l-223 303 l-172 0 l0 -16 l74 0 Z" /><glyph glyph-name="" unicode="&#xf76f;" d="M40 222 q1 -94 61 -161 q59 -66 159 -69 q100 3 159 69 q59 67 60 161 q-1 89 -57 158 q-56 68 -162 72 q-106 -4 -163 -72 q-56 -69 -57 -158 l0 0 ZM260 436 q73 -3 99 -66 q26 -64 24 -148 q2 -84 -24 -147 q-26 -64 -99 -67 q-73 3 -99 67 q-27 63 -25 147 q-2 84 25 148 q26 63 99 66 l0 0 Z" /><glyph glyph-name="" unicode="&#xf770;" d="M96 16 l-80 0 l0 -16 l247 0 l0 16 l-83 0 l0 190 q19 -7 35 -10 q15 -4 34 -4 q60 0 110 30 q50 31 53 96 q-1 68 -50 97 q-50 30 -135 29 l-211 0 l0 -16 l80 0 l0 -412 ZM180 428 l41 0 q63 -1 83 -31 q20 -30 18 -79 q1 -44 -17 -76 q-19 -32 -65 -34 q-17 0 -31 4 q-15 5 -29 10 l0 206 Z" /><glyph glyph-name="" unicode="&#xf771;" d="M399 -114 l-46 0 q-37 0 -47 15 q-9 16 -8 50 l0 45 q84 16 132 79 q48 63 49 147 q-1 89 -57 158 q-56 68 -162 72 q-106 -4 -163 -72 q-56 -69 -57 -158 q1 -84 49 -146 q48 -63 131 -80 l0 -39 q-3 -40 17 -63 q20 -24 95 -24 l67 0 l0 16 ZM260 436 q73 -3 99 -66 q26 -64 24 -148 q2 -84 -24 -147 q-26 -64 -99 -67 q-73 3 -99 67 q-27 63 -25 147 q-2 84 25 148 q26 63 99 66 l0 0 Z" /><glyph glyph-name="" unicode="&#xf772;" d="M96 16 l-72 0 l0 -16 l227 0 l0 16 l-71 0 l0 203 l40 0 q54 -2 66 -35 q13 -34 14 -78 q1 -44 20 -78 q19 -34 85 -36 q18 0 36 4 q18 4 31 11 l-5 12 q-12 -7 -22 -9 q-10 -2 -20 -2 q-19 0 -25 22 q-6 23 -10 71 q-2 50 -24 84 q-22 34 -108 45 l0 2 q32 1 84 21 q51 20 57 85 q-3 63 -54 85 q-52 22 -118 21 l-203 0 l0 -16 l72 0 l0 -412 ZM180 428 l41 0 q48 0 71 -23 q23 -23 23 -72 q-4 -68 -41 -85 q-38 -16 -57 -13 l-37 0 l0 193 Z" /><glyph glyph-name="" unicode="&#xf773;" d="M56 0 l16 0 l0 12 q0 7 5 10 q4 3 9 3 q12 -2 43 -16 q31 -15 85 -17 q67 1 102 40 q35 39 35 100 q-2 72 -39 101 q-38 28 -88 37 q-49 9 -86 24 q-37 15 -39 59 q1 39 23 61 q23 22 62 22 q79 -4 100 -49 q21 -44 20 -78 l16 0 l0 135 l-16 0 q0 -9 -1 -18 q-1 -9 -10 -10 q-9 2 -34 18 q-26 16 -73 18 q-67 -3 -96 -42 q-28 -40 -27 -85 q2 -73 39 -100 q37 -27 85 -35 q63 -12 93 -28 q29 -16 29 -62 q0 -33 -24 -62 q-24 -28 -77 -30 q-75 2 -103 46 q-29 44 -33 109 l-16 0 l0 -163 Z" /><glyph glyph-name="" unicode="&#xf774;" d="M190 16 l-84 0 l0 -16 l252 0 l0 16 l-84 0 l0 412 l50 0 q65 0 85 -30 q19 -30 17 -88 l16 0 l0 134 l-420 0 l0 -134 l16 0 q-2 58 17 88 q20 30 85 30 l50 0 l0 -412 Z" /><glyph glyph-name="" unicode="&#xf775;" d="M9 428 l79 0 l0 -297 q-6 -43 22 -89 q28 -46 155 -50 q59 -2 110 26 q51 28 54 115 l0 254 q-1 18 8 29 q8 12 34 12 l32 0 l0 16 l-177 0 l0 -16 l45 0 q26 0 35 -12 q8 -11 7 -29 l0 -261 q-2 -62 -38 -90 q-37 -28 -90 -28 q-52 0 -82 31 q-30 31 -31 99 l0 290 l80 0 l0 16 l-243 0 l0 -16 Z" /><glyph glyph-name="" unicode="&#xf776;" d="M0 428 l60 0 l173 -436 l6 0 l164 400 q9 23 20 30 q11 7 27 6 l31 0 l0 16 l-144 0 l0 -16 l30 0 q13 0 19 -4 q6 -3 6 -8 q0 -4 -1 -10 q0 -5 -4 -13 l-113 -277 l-121 312 l63 0 l0 16 l-216 0 l0 -16 Z" /><glyph glyph-name="" unicode="&#xf777;" d="M145 428 l36 0 l0 16 l-186 0 l0 -16 l60 0 l182 -436 l8 0 l92 207 l90 -207 l8 0 l176 403 q11 22 22 28 q11 6 22 5 l35 0 l0 16 l-144 0 l0 -16 l31 0 q7 0 15 -2 q7 -2 8 -12 q0 -5 -2 -9 q-1 -5 -3 -9 l-127 -295 l-82 199 l49 109 q3 8 9 14 q6 5 20 5 l52 0 l0 16 l-318 0 l0 -16 l44 0 l88 -213 l-51 -114 l-134 327 ZM332 428 l70 0 q6 0 12 -2 q6 -1 6 -8 q0 -5 -1 -9 q-1 -5 -3 -8 l-37 -84 l-47 111 Z" /><glyph glyph-name="" unicode="&#xf778;" d="M98 59 q-13 -18 -30 -30 q-17 -13 -41 -13 l-28 0 l0 -16 l150 0 l0 16 l-24 0 q-8 0 -17 2 q-9 3 -10 10 q0 6 5 13 q4 7 9 13 l112 150 l120 -188 l-53 0 l0 -16 l210 0 l0 16 l-52 0 l-165 256 l102 132 q8 11 16 17 q9 7 22 7 l34 0 l0 16 l-139 0 l0 -16 l33 0 q10 0 15 -3 q4 -2 4 -7 q0 -4 -2 -9 q-3 -5 -10 -15 l-83 -110 l-90 144 l48 0 l0 16 l-210 0 l0 -16 l54 0 l138 -212 l-118 -157 Z" /><glyph glyph-name="" unicode="&#xf779;" d="M184 16 l-83 0 l0 -16 l250 0 l0 16 l-83 0 l0 167 l108 204 q8 18 18 29 q10 12 27 12 l28 0 l0 16 l-126 0 l0 -16 l15 0 q19 0 25 -3 q6 -3 5 -10 q0 -9 -7 -25 l-97 -185 l-111 223 l52 0 l0 16 l-210 0 l0 -16 l56 0 l133 -251 l0 -161 Z" /><glyph glyph-name="" unicode="&#xf77a;" d="M66 444 l0 -127 l10 0 q-3 59 22 85 q25 26 127 26 l72 0 l-272 -428 l381 0 l0 131 l-10 0 q6 -50 -23 -82 q-29 -32 -161 -33 l-75 0 l270 428 l-341 0 Z" /><glyph glyph-name="" unicode="&#xf6fe;" d="M276 642 q-6 -20 -20 -34 q-14 -13 -35 -14 q-16 1 -33 8 q-16 8 -30 16 q-17 10 -35 17 q-19 7 -39 7 q-45 -1 -71 -31 q-26 -30 -37 -71 l26 0 q6 20 20 34 q14 13 35 14 q16 -1 33 -8 q16 -8 30 -16 q17 -10 36 -17 q18 -7 38 -7 q45 2 71 32 q26 30 37 70 l-26 0 Z" /><glyph glyph-name="" unicode="&#xf7a1;" d="M202 292 l-16 0 l0 -58 q1 -73 -10 -194 q-11 -122 -42 -210 q17 -22 31 -49 q13 -27 24 -53 q1 -4 3 -6 q1 -2 2 -2 q1 0 3 2 q1 2 2 6 q11 26 25 53 q13 27 30 49 q-31 88 -42 210 q-11 121 -10 194 l0 58 ZM194 350 q22 1 36 15 q14 14 15 36 q-1 22 -15 36 q-14 14 -36 15 q-21 -1 -36 -15 q-14 -14 -15 -36 q1 -22 15 -36 q15 -14 36 -15 l0 0 Z" /><glyph glyph-name="" unicode="&#xf7a2;" d="M282 6 q-68 8 -84 55 q-17 47 -14 110 l0 87 q-1 66 19 107 q21 42 79 49 l0 -408 ZM282 -127 l16 0 l0 115 q77 2 122 48 q45 46 48 105 l-16 0 q-5 -49 -41 -91 q-36 -43 -113 -46 l0 412 l6 0 q24 0 48 -7 q25 -8 27 -24 q-2 -9 -12 -17 q-11 -8 -13 -36 q0 -16 12 -29 q13 -13 36 -14 q19 0 33 14 q14 13 15 36 q-2 47 -46 70 q-43 23 -98 23 l-8 0 l0 71 l-16 0 l0 -73 q-82 -12 -137 -78 q-55 -65 -57 -159 q1 -82 52 -139 q52 -57 142 -64 l0 -117 Z" /><glyph glyph-name="" unicode="&#xf6f9;" d="M96 16 l-80 0 l0 -16 l406 0 l0 149 l-16 0 q1 -71 -27 -102 q-29 -32 -102 -31 l-97 0 l0 238 l121 69 l0 16 l-121 -69 l0 158 l82 0 l0 16 l-246 0 l0 -16 l80 0 l0 -205 l-77 -44 l0 -16 l77 44 l0 -191 Z" /><glyph glyph-name="" unicode="&#xf6fd;" d="M56 0 l16 0 l0 12 q0 7 5 10 q4 3 9 3 q12 -2 43 -16 q31 -15 85 -17 q67 1 102 40 q35 39 35 100 q-2 72 -39 101 q-38 28 -88 37 q-49 9 -86 24 q-37 15 -39 59 q1 39 23 61 q23 22 62 22 q79 -4 100 -49 q21 -44 20 -78 l16 0 l0 135 l-16 0 q0 -9 -1 -18 q-1 -9 -10 -10 q-9 2 -34 18 q-26 16 -73 18 q-67 -3 -96 -42 q-28 -40 -27 -85 q2 -73 39 -100 q37 -27 85 -35 q63 -12 93 -28 q29 -16 29 -62 q0 -33 -24 -62 q-24 -28 -77 -30 q-75 2 -103 46 q-29 44 -33 109 l-16 0 l0 -163 ZM354 655 l-33 0 l-117 -106 l-117 106 l-33 0 l122 -169 l56 0 l122 169 Z" /><glyph glyph-name="" unicode="&#xf6ff;" d="M66 444 l0 -127 l10 0 q-3 59 22 85 q25 26 127 26 l72 0 l-272 -428 l381 0 l0 131 l-10 0 q6 -50 -23 -82 q-29 -32 -161 -33 l-75 0 l270 428 l-341 0 ZM372 655 l-33 0 l-117 -106 l-117 106 l-33 0 l122 -169 l56 0 l122 169 Z" /><glyph glyph-name="" unicode="&#xf7a8;" d="M233 626 q-19 -1 -32 -13 q-13 -13 -13 -32 q0 -19 13 -31 q13 -13 32 -14 q19 1 32 14 q12 12 13 31 q-1 19 -13 32 q-13 12 -32 13 l0 0 ZM45 626 q-19 -1 -32 -13 q-13 -13 -13 -32 q0 -19 13 -31 q13 -13 32 -14 q19 1 32 14 q12 12 13 31 q-1 19 -13 32 q-13 12 -32 13 l0 0 Z" /><glyph glyph-name="" unicode="&#xf6f4;" d="M0 671 q5 -68 39 -111 q34 -43 100 -44 q66 1 100 44 q34 43 39 111 l-30 0 q-8 -49 -34 -75 q-27 -26 -75 -26 q-48 0 -75 26 q-26 26 -34 75 l-30 0 Z" /><glyph glyph-name="" unicode="&#xf6f5;" d="M289 685 l-33 0 l-117 -106 l-117 106 l-33 0 l122 -169 l56 0 l122 169 Z" /><glyph glyph-name="" unicode="&#xf6f7;" d="M139 626 q-19 -1 -32 -13 q-13 -13 -13 -32 q0 -19 13 -31 q13 -13 32 -14 q19 1 32 14 q12 12 13 31 q-1 19 -13 32 q-13 12 -32 13 l0 0 Z" /><glyph glyph-name="" unicode="&#xf7af;" d="M6 557 l266 0 l0 48 l-266 0 l0 -48 Z" /><glyph glyph-name="" unicode="&#xf6fb;" d="M165 -154 q-10 -10 -24 -17 q-13 -7 -30 -7 q-20 0 -34 11 q-14 11 -15 33 q3 44 32 80 q30 35 54 54 l-17 0 q-32 -15 -81 -53 q-49 -38 -54 -91 q0 -33 18 -51 q18 -19 48 -19 q37 1 65 15 q27 14 45 31 l-7 14 Z" /><glyph glyph-name="" unicode="&#xf6fc;" d="M139 705 q-38 -1 -64 -27 q-25 -25 -26 -63 q1 -38 26 -63 q26 -26 64 -27 q38 1 64 27 q25 25 26 63 q-1 38 -26 63 q-26 26 -64 27 l0 0 ZM139 675 q25 -1 42 -18 q17 -17 18 -42 q-1 -25 -18 -42 q-17 -17 -42 -18 q-25 1 -42 18 q-17 17 -18 42 q1 25 18 42 q17 17 42 18 l0 0 Z" /><glyph glyph-name="" unicode="&#xf7b8;" d="M145 0 l-59 -99 l17 -7 q21 6 41 6 q19 -1 29 -12 q9 -12 9 -28 q0 -28 -18 -41 q-17 -13 -48 -11 q-23 0 -39 3 q-16 3 -30 8 l-8 -13 q25 -9 51 -15 q26 -7 54 -7 q39 -1 76 17 q37 17 40 61 q-2 29 -26 46 q-24 16 -53 16 q-17 0 -32 -2 q-15 -2 -29 -8 l-2 2 l51 84 l-24 0 Z" /><glyph glyph-name="" unicode="&#xf7bf;" d="M304 291 q2 -10 4 -24 q2 -13 2 -34 q1 -40 -32 -79 q-33 -39 -105 -104 q-28 -23 -47 -59 q-20 -36 -21 -101 q0 -76 40 -122 q41 -47 118 -48 q55 1 93 34 q37 32 39 84 q0 23 -14 44 q-13 21 -39 22 q-21 0 -35 -11 q-13 -11 -14 -34 q4 -41 33 -44 q29 -3 33 -19 q-2 -29 -34 -44 q-31 -16 -62 -16 q-50 0 -88 28 q-38 27 -40 81 q12 92 100 147 q87 56 99 179 q0 32 -5 62 q-4 31 -12 61 l-13 -3 ZM306 350 q22 1 36 15 q14 14 15 36 q-1 22 -15 36 q-14 14 -36 15 q-21 -1 -36 -15 q-14 -14 -15 -36 q1 -22 15 -36 q15 -14 36 -15 l0 0 Z" /><glyph glyph-name="" unicode="¹" d="M161 294 l-61 0 l0 -10 l193 0 l0 10 l-60 0 l0 404 l-36 0 q-33 -27 -73 -52 q-40 -24 -73 -42 l0 -10 q31 15 62 29 q32 14 41 15 q5 0 6 -4 q1 -4 1 -10 l0 -330 Z" /><glyph glyph-name="" unicode="²" d="M325 400 l-12 0 l-10 -62 l-226 0 q85 82 160 129 q74 47 79 121 q-2 59 -43 90 q-41 32 -103 32 q-56 0 -96 -26 q-40 -27 -42 -84 q0 -18 9 -35 q10 -18 30 -19 q16 0 26 8 q11 8 11 25 q0 14 -10 21 q-9 6 -23 6 q-9 0 -14 3 q-5 4 -5 14 q2 36 32 57 q30 20 65 20 q45 -1 68 -31 q23 -30 23 -75 q-10 -112 -96 -171 q-86 -60 -128 -139 l289 0 l16 116 Z" /><glyph glyph-name="" unicode="³" d="M74 515 l75 0 q64 -3 85 -39 q21 -36 19 -72 q1 -56 -25 -86 q-26 -30 -87 -30 q-30 0 -61 14 q-31 14 -34 35 q0 2 2 4 q1 2 4 2 q4 0 7 -1 q4 -1 8 -1 q13 0 23 8 q9 8 10 24 q0 15 -10 25 q-10 9 -27 9 q-20 -1 -30 -14 q-11 -13 -11 -29 q2 -48 42 -67 q39 -20 86 -19 q61 0 116 32 q55 31 59 93 q-4 65 -49 90 q-45 25 -84 26 l0 2 q32 4 71 24 q39 19 42 74 q-2 46 -41 69 q-40 22 -95 22 q-43 0 -79 -19 q-36 -19 -38 -61 q0 -14 9 -25 q8 -10 23 -11 q16 0 27 8 q11 9 11 23 q-1 16 -11 22 q-10 7 -23 7 q-4 0 -6 0 q-3 -1 -4 -1 q-1 0 -2 1 q0 1 0 3 q1 12 24 27 q24 15 61 16 q40 0 59 -22 q19 -21 19 -59 q0 -64 -31 -80 q-30 -16 -85 -14 l-49 0 l0 -10 Z" /><glyph glyph-name="" unicode="&#xf7e0;" d="M235 452 l-5 0 l-156 -391 q-9 -22 -20 -34 q-12 -11 -30 -11 l-22 0 l0 -16 l137 0 l0 16 l-28 0 q-12 0 -21 3 q-9 3 -9 12 q0 7 2 12 q2 5 4 11 l37 91 l136 0 l50 -129 l-57 0 l0 -16 l208 0 l0 16 l-55 0 l-171 436 ZM193 324 l61 -163 l-125 0 l64 163 ZM276 486 l35 0 l-145 144 q-10 11 -20 18 q-10 7 -23 7 q-11 0 -21 -9 q-10 -10 -11 -25 q0 -14 10 -24 q10 -9 30 -21 l145 -90 Z" /><glyph glyph-name="" unicode="&#xf7e1;" d="M235 452 l-5 0 l-156 -391 q-9 -22 -20 -34 q-12 -11 -30 -11 l-22 0 l0 -16 l137 0 l0 16 l-28 0 q-12 0 -21 3 q-9 3 -9 12 q0 7 2 12 q2 5 4 11 l37 91 l136 0 l50 -129 l-57 0 l0 -16 l208 0 l0 16 l-55 0 l-171 436 ZM193 324 l61 -163 l-125 0 l64 163 ZM153 486 l35 0 l145 90 q20 12 30 21 q10 10 10 24 q-1 15 -11 25 q-10 9 -21 9 q-13 0 -23 -7 q-10 -7 -20 -18 l-145 -144 Z" /><glyph glyph-name="" unicode="&#xf7e2;" d="M235 452 l-5 0 l-156 -391 q-9 -22 -20 -34 q-12 -11 -30 -11 l-22 0 l0 -16 l137 0 l0 16 l-28 0 q-12 0 -21 3 q-9 3 -9 12 q0 7 2 12 q2 5 4 11 l37 91 l136 0 l50 -129 l-57 0 l0 -16 l208 0 l0 16 l-55 0 l-171 436 ZM193 324 l61 -163 l-125 0 l64 163 ZM82 486 l33 0 l117 106 l117 -106 l33 0 l-122 169 l-56 0 l-122 -169 Z" /><glyph glyph-name="" unicode="&#xf7e3;" d="M235 452 l-5 0 l-156 -391 q-9 -22 -20 -34 q-12 -11 -30 -11 l-22 0 l0 -16 l137 0 l0 16 l-28 0 q-12 0 -21 3 q-9 3 -9 12 q0 7 2 12 q2 5 4 11 l37 91 l136 0 l50 -129 l-57 0 l0 -16 l208 0 l0 16 l-55 0 l-171 436 ZM193 324 l61 -163 l-125 0 l64 163 ZM369 612 q-6 -20 -20 -34 q-14 -13 -35 -14 q-16 1 -33 8 q-16 8 -30 16 q-17 10 -35 17 q-19 7 -39 7 q-45 -1 -71 -31 q-26 -30 -37 -71 l26 0 q6 20 20 34 q14 13 35 14 q16 -1 33 -8 q16 -8 30 -16 q17 -10 36 -17 q18 -7 38 -7 q45 2 71 32 q26 30 37 70 l-26 0 Z" /><glyph glyph-name="" unicode="&#xf7e4;" d="M235 452 l-5 0 l-156 -391 q-9 -22 -20 -34 q-12 -11 -30 -11 l-22 0 l0 -16 l137 0 l0 16 l-28 0 q-12 0 -21 3 q-9 3 -9 12 q0 7 2 12 q2 5 4 11 l37 91 l136 0 l50 -129 l-57 0 l0 -16 l208 0 l0 16 l-55 0 l-171 436 ZM193 324 l61 -163 l-125 0 l64 163 ZM326 596 q-19 -1 -32 -13 q-13 -13 -13 -32 q0 -19 13 -31 q13 -13 32 -14 q19 1 32 14 q12 12 13 31 q-1 19 -13 32 q-13 12 -32 13 l0 0 ZM138 596 q-19 -1 -32 -13 q-13 -13 -13 -32 q0 -19 13 -31 q13 -13 32 -14 q19 1 32 14 q12 12 13 31 q-1 19 -13 32 q-13 12 -32 13 l0 0 Z" /><glyph glyph-name="" unicode="&#xf7e5;" d="M235 452 l-5 0 l-156 -391 q-9 -22 -20 -34 q-12 -11 -30 -11 l-22 0 l0 -16 l137 0 l0 16 l-28 0 q-12 0 -21 3 q-9 3 -9 12 q0 7 2 12 q2 5 4 11 l37 91 l136 0 l50 -129 l-57 0 l0 -16 l208 0 l0 16 l-55 0 l-171 436 ZM193 324 l61 -163 l-125 0 l64 163 ZM232 655 q-38 -1 -64 -27 q-25 -25 -26 -63 q1 -38 26 -63 q26 -26 64 -27 q38 1 64 27 q25 25 26 63 q-1 38 -26 63 q-26 26 -64 27 l0 0 ZM232 625 q25 -1 42 -18 q17 -17 18 -42 q-1 -25 -18 -42 q-17 -17 -42 -18 q-25 1 -42 18 q-17 17 -18 42 q1 25 18 42 q17 17 42 18 l0 0 Z" /><glyph glyph-name="" unicode="&#xf7e6;" d="M281 175 l-144 0 l142 245 l2 0 l0 -245 ZM53 65 q-11 -21 -27 -35 q-16 -14 -53 -14 l-15 0 l0 -16 l162 0 l0 16 l-22 0 q-18 0 -30 2 q-12 1 -12 10 q0 7 4 13 q3 7 6 13 l61 105 l154 0 l0 -143 l-80 0 l0 -16 l405 0 l0 134 l-16 0 q0 -61 -29 -89 q-29 -29 -83 -29 l-113 0 l0 203 l37 0 q47 1 61 -14 q13 -16 13 -64 l16 0 l0 172 l-16 0 q0 -48 -13 -64 q-14 -15 -61 -14 l-37 0 l0 193 l95 0 q53 1 78 -22 q25 -22 28 -75 l16 0 l-12 113 l-385 0 l0 -16 l84 0 l-216 -363 Z" /><glyph glyph-name="" unicode="&#xf7e7;" d="M409 432 l-10 0 q-1 -8 -6 -17 q-4 -8 -15 -9 q-11 3 -40 23 q-29 20 -78 23 q-106 -4 -163 -72 q-56 -69 -57 -158 q1 -89 55 -154 q53 -65 145 -76 l-54 -91 l17 -7 q21 6 41 6 q19 -1 29 -12 q9 -12 9 -28 q0 -28 -18 -41 q-17 -13 -48 -11 q-23 0 -39 3 q-16 3 -30 8 l-8 -13 q25 -9 51 -15 q26 -7 54 -7 q39 -1 76 17 q37 17 40 61 q-2 29 -26 46 q-24 16 -53 16 q-17 0 -32 -2 q-15 -2 -29 -8 l-2 2 l46 76 q48 4 76 25 q27 20 38 23 q12 0 15 -10 q4 -9 6 -22 l10 0 l0 156 l-10 0 q-5 -67 -42 -111 q-37 -43 -101 -45 q-70 3 -96 67 q-25 63 -24 147 q-2 84 24 148 q26 63 98 66 q64 0 99 -41 q34 -41 43 -97 l9 0 l0 134 Z" /><glyph glyph-name="" unicode="&#xf7e8;" d="M96 16 l-72 0 l0 -16 l397 0 l0 134 l-16 0 q0 -61 -29 -89 q-29 -29 -83 -29 l-113 0 l0 203 l37 0 q47 1 61 -14 q13 -16 13 -64 l16 0 l0 172 l-16 0 q0 -48 -13 -64 q-14 -15 -61 -14 l-37 0 l0 193 l95 0 q53 1 78 -22 q25 -22 28 -75 l16 0 l-12 113 l-361 0 l0 -16 l72 0 l0 -412 ZM276 486 l35 0 l-145 144 q-10 11 -20 18 q-10 7 -23 7 q-11 0 -21 -9 q-10 -10 -11 -25 q0 -14 10 -24 q10 -9 30 -21 l145 -90 Z" /><glyph glyph-name="" unicode="&#xf7e9;" d="M96 16 l-72 0 l0 -16 l397 0 l0 134 l-16 0 q0 -61 -29 -89 q-29 -29 -83 -29 l-113 0 l0 203 l37 0 q47 1 61 -14 q13 -16 13 -64 l16 0 l0 172 l-16 0 q0 -48 -13 -64 q-14 -15 -61 -14 l-37 0 l0 193 l95 0 q53 1 78 -22 q25 -22 28 -75 l16 0 l-12 113 l-361 0 l0 -16 l72 0 l0 -412 ZM153 486 l35 0 l145 90 q20 12 30 21 q10 10 10 24 q-1 15 -11 25 q-10 9 -21 9 q-13 0 -23 -7 q-10 -7 -20 -18 l-145 -144 Z" /><glyph glyph-name="" unicode="&#xf7ea;" d="M96 16 l-72 0 l0 -16 l397 0 l0 134 l-16 0 q0 -61 -29 -89 q-29 -29 -83 -29 l-113 0 l0 203 l37 0 q47 1 61 -14 q13 -16 13 -64 l16 0 l0 172 l-16 0 q0 -48 -13 -64 q-14 -15 -61 -14 l-37 0 l0 193 l95 0 q53 1 78 -22 q25 -22 28 -75 l16 0 l-12 113 l-361 0 l0 -16 l72 0 l0 -412 ZM82 486 l33 0 l117 106 l117 -106 l33 0 l-122 169 l-56 0 l-122 -169 Z" /><glyph glyph-name="" unicode="&#xf7eb;" d="M96 16 l-72 0 l0 -16 l397 0 l0 134 l-16 0 q0 -61 -29 -89 q-29 -29 -83 -29 l-113 0 l0 203 l37 0 q47 1 61 -14 q13 -16 13 -64 l16 0 l0 172 l-16 0 q0 -48 -13 -64 q-14 -15 -61 -14 l-37 0 l0 193 l95 0 q53 1 78 -22 q25 -22 28 -75 l16 0 l-12 113 l-361 0 l0 -16 l72 0 l0 -412 ZM326 596 q-19 -1 -32 -13 q-13 -13 -13 -32 q0 -19 13 -31 q13 -13 32 -14 q19 1 32 14 q12 12 13 31 q-1 19 -13 32 q-13 12 -32 13 l0 0 ZM138 596 q-19 -1 -32 -13 q-13 -13 -13 -32 q0 -19 13 -31 q13 -13 32 -14 q19 1 32 14 q12 12 13 31 q-1 19 -13 32 q-13 12 -32 13 l0 0 Z" /><glyph glyph-name="" unicode="&#xf7ec;" d="M97 16 l-73 0 l0 -16 l230 0 l0 16 l-73 0 l0 412 l73 0 l0 16 l-230 0 l0 -16 l73 0 l0 -412 ZM183 486 l35 0 l-145 144 q-10 11 -20 18 q-10 7 -23 7 q-11 0 -21 -9 q-10 -10 -11 -25 q0 -14 10 -24 q10 -9 30 -21 l145 -90 Z" /><glyph glyph-name="" unicode="&#xf7ed;" d="M97 16 l-73 0 l0 -16 l230 0 l0 16 l-73 0 l0 412 l73 0 l0 16 l-230 0 l0 -16 l73 0 l0 -412 ZM72 486 l35 0 l145 90 q20 12 30 21 q10 10 10 24 q-1 15 -11 25 q-10 9 -21 9 q-13 0 -23 -7 q-10 -7 -20 -18 l-145 -144 Z" /><glyph glyph-name="" unicode="&#xf7ee;" d="M97 16 l-73 0 l0 -16 l230 0 l0 16 l-73 0 l0 412 l73 0 l0 16 l-230 0 l0 -16 l73 0 l0 -412 ZM-11 486 l33 0 l117 106 l117 -106 l33 0 l-122 169 l-56 0 l-122 -169 Z" /><glyph glyph-name="" unicode="&#xf7ef;" d="M97 16 l-73 0 l0 -16 l230 0 l0 16 l-73 0 l0 412 l73 0 l0 16 l-230 0 l0 -16 l73 0 l0 -412 ZM233 596 q-19 -1 -32 -13 q-13 -13 -13 -32 q0 -19 13 -31 q13 -13 32 -14 q19 1 32 14 q12 12 13 31 q-1 19 -13 32 q-13 12 -32 13 l0 0 ZM45 596 q-19 -1 -32 -13 q-13 -13 -13 -32 q0 -19 13 -31 q13 -13 32 -14 q19 1 32 14 q12 12 13 31 q-1 19 -13 32 q-13 12 -32 13 l0 0 Z" /><glyph glyph-name="" unicode="&#xf7f0;" d="M96 16 l-72 0 l0 -16 l215 0 q142 5 192 77 q49 72 46 145 q7 25 -28 117 q-36 91 -199 105 l-226 0 l0 -16 l72 0 l0 -183 l-62 0 l0 -16 l62 0 l0 -213 ZM180 428 q66 6 131 -25 q65 -32 70 -175 q-3 -152 -62 -185 q-59 -34 -139 -27 l0 213 l97 0 l0 16 l-97 0 l0 183 Z" /><glyph glyph-name="" unicode="&#xf7f1;" d="M90 428 l0 -371 q1 -18 -7 -29 q-9 -12 -35 -12 l-32 0 l0 -16 l166 0 l0 16 l-34 0 q-26 0 -34 12 q-9 11 -8 29 l0 352 l2 0 l309 -409 l12 0 l0 387 q-1 18 8 29 q8 12 34 12 l32 0 l0 16 l-162 0 l0 -16 l30 0 q26 0 35 -12 q8 -11 7 -29 l0 -246 l-2 0 l-223 303 l-172 0 l0 -16 l74 0 ZM397 612 q-6 -20 -20 -34 q-14 -13 -35 -14 q-16 1 -33 8 q-16 8 -30 16 q-17 10 -35 17 q-19 7 -39 7 q-45 -1 -71 -31 q-26 -30 -37 -71 l26 0 q6 20 20 34 q14 13 35 14 q16 -1 33 -8 q16 -8 30 -16 q17 -10 36 -17 q18 -7 38 -7 q45 2 71 32 q26 30 37 70 l-26 0 Z" /><glyph glyph-name="" unicode="&#xf7f2;" d="M40 222 q1 -94 61 -161 q59 -66 159 -69 q100 3 159 69 q59 67 60 161 q-1 89 -57 158 q-56 68 -162 72 q-106 -4 -163 -72 q-56 -69 -57 -158 l0 0 ZM260 436 q73 -3 99 -66 q26 -64 24 -148 q2 -84 -24 -147 q-26 -64 -99 -67 q-73 3 -99 67 q-27 63 -25 147 q-2 84 25 148 q26 63 99 66 l0 0 ZM304 486 l35 0 l-145 144 q-10 11 -20 18 q-10 7 -23 7 q-11 0 -21 -9 q-10 -10 -11 -25 q0 -14 10 -24 q10 -9 30 -21 l145 -90 Z" /><glyph glyph-name="" unicode="&#xf7f3;" d="M40 222 q1 -94 61 -161 q59 -66 159 -69 q100 3 159 69 q59 67 60 161 q-1 89 -57 158 q-56 68 -162 72 q-106 -4 -163 -72 q-56 -69 -57 -158 l0 0 ZM260 436 q73 -3 99 -66 q26 -64 24 -148 q2 -84 -24 -147 q-26 -64 -99 -67 q-73 3 -99 67 q-27 63 -25 147 q-2 84 25 148 q26 63 99 66 l0 0 ZM181 486 l35 0 l145 90 q20 12 30 21 q10 10 10 24 q-1 15 -11 25 q-10 9 -21 9 q-13 0 -23 -7 q-10 -7 -20 -18 l-145 -144 Z" /><glyph glyph-name="" unicode="&#xf7f4;" d="M40 222 q1 -94 61 -161 q59 -66 159 -69 q100 3 159 69 q59 67 60 161 q-1 89 -57 158 q-56 68 -162 72 q-106 -4 -163 -72 q-56 -69 -57 -158 l0 0 ZM260 436 q73 -3 99 -66 q26 -64 24 -148 q2 -84 -24 -147 q-26 -64 -99 -67 q-73 3 -99 67 q-27 63 -25 147 q-2 84 25 148 q26 63 99 66 l0 0 ZM110 486 l33 0 l117 106 l117 -106 l33 0 l-122 169 l-56 0 l-122 -169 Z" /><glyph glyph-name="" unicode="&#xf7f5;" d="M40 222 q1 -94 61 -161 q59 -66 159 -69 q100 3 159 69 q59 67 60 161 q-1 89 -57 158 q-56 68 -162 72 q-106 -4 -163 -72 q-56 -69 -57 -158 l0 0 ZM260 436 q73 -3 99 -66 q26 -64 24 -148 q2 -84 -24 -147 q-26 -64 -99 -67 q-73 3 -99 67 q-27 63 -25 147 q-2 84 25 148 q26 63 99 66 l0 0 ZM397 612 q-6 -20 -20 -34 q-14 -13 -35 -14 q-16 1 -33 8 q-16 8 -30 16 q-17 10 -35 17 q-19 7 -39 7 q-45 -1 -71 -31 q-26 -30 -37 -71 l26 0 q6 20 20 34 q14 13 35 14 q16 -1 33 -8 q16 -8 30 -16 q17 -10 36 -17 q18 -7 38 -7 q45 2 71 32 q26 30 37 70 l-26 0 Z" /><glyph glyph-name="" unicode="&#xf7f6;" d="M40 222 q1 -94 61 -161 q59 -66 159 -69 q100 3 159 69 q59 67 60 161 q-1 89 -57 158 q-56 68 -162 72 q-106 -4 -163 -72 q-56 -69 -57 -158 l0 0 ZM260 436 q73 -3 99 -66 q26 -64 24 -148 q2 -84 -24 -147 q-26 -64 -99 -67 q-73 3 -99 67 q-27 63 -25 147 q-2 84 25 148 q26 63 99 66 l0 0 ZM354 596 q-19 -1 -32 -13 q-13 -13 -13 -32 q0 -19 13 -31 q13 -13 32 -14 q19 1 32 14 q12 12 13 31 q-1 19 -13 32 q-13 12 -32 13 l0 0 ZM166 596 q-19 -1 -32 -13 q-13 -13 -13 -32 q0 -19 13 -31 q13 -13 32 -14 q19 1 32 14 q12 12 13 31 q-1 19 -13 32 q-13 12 -32 13 l0 0 Z" /><glyph glyph-name="" unicode="&#xf6fa;" d="M337 16 q-14 -2 -35 -5 q-21 -3 -42 -3 q-73 3 -99 67 q-27 63 -25 147 q-2 84 25 148 q26 63 99 66 q21 0 42 -3 q21 -3 35 -5 l0 -412 ZM421 428 l95 0 q53 1 78 -22 q25 -22 28 -75 l16 0 l-12 113 l-263 0 q-16 0 -28 1 q-13 1 -25 3 q-12 2 -24 3 q-13 1 -26 1 q-106 -4 -163 -72 q-56 -69 -57 -158 q1 -94 61 -161 q59 -66 159 -69 q13 0 26 1 q12 1 24 3 q12 2 25 3 q12 1 28 1 l299 0 l0 134 l-16 0 q0 -61 -29 -89 q-29 -29 -83 -29 l-113 0 l0 203 l37 0 q47 1 61 -14 q13 -16 13 -64 l16 0 l0 172 l-16 0 q0 -48 -13 -64 q-14 -15 -61 -14 l-37 0 l0 193 Z" /><glyph glyph-name="" unicode="&#xf7f8;" d="M150 104 q-7 27 -11 57 q-3 30 -3 61 q-2 84 25 148 q26 63 99 66 q41 -1 67 -23 q25 -22 37 -59 l-214 -250 ZM369 340 q7 -27 11 -57 q3 -30 3 -61 q2 -84 -24 -147 q-26 -64 -99 -67 q-42 1 -67 23 q-25 22 -37 59 l213 250 ZM61 0 l11 -8 l46 54 q28 -26 64 -40 q35 -14 78 -14 q100 3 159 69 q59 67 60 161 q0 46 -17 90 q-17 44 -50 78 l46 54 l-11 8 l-45 -53 q-26 24 -62 39 q-35 14 -80 14 q-106 -4 -163 -72 q-56 -69 -57 -158 q0 -49 18 -92 q18 -44 50 -75 l-47 -55 Z" /><glyph glyph-name="" unicode="&#xf7f9;" d="M9 428 l79 0 l0 -297 q-6 -43 22 -89 q28 -46 155 -50 q59 -2 110 26 q51 28 54 115 l0 254 q-1 18 8 29 q8 12 34 12 l32 0 l0 16 l-177 0 l0 -16 l45 0 q26 0 35 -12 q8 -11 7 -29 l0 -261 q-2 -62 -38 -90 q-37 -28 -90 -28 q-52 0 -82 31 q-30 31 -31 99 l0 290 l80 0 l0 16 l-243 0 l0 -16 ZM304 486 l35 0 l-145 144 q-10 11 -20 18 q-10 7 -23 7 q-11 0 -21 -9 q-10 -10 -11 -25 q0 -14 10 -24 q10 -9 30 -21 l145 -90 Z" /><glyph glyph-name="" unicode="&#xf7fa;" d="M9 428 l79 0 l0 -297 q-6 -43 22 -89 q28 -46 155 -50 q59 -2 110 26 q51 28 54 115 l0 254 q-1 18 8 29 q8 12 34 12 l32 0 l0 16 l-177 0 l0 -16 l45 0 q26 0 35 -12 q8 -11 7 -29 l0 -261 q-2 -62 -38 -90 q-37 -28 -90 -28 q-52 0 -82 31 q-30 31 -31 99 l0 290 l80 0 l0 16 l-243 0 l0 -16 ZM206 486 l35 0 l145 90 q20 12 30 21 q10 10 10 24 q-1 15 -11 25 q-10 9 -21 9 q-13 0 -23 -7 q-10 -7 -20 -18 l-145 -144 Z" /><glyph glyph-name="" unicode="&#xf7fb;" d="M9 428 l79 0 l0 -297 q-6 -43 22 -89 q28 -46 155 -50 q59 -2 110 26 q51 28 54 115 l0 254 q-1 18 8 29 q8 12 34 12 l32 0 l0 16 l-177 0 l0 -16 l45 0 q26 0 35 -12 q8 -11 7 -29 l0 -261 q-2 -62 -38 -90 q-37 -28 -90 -28 q-52 0 -82 31 q-30 31 -31 99 l0 290 l80 0 l0 16 l-243 0 l0 -16 ZM110 486 l33 0 l117 106 l117 -106 l33 0 l-122 169 l-56 0 l-122 -169 Z" /><glyph glyph-name="" unicode="&#xf7fc;" d="M9 428 l79 0 l0 -297 q-6 -43 22 -89 q28 -46 155 -50 q59 -2 110 26 q51 28 54 115 l0 254 q-1 18 8 29 q8 12 34 12 l32 0 l0 16 l-177 0 l0 -16 l45 0 q26 0 35 -12 q8 -11 7 -29 l0 -261 q-2 -62 -38 -90 q-37 -28 -90 -28 q-52 0 -82 31 q-30 31 -31 99 l0 290 l80 0 l0 16 l-243 0 l0 -16 ZM360 596 q-19 -1 -32 -13 q-13 -13 -13 -32 q0 -19 13 -31 q13 -13 32 -14 q19 1 32 14 q12 12 13 31 q-1 19 -13 32 q-13 12 -32 13 l0 0 ZM172 596 q-19 -1 -32 -13 q-13 -13 -13 -32 q0 -19 13 -31 q13 -13 32 -14 q19 1 32 14 q12 12 13 31 q-1 19 -13 32 q-13 12 -32 13 l0 0 Z" /><glyph glyph-name="" unicode="&#xf7fd;" d="M184 16 l-83 0 l0 -16 l250 0 l0 16 l-83 0 l0 167 l108 204 q8 18 18 29 q10 12 27 12 l28 0 l0 16 l-126 0 l0 -16 l15 0 q19 0 25 -3 q6 -3 5 -10 q0 -9 -7 -25 l-97 -185 l-111 223 l52 0 l0 16 l-210 0 l0 -16 l56 0 l133 -251 l0 -161 ZM168 486 l35 0 l145 90 q20 12 30 21 q10 10 10 24 q-1 15 -11 25 q-10 9 -21 9 q-13 0 -23 -7 q-10 -7 -20 -18 l-145 -144 Z" /><glyph glyph-name="" unicode="&#xf7fe;" d="M96 16 l-80 0 l0 -16 l247 0 l0 16 l-83 0 l0 110 q19 -7 35 -10 q15 -4 34 -4 q60 0 110 30 q50 31 53 96 q-2 68 -47 97 q-44 30 -107 29 l-78 0 l0 64 l83 0 l0 16 l-247 0 l0 -16 l80 0 l0 -412 ZM180 348 l54 0 q53 -1 71 -31 q18 -30 17 -79 q1 -44 -17 -76 q-19 -32 -65 -34 q-17 0 -31 4 q-15 5 -29 10 l0 206 Z" /><glyph glyph-name="" unicode="&#xf7ff;" d="M184 16 l-83 0 l0 -16 l250 0 l0 16 l-83 0 l0 167 l108 204 q8 18 18 29 q10 12 27 12 l28 0 l0 16 l-126 0 l0 -16 l15 0 q19 0 25 -3 q6 -3 5 -10 q0 -9 -7 -25 l-97 -185 l-111 223 l52 0 l0 16 l-210 0 l0 -16 l56 0 l133 -251 l0 -161 ZM326 596 q-19 -1 -32 -13 q-13 -13 -13 -32 q0 -19 13 -31 q13 -13 32 -14 q19 1 32 14 q12 12 13 31 q-1 19 -13 32 q-13 12 -32 13 l0 0 ZM138 596 q-19 -1 -32 -13 q-13 -13 -13 -32 q0 -19 13 -31 q13 -13 32 -14 q19 1 32 14 q12 12 13 31 q-1 19 -13 32 q-13 12 -32 13 l0 0 Z" /><glyph glyph-name="" unicode="&#x2206;" d="M597 0 l0 24 l-266 682 l-38 -11 l-258 -671 l0 -24 l562 0 ZM492 46 l-404 0 l200 533 l204 -533 Z" /><glyph glyph-name="" unicode="&#x2126;" d="M693 142 l-26 2 q-15 -50 -30 -64 q-15 -15 -45 -13 l-110 0 q59 55 114 137 q54 81 58 190 q-2 147 -82 229 q-79 82 -207 83 q-126 -2 -208 -87 q-82 -85 -85 -234 q5 -121 60 -199 q56 -78 108 -119 l-105 0 q-29 -1 -46 14 q-16 15 -31 63 l-24 -2 l23 -142 l233 0 l8 19 q-43 71 -84 162 q-41 90 -44 197 q2 162 56 231 q54 69 136 67 q76 2 134 -65 q57 -68 61 -228 q-3 -111 -48 -206 q-46 -94 -82 -158 l6 -19 l235 0 l25 142 Z" /><glyph glyph-name="" unicode="&#x3bc;" d="M459 432 q-15 -14 -37 -18 q-23 -4 -47 -4 l-79 0 l0 -16 l79 0 l0 -237 q-2 -58 -40 -104 q-38 -46 -92 -49 q-29 0 -45 19 q-17 18 -17 51 l0 358 q-15 -14 -37 -18 q-23 -4 -47 -4 l-80 0 l0 -16 l80 0 l0 -410 q0 -74 -4 -119 q-3 -45 -4 -86 q0 -25 11 -37 q11 -12 34 -12 q23 0 34 12 q11 12 11 37 q-1 54 -7 115 q-6 61 -7 117 q18 -13 34 -18 q17 -5 34 -5 q66 4 100 43 q34 38 40 60 l2 0 l0 -91 l164 0 l0 16 l-80 0 l0 416 Z" /><glyph glyph-name="" unicode="&#x3c0;" d="M512 477 q-12 -20 -25 -27 q-12 -7 -35 -6 q-73 0 -142 2 q-69 1 -125 1 q-75 -2 -112 -31 q-37 -30 -57 -59 l14 -22 q25 21 53 34 q27 12 76 12 q1 -83 -19 -192 q-20 -109 -75 -184 l7 -17 q13 1 29 6 q17 5 30 11 q13 12 38 98 q25 86 28 258 l0 19 q31 0 72 -1 q41 0 86 -1 q-5 -61 -8 -126 q-3 -65 -3 -135 q1 -75 25 -103 q24 -27 63 -26 q28 0 56 16 q27 17 47 52 l-13 20 q-13 -15 -24 -23 q-12 -8 -27 -8 q-24 0 -34 24 q-10 23 -10 69 q0 55 0 122 q1 67 5 116 q21 0 39 1 q17 0 29 3 q10 14 20 37 q10 22 16 51 l-24 9 Z" /><glyph glyph-name="" unicode="&#x20ac;" d="M512 570 l-6 82 q-16 21 -54 39 q-39 18 -112 19 q-125 -1 -183 -76 q-57 -75 -69 -215 l-53 0 l-15 -37 l65 0 q-1 -7 -1 -16 q0 -9 0 -15 q0 -7 0 -17 q0 -11 1 -18 l-50 0 l-15 -37 l69 0 q11 -143 73 -216 q62 -74 178 -74 q69 1 108 17 q39 17 58 43 l6 80 l-21 0 q-10 -55 -47 -78 q-37 -24 -85 -23 q-80 1 -124 65 q-45 65 -53 186 l218 0 l16 37 l-236 0 l0 34 q0 7 0 16 q0 8 1 16 l262 0 l15 37 l-276 0 q9 117 49 183 q40 66 128 67 q53 0 89 -24 q35 -24 43 -75 l21 0 Z" /><glyph glyph-name="" unicode="&#x2113;" d="M372 118 q-20 -31 -47 -51 q-28 -21 -63 -22 q-43 -2 -66 36 q-23 37 -23 136 l0 95 q64 63 105 136 q41 73 42 162 q0 56 -22 94 q-23 37 -68 39 q-24 0 -46 -11 q-21 -12 -40 -36 q-31 -35 -42 -92 q-11 -58 -10 -178 l0 -130 l-72 -58 l12 -24 l60 46 l0 -84 q0 -62 8 -94 q9 -33 26 -53 q16 -19 41 -29 q25 -10 60 -10 q54 0 95 29 q41 28 69 82 l-19 17 ZM173 486 q0 124 11 176 q11 52 38 51 q23 -1 35 -30 q12 -29 12 -74 q-1 -69 -27 -135 q-27 -66 -69 -117 l0 129 Z" /><glyph glyph-name="" unicode="&#x212e;" d="M835 338 l0 10 q-4 153 -118 255 q-113 101 -283 105 q-170 -4 -283 -105 q-113 -102 -117 -255 q4 -152 117 -254 q113 -101 283 -105 q98 1 180 38 q82 37 136 101 l-57 0 q-48 -55 -114 -86 q-66 -32 -144 -33 q-72 1 -135 29 q-63 28 -111 77 q-4 5 -6 11 q-2 5 -2 12 l0 196 q0 4 5 4 l649 0 ZM687 364 q0 -2 -1 -4 q-1 -2 -3 -2 l-497 0 q-2 0 -4 2 q-1 2 -1 4 l0 193 q0 15 9 25 q48 49 111 77 q62 27 134 28 q72 -1 134 -28 q61 -27 109 -74 q9 -10 9 -24 l0 -197 Z" /><glyph glyph-name="" unicode="&#x2202;" d="M262 435 q-48 -1 -90 -21 q-42 -21 -70 -54 q-25 -29 -41 -72 q-17 -43 -18 -95 q1 -96 50 -149 q49 -53 133 -54 q71 1 121 43 q51 42 82 112 q26 59 37 127 q11 68 11 127 q1 47 -10 111 q-11 63 -40 123 q-34 67 -84 105 q-50 37 -121 38 q-44 0 -79 -12 q-36 -12 -62 -30 q-6 -18 6 -39 q11 -22 24 -22 q27 23 62 40 q35 16 75 17 q48 -2 82 -31 q35 -30 50 -67 q16 -40 22 -81 q6 -40 5 -79 q-1 -29 -3 -56 q-3 -27 -6 -52 q-26 37 -63 54 q-36 17 -72 17 l-1 0 ZM283 396 q41 -2 69 -26 q29 -25 39 -48 q-8 -60 -19 -105 q-11 -45 -31 -90 q-17 -41 -46 -72 q-29 -32 -70 -34 q-46 1 -72 38 q-25 36 -25 91 q0 52 11 101 q11 49 34 86 q23 33 51 46 q27 13 58 13 l1 0 Z" /><glyph glyph-name="" unicode="&#x220f;" d="M654 698 l-627 0 l0 -26 q61 -4 77 -16 q16 -12 14 -54 l0 -584 q2 -48 -14 -62 q-16 -14 -74 -17 l0 -26 l248 0 l0 26 q-55 4 -66 18 q-12 15 -10 61 l0 618 q-1 18 6 24 q7 6 28 5 l208 0 q22 1 29 -6 q8 -6 7 -27 l0 -614 q2 -50 -13 -63 q-15 -14 -71 -16 l0 -26 l256 0 l0 26 q-59 3 -75 17 q-15 15 -13 62 l0 584 q-2 41 13 54 q15 12 77 16 l0 26 Z" /><glyph glyph-name="" unicode="&#x2211;" d="M528 97 l-27 7 q-28 -83 -53 -103 q-25 -20 -86 -17 l-259 0 l224 355 l-187 326 l194 0 q55 0 75 -7 q21 -7 29 -25 q10 -16 18 -41 q8 -25 15 -61 l26 5 q-3 51 -7 98 q-4 48 -5 64 l-451 0 l0 -24 l219 -391 l-225 -350 l0 -23 l457 0 l43 187 Z" /><glyph glyph-name="" unicode="&#x2219;" d="M139 260 q21 1 36 15 q14 14 15 36 q-1 22 -15 36 q-15 14 -36 15 q-22 -1 -36 -15 q-14 -14 -15 -36 q1 -22 15 -36 q14 -14 36 -15 l0 0 Z" /><glyph glyph-name="" unicode="&#x221a;" d="M532 893 l-39 10 l-137 -890 l-2 0 l-169 445 l-154 -73 l11 -32 l87 42 l217 -554 l20 11 l166 1041 Z" /><glyph glyph-name="" unicode="&#x221e;" d="M705 289 q-1 69 -40 111 q-40 41 -104 42 q-62 -2 -104 -37 q-42 -35 -76 -76 q-38 48 -81 80 q-43 32 -97 33 q-68 -1 -111 -44 q-43 -44 -44 -114 q2 -69 44 -111 q42 -43 104 -44 q58 2 101 35 q43 33 81 79 q49 -60 91 -87 q42 -27 86 -27 q60 1 104 43 q44 42 46 116 l0 1 ZM202 182 q-44 1 -71 30 q-27 28 -28 71 q0 45 25 76 q25 31 70 32 q49 -2 84 -35 q35 -32 66 -74 q-29 -34 -64 -66 q-36 -32 -80 -34 l-2 0 ZM555 391 q42 0 68 -29 q26 -28 27 -78 q0 -38 -24 -69 q-24 -31 -69 -33 q-37 0 -70 26 q-33 25 -78 79 q25 29 61 65 q37 36 84 39 l1 0 Z" /><glyph glyph-name="" unicode="&#x222b;" d="M161 15 q4 -77 -7 -122 q-11 -45 -34 -46 q-15 3 -23 24 q-7 21 -26 24 q-21 0 -35 -13 q-15 -12 -15 -33 q0 -19 17 -33 q16 -13 43 -14 q69 -6 116 88 q47 94 36 361 l-18 386 q-3 101 11 136 q14 35 31 33 q15 -3 23 -22 q7 -20 30 -23 q17 0 30 11 q12 10 13 31 q-2 23 -21 35 q-19 11 -39 11 q-66 6 -113 -80 q-48 -87 -39 -340 l20 -414 Z" /><glyph glyph-name="" unicode="&#x2248;" d="M461 432 q-20 -35 -41 -53 q-21 -19 -49 -19 q-23 0 -43 10 q-20 9 -45 24 q-19 12 -45 25 q-26 12 -61 13 q-44 -1 -79 -26 q-36 -26 -58 -69 l37 -30 q18 29 40 50 q22 20 54 21 q24 0 45 -10 q21 -9 42 -22 q33 -20 58 -30 q25 -10 53 -10 q44 1 76 28 q32 26 52 67 l-36 31 ZM461 263 q-20 -35 -41 -54 q-20 -19 -49 -19 q-25 1 -45 11 q-20 10 -43 24 q-19 12 -45 24 q-25 13 -61 14 q-43 -1 -79 -26 q-36 -26 -58 -70 l37 -30 q17 29 39 50 q22 21 55 22 q23 0 44 -10 q21 -9 43 -23 q32 -19 57 -29 q26 -11 54 -11 q44 1 76 28 q31 26 52 67 l-36 32 Z" /><glyph glyph-name="" unicode="&#x2260;" d="M387 498 l-44 19 l-50 -110 l-245 0 l0 -56 l224 0 l-62 -138 l-162 0 l0 -55 l140 0 l-42 -93 l43 -19 l51 112 l250 0 l0 55 l-228 0 l62 138 l166 0 l0 56 l-144 0 l41 91 Z" /><glyph glyph-name="" unicode="&#x2264;" d="M488 101 l0 65 l-376 183 l0 2 l376 181 l0 65 l-434 -218 l0 -59 l434 -219 ZM491 5 l0 57 l-442 0 l0 -57 l442 0 Z" /><glyph glyph-name="" unicode="&#x2265;" d="M55 597 l0 -65 l376 -182 l0 -2 l-376 -182 l0 -65 l434 219 l0 58 l-434 219 ZM490 5 l0 57 l-440 0 l0 -57 l440 0 Z" /><glyph glyph-name="" unicode="&#x25ca;" d="M508 336 l-197 409 l-64 0 l-198 -409 l196 -406 l66 0 l197 406 ZM445 336 l-165 -346 l-2 0 l-166 348 l165 346 l4 0 l164 -348 Z" /><glyph glyph-name="" unicode=" " d="" /><glyph glyph-name="" unicode="­" d="M65 211 q61 2 122 2 q61 0 121 -2 l16 60 q-59 -2 -119 -2 q-60 0 -124 2 l-16 -60 Z" /><glyph glyph-name="" unicode="&#x2c9;" d="M6 557 l266 0 l0 48 l-266 0 l0 -48 Z" /><glyph glyph-name="" unicode="&#xf643;" d="M154 226 q6 142 59 182 q53 39 88 34 q75 -2 120 -61 q46 -59 47 -155 q-3 -111 -53 -164 q-50 -52 -111 -52 q-82 3 -116 66 q-35 62 -34 150 l0 0 ZM64 226 q1 -109 61 -174 q59 -64 163 -66 q103 3 153 72 q51 70 51 168 q2 80 -42 157 q-44 77 -165 83 q-98 -2 -159 -67 q-60 -66 -62 -173 l0 0 Z" /><glyph glyph-name="" unicode="&#xf644;" d="M155 0 l246 0 l0 16 l-81 0 l0 420 l81 0 l0 16 l-246 0 l0 -16 l81 0 l0 -420 l-81 0 l0 -16 Z" /><glyph glyph-name="" unicode="&#xf645;" d="M84 0 l363 0 l25 174 l-16 0 l-15 -102 l-277 0 l0 2 l122 65 q55 27 101 70 q46 43 49 111 q0 56 -42 100 q-42 44 -130 46 q-61 1 -115 -29 q-54 -30 -58 -99 q0 -20 15 -37 q15 -16 41 -17 q23 1 37 14 q15 14 15 32 q-1 22 -11 32 q-11 10 -26 12 q-13 2 -21 6 q-8 3 -8 14 q0 11 28 33 q27 21 75 23 q67 -1 90 -40 q22 -38 20 -99 q3 -81 -52 -137 q-56 -56 -210 -117 l0 -57 Z" /><glyph glyph-name="" unicode="&#xf646;" d="M166 163 l0 -16 l34 0 q49 6 121 -23 q73 -28 80 -160 q1 -85 -35 -140 q-37 -54 -127 -56 q-71 2 -107 29 q-37 26 -37 50 q0 6 4 12 q4 6 16 6 q10 0 16 -1 q6 -2 12 -2 q20 0 29 12 q10 13 10 36 q-1 22 -16 36 q-15 14 -39 15 q-30 -1 -46 -22 q-16 -20 -16 -49 q1 -60 49 -99 q48 -38 127 -39 q92 0 169 52 q76 52 81 156 q5 46 -35 111 q-40 65 -182 83 l0 2 q39 0 110 28 q70 28 78 127 q-2 69 -53 112 q-51 42 -133 43 q-62 0 -110 -32 q-47 -31 -50 -98 q0 -22 13 -38 q13 -17 39 -18 q22 1 33 15 q11 14 11 33 q0 19 -9 30 q-9 10 -24 12 q-14 2 -23 4 q-10 3 -10 10 q1 16 33 40 q32 24 87 26 q63 -2 88 -42 q25 -40 24 -98 q-1 -87 -49 -118 q-48 -31 -130 -29 l-33 0 Z" /><glyph glyph-name="" unicode="&#xf647;" d="M300 -228 l84 0 l0 228 l98 0 l0 60 l-98 0 l0 258 l-84 0 l0 -258 l-218 0 l304 418 l-20 0 l-350 -478 l284 0 l0 -228 Z" /><glyph glyph-name="" unicode="&#xf648;" d="M404 477 q1 -9 -4 -21 q-4 -11 -21 -12 q-6 0 -23 2 q-18 3 -42 8 q-24 5 -51 8 q-28 4 -55 4 q-32 0 -57 -6 q-24 -7 -39 -16 q6 -20 12 -61 q6 -40 7 -103 q0 -43 -4 -73 q-5 -31 -15 -71 l11 -7 q15 16 45 30 q29 14 77 15 q69 -1 112 -54 q43 -54 44 -150 q2 -74 -36 -136 q-37 -62 -136 -66 q-63 2 -96 29 q-34 27 -34 55 q0 9 3 14 q3 4 11 4 q5 0 12 -1 q6 -2 15 -2 q20 1 29 15 q10 14 10 29 q-1 28 -18 37 q-16 10 -32 9 q-23 0 -43 -17 q-20 -18 -21 -54 q1 -55 46 -94 q44 -38 121 -40 q111 0 184 57 q72 58 75 174 q0 75 -59 139 q-59 64 -173 68 q-46 0 -75 -10 q-30 -9 -52 -26 q6 28 11 60 q4 31 4 77 q0 24 -2 46 q-3 23 -3 37 q1 7 18 13 q17 7 44 7 q24 -1 60 -8 q36 -7 65 -8 q25 -3 57 13 q31 16 34 86 l-16 0 Z" /><glyph glyph-name="" unicode="&#xf649;" d="M413 230 q3 -76 -21 -149 q-24 -74 -114 -79 q-91 6 -115 86 q-23 80 -20 156 q5 110 55 146 q50 37 89 34 q77 -4 102 -66 q26 -62 24 -128 l0 0 ZM461 714 q-44 7 -214 -88 q-171 -95 -194 -370 q0 -107 57 -187 q57 -79 168 -83 q103 3 163 73 q61 70 62 169 q0 86 -51 148 q-51 61 -149 64 q-72 -3 -106 -34 q-34 -31 -46 -54 l-2 0 q5 123 69 214 q64 91 243 132 l0 16 Z" /><glyph glyph-name="" unicode="&#xf64a;" d="M65 284 l16 0 l19 90 l323 0 l-172 -438 q-15 -40 -21 -69 q-6 -29 -6 -46 q0 -29 13 -48 q13 -20 41 -21 q21 0 35 12 q13 13 13 36 q-1 20 -12 31 q-12 11 -28 11 q-9 0 -14 -3 q-5 -3 -13 -3 q-5 0 -8 3 q-3 3 -3 8 q11 70 107 281 q96 211 142 299 l13 25 l-423 0 l-22 -168 Z" /><glyph glyph-name="" unicode="&#xf64b;" d="M45 160 q4 -88 73 -131 q69 -43 160 -43 q91 0 160 43 q69 43 73 131 q-4 89 -69 138 q-65 49 -141 68 l0 2 q71 17 122 55 q52 38 54 106 q-1 74 -56 122 q-54 47 -143 49 q-89 -2 -143 -49 q-55 -48 -56 -122 q2 -68 54 -106 q51 -38 122 -55 l0 -2 q-76 -19 -141 -68 q-65 -49 -69 -138 l0 0 ZM141 167 q1 91 39 135 q38 44 98 55 q60 -11 98 -55 q38 -44 39 -135 q0 -66 -32 -114 q-33 -49 -105 -51 q-72 2 -104 51 q-33 48 -33 114 l0 0 ZM163 541 q0 58 27 100 q27 41 88 43 q61 -2 88 -43 q28 -42 27 -100 q0 -71 -30 -113 q-29 -42 -85 -55 q-56 13 -85 55 q-30 42 -30 113 l0 0 Z" /><glyph glyph-name="" unicode="&#xf64c;" d="M143 222 q-3 76 21 149 q24 74 114 79 q91 -6 115 -86 q23 -80 20 -156 q-5 -110 -55 -146 q-50 -37 -89 -34 q-77 4 -102 66 q-26 62 -24 128 l0 0 ZM95 -262 q44 -7 215 88 q170 95 193 370 q0 107 -57 187 q-57 79 -168 83 q-103 -3 -163 -73 q-61 -70 -62 -169 q0 -86 51 -148 q51 -61 149 -64 q72 3 106 34 q34 31 46 54 l2 0 q-5 -123 -69 -214 q-64 -91 -243 -132 l0 -16 Z" /><glyph glyph-name="" unicode="&#xf653;" d="M273 305 q72 -7 125 -34 q53 -27 56 -119 q-1 -67 -46 -107 q-46 -40 -119 -41 q-4 0 -8 0 q-4 1 -8 2 l0 299 ZM257 420 q-67 8 -113 34 q-46 26 -48 97 q1 67 41 105 q40 37 109 38 q5 0 11 -1 l0 -273 ZM257 -159 l16 0 l0 148 q6 -1 12 -1 q109 3 163 65 q54 62 54 152 q-4 120 -74 161 q-70 41 -155 51 l0 275 q83 -11 127 -69 q43 -59 49 -142 l16 0 l0 206 l-16 0 q-2 -10 -7 -23 q-6 -13 -25 -14 q-17 3 -51 26 q-34 22 -93 32 l0 66 l-16 0 l0 -65 q-2 1 -5 1 q-3 0 -5 0 q-89 -2 -138 -56 q-48 -53 -49 -137 q3 -123 61 -163 q58 -40 136 -46 l0 -301 q-81 9 -133 68 q-52 59 -54 171 l-16 0 l0 -248 l16 0 q-1 13 4 27 q4 13 21 14 q24 -2 63 -22 q38 -19 99 -27 l0 -149 Z" /><glyph glyph-name="" unicode="&#xf654;" d="M282 6 q-68 8 -84 55 q-17 47 -14 110 l0 87 q-1 66 19 107 q21 42 79 49 l0 -408 ZM282 -127 l16 0 l0 115 q77 2 122 48 q45 46 48 105 l-16 0 q-5 -49 -41 -91 q-36 -43 -113 -46 l0 412 l6 0 q24 0 48 -7 q25 -8 27 -24 q-2 -9 -12 -17 q-11 -8 -13 -36 q0 -16 12 -29 q13 -13 36 -14 q19 0 33 14 q14 13 15 36 q-2 47 -46 70 q-43 23 -98 23 l-8 0 l0 71 l-16 0 l0 -73 q-82 -12 -137 -78 q-55 -65 -57 -159 q1 -82 52 -139 q52 -57 142 -64 l0 -117 Z" /><glyph glyph-name="" unicode="&#xe03d;" d="M96 16 l-72 0 l0 -16 l240 0 l0 16 l-84 0 l0 203 l37 0 q47 1 61 -14 q13 -16 13 -64 l16 0 l0 172 l-16 0 q0 -48 -13 -64 q-14 -15 -61 -14 l-37 0 l0 193 l85 0 q59 1 88 -21 q28 -22 33 -82 l16 0 l-16 119 l-362 0 l0 -16 l72 0 l0 -412 ZM523 16 l-73 0 l0 -16 l230 0 l0 16 l-73 0 l0 412 l73 0 l0 16 l-230 0 l0 -16 l73 0 l0 -412 Z" /><glyph glyph-name="" unicode="&#xe03e;" d="M96 16 l-72 0 l0 -16 l240 0 l0 16 l-84 0 l0 203 l37 0 q47 1 61 -14 q13 -16 13 -64 l16 0 l0 172 l-16 0 q0 -48 -13 -64 q-14 -15 -61 -14 l-37 0 l0 193 l85 0 q59 1 88 -21 q28 -22 33 -82 l16 0 l-16 119 l-362 0 l0 -16 l72 0 l0 -412 ZM522 16 l-80 0 l0 -16 l406 0 l0 149 l-16 0 q1 -71 -27 -102 q-29 -32 -102 -31 l-97 0 l0 412 l82 0 l0 16 l-246 0 l0 -16 l80 0 l0 -412 Z" /><glyph glyph-name="" unicode="&#xe03f;" d="M56 0 l16 0 l0 12 q0 7 5 10 q4 3 9 3 q12 -2 43 -16 q31 -15 85 -17 q67 1 102 40 q35 39 35 100 q-2 72 -39 101 q-38 28 -88 37 q-49 9 -86 24 q-37 15 -39 59 q1 39 23 61 q23 22 62 22 q79 -4 100 -49 q21 -44 20 -78 l16 0 l0 135 l-16 0 q0 -9 -1 -18 q-1 -9 -10 -10 q-9 2 -34 18 q-26 16 -73 18 q-67 -3 -96 -42 q-28 -40 -27 -85 q2 -73 39 -100 q37 -27 85 -35 q63 -12 93 -28 q29 -16 29 -62 q0 -33 -24 -62 q-24 -28 -77 -30 q-75 2 -103 46 q-29 44 -33 109 l-16 0 l0 -163 ZM463 0 l16 0 l0 12 q0 7 5 10 q4 3 9 3 q12 -2 43 -16 q31 -15 85 -17 q67 1 102 40 q35 39 35 100 q-2 72 -39 101 q-38 28 -88 37 q-49 9 -86 24 q-37 15 -39 59 q1 39 23 61 q23 22 62 22 q79 -4 100 -49 q21 -44 20 -78 l16 0 l0 135 l-16 0 q0 -9 -1 -18 q-1 -9 -10 -10 q-9 2 -34 18 q-26 16 -73 18 q-67 -3 -96 -42 q-28 -40 -27 -85 q2 -73 39 -100 q37 -27 85 -35 q63 -12 93 -28 q29 -16 29 -62 q0 -33 -24 -62 q-24 -28 -77 -30 q-75 2 -103 46 q-29 44 -33 109 l-16 0 l0 -163 Z" /><glyph glyph-name="" unicode="&#x2215;" d="M-170 -22 l45 0 l463 742 l-45 0 l-463 -742 Z" /><glyph glyph-name="" unicode="&#xe000;" d="M235 452 l-5 0 l-156 -391 q-9 -22 -20 -34 q-12 -11 -30 -11 l-22 0 l0 -16 l137 0 l0 16 l-28 0 q-12 0 -21 3 q-9 3 -9 12 q0 7 2 12 q2 5 4 11 l37 91 l136 0 l50 -129 l-57 0 l0 -16 l208 0 l0 16 l-55 0 l-171 436 ZM193 324 l61 -163 l-125 0 l64 163 Z" /><glyph glyph-name="" unicode="&#xe008;" d="M180 428 l34 0 q68 -3 84 -36 q15 -34 12 -60 q-1 -51 -27 -70 q-25 -19 -66 -18 l-37 0 l0 184 ZM96 16 l-72 0 l0 -16 l203 0 q64 -2 120 22 q56 24 60 96 q-3 63 -53 89 q-49 25 -105 28 l0 2 q27 -2 83 19 q56 20 62 87 q-3 68 -55 86 q-52 18 -111 15 l-204 0 l0 -16 l72 0 l0 -412 ZM180 228 l38 0 q27 2 62 -14 q34 -16 37 -87 q-3 -78 -37 -96 q-34 -18 -63 -15 l-37 0 l0 212 Z" /><glyph glyph-name="" unicode="&#xe009;" d="M409 432 l-10 0 q-1 -8 -6 -17 q-4 -8 -15 -9 q-11 3 -40 23 q-29 20 -78 23 q-106 -4 -163 -72 q-56 -69 -57 -158 q1 -94 61 -161 q59 -66 159 -69 q51 3 79 24 q28 21 39 24 q12 0 15 -10 q4 -9 6 -22 l10 0 l0 156 l-10 0 q-5 -67 -42 -111 q-37 -43 -101 -45 q-70 3 -96 67 q-25 63 -24 147 q-2 84 24 148 q26 63 98 66 q64 0 99 -41 q34 -41 43 -97 l9 0 l0 134 Z" /><glyph glyph-name="" unicode="&#xe00b;" d="M96 16 l-72 0 l0 -16 l215 0 q142 5 192 77 q49 72 46 145 q7 25 -28 117 q-36 91 -199 105 l-226 0 l0 -16 l72 0 l0 -412 ZM180 428 q66 6 131 -25 q65 -32 70 -175 q-3 -152 -62 -185 q-59 -34 -139 -27 l0 412 Z" /><glyph glyph-name="" unicode="&#xe00c;" d="M96 16 l-72 0 l0 -16 l397 0 l0 134 l-16 0 q0 -61 -29 -89 q-29 -29 -83 -29 l-113 0 l0 203 l37 0 q47 1 61 -14 q13 -16 13 -64 l16 0 l0 172 l-16 0 q0 -48 -13 -64 q-14 -15 -61 -14 l-37 0 l0 193 l95 0 q53 1 78 -22 q25 -22 28 -75 l16 0 l-12 113 l-361 0 l0 -16 l72 0 l0 -412 Z" /><glyph glyph-name="" unicode="&#xe012;" d="M96 16 l-72 0 l0 -16 l240 0 l0 16 l-84 0 l0 203 l37 0 q47 1 61 -14 q13 -16 13 -64 l16 0 l0 172 l-16 0 q0 -48 -13 -64 q-14 -15 -61 -14 l-37 0 l0 193 l85 0 q59 1 88 -21 q28 -22 33 -82 l16 0 l-16 119 l-362 0 l0 -16 l72 0 l0 -412 Z" /><glyph glyph-name="" unicode="&#xe013;" d="M287 156 l0 -16 l72 0 l0 -59 q-4 -49 -41 -62 q-38 -13 -54 -11 q-92 7 -112 80 q-20 73 -16 122 q-3 69 19 141 q23 71 112 77 q29 2 77 -23 q47 -25 66 -104 l16 0 l0 143 l-16 0 q0 -15 -4 -28 q-5 -12 -16 -13 q-14 3 -44 25 q-29 21 -89 24 q-75 2 -144 -54 q-68 -55 -73 -186 q2 -100 63 -159 q61 -60 162 -61 q69 2 115 26 q45 23 63 40 l0 82 l66 0 l0 16 l-222 0 Z" /><glyph glyph-name="" unicode="&#xe014;" d="M96 16 l-72 0 l0 -16 l230 0 l0 16 l-74 0 l0 203 l214 0 l0 -203 l-74 0 l0 -16 l230 0 l0 16 l-72 0 l0 412 l72 0 l0 16 l-230 0 l0 -16 l74 0 l0 -193 l-214 0 l0 193 l74 0 l0 16 l-230 0 l0 -16 l72 0 l0 -412 Z" /><glyph glyph-name="" unicode="&#xe015;" d="M97 16 l-73 0 l0 -16 l230 0 l0 16 l-73 0 l0 412 l73 0 l0 16 l-230 0 l0 -16 l73 0 l0 -412 Z" /><glyph glyph-name="" unicode="&#xe01a;" d="M204 428 l76 0 l0 16 l-239 0 l0 -16 l79 0 l0 -326 q1 -33 10 -54 q8 -21 9 -41 q-1 -33 -17 -42 q-17 -9 -33 -8 q-17 0 -26 4 q-9 4 -9 12 q0 7 5 10 q5 3 12 6 q7 3 12 9 q5 6 5 18 q0 17 -9 25 q-9 9 -26 9 q-12 0 -24 -8 q-12 -9 -13 -33 q0 -27 20 -44 q20 -17 58 -18 q66 3 89 50 q23 46 21 98 l0 333 Z" /><glyph glyph-name="" unicode="&#xe01b;" d="M96 16 l-72 0 l0 -16 l223 0 l0 16 l-67 0 l0 199 l6 5 l147 -204 l-64 0 l0 -16 l236 0 l0 16 l-38 0 q-17 0 -26 5 q-10 5 -14 11 l-176 246 l143 134 q8 8 14 12 q7 4 19 4 l51 0 l0 16 l-174 0 l0 -16 l58 0 q5 0 9 -1 q4 -2 4 -6 q0 -7 -7 -13 q-6 -5 -14 -12 l-174 -162 l0 194 l74 0 l0 16 l-230 0 l0 -16 l72 0 l0 -412 Z" /><glyph glyph-name="" unicode="&#xe01c;" d="M96 16 l-80 0 l0 -16 l406 0 l0 149 l-16 0 q1 -71 -27 -102 q-29 -32 -102 -31 l-97 0 l0 412 l82 0 l0 16 l-246 0 l0 -16 l80 0 l0 -412 Z" /><glyph glyph-name="" unicode="&#xe01e;" d="M96 57 q1 -18 -7 -29 q-9 -12 -35 -12 l-30 0 l0 -16 l160 0 l0 16 l-30 0 q-26 0 -34 12 q-9 11 -8 29 l0 339 l2 0 l160 -387 l8 0 l166 396 l2 0 l0 -389 l-74 0 l0 -16 l230 0 l0 16 l-72 0 l0 412 l72 0 l0 16 l-160 0 l-131 -314 l-134 314 l-157 0 l0 -16 l72 0 l0 -371 Z" /><glyph glyph-name="" unicode="&#xe01f;" d="M90 428 l0 -371 q1 -18 -7 -29 q-9 -12 -35 -12 l-32 0 l0 -16 l166 0 l0 16 l-34 0 q-26 0 -34 12 q-9 11 -8 29 l0 352 l2 0 l309 -409 l12 0 l0 387 q-1 18 8 29 q8 12 34 12 l32 0 l0 16 l-162 0 l0 -16 l30 0 q26 0 35 -12 q8 -11 7 -29 l0 -246 l-2 0 l-223 303 l-172 0 l0 -16 l74 0 Z" /><glyph glyph-name="" unicode="&#xe021;" d="M40 222 q1 -94 61 -161 q59 -66 159 -69 q100 3 159 69 q59 67 60 161 q-1 89 -57 158 q-56 68 -162 72 q-106 -4 -163 -72 q-56 -69 -57 -158 l0 0 ZM260 436 q73 -3 99 -66 q26 -64 24 -148 q2 -84 -24 -147 q-26 -64 -99 -67 q-73 3 -99 67 q-27 63 -25 147 q-2 84 25 148 q26 63 99 66 l0 0 Z" /><glyph glyph-name="" unicode="&#xe029;" d="M96 16 l-80 0 l0 -16 l247 0 l0 16 l-83 0 l0 190 q19 -7 35 -10 q15 -4 34 -4 q60 0 110 30 q50 31 53 96 q-1 68 -50 97 q-50 30 -135 29 l-211 0 l0 -16 l80 0 l0 -412 ZM180 428 l41 0 q63 -1 83 -31 q20 -30 18 -79 q1 -44 -17 -76 q-19 -32 -65 -34 q-17 0 -31 4 q-15 5 -29 10 l0 206 Z" /><glyph glyph-name="" unicode="&#xe02a;" d="M399 -114 l-46 0 q-37 0 -47 15 q-9 16 -8 50 l0 45 q84 16 132 79 q48 63 49 147 q-1 89 -57 158 q-56 68 -162 72 q-106 -4 -163 -72 q-56 -69 -57 -158 q1 -84 49 -146 q48 -63 131 -80 l0 -39 q-3 -40 17 -63 q20 -24 95 -24 l67 0 l0 16 ZM260 436 q73 -3 99 -66 q26 -64 24 -148 q2 -84 -24 -147 q-26 -64 -99 -67 q-73 3 -99 67 q-27 63 -25 147 q-2 84 25 148 q26 63 99 66 l0 0 Z" /><glyph glyph-name="" unicode="&#xe02b;" d="M96 16 l-72 0 l0 -16 l227 0 l0 16 l-71 0 l0 203 l40 0 q54 -2 66 -35 q13 -34 14 -78 q1 -44 20 -78 q19 -34 85 -36 q18 0 36 4 q18 4 31 11 l-5 12 q-12 -7 -22 -9 q-10 -2 -20 -2 q-19 0 -25 22 q-6 23 -10 71 q-2 50 -24 84 q-22 34 -108 45 l0 2 q32 1 84 21 q51 20 57 85 q-3 63 -54 85 q-52 22 -118 21 l-203 0 l0 -16 l72 0 l0 -412 ZM180 428 l41 0 q48 0 71 -23 q23 -23 23 -72 q-4 -68 -41 -85 q-38 -16 -57 -13 l-37 0 l0 193 Z" /><glyph glyph-name="" unicode="&#xe02c;" d="M56 0 l16 0 l0 12 q0 7 5 10 q4 3 9 3 q12 -2 43 -16 q31 -15 85 -17 q67 1 102 40 q35 39 35 100 q-2 72 -39 101 q-38 28 -88 37 q-49 9 -86 24 q-37 15 -39 59 q1 39 23 61 q23 22 62 22 q79 -4 100 -49 q21 -44 20 -78 l16 0 l0 135 l-16 0 q0 -9 -1 -18 q-1 -9 -10 -10 q-9 2 -34 18 q-26 16 -73 18 q-67 -3 -96 -42 q-28 -40 -27 -85 q2 -73 39 -100 q37 -27 85 -35 q63 -12 93 -28 q29 -16 29 -62 q0 -33 -24 -62 q-24 -28 -77 -30 q-75 2 -103 46 q-29 44 -33 109 l-16 0 l0 -163 Z" /><glyph glyph-name="" unicode="&#xe02e;" d="M190 16 l-84 0 l0 -16 l252 0 l0 16 l-84 0 l0 412 l50 0 q65 0 85 -30 q19 -30 17 -88 l16 0 l0 134 l-420 0 l0 -134 l16 0 q-2 58 17 88 q20 30 85 30 l50 0 l0 -412 Z" /><glyph glyph-name="" unicode="&#xe030;" d="M9 428 l79 0 l0 -297 q-6 -43 22 -89 q28 -46 155 -50 q59 -2 110 26 q51 28 54 115 l0 254 q-1 18 8 29 q8 12 34 12 l32 0 l0 16 l-177 0 l0 -16 l45 0 q26 0 35 -12 q8 -11 7 -29 l0 -261 q-2 -62 -38 -90 q-37 -28 -90 -28 q-52 0 -82 31 q-30 31 -31 99 l0 290 l80 0 l0 16 l-243 0 l0 -16 Z" /><glyph glyph-name="" unicode="&#xe035;" d="M0 428 l60 0 l173 -436 l6 0 l164 400 q9 23 20 30 q11 7 27 6 l31 0 l0 16 l-144 0 l0 -16 l30 0 q13 0 19 -4 q6 -3 6 -8 q0 -4 -1 -10 q0 -5 -4 -13 l-113 -277 l-121 312 l63 0 l0 16 l-216 0 l0 -16 Z" /><glyph glyph-name="" unicode="&#xe036;" d="M145 428 l36 0 l0 16 l-186 0 l0 -16 l60 0 l182 -436 l8 0 l92 207 l90 -207 l8 0 l176 403 q11 22 22 28 q11 6 22 5 l35 0 l0 16 l-144 0 l0 -16 l31 0 q7 0 15 -2 q7 -2 8 -12 q0 -5 -2 -9 q-1 -5 -3 -9 l-127 -295 l-82 199 l49 109 q3 8 9 14 q6 5 20 5 l52 0 l0 16 l-318 0 l0 -16 l44 0 l88 -213 l-51 -114 l-134 327 ZM332 428 l70 0 q6 0 12 -2 q6 -1 6 -8 q0 -5 -1 -9 q-1 -5 -3 -8 l-37 -84 l-47 111 Z" /><glyph glyph-name="" unicode="&#xe037;" d="M98 59 q-13 -18 -30 -30 q-17 -13 -41 -13 l-28 0 l0 -16 l150 0 l0 16 l-24 0 q-8 0 -17 2 q-9 3 -10 10 q0 6 5 13 q4 7 9 13 l112 150 l120 -188 l-53 0 l0 -16 l210 0 l0 16 l-52 0 l-165 256 l102 132 q8 11 16 17 q9 7 22 7 l34 0 l0 16 l-139 0 l0 -16 l33 0 q10 0 15 -3 q4 -2 4 -7 q0 -4 -2 -9 q-3 -5 -10 -15 l-83 -110 l-90 144 l48 0 l0 16 l-210 0 l0 -16 l54 0 l138 -212 l-118 -157 Z" /><glyph glyph-name="" unicode="&#xe038;" d="M184 16 l-83 0 l0 -16 l250 0 l0 16 l-83 0 l0 167 l108 204 q8 18 18 29 q10 12 27 12 l28 0 l0 16 l-126 0 l0 -16 l15 0 q19 0 25 -3 q6 -3 5 -10 q0 -9 -7 -25 l-97 -185 l-111 223 l52 0 l0 16 l-210 0 l0 -16 l56 0 l133 -251 l0 -161 Z" /><glyph glyph-name="" unicode="&#xe03b;" d="M66 444 l0 -127 l10 0 q-3 59 22 85 q25 26 127 26 l72 0 l-272 -428 l381 0 l0 131 l-10 0 q6 -50 -23 -82 q-29 -32 -161 -33 l-75 0 l270 428 l-341 0 Z" /><glyph glyph-name="" unicode="&#xe01d;" d="M96 16 l-80 0 l0 -16 l406 0 l0 149 l-16 0 q1 -71 -27 -102 q-29 -32 -102 -31 l-97 0 l0 238 l121 69 l0 16 l-121 -69 l0 158 l82 0 l0 16 l-246 0 l0 -16 l80 0 l0 -205 l-77 -44 l0 -16 l77 44 l0 -191 Z" /><glyph glyph-name="" unicode="&#xe02d;" d="M56 0 l16 0 l0 12 q0 7 5 10 q4 3 9 3 q12 -2 43 -16 q31 -15 85 -17 q67 1 102 40 q35 39 35 100 q-2 72 -39 101 q-38 28 -88 37 q-49 9 -86 24 q-37 15 -39 59 q1 39 23 61 q23 22 62 22 q79 -4 100 -49 q21 -44 20 -78 l16 0 l0 135 l-16 0 q0 -9 -1 -18 q-1 -9 -10 -10 q-9 2 -34 18 q-26 16 -73 18 q-67 -3 -96 -42 q-28 -40 -27 -85 q2 -73 39 -100 q37 -27 85 -35 q63 -12 93 -28 q29 -16 29 -62 q0 -33 -24 -62 q-24 -28 -77 -30 q-75 2 -103 46 q-29 44 -33 109 l-16 0 l0 -163 ZM354 655 l-33 0 l-117 -106 l-117 106 l-33 0 l122 -169 l56 0 l122 169 Z" /><glyph glyph-name="" unicode="&#xe03c;" d="M66 444 l0 -127 l10 0 q-3 59 22 85 q25 26 127 26 l72 0 l-272 -428 l381 0 l0 131 l-10 0 q6 -50 -23 -82 q-29 -32 -161 -33 l-75 0 l270 428 l-341 0 ZM372 655 l-33 0 l-117 -106 l-117 106 l-33 0 l122 -169 l56 0 l122 169 Z" /><glyph glyph-name="" unicode="&#xe005;" d="M235 452 l-5 0 l-156 -391 q-9 -22 -20 -34 q-12 -11 -30 -11 l-22 0 l0 -16 l137 0 l0 16 l-28 0 q-12 0 -21 3 q-9 3 -9 12 q0 7 2 12 q2 5 4 11 l37 91 l136 0 l50 -129 l-57 0 l0 -16 l208 0 l0 16 l-55 0 l-171 436 ZM193 324 l61 -163 l-125 0 l64 163 ZM276 486 l35 0 l-145 144 q-10 11 -20 18 q-10 7 -23 7 q-11 0 -21 -9 q-10 -10 -11 -25 q0 -14 10 -24 q10 -9 30 -21 l145 -90 Z" /><glyph glyph-name="" unicode="&#xe002;" d="M235 452 l-5 0 l-156 -391 q-9 -22 -20 -34 q-12 -11 -30 -11 l-22 0 l0 -16 l137 0 l0 16 l-28 0 q-12 0 -21 3 q-9 3 -9 12 q0 7 2 12 q2 5 4 11 l37 91 l136 0 l50 -129 l-57 0 l0 -16 l208 0 l0 16 l-55 0 l-171 436 ZM193 324 l61 -163 l-125 0 l64 163 ZM153 486 l35 0 l145 90 q20 12 30 21 q10 10 10 24 q-1 15 -11 25 q-10 9 -21 9 q-13 0 -23 -7 q-10 -7 -20 -18 l-145 -144 Z" /><glyph glyph-name="" unicode="&#xe003;" d="M235 452 l-5 0 l-156 -391 q-9 -22 -20 -34 q-12 -11 -30 -11 l-22 0 l0 -16 l137 0 l0 16 l-28 0 q-12 0 -21 3 q-9 3 -9 12 q0 7 2 12 q2 5 4 11 l37 91 l136 0 l50 -129 l-57 0 l0 -16 l208 0 l0 16 l-55 0 l-171 436 ZM193 324 l61 -163 l-125 0 l64 163 ZM82 486 l33 0 l117 106 l117 -106 l33 0 l-122 169 l-56 0 l-122 -169 Z" /><glyph glyph-name="" unicode="&#xe007;" d="M235 452 l-5 0 l-156 -391 q-9 -22 -20 -34 q-12 -11 -30 -11 l-22 0 l0 -16 l137 0 l0 16 l-28 0 q-12 0 -21 3 q-9 3 -9 12 q0 7 2 12 q2 5 4 11 l37 91 l136 0 l50 -129 l-57 0 l0 -16 l208 0 l0 16 l-55 0 l-171 436 ZM193 324 l61 -163 l-125 0 l64 163 ZM369 612 q-6 -20 -20 -34 q-14 -13 -35 -14 q-16 1 -33 8 q-16 8 -30 16 q-17 10 -35 17 q-19 7 -39 7 q-45 -1 -71 -31 q-26 -30 -37 -71 l26 0 q6 20 20 34 q14 13 35 14 q16 -1 33 -8 q16 -8 30 -16 q17 -10 36 -17 q18 -7 38 -7 q45 2 71 32 q26 30 37 70 l-26 0 Z" /><glyph glyph-name="" unicode="&#xe004;" d="M235 452 l-5 0 l-156 -391 q-9 -22 -20 -34 q-12 -11 -30 -11 l-22 0 l0 -16 l137 0 l0 16 l-28 0 q-12 0 -21 3 q-9 3 -9 12 q0 7 2 12 q2 5 4 11 l37 91 l136 0 l50 -129 l-57 0 l0 -16 l208 0 l0 16 l-55 0 l-171 436 ZM193 324 l61 -163 l-125 0 l64 163 ZM326 596 q-19 -1 -32 -13 q-13 -13 -13 -32 q0 -19 13 -31 q13 -13 32 -14 q19 1 32 14 q12 12 13 31 q-1 19 -13 32 q-13 12 -32 13 l0 0 ZM138 596 q-19 -1 -32 -13 q-13 -13 -13 -32 q0 -19 13 -31 q13 -13 32 -14 q19 1 32 14 q12 12 13 31 q-1 19 -13 32 q-13 12 -32 13 l0 0 Z" /><glyph glyph-name="" unicode="&#xe006;" d="M235 452 l-5 0 l-156 -391 q-9 -22 -20 -34 q-12 -11 -30 -11 l-22 0 l0 -16 l137 0 l0 16 l-28 0 q-12 0 -21 3 q-9 3 -9 12 q0 7 2 12 q2 5 4 11 l37 91 l136 0 l50 -129 l-57 0 l0 -16 l208 0 l0 16 l-55 0 l-171 436 ZM193 324 l61 -163 l-125 0 l64 163 ZM232 655 q-38 -1 -64 -27 q-25 -25 -26 -63 q1 -38 26 -63 q26 -26 64 -27 q38 1 64 27 q25 25 26 63 q-1 38 -26 63 q-26 26 -64 27 l0 0 ZM232 625 q25 -1 42 -18 q17 -17 18 -42 q-1 -25 -18 -42 q-17 -17 -42 -18 q-25 1 -42 18 q-17 17 -18 42 q1 25 18 42 q17 17 42 18 l0 0 Z" /><glyph glyph-name="" unicode="&#xe001;" d="M281 175 l-144 0 l142 245 l2 0 l0 -245 ZM53 65 q-11 -21 -27 -35 q-16 -14 -53 -14 l-15 0 l0 -16 l162 0 l0 16 l-22 0 q-18 0 -30 2 q-12 1 -12 10 q0 7 4 13 q3 7 6 13 l61 105 l154 0 l0 -143 l-80 0 l0 -16 l405 0 l0 134 l-16 0 q0 -61 -29 -89 q-29 -29 -83 -29 l-113 0 l0 203 l37 0 q47 1 61 -14 q13 -16 13 -64 l16 0 l0 172 l-16 0 q0 -48 -13 -64 q-14 -15 -61 -14 l-37 0 l0 193 l95 0 q53 1 78 -22 q25 -22 28 -75 l16 0 l-12 113 l-385 0 l0 -16 l84 0 l-216 -363 Z" /><glyph glyph-name="" unicode="&#xe00a;" d="M409 432 l-10 0 q-1 -8 -6 -17 q-4 -8 -15 -9 q-11 3 -40 23 q-29 20 -78 23 q-106 -4 -163 -72 q-56 -69 -57 -158 q1 -89 55 -154 q53 -65 145 -76 l-54 -91 l17 -7 q21 6 41 6 q19 -1 29 -12 q9 -12 9 -28 q0 -28 -18 -41 q-17 -13 -48 -11 q-23 0 -39 3 q-16 3 -30 8 l-8 -13 q25 -9 51 -15 q26 -7 54 -7 q39 -1 76 17 q37 17 40 61 q-2 29 -26 46 q-24 16 -53 16 q-17 0 -32 -2 q-15 -2 -29 -8 l-2 2 l46 76 q48 4 76 25 q27 20 38 23 q12 0 15 -10 q4 -9 6 -22 l10 0 l0 156 l-10 0 q-5 -67 -42 -111 q-37 -43 -101 -45 q-70 3 -96 67 q-25 63 -24 147 q-2 84 24 148 q26 63 98 66 q64 0 99 -41 q34 -41 43 -97 l9 0 l0 134 Z" /><glyph glyph-name="" unicode="&#xe010;" d="M96 16 l-72 0 l0 -16 l397 0 l0 134 l-16 0 q0 -61 -29 -89 q-29 -29 -83 -29 l-113 0 l0 203 l37 0 q47 1 61 -14 q13 -16 13 -64 l16 0 l0 172 l-16 0 q0 -48 -13 -64 q-14 -15 -61 -14 l-37 0 l0 193 l95 0 q53 1 78 -22 q25 -22 28 -75 l16 0 l-12 113 l-361 0 l0 -16 l72 0 l0 -412 ZM276 486 l35 0 l-145 144 q-10 11 -20 18 q-10 7 -23 7 q-11 0 -21 -9 q-10 -10 -11 -25 q0 -14 10 -24 q10 -9 30 -21 l145 -90 Z" /><glyph glyph-name="" unicode="&#xe00d;" d="M96 16 l-72 0 l0 -16 l397 0 l0 134 l-16 0 q0 -61 -29 -89 q-29 -29 -83 -29 l-113 0 l0 203 l37 0 q47 1 61 -14 q13 -16 13 -64 l16 0 l0 172 l-16 0 q0 -48 -13 -64 q-14 -15 -61 -14 l-37 0 l0 193 l95 0 q53 1 78 -22 q25 -22 28 -75 l16 0 l-12 113 l-361 0 l0 -16 l72 0 l0 -412 ZM153 486 l35 0 l145 90 q20 12 30 21 q10 10 10 24 q-1 15 -11 25 q-10 9 -21 9 q-13 0 -23 -7 q-10 -7 -20 -18 l-145 -144 Z" /><glyph glyph-name="" unicode="&#xe00e;" d="M96 16 l-72 0 l0 -16 l397 0 l0 134 l-16 0 q0 -61 -29 -89 q-29 -29 -83 -29 l-113 0 l0 203 l37 0 q47 1 61 -14 q13 -16 13 -64 l16 0 l0 172 l-16 0 q0 -48 -13 -64 q-14 -15 -61 -14 l-37 0 l0 193 l95 0 q53 1 78 -22 q25 -22 28 -75 l16 0 l-12 113 l-361 0 l0 -16 l72 0 l0 -412 ZM82 486 l33 0 l117 106 l117 -106 l33 0 l-122 169 l-56 0 l-122 -169 Z" /><glyph glyph-name="" unicode="&#xe00f;" d="M96 16 l-72 0 l0 -16 l397 0 l0 134 l-16 0 q0 -61 -29 -89 q-29 -29 -83 -29 l-113 0 l0 203 l37 0 q47 1 61 -14 q13 -16 13 -64 l16 0 l0 172 l-16 0 q0 -48 -13 -64 q-14 -15 -61 -14 l-37 0 l0 193 l95 0 q53 1 78 -22 q25 -22 28 -75 l16 0 l-12 113 l-361 0 l0 -16 l72 0 l0 -412 ZM326 596 q-19 -1 -32 -13 q-13 -13 -13 -32 q0 -19 13 -31 q13 -13 32 -14 q19 1 32 14 q12 12 13 31 q-1 19 -13 32 q-13 12 -32 13 l0 0 ZM138 596 q-19 -1 -32 -13 q-13 -13 -13 -32 q0 -19 13 -31 q13 -13 32 -14 q19 1 32 14 q12 12 13 31 q-1 19 -13 32 q-13 12 -32 13 l0 0 Z" /><glyph glyph-name="" unicode="&#xe019;" d="M97 16 l-73 0 l0 -16 l230 0 l0 16 l-73 0 l0 412 l73 0 l0 16 l-230 0 l0 -16 l73 0 l0 -412 ZM183 486 l35 0 l-145 144 q-10 11 -20 18 q-10 7 -23 7 q-11 0 -21 -9 q-10 -10 -11 -25 q0 -14 10 -24 q10 -9 30 -21 l145 -90 Z" /><glyph glyph-name="" unicode="&#xe016;" d="M97 16 l-73 0 l0 -16 l230 0 l0 16 l-73 0 l0 412 l73 0 l0 16 l-230 0 l0 -16 l73 0 l0 -412 ZM72 486 l35 0 l145 90 q20 12 30 21 q10 10 10 24 q-1 15 -11 25 q-10 9 -21 9 q-13 0 -23 -7 q-10 -7 -20 -18 l-145 -144 Z" /><glyph glyph-name="" unicode="&#xe017;" d="M97 16 l-73 0 l0 -16 l230 0 l0 16 l-73 0 l0 412 l73 0 l0 16 l-230 0 l0 -16 l73 0 l0 -412 ZM-11 486 l33 0 l117 106 l117 -106 l33 0 l-122 169 l-56 0 l-122 -169 Z" /><glyph glyph-name="" unicode="&#xe018;" d="M97 16 l-73 0 l0 -16 l230 0 l0 16 l-73 0 l0 412 l73 0 l0 16 l-230 0 l0 -16 l73 0 l0 -412 ZM233 596 q-19 -1 -32 -13 q-13 -13 -13 -32 q0 -19 13 -31 q13 -13 32 -14 q19 1 32 14 q12 12 13 31 q-1 19 -13 32 q-13 12 -32 13 l0 0 ZM45 596 q-19 -1 -32 -13 q-13 -13 -13 -32 q0 -19 13 -31 q13 -13 32 -14 q19 1 32 14 q12 12 13 31 q-1 19 -13 32 q-13 12 -32 13 l0 0 Z" /><glyph glyph-name="" unicode="&#xe011;" d="M96 16 l-72 0 l0 -16 l215 0 q142 5 192 77 q49 72 46 145 q7 25 -28 117 q-36 91 -199 105 l-226 0 l0 -16 l72 0 l0 -183 l-62 0 l0 -16 l62 0 l0 -213 ZM180 428 q66 6 131 -25 q65 -32 70 -175 q-3 -152 -62 -185 q-59 -34 -139 -27 l0 213 l97 0 l0 16 l-97 0 l0 183 Z" /><glyph glyph-name="" unicode="&#xe020;" d="M90 428 l0 -371 q1 -18 -7 -29 q-9 -12 -35 -12 l-32 0 l0 -16 l166 0 l0 16 l-34 0 q-26 0 -34 12 q-9 11 -8 29 l0 352 l2 0 l309 -409 l12 0 l0 387 q-1 18 8 29 q8 12 34 12 l32 0 l0 16 l-162 0 l0 -16 l30 0 q26 0 35 -12 q8 -11 7 -29 l0 -246 l-2 0 l-223 303 l-172 0 l0 -16 l74 0 ZM397 612 q-6 -20 -20 -34 q-14 -13 -35 -14 q-16 1 -33 8 q-16 8 -30 16 q-17 10 -35 17 q-19 7 -39 7 q-45 -1 -71 -31 q-26 -30 -37 -71 l26 0 q6 20 20 34 q14 13 35 14 q16 -1 33 -8 q16 -8 30 -16 q17 -10 36 -17 q18 -7 38 -7 q45 2 71 32 q26 30 37 70 l-26 0 Z" /><glyph glyph-name="" unicode="&#xe026;" d="M40 222 q1 -94 61 -161 q59 -66 159 -69 q100 3 159 69 q59 67 60 161 q-1 89 -57 158 q-56 68 -162 72 q-106 -4 -163 -72 q-56 -69 -57 -158 l0 0 ZM260 436 q73 -3 99 -66 q26 -64 24 -148 q2 -84 -24 -147 q-26 -64 -99 -67 q-73 3 -99 67 q-27 63 -25 147 q-2 84 25 148 q26 63 99 66 l0 0 ZM304 486 l35 0 l-145 144 q-10 11 -20 18 q-10 7 -23 7 q-11 0 -21 -9 q-10 -10 -11 -25 q0 -14 10 -24 q10 -9 30 -21 l145 -90 Z" /><glyph glyph-name="" unicode="&#xe023;" d="M40 222 q1 -94 61 -161 q59 -66 159 -69 q100 3 159 69 q59 67 60 161 q-1 89 -57 158 q-56 68 -162 72 q-106 -4 -163 -72 q-56 -69 -57 -158 l0 0 ZM260 436 q73 -3 99 -66 q26 -64 24 -148 q2 -84 -24 -147 q-26 -64 -99 -67 q-73 3 -99 67 q-27 63 -25 147 q-2 84 25 148 q26 63 99 66 l0 0 ZM181 486 l35 0 l145 90 q20 12 30 21 q10 10 10 24 q-1 15 -11 25 q-10 9 -21 9 q-13 0 -23 -7 q-10 -7 -20 -18 l-145 -144 Z" /><glyph glyph-name="" unicode="&#xe024;" d="M40 222 q1 -94 61 -161 q59 -66 159 -69 q100 3 159 69 q59 67 60 161 q-1 89 -57 158 q-56 68 -162 72 q-106 -4 -163 -72 q-56 -69 -57 -158 l0 0 ZM260 436 q73 -3 99 -66 q26 -64 24 -148 q2 -84 -24 -147 q-26 -64 -99 -67 q-73 3 -99 67 q-27 63 -25 147 q-2 84 25 148 q26 63 99 66 l0 0 ZM110 486 l33 0 l117 106 l117 -106 l33 0 l-122 169 l-56 0 l-122 -169 Z" /><glyph glyph-name="" unicode="&#xe028;" d="M40 222 q1 -94 61 -161 q59 -66 159 -69 q100 3 159 69 q59 67 60 161 q-1 89 -57 158 q-56 68 -162 72 q-106 -4 -163 -72 q-56 -69 -57 -158 l0 0 ZM260 436 q73 -3 99 -66 q26 -64 24 -148 q2 -84 -24 -147 q-26 -64 -99 -67 q-73 3 -99 67 q-27 63 -25 147 q-2 84 25 148 q26 63 99 66 l0 0 ZM397 612 q-6 -20 -20 -34 q-14 -13 -35 -14 q-16 1 -33 8 q-16 8 -30 16 q-17 10 -35 17 q-19 7 -39 7 q-45 -1 -71 -31 q-26 -30 -37 -71 l26 0 q6 20 20 34 q14 13 35 14 q16 -1 33 -8 q16 -8 30 -16 q17 -10 36 -17 q18 -7 38 -7 q45 2 71 32 q26 30 37 70 l-26 0 Z" /><glyph glyph-name="" unicode="&#xe025;" d="M40 222 q1 -94 61 -161 q59 -66 159 -69 q100 3 159 69 q59 67 60 161 q-1 89 -57 158 q-56 68 -162 72 q-106 -4 -163 -72 q-56 -69 -57 -158 l0 0 ZM260 436 q73 -3 99 -66 q26 -64 24 -148 q2 -84 -24 -147 q-26 -64 -99 -67 q-73 3 -99 67 q-27 63 -25 147 q-2 84 25 148 q26 63 99 66 l0 0 ZM354 596 q-19 -1 -32 -13 q-13 -13 -13 -32 q0 -19 13 -31 q13 -13 32 -14 q19 1 32 14 q12 12 13 31 q-1 19 -13 32 q-13 12 -32 13 l0 0 ZM166 596 q-19 -1 -32 -13 q-13 -13 -13 -32 q0 -19 13 -31 q13 -13 32 -14 q19 1 32 14 q12 12 13 31 q-1 19 -13 32 q-13 12 -32 13 l0 0 Z" /><glyph glyph-name="" unicode="&#xe022;" d="M337 16 q-14 -2 -35 -5 q-21 -3 -42 -3 q-73 3 -99 67 q-27 63 -25 147 q-2 84 25 148 q26 63 99 66 q21 0 42 -3 q21 -3 35 -5 l0 -412 ZM421 428 l95 0 q53 1 78 -22 q25 -22 28 -75 l16 0 l-12 113 l-263 0 q-16 0 -28 1 q-13 1 -25 3 q-12 2 -24 3 q-13 1 -26 1 q-106 -4 -163 -72 q-56 -69 -57 -158 q1 -94 61 -161 q59 -66 159 -69 q13 0 26 1 q12 1 24 3 q12 2 25 3 q12 1 28 1 l299 0 l0 134 l-16 0 q0 -61 -29 -89 q-29 -29 -83 -29 l-113 0 l0 203 l37 0 q47 1 61 -14 q13 -16 13 -64 l16 0 l0 172 l-16 0 q0 -48 -13 -64 q-14 -15 -61 -14 l-37 0 l0 193 Z" /><glyph glyph-name="" unicode="&#xe027;" d="M150 104 q-7 27 -11 57 q-3 30 -3 61 q-2 84 25 148 q26 63 99 66 q41 -1 67 -23 q25 -22 37 -59 l-214 -250 ZM369 340 q7 -27 11 -57 q3 -30 3 -61 q2 -84 -24 -147 q-26 -64 -99 -67 q-42 1 -67 23 q-25 22 -37 59 l213 250 ZM61 0 l11 -8 l46 54 q28 -26 64 -40 q35 -14 78 -14 q100 3 159 69 q59 67 60 161 q0 46 -17 90 q-17 44 -50 78 l46 54 l-11 8 l-45 -53 q-26 24 -62 39 q-35 14 -80 14 q-106 -4 -163 -72 q-56 -69 -57 -158 q0 -49 18 -92 q18 -44 50 -75 l-47 -55 Z" /><glyph glyph-name="" unicode="&#xe034;" d="M9 428 l79 0 l0 -297 q-6 -43 22 -89 q28 -46 155 -50 q59 -2 110 26 q51 28 54 115 l0 254 q-1 18 8 29 q8 12 34 12 l32 0 l0 16 l-177 0 l0 -16 l45 0 q26 0 35 -12 q8 -11 7 -29 l0 -261 q-2 -62 -38 -90 q-37 -28 -90 -28 q-52 0 -82 31 q-30 31 -31 99 l0 290 l80 0 l0 16 l-243 0 l0 -16 ZM304 486 l35 0 l-145 144 q-10 11 -20 18 q-10 7 -23 7 q-11 0 -21 -9 q-10 -10 -11 -25 q0 -14 10 -24 q10 -9 30 -21 l145 -90 Z" /><glyph glyph-name="" unicode="&#xe031;" d="M9 428 l79 0 l0 -297 q-6 -43 22 -89 q28 -46 155 -50 q59 -2 110 26 q51 28 54 115 l0 254 q-1 18 8 29 q8 12 34 12 l32 0 l0 16 l-177 0 l0 -16 l45 0 q26 0 35 -12 q8 -11 7 -29 l0 -261 q-2 -62 -38 -90 q-37 -28 -90 -28 q-52 0 -82 31 q-30 31 -31 99 l0 290 l80 0 l0 16 l-243 0 l0 -16 ZM206 486 l35 0 l145 90 q20 12 30 21 q10 10 10 24 q-1 15 -11 25 q-10 9 -21 9 q-13 0 -23 -7 q-10 -7 -20 -18 l-145 -144 Z" /><glyph glyph-name="" unicode="&#xe032;" d="M9 428 l79 0 l0 -297 q-6 -43 22 -89 q28 -46 155 -50 q59 -2 110 26 q51 28 54 115 l0 254 q-1 18 8 29 q8 12 34 12 l32 0 l0 16 l-177 0 l0 -16 l45 0 q26 0 35 -12 q8 -11 7 -29 l0 -261 q-2 -62 -38 -90 q-37 -28 -90 -28 q-52 0 -82 31 q-30 31 -31 99 l0 290 l80 0 l0 16 l-243 0 l0 -16 ZM110 486 l33 0 l117 106 l117 -106 l33 0 l-122 169 l-56 0 l-122 -169 Z" /><glyph glyph-name="" unicode="&#xe033;" d="M9 428 l79 0 l0 -297 q-6 -43 22 -89 q28 -46 155 -50 q59 -2 110 26 q51 28 54 115 l0 254 q-1 18 8 29 q8 12 34 12 l32 0 l0 16 l-177 0 l0 -16 l45 0 q26 0 35 -12 q8 -11 7 -29 l0 -261 q-2 -62 -38 -90 q-37 -28 -90 -28 q-52 0 -82 31 q-30 31 -31 99 l0 290 l80 0 l0 16 l-243 0 l0 -16 ZM360 596 q-19 -1 -32 -13 q-13 -13 -13 -32 q0 -19 13 -31 q13 -13 32 -14 q19 1 32 14 q12 12 13 31 q-1 19 -13 32 q-13 12 -32 13 l0 0 ZM172 596 q-19 -1 -32 -13 q-13 -13 -13 -32 q0 -19 13 -31 q13 -13 32 -14 q19 1 32 14 q12 12 13 31 q-1 19 -13 32 q-13 12 -32 13 l0 0 Z" /><glyph glyph-name="" unicode="&#xe039;" d="M184 16 l-83 0 l0 -16 l250 0 l0 16 l-83 0 l0 167 l108 204 q8 18 18 29 q10 12 27 12 l28 0 l0 16 l-126 0 l0 -16 l15 0 q19 0 25 -3 q6 -3 5 -10 q0 -9 -7 -25 l-97 -185 l-111 223 l52 0 l0 16 l-210 0 l0 -16 l56 0 l133 -251 l0 -161 ZM168 486 l35 0 l145 90 q20 12 30 21 q10 10 10 24 q-1 15 -11 25 q-10 9 -21 9 q-13 0 -23 -7 q-10 -7 -20 -18 l-145 -144 Z" /><glyph glyph-name="" unicode="&#xe02f;" d="M96 16 l-80 0 l0 -16 l247 0 l0 16 l-83 0 l0 110 q19 -7 35 -10 q15 -4 34 -4 q60 0 110 30 q50 31 53 96 q-2 68 -47 97 q-44 30 -107 29 l-78 0 l0 64 l83 0 l0 16 l-247 0 l0 -16 l80 0 l0 -412 ZM180 348 l54 0 q53 -1 71 -31 q18 -30 17 -79 q1 -44 -17 -76 q-19 -32 -65 -34 q-17 0 -31 4 q-15 5 -29 10 l0 206 Z" /><glyph glyph-name="" unicode="&#xe03a;" d="M184 16 l-83 0 l0 -16 l250 0 l0 16 l-83 0 l0 167 l108 204 q8 18 18 29 q10 12 27 12 l28 0 l0 16 l-126 0 l0 -16 l15 0 q19 0 25 -3 q6 -3 5 -10 q0 -9 -7 -25 l-97 -185 l-111 223 l52 0 l0 16 l-210 0 l0 -16 l56 0 l133 -251 l0 -161 ZM326 596 q-19 -1 -32 -13 q-13 -13 -13 -32 q0 -19 13 -31 q13 -13 32 -14 q19 1 32 14 q12 12 13 31 q-1 19 -13 32 q-13 12 -32 13 l0 0 ZM138 596 q-19 -1 -32 -13 q-13 -13 -13 -32 q0 -19 13 -31 q13 -13 32 -14 q19 1 32 14 q12 12 13 31 q-1 19 -13 32 q-13 12 -32 13 l0 0 Z" /><glyph glyph-name="" unicode="&#x3a9;" d="M693 142 l-26 2 q-15 -50 -30 -64 q-15 -15 -45 -13 l-110 0 q59 55 114 137 q54 81 58 190 q-2 147 -82 229 q-79 82 -207 83 q-126 -2 -208 -87 q-82 -85 -85 -234 q5 -121 60 -199 q56 -78 108 -119 l-105 0 q-29 -1 -46 14 q-16 15 -31 63 l-24 -2 l23 -142 l233 0 l8 19 q-43 71 -84 162 q-41 90 -44 197 q2 162 56 231 q54 69 136 67 q76 2 134 -65 q57 -68 61 -228 q-3 -111 -48 -206 q-46 -94 -82 -158 l6 -19 l235 0 l25 142 Z" /></font>
</defs>
</svg>
