<?xml version="1.0" standalone="no"?><!DOCTYPE svg PUBLIC "-//W3C//DTD SVG 1.1//EN" "http://www.w3.org/Graphics/SVG/1.1/DTD/svg11.dtd" ><svg xmlns="http://www.w3.org/2000/svg"><metadata></metadata><defs><font id="3.001;OPTM;Theinhardt-LightIta" horiz-adv-x="1346"><font-face font-family="Theinhardt Light" font-weight="350" font-stretch="normal" units-per-em="1000" panose-1="2 11 3 3 2 2 2 9 2 4" ascent="802" descent="-198" x-height="4" bbox="-151 -278 1302 919" underline-thickness="45" underline-position="-98" unicode-range="U+0020-fb02" /><missing-glyph horiz-adv-x="644" d="M50 240 l0 49 l309 309 q16 -9 26 -23 l-335 -335 ZM50 142 l0 49 l347 347 l0 -15 q0 -20 -13.5 -37.5 q-13.5 -17.5 -42 -40 q-28.5 -22.5 -36.5 -30.5 q-23 -22 -36 -54 l-219 -219 ZM104 0 l-49 0 l261 261 l49 0 l-93 -93 l-23 0 l0 -23 l-145 -145 ZM321 168 l273 273 l0 -49 l-224 -224 l-49 0 ZM50 338 l0 49 l148 148 l39 -2 q0 29 20 52 q20 23 55 23 l8 0 l-270 -270 ZM398 0 l-49 0 l33 33 l2 0 l0 2 l210 210 l0 -49 l-196 -196 ZM384 133 l210 210 l0 -49 l-210 -210 l0 49 ZM50 44 l0 49 l206 206 l0 -38 l11 0 l-217 -217 ZM50 583 l196 196 l49 0 l-44 -44 q-53 -14 -92.5 -53.5 q-39.5 -39.5 -54.5 -93.5 l-54 -54 l0 49 ZM537 482 l57 57 l0 -49 l-216 -216 l0 7 q0 15 6.5 27.5 q6.5 12.5 11 17.5 q4.5 5 25.5 20 q21 15 27 20 q2 1 15.5 11 q13.5 10 21.5 17.5 q8 7.5 20 20.5 q12 13 20 30 q8 17 12 37 ZM50 681 l98 98 l49 0 l-147 -147 l0 49 ZM496 0 l-49 0 l147 147 l0 -49 l-98 -98 ZM459 698 l81 81 l49 0 l-104 -104 q-12 13 -26 23 ZM50 436 l0 49 l56 56 l46 -3 l-102 -102 ZM506 647 l88 88 l0 -49 l-70 -70 q-7 15 -18 31 ZM202 0 l-49 0 l96 96 l0 -49 l-47 -47 ZM395 732 l47 47 l49 0 l-62 -62 q-17 9 -34 15 ZM536 579 l58 58 l0 -49 l-52 -52 q0 15 -6 43 ZM307 742 l37 37 l49 0 l-38 -38 q-18 2 -28 2 l-20 -1 ZM300 0 l-49 0 l33 33 l49 0 l-33 -33 ZM594 49 l0 -49 l-49 0 l49 49 ZM50 779 l49 0 l-49 -49 l0 49 Z" /><glyph glyph-name="space" unicode=" " d="" /><glyph glyph-name="exclam" unicode="!" d="M156 356 l-48 -180 l-45 0 l29 180 l69 324 l64 0 l-69 -324 ZM34 114 l76 0 l-24 -114 l-76 0 l24 114 Z" /><glyph glyph-name="quotedbl" unicode="&quot;" d="M193 614 l-64 -206 l-30 0 l24 206 l14 66 l70 0 l-14 -66 ZM317 614 l-64 -206 l-30 0 l24 206 l14 66 l70 0 l-14 -66 Z" /><glyph glyph-name="numbersign" unicode="#" d="M666 472 l-4 -55 l-176 0 l-39 -170 l183 0 l-5 -54 l-194 0 l-44 -193 l-59 0 l45 193 l-128 0 l-44 -193 l-59 0 l45 193 l-151 0 l5 54 l161 0 l39 170 l-169 0 l4 55 l178 0 l50 208 l59 0 l-50 -208 l127 0 l50 208 l59 0 l-50 -208 l167 0 ZM299 417 l-38 -170 l127 0 l39 170 l-128 0 Z" /><glyph glyph-name="dollar" unicode="$" d="M24 172 l53 34 q11 -50 43 -89.5 q32 -39.5 85 -56.5 l58 271 l-32 12 q-32 11 -51.5 21 q-19.5 10 -42.5 28 q-23 18 -34.5 46 q-11.5 28 -11.5 67 q0 79 61.5 128 q61.5 49 162.5 49 q15 0 22 -1 l17 77 l57 0 l-18 -86 q58 -14 98.5 -47 q40.5 -33 60.5 -74 l-49 -37 q-35 80 -121 106 l-53 -249 l40 -14 q34 -13 57 -25 q23 -12 46.5 -31 q23.5 -19 35.5 -46.5 q12 -27.5 12 -63.5 q0 -94 -67.5 -143.5 q-67.5 -49.5 -173.5 -49.5 q-5 0 -15 0.5 q-10 0.5 -14 0.5 l-20 -94 l-58 0 l22 103 q-65 18 -108.5 60.5 q-43.5 42.5 -61.5 103.5 ZM323 309 l-7 2 l-56 -262 l20 0 q86 0 131 35.5 q45 35.5 45 98.5 q0 27 -9 47 q-9 20 -30 34.5 q-21 14.5 -40.5 23.5 q-19.5 9 -53.5 21 ZM154 513 q0 -51 29.5 -75.5 q29.5 -24.5 92.5 -46.5 l50 238 q-5 1 -14 1 q-71 0 -114.5 -30.5 q-43.5 -30.5 -43.5 -86.5 Z" /><glyph glyph-name="percent" unicode="%" d="M769 424 q23 0 44 -7 q21 -7 42 -23.5 q21 -16.5 33.5 -48.5 q12.5 -32 12.5 -77 q0 -67 -21.5 -130 q-21.5 -63 -67 -106.5 q-45.5 -43.5 -103.5 -43.5 q-66 0 -100.5 43.5 q-34.5 43.5 -34.5 118.5 q0 106 54 190 q54 84 141 84 ZM626 155 q0 -62 24 -91 q24 -29 62 -29 q60 0 98.5 69.5 q38.5 69.5 39.5 154.5 q0 55 -21.5 86 q-21.5 31 -62.5 31 q-66 0 -103 -69.5 q-37 -69.5 -37 -151.5 ZM274 0 l-55 0 l454 680 l55 0 l-454 -680 ZM264 692 q23 0 44 -7 q21 -7 42 -23.5 q21 -16.5 33.5 -48.5 q12.5 -32 12.5 -77 q0 -67 -21.5 -130 q-21.5 -63 -67 -106.5 q-45.5 -43.5 -103.5 -43.5 q-66 0 -100.5 43.5 q-34.5 43.5 -34.5 118.5 q0 106 54 190 q54 84 141 84 ZM121 423 q0 -62 24 -91 q24 -29 62 -29 q60 0 98.5 69.5 q38.5 69.5 39.5 154.5 q0 55 -21.5 86 q-21.5 31 -62.5 31 q-66 0 -103 -69.5 q-37 -69.5 -37 -151.5 Z" /><glyph glyph-name="ampersand" unicode="&amp;" d="M564 0 l-76 0 q-51 63 -66 84 q-93 -96 -212 -96 q-82 0 -133.5 48 q-51.5 48 -51.5 125 q0 81 52.5 129.5 q52.5 48.5 160.5 93.5 q-40 82 -40 147 q0 67 43 114 q43 47 117 47 q66 0 101.5 -36.5 q35.5 -36.5 35.5 -88.5 q0 -64 -44 -113 q-44 -49 -141 -92 q39 -76 119 -188 q40 60 76 152 l48 -36 q-42 -96 -91 -161 q48 -66 102 -129 ZM219 42 q96 0 172 86 q-86 120 -134 212 q-81 -35 -125.5 -73 q-44.5 -38 -44.5 -98 q0 -58 35 -92.5 q35 -34.5 97 -34.5 ZM255 535 q0 -53 35 -130 q149 66 149 157 q0 39 -24.5 60 q-24.5 21 -59.5 21 q-46 0 -73 -30.5 q-27 -30.5 -27 -77.5 Z" /><glyph glyph-name="quotesingle" unicode="&#39;" d="M196 614 l-66 -206 l-30 0 l22 206 l14 66 l74 0 l-14 -66 Z" /><glyph glyph-name="parenleft" unicode="(" d="M133 -160 l-49 -4 q-55 157 -55 300 q0 291 224 546 l52 -5 q-111 -136 -164 -267.5 q-53 -131.5 -53 -277.5 q0 -135 45 -292 Z" /><glyph glyph-name="parenright" unicode=")" d="M100 678 l48 4 q56 -160 56 -300 q0 -291 -224 -546 l-51 5 q111 136 163.5 267.5 q52.5 131.5 52.5 277.5 q0 134 -45 292 Z" /><glyph glyph-name="asterisk" unicode="*" d="M324 674 l-33 -146 l151 18 l3 -45 l-150 -14 l64 -141 l-43 -20 l-61 140 l-113 -103 l-30 36 l116 100 l-135 75 l25 41 l129 -78 l30 147 l47 -10 Z" /><glyph glyph-name="plus" unicode="+" d="M361 269 l0 -269 l-57 0 l0 269 l-265 0 l0 56 l265 0 l0 268 l57 0 l0 -268 l264 0 l0 -56 l-264 0 Z" /><glyph glyph-name="comma" unicode="," d="M-35 -141 l7 35 q32 8 44.5 27 q12.5 19 21.5 58 l5 21 l-42 0 l25 114 l78 0 l-34 -152 q-11 -49 -34.5 -72 q-23.5 -23 -70.5 -31 Z" /><glyph glyph-name="hyphen" unicode="-" d="M346 298 l-13 -63 l-277 0 l13 63 l277 0 Z" /><glyph glyph-name="period" unicode="." d="M26 114 l78 0 l-25 -114 l-78 0 l25 114 Z" /><glyph glyph-name="slash" unicode="/" d="M340 679 l62 0 l-358 -679 l-63 0 l359 679 Z" /><glyph glyph-name="zero" unicode="0" d="M359 692 q35 0 68.5 -12 q33.5 -12 66 -38 q32.5 -26 52.5 -78.5 q20 -52.5 20 -123.5 q0 -110 -34 -211 q-34 -101 -106.5 -171 q-72.5 -70 -167.5 -70 q-103 0 -156 69 q-53 69 -53 189 q0 110 35 210 q35 100 107.5 168 q72.5 68 167.5 68 ZM110 252 q1 -109 43 -159 q42 -50 110 -50 q71 0 127.5 59.5 q56.5 59.5 84.5 146.5 q28 87 29 180 q0 95 -38.5 151.5 q-38.5 56.5 -111.5 56.5 q-59 0 -107.5 -37 q-48.5 -37 -77 -95 q-28.5 -58 -44 -123.5 q-15.5 -65.5 -15.5 -129.5 Z" /><glyph glyph-name="one" unicode="1" d="M321 0 l-62 0 l111 516 q-58 -34 -151 -34 q-22 0 -34 1 l11 52 l16 0 q76 0 122 29 q57 36 77 116 l55 0 l-145 -680 Z" /><glyph glyph-name="two" unicode="2" d="M182 401 l-65 15 q-6 27 -6 55 q0 93 63.5 157 q63.5 64 168.5 64 q97 0 154 -53 q57 -53 57 -136 q0 -34 -9 -66 q-9 -32 -20 -56.5 q-11 -24.5 -35.5 -53 q-24.5 -28.5 -40.5 -45.5 q-16 -17 -50 -43.5 q-34 -26.5 -50 -38 q-16 -11.5 -54 -38.5 q-89 -62 -180 -110 l0 -1 q65 4 139 4 l230 0 l-11 -55 l-456 0 l9 52 q139 80 275 181 q43 32 69.5 55 q26.5 23 57 57.5 q30.5 34.5 45.5 72 q15 37.5 15 80.5 q0 64 -39.5 101.5 q-39.5 37.5 -109.5 37.5 q-82 0 -124 -48.5 q-42 -48.5 -42 -121.5 q0 -33 9 -66 Z" /><glyph glyph-name="three" unicode="3" d="M167 495 l-56 18 q4 67 64 123 q60 56 159 56 q98 0 150.5 -48.5 q52.5 -48.5 52.5 -116.5 q0 -64 -44 -112.5 q-44 -48.5 -121 -56.5 l0 -1 q63 -14 98.5 -59.5 q35.5 -45.5 35.5 -104.5 q0 -82 -63.5 -143.5 q-63.5 -61.5 -176.5 -61.5 q-105 0 -163.5 50 q-58.5 50 -66.5 139 l60 21 q6 -70 48 -112.5 q42 -42.5 120 -42.5 q76 0 127 38.5 q51 38.5 51 114.5 q0 90 -89 123 q-44 16 -117 16 l-55 0 l11 51 l73 0 q92 0 136 22 q71 35 71 114 q0 51 -38.5 83 q-38.5 32 -102.5 32 q-75 0 -116.5 -41.5 q-41.5 -41.5 -47.5 -100.5 Z" /><glyph glyph-name="four" unicode="4" d="M402 182 l-39 -182 l-60 0 l40 182 l-327 0 l9 42 l430 460 l55 0 l-96 -448 l124 0 l-11 -54 l-125 0 ZM106 236 l249 0 l47 225 q5 24 11.5 51 q6.5 27 13.5 54 q7 27 9 35 l-1 0 q-42 -59 -113 -136 l-216 -229 Z" /><glyph glyph-name="five" unicode="5" d="M48 152 l58 25 q10 -59 53.5 -97.5 q43.5 -38.5 108.5 -38.5 q77 0 131.5 55.5 q54.5 55.5 54.5 154.5 q0 76 -42 115.5 q-42 39.5 -105 39.5 q-57 0 -104 -33 q-47 -33 -63 -95 l-59 19 l96 383 l369 0 l-13 -55 l-313 0 l-36 -140 l-28 -102 l2 -1 q25 38 70 58.5 q45 20.5 94 20.5 q83 0 140 -54 q57 -54 57 -152 q0 -124 -74.5 -195.5 q-74.5 -71.5 -175.5 -71.5 q-83 0 -142.5 42 q-59.5 42 -78.5 122 Z" /><glyph glyph-name="six" unicode="6" d="M570 537 l-53 -34 q-8 55 -47 94 q-39 39 -100 39 q-56 0 -106.5 -35.5 q-50.5 -35.5 -82.5 -105.5 q-25 -51 -42 -125 l1 0 q66 82 181 82 q99 0 152 -60.5 q53 -60.5 53 -147.5 q0 -101 -67 -178.5 q-67 -77.5 -180 -77.5 q-98 0 -155.5 65 q-57.5 65 -57.5 185 q0 191 84 322.5 q84 131.5 223 131.5 q77 0 129 -42.5 q52 -42.5 68 -112.5 ZM128 294 q-2 -32 -2 -48 q0 -94 41 -148 q41 -54 117 -54 q82 0 130.5 59 q48.5 59 48.5 137 q0 66 -40.5 112 q-40.5 46 -116.5 46 q-56 0 -104 -29.5 q-48 -29.5 -74 -74.5 Z" /><glyph glyph-name="seven" unicode="7" d="M616 680 l-11 -48 q-278 -311 -370 -632 l-66 0 q71 255 290 535 q48 60 75 90 l0 1 q-22 -1 -109 -1 l-218 0 l-32 -153 l-59 0 l44 208 l456 0 Z" /><glyph glyph-name="eight" unicode="8" d="M219 372 q-100 33 -100 141 q0 73 61.5 126 q61.5 53 160.5 53 q97 0 153.5 -43.5 q56.5 -43.5 56.5 -116.5 q0 -68 -41 -113.5 q-41 -45.5 -115 -59.5 q121 -41 121 -166 q0 -91 -66 -148 q-66 -57 -185 -57 q-110 0 -169.5 50 q-59.5 50 -59.5 134 q0 75 47 129 q47 54 136 71 ZM146.5 292 q-47.5 -45 -47.5 -109 q0 -64 44.5 -102 q44.5 -38 122.5 -38 q86 0 136 40.5 q50 40.5 50 112.5 q0 65 -45.5 103 q-45.5 38 -123.5 38 q-89 0 -136.5 -45 ZM223 601.5 q-42 -36.5 -42 -89.5 q0 -53 36.5 -86.5 q36.5 -33.5 108.5 -33.5 q77 0 118.5 36.5 q41.5 36.5 41.5 97.5 q0 50 -39 81.5 q-39 31.5 -106 31.5 q-76 -1 -118 -37.5 Z" /><glyph glyph-name="nine" unicode="9" d="M44 143 l53 34 q8 -55 46.5 -93.5 q38.5 -38.5 100.5 -38.5 q56 0 106.5 35 q50.5 35 82.5 105 q25 51 42 125 l-1 0 q-66 -82 -181 -82 q-99 0 -152 60.5 q-53 60.5 -53 147.5 q0 101 67 178.5 q67 77.5 180 77.5 q98 0 155.5 -65 q57.5 -65 57.5 -185 q0 -191 -84 -322.5 q-84 -131.5 -223 -131.5 q-77 0 -129 42.5 q-52 42.5 -68 112.5 ZM486 387 q2 32 2 48 q0 94 -41 148 q-41 54 -117 54 q-82 0 -130.5 -59 q-48.5 -59 -48.5 -137 q0 -66 40.5 -112 q40.5 -46 116.5 -46 q56 0 104 29.5 q48 29.5 74 74.5 Z" /><glyph glyph-name="colon" unicode=":" d="M33 114 l78 0 l-24 -114 l-78 0 l24 114 ZM110 476 l78 0 l-24 -114 l-78 0 l24 114 Z" /><glyph glyph-name="semicolon" unicode=";" d="M111 476 l78 0 l-24 -114 l-78 0 l24 114 ZM-27 -141 l7 35 q32 8 44.5 27 q12.5 19 21.5 58 l5 21 l-42 0 l25 114 l78 0 l-34 -152 q-11 -49 -34.5 -72 q-23.5 -23 -70.5 -31 Z" /><glyph glyph-name="less" unicode="&lt;" d="M726 47 l0 -63 l-677 319 l0 66 l677 317 l0 -63 l-613 -286 l613 -290 Z" /><glyph glyph-name="equal" unicode="=" d="M767 231 l0 -56 l-673 0 l0 56 l673 0 ZM767 406 l0 -57 l-673 0 l0 57 l673 0 Z" /><glyph glyph-name="greater" unicode="&gt;" d="M110 -16 l0 63 l613 290 l-613 286 l0 63 l677 -317 l0 -66 l-677 -319 Z" /><glyph glyph-name="question" unicode="?" d="M382 349 l-88 -67 q-38 -29 -49.5 -48.5 q-11.5 -19.5 -19.5 -55.5 q-1 -4 -2.5 -14.5 q-1.5 -10.5 -2.5 -14.5 l-60 0 q11 69 29.5 102 q18.5 33 72.5 73 l77 57 q23 18 37 33 q43 49 43 106 q0 49 -34 83 q-34 34 -97 34 q-70 0 -110 -46 q-40 -46 -40 -112 q0 -35 13 -72 l-62 22 q-8 34 -8 62 q0 82 60.5 139.5 q60.5 57.5 155.5 57.5 q86 0 134 -46.5 q48 -46.5 48 -116.5 q0 -64 -36 -115 q-21 -31 -61 -61 ZM146 102 l74 0 l-22 -102 l-74 0 l22 102 Z" /><glyph glyph-name="at" unicode="@" d="M475 163 l18 84 q-9 -6 -68 -17 l-43 -8 q-59 -10 -91.5 -29 q-32.5 -19 -32.5 -62 q0 -72 85 -72 q47 0 84 26 q37 26 48 78 ZM537 63 q67 0 114.5 77 q47.5 77 47.5 173 q0 105 -63 179 q-63 74 -189 74 q-84 0 -154 -35.5 q-70 -35.5 -115 -93 q-45 -57.5 -69.5 -127 q-24.5 -69.5 -24.5 -140.5 q0 -122 72.5 -205.5 q72.5 -83.5 210.5 -83.5 q82 0 162 35.5 q80 35.5 136 99.5 l10 -50 q-58 -63 -140.5 -97.5 q-82.5 -34.5 -168.5 -34.5 q-83 0 -149 27 q-66 27 -106 73.5 q-40 46.5 -61 105 q-21 58.5 -21 125.5 q0 63 18 126.5 q18 63.5 54 121 q36 57.5 85.5 102 q49.5 44.5 118.5 71 q69 26.5 147 26.5 q147 0 223 -86 q76 -86 76 -207 q0 -116 -63.5 -208 q-63.5 -92 -156.5 -92 q-68 0 -68 47 q0 8 1 13 l-1 1 q-38 -65 -133 -65 q-55 0 -89 29.5 q-34 29.5 -34 81.5 q0 62 42.5 92 q42.5 30 128.5 45 l96 17 q17 3 24 9 q7 6 9 19 q5 20 5 33 q0 66 -93 66 q-56 0 -85.5 -26 q-29.5 -26 -35.5 -69 l-47 11 q8 65 57 96 q49 31 117 31 q135 0 135 -103 q0 -24 -6 -48 l-40 -186 q-3 -18 -3 -26 q0 -24 26 -24 Z" /><glyph glyph-name="A" unicode="a" d="M140 205 l-120 -205 l-69 0 l403 680 l64 0 l115 -680 l-65 0 l-33 205 l-295 0 ZM426 260 l-40 255 q-6 37 -14 95 l-1 0 q-31 -60 -45 -84 l-155 -266 l255 0 Z" /><glyph glyph-name="B" unicode="b" d="M322 0 l-299 0 l145 680 l253 0 q95 0 142 -26 q33 -18 50 -51.5 q17 -33.5 17 -72.5 q0 -67 -36.5 -117 q-36.5 -50 -106.5 -60 q52 -12 79.5 -49.5 q27.5 -37.5 27.5 -91.5 q0 -55 -29.5 -107 q-29.5 -52 -77.5 -77 q-56 -28 -165 -28 ZM366 325 l-211 0 l-57 -269 l230 0 q97 0 140 29 q63 43 63 130 q0 75 -67 100 q-28 10 -98 10 ZM167 379 l216 0 q88 0 128 27 q57 39 57 121 q0 48 -34 74 q-30 23 -117 23 l-198 0 l-52 -245 Z" /><glyph glyph-name="C" unicode="c" d="M629 522 l-57 -36 q-32 150 -182 150 q-86 0 -149.5 -58 q-63.5 -58 -92 -138.5 q-28.5 -80.5 -28.5 -165.5 q0 -107 48 -168.5 q48 -61.5 143 -61.5 q72 0 128 41 q56 41 92 110 l48 -36 q-96 -171 -277 -171 q-120 0 -183 73 q-63 73 -63 209 q0 108 39.5 203 q39.5 95 118.5 157 q79 62 182 62 q89 0 149.5 -44 q60.5 -44 83.5 -126 Z" /><glyph glyph-name="D" unicode="d" d="M231 0 l-208 0 l145 680 l151 0 q158 0 243 -57 q85 -57 85 -194 q0 -117 -47 -223 q-47 -106 -133 -157 q-53 -31 -102.5 -40 q-49.5 -9 -133.5 -9 ZM219 625 l-121 -570 l138 0 q135 0 204 46 q70 47 106.5 143 q36.5 96 36.5 185 q0 106 -75 157 q-27 18 -64 27 q-37 9 -65.5 10.5 q-28.5 1.5 -78.5 1.5 l-81 0 Z" /><glyph glyph-name="E" unicode="e" d="M501 55 l-12 -55 l-466 0 l145 680 l446 0 l-12 -55 l-383 0 l-53 -247 l347 0 l-11 -55 l-347 0 l-58 -268 l404 0 Z" /><glyph glyph-name="F" unicode="f" d="M86 0 l-63 0 l145 680 l433 0 l-12 -55 l-370 0 l-53 -247 l337 0 l-12 -56 l-336 0 l-69 -322 Z" /><glyph glyph-name="G" unicode="g" d="M311 44 q102 0 168 70 q54 58 78 168 l1 6 l-243 0 l12 56 l297 0 l-73 -344 l-58 0 l22 97 l-1 1 q-73 -110 -214 -110 q-118 0 -181 73.5 q-63 73.5 -63 208.5 q0 108 39.5 203 q39.5 95 118.5 157 q79 62 182 62 q89 0 149.5 -44 q60.5 -44 83.5 -126 l-57 -36 q-32 150 -182 150 q-86 0 -149.5 -58 q-63.5 -58 -92 -138.5 q-28.5 -80.5 -28.5 -165.5 q0 -107 48 -168.5 q48 -61.5 143 -61.5 Z" /><glyph glyph-name="H" unicode="h" d="M694 680 l-144 -680 l-63 0 l69 322 l-401 0 l-69 -322 l-63 0 l145 680 l63 0 l-64 -301 l401 0 l64 301 l62 0 Z" /><glyph glyph-name="I" unicode="i" d="M168 680 l63 0 l-145 -680 l-63 0 l145 680 Z" /><glyph glyph-name="J" unicode="j" d="M428 680 l62 0 l-96 -454 q-21 -101 -48 -149 q-53 -92 -177 -92 q-87 0 -133.5 41 q-46.5 41 -46.5 120 q0 14 2 34 l65 25 q-5 -28 -5 -47 q0 -55 30 -87.5 q30 -32.5 91 -32.5 q89 0 127 82 q17 36 30 100 l99 460 Z" /><glyph glyph-name="K" unicode="k" d="M367 406 l195 -406 l-73 0 l-173 366 l-182 -155 l-45 -211 l-65 0 l144 680 l66 0 l-83 -384 l451 384 l92 0 l-327 -274 Z" /><glyph glyph-name="L" unicode="l" d="M471 55 l-12 -55 l-436 0 l145 680 l62 0 l-133 -625 l374 0 Z" /><glyph glyph-name="M" unicode="m" d="M652 0 l-62 0 l88 416 q22 102 47 181 l-1 0 q-41 -79 -84 -149 l-276 -448 l-44 0 l-96 440 q-16 74 -23 151 l-1 0 q-8 -82 -25 -166 l-90 -425 l-62 0 l145 680 l67 0 l104 -486 q11 -48 20 -104 l1 0 q15 31 62 109 l296 481 l79 0 l-145 -680 Z" /><glyph glyph-name="N" unicode="n" d="M563 0 l-69 0 l-244 511 q-27 56 -38 91 l-1 0 q-4 -35 -17 -97 l-108 -505 l-63 0 l145 680 l69 0 l246 -511 q15 -31 37 -83 l1 0 q6 37 17 90 l107 504 l63 0 l-145 -680 Z" /><glyph glyph-name="O" unicode="o" d="M401 692 q113 0 180 -71.5 q67 -71.5 67 -198.5 q0 -81 -22 -157 q-22 -76 -63.5 -138.5 q-41.5 -62.5 -109.5 -100.5 q-68 -38 -152 -38 q-120 0 -183 74 q-63 74 -63 208 q0 108 40 203 q40 95 120.5 157 q80.5 62 185.5 62 ZM310 44 q65 0 119 35 q54 35 86.5 90 q32.5 55 50 118 q17.5 63 17.5 125 q0 104 -49 164 q-49 60 -142 60 q-64 0 -117 -33.5 q-53 -33.5 -86 -87 q-33 -53.5 -51 -116.5 q-18 -63 -18 -125 q0 -107 47.5 -168.5 q47.5 -61.5 142.5 -61.5 Z" /><glyph glyph-name="P" unicode="p" d="M161 356 l202 0 q99 0 141 29 q63 43 63 134 q0 71 -68 95 q-32 11 -98 11 l-183 0 l-57 -269 ZM357 300 l-208 0 l-64 -300 l-62 0 l145 680 l237 0 q101 0 151 -28 q72 -40 72 -128 q0 -65 -27.5 -116 q-27.5 -51 -77.5 -79 q-55 -29 -166 -29 Z" /><glyph glyph-name="Q" unicode="q" d="M401 692 q113 0 180 -71.5 q67 -71.5 67 -198.5 q0 -90 -27 -175.5 q-27 -85.5 -79 -147.5 l63 -81 l-51 -39 l-58 76 q-81 -67 -195 -67 q-120 0 -183 74 q-63 74 -63 208 q0 108 40 203 q40 95 120.5 157 q80.5 62 185.5 62 ZM310 44 q65 0 119 35 q54 35 86.5 90 q32.5 55 50 118 q17.5 63 17.5 125 q0 104 -49 164 q-49 60 -142 60 q-64 0 -117 -33.5 q-53 -33.5 -86 -87 q-33 -53.5 -51 -116.5 q-18 -63 -18 -125 q0 -107 47.5 -168.5 q47.5 -61.5 142.5 -61.5 Z" /><glyph glyph-name="R" unicode="r" d="M364 300 l-215 0 l-64 -300 l-62 0 l145 680 l237 0 q101 0 151 -28 q72 -40 72 -128 q0 -65 -27.5 -116 q-27.5 -51 -77.5 -79 q-38 -21 -96 -26 l119 -303 l-68 0 l-114 300 ZM161 356 l202 0 q99 0 141 29 q63 43 63 134 q0 71 -68 95 q-32 11 -98 11 l-183 0 l-57 -269 Z" /><glyph glyph-name="S" unicode="s" d="M560 566 l-50 -38 q-24 49 -73 78.5 q-49 29.5 -119 29.5 q-72 0 -117.5 -30.5 q-45.5 -30.5 -45.5 -87.5 q0 -52 30.5 -77.5 q30.5 -25.5 95.5 -48.5 l95 -35 q74 -27 115 -63.5 q41 -36.5 41 -106.5 q0 -97 -69.5 -148 q-69.5 -51 -178.5 -51 q-103 0 -171 48.5 q-68 48.5 -92 130.5 l55 35 q14 -67 67 -113 q53 -46 142 -46 q86 0 133.5 36 q47.5 36 47.5 99 q0 53 -33 78.5 q-33 25.5 -104 51.5 l-95 35 q-26 9 -42 16 q-16 7 -38 21.5 q-22 14.5 -34 30.5 q-12 16 -21 41.5 q-9 25.5 -9 57.5 q0 81 63.5 131.5 q63.5 50.5 167.5 50.5 q88 0 148.5 -36 q60.5 -36 90.5 -90 Z" /><glyph glyph-name="T" unicode="t" d="M86 625 l12 55 l500 0 l-12 -55 l-219 0 l-133 -625 l-62 0 l133 625 l-219 0 Z" /><glyph glyph-name="U" unicode="u" d="M291 -13 q-112 0 -170 52 q-58 52 -58 145 q0 31 12 91 l87 405 l62 0 l-85 -401 q-13 -61 -13 -90 q0 -146 172 -146 q96 0 149 49 q49 46 74 155 l92 433 l62 0 l-90 -425 q-32 -146 -94 -204 q-67 -64 -200 -64 Z" /><glyph glyph-name="V" unicode="v" d="M262 0 l-77 0 l-90 680 l65 0 l68 -522 q2 -17 5.5 -44 q3.5 -27 5.5 -41 l1 0 q19 39 45 84 l297 523 l69 0 l-389 -680 Z" /><glyph glyph-name="W" unicode="w" d="M606 0 l-58 0 l-35 406 q-12 134 -12 170 l-1 0 q-21 -55 -82 -172 l-205 -404 l-57 0 l-55 680 l62 0 l34 -403 q12 -147 12 -167 l1 0 q19 49 80 167 l202 403 l59 0 l37 -403 q12 -147 12 -168 l1 0 q13 35 79 166 l200 405 l66 0 l-340 -680 Z" /><glyph glyph-name="X" unicode="x" d="M532 0 l-70 0 l-157 312 l-288 -312 l-79 0 l339 365 l-160 315 l69 0 l137 -275 l251 275 l77 0 l-302 -322 l183 -358 Z" /><glyph glyph-name="Y" unicode="y" d="M250 0 l-63 0 l60 280 l-161 400 l67 0 l138 -338 l283 338 l76 0 l-340 -400 l-60 -280 Z" /><glyph glyph-name="Z" unicode="z" d="M484 55 l-12 -55 l-511 0 l9 41 l537 584 l-391 0 l12 55 l480 0 l-10 -45 l-532 -580 l418 0 Z" /><glyph glyph-name="bracketleft" unicode="[" d="M159 -110 l-11 -48 l-167 0 l178 838 l168 0 l-10 -48 l-109 0 l-158 -742 l109 0 Z" /><glyph glyph-name="backslash" unicode="\" d="M296 0 l-59 0 l-125 680 l59 0 l125 -680 Z" /><glyph glyph-name="bracketright" unicode="]" d="M102 632 l11 48 l167 0 l-178 -838 l-168 0 l10 48 l109 0 l158 742 l-109 0 Z" /><glyph glyph-name="asciicircum" unicode="^" d="M352 700 l96 -358 l-63 0 l-72 289 l-1 0 l-200 -289 l-70 0 l256 358 l54 0 Z" /><glyph glyph-name="underscore" unicode="_" d="M548 -92 l-11 -56 l-525 0 l10 56 l526 0 Z" /><glyph glyph-name="grave" unicode="`" d="M202 680 l94 0 l94 -128 l-56 0 l-132 128 Z" /><glyph glyph-name="a" unicode="a" d="M320 158 l21 96 q-10 -6 -78 -19 l-50 -9 q-68 -12 -105 -34 q-37 -22 -37 -71 q0 -83 97 -83 q55 0 97 29.5 q42 29.5 55 90.5 ZM117 329 l-54 13 q8 74 64.5 109.5 q56.5 35.5 134.5 35.5 q156 0 156 -118 q0 -23 -7 -55 l-46 -216 q-4 -19 -4 -30 q0 -28 30 -28 q22 0 38 10 l-10 -47 q-18 -10 -49 -10 q-65 0 -65 51 q0 10 3 22 l-1 1 q-45 -79 -154 -79 q-63 0 -102 33.5 q-39 33.5 -39 93.5 q0 72 49 107 q49 35 147 51 l111 19 q20 4 27.5 10.5 q7.5 6.5 10.5 21.5 q5 23 5 38 q0 76 -107 76 q-64 0 -98 -30 q-34 -30 -40 -79 Z" /><glyph glyph-name="b" unicode="b" d="M154 680 l58 0 l-37 -171 l-24 -111 l1 0 q22 39 64.5 64 q42.5 25 93.5 25 q79 0 125.5 -50.5 q46.5 -50.5 46.5 -140.5 q0 -126 -68 -217 q-68 -91 -178 -91 q-65 0 -102 32.5 q-37 32.5 -46 79.5 l-21 -100 l-59 0 l146 680 ZM293 436 q-58 0 -101.5 -41 q-43.5 -41 -62 -96 q-18.5 -55 -18.5 -112 q0 -69 32 -108.5 q32 -39.5 95 -39.5 q56 0 99.5 39 q43.5 39 64 94 q20.5 55 20.5 112 q0 71 -32 111.5 q-32 40.5 -97 40.5 Z" /><glyph glyph-name="c" unicode="c" d="M455 351 l-53 -28 q-27 113 -130 113 q-57 0 -100 -39 q-43 -39 -62.5 -93 q-19.5 -54 -19.5 -111 q0 -72 32.5 -112.5 q32.5 -40.5 95.5 -40.5 q102 0 157 111 l46 -31 q-70 -132 -207 -132 q-90 0 -137 52.5 q-47 52.5 -47 144.5 q0 122 67.5 212 q67.5 90 180.5 90 q69 0 115.5 -36.5 q46.5 -36.5 61.5 -99.5 Z" /><glyph glyph-name="d" unicode="d" d="M488 680 l59 0 l-145 -680 l-59 0 l18 78 l-1 0 q-22 -39 -65 -64.5 q-43 -25.5 -94 -25.5 q-79 0 -125.5 50.5 q-46.5 50.5 -46.5 140.5 q0 126 68 217 q68 91 178 91 q65 0 102 -32.5 q37 -32.5 46 -79.5 l65 305 ZM218 39 q58 0 101.5 41 q43.5 41 62 96 q18.5 55 18.5 112 q0 69 -32 108.5 q-32 39.5 -95 39.5 q-56 0 -99.5 -39 q-43.5 -39 -64 -94 q-20.5 -55 -20.5 -112 q0 -71 32 -111.5 q32 -40.5 97 -40.5 Z" /><glyph glyph-name="e" unicode="e" d="M446 234 l-353 0 q-3 -21 -3 -43 q0 -66 32 -108.5 q32 -42.5 102 -42.5 q104 0 167 110 l45 -31 q-73 -131 -217 -131 q-93 0 -141 52.5 q-48 52.5 -48 153.5 q0 119 71.5 206 q71.5 87 179.5 87 q87 0 130 -52 q43 -52 43 -132 q0 -35 -8 -69 ZM275 437 q-63 0 -109 -47 q-46 -47 -62 -108 l287 0 q2 18 2 29 q0 54 -28 90 q-28 36 -90 36 Z" /><glyph glyph-name="f" unicode="f" d="M332 476 l-10 -49 l-108 0 l-91 -427 l-59 0 l91 427 l-108 0 l10 49 l108 0 l23 109 q12 55 39 79 q31 28 83 28 q35 0 66 -11 l-12 -54 q-30 12 -54 12 q-28 0 -42.5 -14 q-14.5 -14 -21.5 -47 l-22 -102 l108 0 Z" /><glyph glyph-name="g" unicode="g" d="M220 46 q58 0 101 39.5 q43 39.5 61.5 92.5 q18.5 53 18.5 110 q0 69 -32 108.5 q-32 39.5 -95 39.5 q-83 0 -133 -73 q-50 -73 -50 -163 q0 -71 32.5 -112.5 q32.5 -41.5 96.5 -41.5 ZM364 85 l-1 0 q-22 -39 -65.5 -64.5 q-43.5 -25.5 -94.5 -25.5 q-79 0 -125.5 51.5 q-46.5 51.5 -46.5 141.5 q0 123 67.5 211 q67.5 88 174.5 88 q65 0 104 -33 q39 -33 47 -79 l21 101 l59 0 l-92 -439 q-26 -123 -69 -173 q-54 -62 -167 -62 q-93 0 -136.5 42 q-43.5 42 -43.5 101 q0 13 1 20 l58 18 q-1 -8 -1 -22 q0 -109 126 -109 q37 0 64.5 10.5 q27.5 10.5 44 24.5 q16.5 14 30 42 q13.5 28 19.5 49 q6 21 15 59 l11 48 Z" /><glyph glyph-name="h" unicode="h" d="M153 680 l58 0 l-59 -283 q19 37 65 63.5 q46 26.5 98 26.5 q63 0 97.5 -34 q34.5 -34 34.5 -93 q0 -33 -11 -82 l-59 -278 l-59 0 l54 255 q14 62 14 96 q0 81 -92 81 q-65 0 -111 -50.5 q-46 -50.5 -59 -115.5 l-56 -266 l-59 0 l144 680 Z" /><glyph glyph-name="i" unicode="i" d="M169 476 l-101 -476 l-59 0 l101 476 l59 0 ZM212 680 l-20 -98 l-59 0 l20 98 l59 0 Z" /><glyph glyph-name="j" unicode="j" d="M110 476 l59 0 l-104 -485 q-19 -89 -28 -117 q-9 -28 -28 -48 q-28 -28 -82 -28 q-43 0 -78 20 l13 57 q30 -23 66 -23 q32 0 45 20.5 q13 20.5 25 79.5 l112 524 ZM213 680 l-21 -98 l-59 0 l21 98 l59 0 Z" /><glyph glyph-name="k" unicode="k" d="M153 680 l60 0 l-95 -444 l300 240 l90 0 l-229 -177 l141 -299 l-68 0 l-121 261 l-129 -100 l-34 -161 l-59 0 l144 680 Z" /><glyph glyph-name="l" unicode="l" d="M159 680 l59 0 l-145 -680 l-59 0 l145 680 Z" /><glyph glyph-name="m" unicode="m" d="M420 285 l-61 -285 l-59 0 l54 255 q14 65 14 96 q0 81 -79 81 q-59 0 -104.5 -49 q-45.5 -49 -59.5 -114 l-57 -269 l-59 0 l101 476 l59 0 l-17 -79 q18 36 63.5 63 q45.5 27 92.5 27 q104 0 119 -99 q23 39 70.5 69 q47.5 30 101.5 30 q57 0 89 -32 q32 -32 32 -90 q0 -38 -11 -87 l-59 -278 l-59 0 l54 255 q14 65 14 96 q0 81 -79 81 q-55 0 -98.5 -43 q-43.5 -43 -61.5 -104 Z" /><glyph glyph-name="n" unicode="n" d="M436 278 l-59 -278 l-59 0 l54 255 q14 62 14 96 q0 81 -92 81 q-65 0 -111 -50.5 q-46 -50.5 -59 -115.5 l-56 -266 l-59 0 l101 476 l59 0 l-17 -79 q19 37 65 63.5 q46 26.5 98 26.5 q63 0 97.5 -34 q34.5 -34 34.5 -93 q0 -33 -11 -82 Z" /><glyph glyph-name="o" unicode="o" d="M29 185 q0 77 28 144.5 q28 67.5 88 112.5 q60 45 139 45 q86 0 135 -53 q49 -53 49 -145 q0 -120 -68 -210.5 q-68 -90.5 -187 -90.5 q-86 0 -135 52.5 q-49 52.5 -49 144.5 ZM277 437 q-86 0 -136.5 -75.5 q-50.5 -75.5 -50.5 -169.5 q0 -72 34.5 -112.5 q34.5 -40.5 94.5 -40.5 q87 0 137.5 76.5 q50.5 76.5 50.5 170.5 q0 72 -34.5 111.5 q-34.5 39.5 -95.5 39.5 Z" /><glyph glyph-name="p" unicode="p" d="M28 -190 l-59 0 l141 666 l59 0 l-18 -79 l1 0 q22 39 65 64.5 q43 25.5 94 25.5 q79 0 125.5 -50.5 q46.5 -50.5 46.5 -140.5 q0 -126 -68 -217 q-68 -91 -178 -91 q-65 0 -102 32.5 q-37 32.5 -46 79.5 l-61 -290 ZM294 436 q-84 0 -132.5 -79 q-48.5 -79 -48.5 -170 q0 -69 31.5 -108.5 q31.5 -39.5 94.5 -39.5 q56 0 99.5 39 q43.5 39 64 94 q20.5 55 20.5 112 q0 71 -32 111.5 q-32 40.5 -97 40.5 Z" /><glyph glyph-name="q" unicode="q" d="M361 -190 l-59 0 l59 268 l-1 0 q-22 -39 -65 -64.5 q-43 -25.5 -94 -25.5 q-79 0 -125.5 50.5 q-46.5 50.5 -46.5 140.5 q0 126 68 217 q68 91 178 91 q65 0 102 -32.5 q37 -32.5 46 -79.5 l21 101 l59 0 l-142 -666 ZM218 39 q58 0 101.5 41 q43.5 41 62 96 q18.5 55 18.5 112 q0 69 -32 108.5 q-32 39.5 -95 39.5 q-56 0 -99.5 -39 q-43.5 -39 -64 -94 q-20.5 -55 -20.5 -112 q0 -71 32 -111.5 q32 -40.5 97 -40.5 Z" /><glyph glyph-name="r" unicode="r" d="M345 483 l-13 -60 q-16 4 -36 4 q-64 0 -110.5 -46.5 q-46.5 -46.5 -60.5 -111.5 l-57 -269 l-59 0 l101 476 l59 0 l-20 -92 q21 42 65 72.5 q44 30.5 96 30.5 q20 0 35 -4 Z" /><glyph glyph-name="s" unicode="s" d="M400 389 l-48 -34 q-39 82 -130 82 q-45 0 -73.5 -20 q-28.5 -20 -28.5 -58 q0 -32 18 -47.5 q18 -15.5 61 -30.5 l65 -24 q54 -20 84 -46 q30 -26 30 -76 q0 -70 -50.5 -108.5 q-50.5 -38.5 -127.5 -38.5 q-76 0 -127 36 q-51 36 -71 98 l51 32 q38 -116 151 -116 q48 0 79 23 q31 23 31 65 q0 33 -19 48.5 q-19 15.5 -67 32.5 l-67 25 q-22 8 -35.5 15 q-13.5 7 -31.5 20.5 q-18 13.5 -27 34 q-9 20.5 -9 48.5 q0 64 49 100.5 q49 36.5 118 36.5 q125 0 175 -98 Z" /><glyph glyph-name="t" unicode="t" d="M40 427 l10 49 l96 0 l40 179 l61 12 l-42 -191 l114 0 l-10 -49 l-114 0 l-67 -311 q-6 -27 -6 -40 q0 -32 34 -32 q36 0 77 22 l-12 -58 q-39 -18 -89 -18 q-73 0 -73 60 q0 16 6 46 l71 331 l-96 0 Z" /><glyph glyph-name="u" unicode="u" d="M46 197 l59 279 l59 0 l-54 -256 q-14 -62 -14 -97 q0 -80 88 -80 q65 0 110.5 50.5 q45.5 50.5 58.5 115.5 l56 267 l59 0 l-101 -476 l-59 0 l17 78 q-19 -37 -64 -63.5 q-45 -26.5 -98 -26.5 q-60 0 -94 33.5 q-34 33.5 -34 90.5 q0 36 11 85 Z" /><glyph glyph-name="v" unicode="v" d="M467 476 l-287 -476 l-52 0 l-70 476 l62 0 l42 -312 q2 -16 4.5 -34 q2.5 -18 4.5 -29 q2 -11 2 -16 l1 0 q16 31 49 86 l181 305 l63 0 Z" /><glyph glyph-name="w" unicode="w" d="M410 476 l28 -288 q2 -23 5.5 -62 q3.5 -39 3.5 -42 l1 0 q15 33 54 109 l148 283 l60 0 l-253 -476 l-56 0 l-27 306 q-2 23 -3.5 53.5 q-1.5 30.5 -1.5 33.5 l-1 0 l-44 -88 l-156 -305 l-53 0 l-59 476 l59 0 l33 -286 q6 -42 11 -105 l1 0 q37 78 52 106 l147 285 l51 0 Z" /><glyph glyph-name="x" unicode="x" d="M249 241 l123 -241 l-67 0 l-98 202 l-186 -202 l-72 0 l235 250 l-114 226 l67 0 l89 -186 l172 186 l69 0 l-218 -235 Z" /><glyph glyph-name="y" unicode="y" d="M120 476 l44 -317 l12 -83 l1 0 q17 32 50 86 l187 314 l63 0 l-327 -540 q-41 -69 -59 -91 q-38 -47 -96 -47 q-34 0 -61 18 l11 56 q26 -21 55 -21 q29 0 47 21 q14 16 38 56 l43 74 l-69 474 l61 0 Z" /><glyph glyph-name="z" unicode="z" d="M328 50 l-11 -50 l-347 0 l8 40 l339 387 l-244 0 l10 49 l321 0 l-8 -39 l-340 -387 l272 0 Z" /><glyph glyph-name="braceleft" unicode="{" d="M82 283 q54 -26 54 -87 q0 -24 -6 -54 l-34 -161 q-9 -41 -9 -55 q0 -22 14.5 -31.5 q14.5 -9.5 50.5 -9.5 l6 0 l-9 -43 q-5 0 -13 -0.5 q-8 -0.5 -12 -0.5 q-55 0 -77.5 17 q-22.5 17 -22.5 55 q0 25 17 97 l25 111 q13 53 13 85 q0 24 -11 38.5 q-11 14.5 -39 23.5 l10 40 q48 5 64 29.5 q16 24.5 31 102.5 l24 122 q14 73 40.5 96.5 q26.5 23.5 83.5 23.5 q26 0 41 -2 l-9 -43 l-26 0 q-36 0 -49 -19 q-13 -19 -26 -80 l-23 -114 q-14 -69 -34 -98.5 q-20 -29.5 -74 -42.5 Z" /><glyph glyph-name="bar" unicode="|" d="M154 680 l0 -838 l-59 0 l0 838 l59 0 Z" /><glyph glyph-name="braceright" unicode="}" d="M183 258 q-54 26 -54 87 q0 24 6 54 l30 142 q9 41 9 55 q0 22 -14.5 31.5 q-14.5 9.5 -50.5 9.5 l-6 0 l9 43 q14 1 25 1 q55 0 77.5 -17 q22.5 -17 22.5 -55 q0 -25 -17 -97 l-21 -92 q-13 -53 -13 -85 q0 -24 11 -38.5 q11 -14.5 39 -23.5 l-10 -40 q-48 -5 -64 -29.5 q-16 -24.5 -31 -102.5 l-28 -142 q-14 -73 -40.5 -96.5 q-26.5 -23.5 -83.5 -23.5 q-26 0 -41 2 l9 43 l26 0 q36 0 49 19 q13 19 26 80 l27 134 q14 69 34 98.5 q20 29.5 74 42.5 Z" /><glyph glyph-name="asciitilde" unicode="~" d="M472 348 l29 -49 q-62 -77 -126 -77 q-37 0 -98 30 l-41 20 q-42 19 -72 19 q-27 0 -43 -12.5 q-16 -12.5 -48 -50.5 l-31 47 q52 81 122 81 q36 0 98 -28 l47 -22 q46 -21 66 -21 q46 0 97 63 Z" /><glyph glyph-name="uni00A0" unicode=" " d="" /><glyph glyph-name="exclamdown" unicode="¡" d="M33 120 l48 180 l45 0 l-29 -180 l-69 -324 l-64 0 l69 324 ZM155 362 l-76 0 l24 114 l76 0 l-24 -114 Z" /><glyph glyph-name="cent" unicode="¢" d="M459 351 l-53 -28 q-22 92 -95 109 l-83 -392 q96 4 151 111 l46 -31 q-70 -132 -207 -132 l-1 0 l-21 -101 l-52 0 l22 106 q-65 14 -98.5 64 q-33.5 50 -33.5 128 q0 118 64.5 207.5 q64.5 89.5 172.5 93.5 l20 94 l52 0 l-21 -97 q53 -10 88.5 -44.5 q35.5 -34.5 48.5 -87.5 ZM94 193 q0 -120 84 -147 l82 389 q-77 -8 -121.5 -82 q-44.5 -74 -44.5 -160 Z" /><glyph glyph-name="sterling" unicode="£" d="M548 536 l-55 -19 l0 7 q0 58 -29 86.5 q-29 28.5 -78 28.5 q-36 0 -62.5 -15.5 q-26.5 -15.5 -42 -36.5 q-15.5 -21 -27 -56.5 q-11.5 -35.5 -16.5 -62 q-5 -26.5 -11 -66.5 q-1 -5 -1 -8 l-4 -27 l154 0 l-12 -53 l-149 0 l-3 -19 q-6 -40 -9.5 -58.5 q-3.5 -18.5 -13 -53.5 q-9.5 -35 -20 -54.5 q-10.5 -19.5 -29 -41 q-18.5 -21.5 -42.5 -33.5 l0 -1 q52 2 125 2 l230 0 l-11 -55 l-459 0 l10 49 q64 4 96 39 q32 35 52 133 q4 17 14 93 l-107 0 l12 53 l103 0 q1 8 8 51 q7 43 11 60 q4 17 12.5 49.5 q8.5 32.5 20 55 q11.5 22.5 27.5 40.5 q55 66 149 66 q73 0 115 -40 q42 -40 42 -102 l0 -11 Z" /><glyph glyph-name="currency" unicode="¤" d="M92 289 q0 65 36 115 l-63 63 l42 42 l62 -63 q50 36 115 36 q65 0 114 -36 l62 62 l42 -42 l-62 -62 q37 -51 37 -115 q0 -65 -36 -115 l61 -60 l-42 -42 l-61 61 q-50 -36 -115 -36 q-66 0 -115 36 l-62 -62 l-42 42 l62 62 q-35 47 -35 114 ZM149 289 q0 -57 39 -97 q39 -40 96 -40 q58 0 97 40 q39 40 39 97 q0 58 -38.5 98 q-38.5 40 -97.5 40 q-58 0 -96.5 -39.5 q-38.5 -39.5 -38.5 -98.5 Z" /><glyph glyph-name="yen" unicode="¥" d="M83 285 l11 53 l158 0 l-140 342 l67 0 l139 -333 l282 333 l76 0 l-294 -342 l167 0 l-11 -53 l-201 0 l-18 -83 l204 0 l-11 -53 l-204 0 l-32 -149 l-63 0 l32 149 l-188 0 l11 53 l188 0 l18 83 l-191 0 Z" /><glyph glyph-name="brokenbar" unicode="¦" d="M160 680 l0 -323 l-59 0 l0 323 l59 0 ZM160 165 l0 -323 l-59 0 l0 323 l59 0 Z" /><glyph glyph-name="section" unicode="§" d="M312 163 q63 -34 63 -105 q0 -70 -50.5 -108.5 q-50.5 -38.5 -127.5 -38.5 q-74 0 -126 36 q-52 36 -72 98 l51 32 q38 -116 151 -116 q48 0 79 23 q31 23 31 65 q0 33 -23 56.5 q-23 23.5 -69 45.5 l-45 22 q-65 31 -93.5 61 q-28.5 30 -28.5 86 q0 61 47.5 98 q47.5 37 104.5 42 q-55 37 -55 97 q0 54 45.5 93.5 q45.5 39.5 121.5 39.5 q130 0 179 -107 l-49 -32 q-37 89 -133 89 q-45 0 -73.5 -20 q-28.5 -20 -28.5 -58 q0 -32 21 -52 q21 -20 67 -43 l28 -12 q32 -17 48 -26.5 q16 -9.5 36.5 -26.5 q20.5 -17 29 -38 q8.5 -21 8.5 -48 q0 -64 -42 -101.5 q-42 -37.5 -95 -51.5 ZM205 224 l59 -28 q52 8 87 38.5 q35 30.5 35 73.5 q0 36 -25.5 59 q-25.5 23 -72.5 43 l-37 16 q-61 -2 -98.5 -29 q-37.5 -27 -37.5 -71 q0 -37 23 -59 q23 -22 67 -43 Z" /><glyph glyph-name="dieresis" unicode="¨" d="M161 566 l20 91 l62 0 l-20 -91 l-62 0 ZM348 566 l20 91 l62 0 l-20 -91 l-62 0 Z" /><glyph glyph-name="copyright" unicode="©" d="M568 451 l-49 -29 q-27 88 -111 88 q-55 0 -89 -43.5 q-34 -43.5 -34 -118.5 q0 -74 34 -116 q34 -42 89 -42 q83 0 114 75 l46 -29 q-50 -99 -160 -99 q-83 0 -131.5 57 q-48.5 57 -48.5 153 q0 97 48.5 155 q48.5 58 131.5 58 q116 0 160 -109 ZM749 350 q0 -144 -98 -242.5 q-98 -98.5 -243 -98.5 q-144 0 -242 98.5 q-98 98.5 -98 242.5 q0 145 98 243.5 q98 98.5 242 98.5 q145 0 243 -98.5 q98 -98.5 98 -243.5 ZM692 350 q0 121 -82 206 q-82 85 -202 85 q-119 0 -200.5 -85 q-81.5 -85 -81.5 -206 q0 -119 81.5 -203.5 q81.5 -84.5 200.5 -84.5 q120 0 202 84 q82 84 82 204 Z" /><glyph glyph-name="ordfeminine" unicode="ª" d="M277 483 l12 53 q-12 -4 -44 -9 l-30 -6 q-43 -8 -65 -21 q-22 -13 -22 -41 q0 -48 57 -48 q32 0 57.5 18.5 q25.5 18.5 34.5 53.5 ZM156 585 l-39 9 q6 49 42 72.5 q36 23.5 85 23.5 q100 0 100 -77 q0 -12 -4 -34 l-28 -135 q-3 -12 -3 -17 q0 -15 15 -15 q15 0 29 8 l-8 -38 q-14 -6 -33 -6 q-20 0 -31.5 10.5 q-11.5 10.5 -11.5 28.5 l0 2 q-31 -44 -93 -44 q-41 0 -66 22 q-25 22 -25 60 q0 47 31.5 69 q31.5 22 93.5 33 l69 12 q18 4 21 17 q4 14 4 23 q0 45 -65 45 q-74 0 -83 -69 Z" /><glyph glyph-name="guillemotleft" unicode="«" d="M47 276 l16 73 l163 137 l-18 -83 l-120 -93 l79 -99 l-16 -75 l-104 140 ZM194 276 l16 73 l163 137 l-18 -83 l-120 -93 l79 -99 l-16 -75 l-104 140 Z" /><glyph glyph-name="logicalnot" unicode="¬" d="M468 454 l0 -233 l-59 0 l0 180 l-337 0 l0 53 l396 0 Z" /><glyph glyph-name="uni00AD" unicode="­" d="M346 298 l-13 -63 l-277 0 l13 63 l277 0 Z" /><glyph glyph-name="registered" unicode="®" d="M322 317 l0 -167 l-51 0 l0 398 l163 0 q66 0 103 -26 q43 -31 43 -88 q0 -48 -31.5 -79 q-31.5 -31 -75.5 -37 l120 -168 l-65 0 l-121 167 l-85 0 ZM322 366 l99 0 q48 0 69 10 q34 15 34 58 q0 41 -34 56 q-21 9 -69 9 l-99 0 l0 -133 ZM749 350 q0 -144 -98 -242.5 q-98 -98.5 -243 -98.5 q-144 0 -242 98.5 q-98 98.5 -98 242.5 q0 145 98 243.5 q98 98.5 242 98.5 q145 0 243 -98.5 q98 -98.5 98 -243.5 ZM692 350 q0 121 -82 206 q-82 85 -202 85 q-119 0 -200.5 -85 q-81.5 -85 -81.5 -206 q0 -119 81.5 -203.5 q81.5 -84.5 200.5 -84.5 q120 0 202 84 q82 84 82 204 Z" /><glyph glyph-name="macron" unicode="¯" d="M172 604 l11 53 l271 0 l-11 -53 l-271 0 Z" /><glyph glyph-name="degree" unicode="°" d="M139 436 q-44 44 -44 106 q0 62 44 106 q44 44 106 44 q62 0 106 -44 q44 -44 44 -106 q0 -62 -44 -106 q-44 -44 -106 -44 q-62 0 -106 44 ZM179 610 q-26 -27 -26 -68 q0 -41 26 -68 q26 -27 66 -27 q40 0 66 27 q26 27 26 68 q0 41 -26 68 q-26 27 -66 27 q-40 0 -66 -27 Z" /><glyph glyph-name="plusminus" unicode="±" d="M379 323 l0 -216 l-57 0 l0 216 l-265 0 l0 56 l265 0 l0 214 l57 0 l0 -214 l264 0 l0 -56 l-264 0 ZM643 57 l0 -57 l-586 0 l0 57 l586 0 Z" /><glyph glyph-name="twosuperior" unicode="²" d="M168 508 l-55 17 q-2 16 -2 24 q0 58 40 97 q40 39 106 39 q62 0 97.5 -33 q35.5 -33 35.5 -86 q0 -41 -23.5 -81 q-23.5 -40 -65.5 -74 q-42 -34 -76 -56 q-34 -22 -79 -47 l0 -3 q54 1 90 1 l113 0 l-9 -45 l-285 0 l7 42 q53 27 145 93 q33 24 49 37 q16 13 38.5 35 q22.5 22 32 45.5 q9.5 23.5 9.5 49.5 q0 36 -21.5 57 q-21.5 21 -59.5 21 q-43 0 -67.5 -27.5 q-24.5 -27.5 -24.5 -68.5 q0 -17 5 -37 Z" /><glyph glyph-name="threesuperior" unicode="³" d="M60 373 l50 16 q7 -91 94 -91 q42 0 70 22 q28 22 28 63 q0 48 -50 67 q-29 10 -71 10 l-33 0 l9 39 l46 0 q53 0 79 13 q38 18 38 66 q0 28 -20.5 46 q-20.5 18 -57.5 18 q-32 0 -55.5 -20.5 q-23.5 -20.5 -30.5 -54.5 l-46 14 q6 42 42.5 73 q36.5 31 93.5 31 q59 0 92 -28 q33 -28 33 -72 q0 -42 -25.5 -71 q-25.5 -29 -63.5 -34 l-1 -2 q32 -12 51.5 -37.5 q19.5 -25.5 19.5 -59.5 q0 -50 -39 -88 q-39 -38 -109 -38 q-66 0 -103.5 31 q-37.5 31 -40.5 87 Z" /><glyph glyph-name="acute" unicode="´" d="M297 680 l94 0 l-132 -128 l-56 0 l94 128 Z" /><glyph glyph-name="mu" unicode="µ" d="M31 -190 l-59 0 l141 666 l59 0 l-56 -265 q-14 -62 -14 -88 q0 -80 90 -80 q65 0 110.5 50.5 q45.5 50.5 58.5 115.5 l56 267 l59 0 l-101 -476 l-59 0 l17 78 q-21 -40 -66.5 -65 q-45.5 -25 -96.5 -25 q-65 0 -92 43 l-47 -221 Z" /><glyph glyph-name="paragraph" unicode="¶" d="M263 320 l-8 0 q-79 0 -129 40 q-50 40 -50 118 q0 94 59 145 q34 30 83.5 43.5 q49.5 13.5 143.5 13.5 l269 0 l-9 -44 l-79 0 l-162 -764 l-51 0 l162 764 l-111 0 l-162 -764 l-51 0 l95 448 Z" /><glyph glyph-name="periodcentered" unicode="·" d="M84 377 l78 0 l-25 -114 l-78 0 l25 114 Z" /><glyph glyph-name="cedilla" unicode="¸" d="M112 -62 l61 65 l41 0 l-46 -48 q4 1 13 1 q30 0 49.5 -17 q19.5 -17 19.5 -46 q0 -39 -31 -62.5 q-31 -23.5 -77 -23.5 q-26 0 -51 9 l15 28 q14 -5 31 -5 q27 0 45 11.5 q18 11.5 18 34.5 q0 37 -48 37 q-15 0 -31 -7 l-9 23 Z" /><glyph glyph-name="onesuperior" unicode="¹" d="M174 263 l-50 0 l64 307 q-28 -18 -78 -18 q-9 0 -27 2 l8 43 l17 0 q39 0 65 16 q30 18 43 67 l45 0 l-87 -417 Z" /><glyph glyph-name="ordmasculine" unicode="º" d="M92 498 q0 76 43.5 134 q43.5 58 118.5 58 q55 0 86.5 -34 q31.5 -34 31.5 -92 q0 -76 -43 -133.5 q-43 -57.5 -119 -57.5 q-55 0 -86.5 33.5 q-31.5 33.5 -31.5 91.5 ZM249 652 q-52 0 -82 -45.5 q-30 -45.5 -30 -103.5 q0 -43 20.5 -67.5 q20.5 -24.5 56.5 -24.5 q53 0 83 46.5 q30 46.5 30 104.5 q0 43 -20.5 66.5 q-20.5 23.5 -57.5 23.5 Z" /><glyph glyph-name="guillemotright" unicode="»" d="M353 346 l-16 -73 l-163 -137 l18 84 l120 95 l-79 96 l16 75 l104 -140 ZM206 346 l-16 -73 l-163 -137 l18 84 l120 95 l-79 96 l16 75 l104 -140 Z" /><glyph glyph-name="onequarter" unicode="¼" d="M180 263 l-50 0 l64 307 q-28 -18 -78 -18 q-9 0 -27 2 l8 43 l17 0 q39 0 65 16 q30 18 43 67 l45 0 l-87 -417 ZM172 0 l-55 0 l454 680 l55 0 l-454 -680 ZM653 107 l-23 -107 l-48 0 l23 107 l-202 0 l7 35 l263 275 l44 0 l-56 -267 l70 0 l-8 -43 l-70 0 ZM473 150 l0 -2 q32 2 82 2 l58 0 l28 133 q4 20 13 56 l-2 0 q-18 -23 -49 -57 l-72 -74 q-6 -6 -17.5 -17.5 q-11.5 -11.5 -21 -21.5 q-9.5 -10 -19.5 -19 Z" /><glyph glyph-name="onehalf" unicode="½" d="M171 0 l-55 0 l454 680 l55 0 l-454 -680 ZM179 263 l-50 0 l64 307 q-28 -18 -78 -18 q-9 0 -27 2 l8 43 l17 0 q39 0 65 16 q30 18 43 67 l45 0 l-87 -417 ZM568 247 l-55 17 q-2 16 -2 24 q0 58 40 97 q40 39 106 39 q62 0 97.5 -33 q35.5 -33 35.5 -86 q0 -41 -23.5 -81 q-23.5 -40 -65.5 -74 q-42 -34 -76 -56 q-34 -22 -79 -47 l0 -3 q54 1 90 1 l113 0 l-9 -45 l-285 0 l7 42 q53 27 145 93 q33 24 49 37 q16 13 38.5 35 q22.5 22 32 45.5 q9.5 23.5 9.5 49.5 q0 36 -21.5 57 q-21.5 21 -59.5 21 q-43 0 -67.5 -27.5 q-24.5 -27.5 -24.5 -68.5 q0 -17 5 -37 Z" /><glyph glyph-name="threequarters" unicode="¾" d="M55 373 l50 16 q7 -91 94 -91 q42 0 70 22 q28 22 28 63 q0 48 -50 67 q-29 10 -71 10 l-33 0 l9 39 l46 0 q53 0 79 13 q38 18 38 66 q0 28 -20.5 46 q-20.5 18 -57.5 18 q-32 0 -55.5 -20.5 q-23.5 -20.5 -30.5 -54.5 l-46 14 q7 42 43 73 q36 31 93 31 q59 0 92 -28 q33 -28 33 -72 q0 -42 -25.5 -71 q-25.5 -29 -63.5 -34 l-1 -2 q32 -12 51.5 -37.5 q19.5 -25.5 19.5 -59.5 q0 -50 -39 -88 q-39 -38 -109 -38 q-66 0 -103.5 31 q-37.5 31 -40.5 87 ZM764 107 l-23 -107 l-48 0 l23 107 l-202 0 l7 35 l263 275 l44 0 l-56 -267 l70 0 l-8 -43 l-70 0 ZM584 150 l0 -2 q32 2 82 2 l58 0 l28 133 q4 20 13 56 l-2 0 q-18 -23 -49 -57 l-72 -74 l-58 -58 ZM283 0 l-55 0 l454 680 l55 0 l-454 -680 Z" /><glyph glyph-name="questiondown" unicode="¿" d="M62 127 l88 67 q38 29 49.5 48.5 q11.5 19.5 19.5 55.5 q1 4 2.5 14.5 q1.5 10.5 2.5 14.5 l60 0 q-11 -69 -29.5 -102 q-18.5 -33 -72.5 -73 l-77 -57 q-23 -18 -37 -33 q-43 -49 -43 -106 q0 -49 34 -83 q34 -34 97 -34 q70 0 110 46 q40 46 40 112 q0 35 -13 72 l62 -22 q8 -34 8 -62 q0 -82 -60.5 -139.5 q-60.5 -57.5 -155.5 -57.5 q-86 0 -134 46.5 q-48 46.5 -48 116.5 q0 64 36 115 q21 31 61 61 ZM298 374 l-74 0 l22 102 l74 0 l-22 -102 Z" /><glyph glyph-name="Agrave" unicode="à" d="M140 205 l-120 -205 l-69 0 l403 680 l64 0 l115 -680 l-65 0 l-33 205 l-295 0 ZM426 260 l-40 255 q-6 37 -14 95 l-1 0 q-31 -60 -45 -84 l-155 -266 l255 0 ZM445 753 l-56 0 l-142 136 l96 0 l102 -136 Z" /><glyph glyph-name="Aacute" unicode="á" d="M140 205 l-120 -205 l-69 0 l403 680 l64 0 l115 -680 l-65 0 l-33 205 l-295 0 ZM426 260 l-40 255 q-6 37 -14 95 l-1 0 q-31 -60 -45 -84 l-155 -266 l255 0 ZM402 753 l-56 0 l102 136 l96 0 l-142 -136 Z" /><glyph glyph-name="Acircumflex" unicode="â" d="M140 205 l-120 -205 l-69 0 l403 680 l64 0 l115 -680 l-65 0 l-33 205 l-295 0 ZM426 260 l-40 255 q-6 37 -14 95 l-1 0 q-31 -60 -45 -84 l-155 -266 l255 0 ZM419 834 l-96 -81 l-65 0 l148 136 l42 0 l92 -136 l-59 0 l-62 81 Z" /><glyph glyph-name="Atilde" unicode="ã" d="M140 205 l-120 -205 l-69 0 l403 680 l64 0 l115 -680 l-65 0 l-33 205 l-295 0 ZM426 260 l-40 255 q-6 37 -14 95 l-1 0 q-31 -60 -45 -84 l-155 -266 l255 0 ZM537 867 l41 -10 q-10 -21 -16 -32 q-6 -11 -18 -27 q-12 -16 -27 -23.5 q-15 -7.5 -33 -7.5 q-27 0 -77 26 q-44 22 -55 22 q-33 0 -47 -47 l-42 9 q36 90 96 90 q23 0 67 -22 q46 -23 62 -23 q34 0 49 45 Z" /><glyph glyph-name="Adieresis" unicode="ä" d="M140 205 l-120 -205 l-69 0 l403 680 l64 0 l115 -680 l-65 0 l-33 205 l-295 0 ZM426 260 l-40 255 q-6 37 -14 95 l-1 0 q-31 -60 -45 -84 l-155 -266 l255 0 ZM275 768 l19 91 l62 0 l-19 -91 l-62 0 ZM462 768 l19 91 l62 0 l-19 -91 l-62 0 Z" /><glyph glyph-name="Aring" unicode="å" d="M140 205 l-120 -205 l-69 0 l403 680 l64 0 l115 -680 l-65 0 l-33 205 l-295 0 ZM426 260 l-40 255 q-6 37 -14 95 l-1 0 q-31 -60 -45 -84 l-155 -266 l255 0 ZM363 761.5 q-24 23.5 -24 57.5 q0 34 24 57.5 q24 23.5 58 23.5 q34 0 58 -23.5 q24 -23.5 24 -57.5 q0 -34 -24 -57.5 q-24 -23.5 -58 -23.5 q-34 0 -58 23.5 ZM390 849.5 q-13 -12.5 -13 -30.5 q0 -18 13 -30.5 q13 -12.5 30 -12.5 q17 0 30 12.5 q13 12.5 13 30.5 q0 18 -13 30.5 q-13 12.5 -30 12.5 q-17 0 -30 -12.5 Z" /><glyph glyph-name="AE" unicode="æ" d="M164 206 l-170 -206 l-72 0 l562 680 l456 0 l-12 -55 l-364 0 l-52 -247 l329 0 l-12 -55 l-329 0 l-57 -268 l384 0 l-12 -55 l-448 0 l45 206 l-248 0 ZM423 261 l51 234 q9 40 17 75.5 q8 35.5 11 48.5 l3 13 l-1 0 q-40 -60 -106 -139 l-191 -232 l216 0 Z" /><glyph glyph-name="Ccedilla" unicode="ç" d="M629 522 l-57 -36 q-32 150 -182 150 q-86 0 -149.5 -58 q-63.5 -58 -92 -138.5 q-28.5 -80.5 -28.5 -165.5 q0 -107 48 -168.5 q48 -61.5 143 -61.5 q72 0 128 41 q56 41 92 110 l48 -36 q-95 -168 -272 -171 l-31 -33 q4 1 13 1 q30 0 49.5 -17 q19.5 -17 19.5 -46 q0 -39 -31 -62.5 q-31 -23.5 -77 -23.5 q-26 0 -51 9 l15 28 q14 -5 31 -5 q27 0 45 11.5 q18 11.5 18 34.5 q0 37 -48 37 q-15 0 -31 -7 l-13 23 l49 52 q-103 10 -156 82.5 q-53 72.5 -53 197.5 q0 108 39.5 203 q39.5 95 118.5 157 q79 62 182 62 q89 0 149.5 -44 q60.5 -44 83.5 -126 Z" /><glyph glyph-name="Egrave" unicode="è" d="M501 55 l-12 -55 l-466 0 l145 680 l446 0 l-12 -55 l-383 0 l-53 -247 l347 0 l-11 -55 l-347 0 l-58 -268 l404 0 ZM458 753 l-56 0 l-142 136 l96 0 l102 -136 Z" /><glyph glyph-name="Eacute" unicode="é" d="M501 55 l-12 -55 l-466 0 l145 680 l446 0 l-12 -55 l-383 0 l-53 -247 l347 0 l-11 -55 l-347 0 l-58 -268 l404 0 ZM386 753 l-56 0 l102 136 l96 0 l-142 -136 Z" /><glyph glyph-name="Ecircumflex" unicode="ê" d="M501 55 l-12 -55 l-466 0 l145 680 l446 0 l-12 -55 l-383 0 l-53 -247 l347 0 l-11 -55 l-347 0 l-58 -268 l404 0 ZM421 834 l-96 -81 l-65 0 l148 136 l42 0 l92 -136 l-59 0 l-62 81 Z" /><glyph glyph-name="Edieresis" unicode="ë" d="M501 55 l-12 -55 l-466 0 l145 680 l446 0 l-12 -55 l-383 0 l-53 -247 l347 0 l-11 -55 l-347 0 l-58 -268 l404 0 ZM283 768 l19 91 l62 0 l-19 -91 l-62 0 ZM470 768 l19 91 l62 0 l-19 -91 l-62 0 Z" /><glyph glyph-name="Igrave" unicode="ì" d="M168 680 l63 0 l-145 -680 l-63 0 l145 680 ZM257 753 l-56 0 l-142 136 l96 0 l102 -136 Z" /><glyph glyph-name="Iacute" unicode="í" d="M168 680 l63 0 l-145 -680 l-63 0 l145 680 ZM234 753 l-56 0 l102 136 l96 0 l-142 -136 Z" /><glyph glyph-name="Icircumflex" unicode="î" d="M168 680 l63 0 l-145 -680 l-63 0 l145 680 ZM233 834 l-96 -81 l-65 0 l148 136 l42 0 l92 -136 l-59 0 l-62 81 Z" /><glyph glyph-name="Idieresis" unicode="ï" d="M168 680 l63 0 l-145 -680 l-63 0 l145 680 ZM91 768 l19 91 l62 0 l-19 -91 l-62 0 ZM278 768 l19 91 l62 0 l-19 -91 l-62 0 Z" /><glyph glyph-name="Eth" unicode="ð" d="M3 337 l11 56 l104 0 l61 287 l151 0 q158 0 243 -57 q85 -57 85 -194 q0 -117 -47 -223 q-47 -106 -133 -157 q-53 -31 -102.5 -40 q-49.5 -9 -133.5 -9 l-208 0 l72 337 l-103 0 ZM230 625 l-49 -232 l202 0 l-12 -56 l-202 0 l-60 -282 l138 0 q135 0 204 46 q70 47 106.5 143 q36.5 96 36.5 185 q0 106 -75 157 q-27 18 -64 27 q-37 9 -65.5 10.5 q-28.5 1.5 -78.5 1.5 l-81 0 Z" /><glyph glyph-name="Ntilde" unicode="ñ" d="M577 867 l41 -10 q-10 -21 -16 -32 q-6 -11 -18 -27 q-12 -16 -27 -23.5 q-15 -7.5 -33 -7.5 q-27 0 -77 26 q-44 22 -55 22 q-33 0 -47 -47 l-42 9 q36 90 96 90 q23 0 67 -22 q46 -23 62 -23 q34 0 49 45 ZM563 0 l-69 0 l-244 511 q-27 56 -38 91 l-1 0 q-4 -35 -17 -97 l-108 -505 l-63 0 l145 680 l69 0 l246 -511 q15 -31 37 -83 l1 0 q6 37 17 90 l107 504 l63 0 l-145 -680 Z" /><glyph glyph-name="Ograve" unicode="ò" d="M401 692 q113 0 180 -71.5 q67 -71.5 67 -198.5 q0 -81 -22 -157 q-22 -76 -63.5 -138.5 q-41.5 -62.5 -109.5 -100.5 q-68 -38 -152 -38 q-120 0 -183 74 q-63 74 -63 208 q0 108 40 203 q40 95 120.5 157 q80.5 62 185.5 62 ZM310 44 q65 0 119 35 q54 35 86.5 90 q32.5 55 50 118 q17.5 63 17.5 125 q0 104 -49 164 q-49 60 -142 60 q-64 0 -117 -33.5 q-53 -33.5 -86 -87 q-33 -53.5 -51 -116.5 q-18 -63 -18 -125 q0 -107 47.5 -168.5 q47.5 -61.5 142.5 -61.5 ZM488 753 l-56 0 l-142 136 l96 0 l102 -136 Z" /><glyph glyph-name="Oacute" unicode="ó" d="M401 692 q113 0 180 -71.5 q67 -71.5 67 -198.5 q0 -81 -22 -157 q-22 -76 -63.5 -138.5 q-41.5 -62.5 -109.5 -100.5 q-68 -38 -152 -38 q-120 0 -183 74 q-63 74 -63 208 q0 108 40 203 q40 95 120.5 157 q80.5 62 185.5 62 ZM310 44 q65 0 119 35 q54 35 86.5 90 q32.5 55 50 118 q17.5 63 17.5 125 q0 104 -49 164 q-49 60 -142 60 q-64 0 -117 -33.5 q-53 -33.5 -86 -87 q-33 -53.5 -51 -116.5 q-18 -63 -18 -125 q0 -107 47.5 -168.5 q47.5 -61.5 142.5 -61.5 ZM415 753 l-56 0 l102 136 l96 0 l-142 -136 Z" /><glyph glyph-name="Ocircumflex" unicode="ô" d="M401 692 q113 0 180 -71.5 q67 -71.5 67 -198.5 q0 -81 -22 -157 q-22 -76 -63.5 -138.5 q-41.5 -62.5 -109.5 -100.5 q-68 -38 -152 -38 q-120 0 -183 74 q-63 74 -63 208 q0 108 40 203 q40 95 120.5 157 q80.5 62 185.5 62 ZM310 44 q65 0 119 35 q54 35 86.5 90 q32.5 55 50 118 q17.5 63 17.5 125 q0 104 -49 164 q-49 60 -142 60 q-64 0 -117 -33.5 q-53 -33.5 -86 -87 q-33 -53.5 -51 -116.5 q-18 -63 -18 -125 q0 -107 47.5 -168.5 q47.5 -61.5 142.5 -61.5 ZM441 834 l-96 -81 l-65 0 l148 136 l42 0 l92 -136 l-59 0 l-62 81 Z" /><glyph glyph-name="Otilde" unicode="õ" d="M401 692 q113 0 180 -71.5 q67 -71.5 67 -198.5 q0 -81 -22 -157 q-22 -76 -63.5 -138.5 q-41.5 -62.5 -109.5 -100.5 q-68 -38 -152 -38 q-120 0 -183 74 q-63 74 -63 208 q0 108 40 203 q40 95 120.5 157 q80.5 62 185.5 62 ZM310 44 q65 0 119 35 q54 35 86.5 90 q32.5 55 50 118 q17.5 63 17.5 125 q0 104 -49 164 q-49 60 -142 60 q-64 0 -117 -33.5 q-53 -33.5 -86 -87 q-33 -53.5 -51 -116.5 q-18 -63 -18 -125 q0 -107 47.5 -168.5 q47.5 -61.5 142.5 -61.5 ZM558 867 l41 -10 q-10 -21 -16 -32 q-6 -11 -18 -27 q-12 -16 -27 -23.5 q-15 -7.5 -33 -7.5 q-27 0 -77 26 q-44 22 -55 22 q-33 0 -47 -47 l-42 9 q36 90 96 90 q23 0 67 -22 q46 -23 62 -23 q34 0 49 45 Z" /><glyph glyph-name="Odieresis" unicode="ö" d="M401 692 q113 0 180 -71.5 q67 -71.5 67 -198.5 q0 -81 -22 -157 q-22 -76 -63.5 -138.5 q-41.5 -62.5 -109.5 -100.5 q-68 -38 -152 -38 q-120 0 -183 74 q-63 74 -63 208 q0 108 40 203 q40 95 120.5 157 q80.5 62 185.5 62 ZM310 44 q65 0 119 35 q54 35 86.5 90 q32.5 55 50 118 q17.5 63 17.5 125 q0 104 -49 164 q-49 60 -142 60 q-64 0 -117 -33.5 q-53 -33.5 -86 -87 q-33 -53.5 -51 -116.5 q-18 -63 -18 -125 q0 -107 47.5 -168.5 q47.5 -61.5 142.5 -61.5 ZM287 768 l19 91 l62 0 l-19 -91 l-62 0 ZM474 768 l19 91 l62 0 l-19 -91 l-62 0 Z" /><glyph glyph-name="multiply" unicode="×" d="M617 522 l-228 -228 l228 -228 l-40 -40 l-228 228 l-228 -228 l-40 40 l228 228 l-228 228 l40 40 l228 -228 l228 228 l40 -40 Z" /><glyph glyph-name="Oslash" unicode="ø" d="M409 692 q126 0 193 -87 l123 111 l38 -43 l-132 -119 q25 -58 25 -132 q0 -81 -22 -157 q-22 -76 -63.5 -138.5 q-41.5 -62.5 -109.5 -100.5 q-68 -38 -152 -38 q-137 0 -199 95 l-116 -105 l-39 43 l128 116 q-20 58 -20 133 q0 108 40 203 q40 95 120.5 157 q80.5 62 185.5 62 ZM318 44 q65 0 119 35 q54 35 86.5 90 q32.5 55 50 118 q17.5 63 17.5 125 q0 54 -13 94 l-418 -378 q48 -84 158 -84 ZM128 274 q0 -49 9 -88 l416 375 q-49 75 -153 75 q-64 0 -117 -33.5 q-53 -33.5 -86 -87 q-33 -53.5 -51 -116.5 q-18 -63 -18 -125 Z" /><glyph glyph-name="Ugrave" unicode="ù" d="M291 -13 q-112 0 -170 52 q-58 52 -58 145 q0 31 12 91 l87 405 l62 0 l-85 -401 q-13 -61 -13 -90 q0 -146 172 -146 q96 0 149 49 q49 46 74 155 l92 433 l62 0 l-90 -425 q-32 -146 -94 -204 q-67 -64 -200 -64 ZM474 753 l-56 0 l-142 136 l96 0 l102 -136 Z" /><glyph glyph-name="Uacute" unicode="ú" d="M291 -13 q-112 0 -170 52 q-58 52 -58 145 q0 31 12 91 l87 405 l62 0 l-85 -401 q-13 -61 -13 -90 q0 -146 172 -146 q96 0 149 49 q49 46 74 155 l92 433 l62 0 l-90 -425 q-32 -146 -94 -204 q-67 -64 -200 -64 ZM417 753 l-56 0 l102 136 l96 0 l-142 -136 Z" /><glyph glyph-name="Ucircumflex" unicode="û" d="M291 -13 q-112 0 -170 52 q-58 52 -58 145 q0 31 12 91 l87 405 l62 0 l-85 -401 q-13 -61 -13 -90 q0 -146 172 -146 q96 0 149 49 q49 46 74 155 l92 433 l62 0 l-90 -425 q-32 -146 -94 -204 q-67 -64 -200 -64 ZM450 834 l-96 -81 l-65 0 l148 136 l42 0 l92 -136 l-59 0 l-62 81 Z" /><glyph glyph-name="Udieresis" unicode="ü" d="M291 -13 q-112 0 -170 52 q-58 52 -58 145 q0 31 12 91 l87 405 l62 0 l-85 -401 q-13 -61 -13 -90 q0 -146 172 -146 q96 0 149 49 q49 46 74 155 l92 433 l62 0 l-90 -425 q-32 -146 -94 -204 q-67 -64 -200 -64 ZM313 768 l19 91 l62 0 l-19 -91 l-62 0 ZM500 768 l19 91 l62 0 l-19 -91 l-62 0 Z" /><glyph glyph-name="Yacute" unicode="ý" d="M250 0 l-63 0 l60 280 l-161 400 l67 0 l138 -338 l283 338 l76 0 l-340 -400 l-60 -280 ZM363 753 l-56 0 l102 136 l96 0 l-142 -136 Z" /><glyph glyph-name="Thorn" unicode="þ" d="M86 0 l-62 0 l144 680 l63 0 l-22 -100 l176 0 q101 0 151 -28 q72 -40 72 -128 q0 -65 -27.5 -116 q-27.5 -51 -77.5 -79 q-55 -29 -166 -29 l-208 0 l-43 -200 ZM141 256 l202 0 q99 0 141 29 q63 43 63 134 q0 71 -68 95 q-32 11 -98 11 l-183 0 l-57 -269 Z" /><glyph glyph-name="germandbls" unicode="ß" d="M331 410 l0 -1 q18 -4 30.5 -10 q12.5 -6 27.5 -19 q15 -13 23 -36.5 q8 -23.5 8 -57.5 q0 -35 -11 -88 q-25 -114 -66.5 -159.5 q-41.5 -45.5 -111.5 -45.5 q-108 0 -108 106 q0 31 8 66 l6 26 l46 0 l-5 -25 q-8 -36 -8 -58 q0 -69 63 -69 q48 0 74 39.5 q26 39.5 44 120.5 q10 44 10 81 q0 58 -30.5 79 q-30.5 21 -102.5 21 l-51 0 l9 48 l39 0 q85 0 126 34 q42 34 42 100 q0 36 -24 58 q-24 22 -70 22 q-48 0 -75 -26 q-33 -31 -52 -127 l-104 -489 l-59 0 l107 501 q14 63 29.5 98.5 q15.5 35.5 44.5 59.5 q44 36 113 36 q68 0 109 -32.5 q41 -32.5 41 -92.5 q0 -63 -32 -107 q-32 -44 -90 -53 Z" /><glyph glyph-name="agrave" unicode="à" d="M320 158 l21 96 q-10 -6 -78 -19 l-50 -9 q-68 -12 -105 -34 q-37 -22 -37 -71 q0 -83 97 -83 q55 0 97 29.5 q42 29.5 55 90.5 ZM117 329 l-54 13 q8 74 64.5 109.5 q56.5 35.5 134.5 35.5 q156 0 156 -118 q0 -23 -7 -55 l-46 -216 q-4 -19 -4 -30 q0 -28 30 -28 q22 0 38 10 l-10 -47 q-18 -10 -49 -10 q-65 0 -65 51 q0 10 3 22 l-1 1 q-45 -79 -154 -79 q-63 0 -102 33.5 q-39 33.5 -39 93.5 q0 72 49 107 q49 35 147 51 l111 19 q20 4 27.5 10.5 q7.5 6.5 10.5 21.5 q5 23 5 38 q0 76 -107 76 q-64 0 -98 -30 q-34 -30 -40 -79 ZM158 680 l94 0 l94 -128 l-56 0 l-132 128 Z" /><glyph glyph-name="aacute" unicode="á" d="M320 158 l21 96 q-10 -6 -78 -19 l-50 -9 q-68 -12 -105 -34 q-37 -22 -37 -71 q0 -83 97 -83 q55 0 97 29.5 q42 29.5 55 90.5 ZM117 329 l-54 13 q8 74 64.5 109.5 q56.5 35.5 134.5 35.5 q156 0 156 -118 q0 -23 -7 -55 l-46 -216 q-4 -19 -4 -30 q0 -28 30 -28 q22 0 38 10 l-10 -47 q-18 -10 -49 -10 q-65 0 -65 51 q0 10 3 22 l-1 1 q-45 -79 -154 -79 q-63 0 -102 33.5 q-39 33.5 -39 93.5 q0 72 49 107 q49 35 147 51 l111 19 q20 4 27.5 10.5 q7.5 6.5 10.5 21.5 q5 23 5 38 q0 76 -107 76 q-64 0 -98 -30 q-34 -30 -40 -79 ZM329 680 l94 0 l-132 -128 l-56 0 l94 128 Z" /><glyph glyph-name="acircumflex" unicode="â" d="M320 158 l21 96 q-10 -6 -78 -19 l-50 -9 q-68 -12 -105 -34 q-37 -22 -37 -71 q0 -83 97 -83 q55 0 97 29.5 q42 29.5 55 90.5 ZM117 329 l-54 13 q8 74 64.5 109.5 q56.5 35.5 134.5 35.5 q156 0 156 -118 q0 -23 -7 -55 l-46 -216 q-4 -19 -4 -30 q0 -28 30 -28 q22 0 38 10 l-10 -47 q-18 -10 -49 -10 q-65 0 -65 51 q0 10 3 22 l-1 1 q-45 -79 -154 -79 q-63 0 -102 33.5 q-39 33.5 -39 93.5 q0 72 49 107 q49 35 147 51 l111 19 q20 4 27.5 10.5 q7.5 6.5 10.5 21.5 q5 23 5 38 q0 76 -107 76 q-64 0 -98 -30 q-34 -30 -40 -79 ZM226 552 l-67 0 l140 128 l42 0 l86 -128 l-59 0 l-54 77 l-88 -77 Z" /><glyph glyph-name="atilde" unicode="ã" d="M320 158 l21 96 q-10 -6 -78 -19 l-50 -9 q-68 -12 -105 -34 q-37 -22 -37 -71 q0 -83 97 -83 q55 0 97 29.5 q42 29.5 55 90.5 ZM117 329 l-54 13 q8 74 64.5 109.5 q56.5 35.5 134.5 35.5 q156 0 156 -118 q0 -23 -7 -55 l-46 -216 q-4 -19 -4 -30 q0 -28 30 -28 q22 0 38 10 l-10 -47 q-18 -10 -49 -10 q-65 0 -65 51 q0 10 3 22 l-1 1 q-45 -79 -154 -79 q-63 0 -102 33.5 q-39 33.5 -39 93.5 q0 72 49 107 q49 35 147 51 l111 19 q20 4 27.5 10.5 q7.5 6.5 10.5 21.5 q5 23 5 38 q0 76 -107 76 q-64 0 -98 -30 q-34 -30 -40 -79 ZM408 666 l41 -10 q-10 -21 -16 -32 q-6 -11 -18 -27 q-12 -16 -27 -23.5 q-15 -7.5 -33 -7.5 q-27 0 -77 26 q-44 22 -55 22 q-33 0 -47 -47 l-42 9 q36 90 96 90 q23 0 67 -22 q46 -23 62 -23 q34 0 49 45 Z" /><glyph glyph-name="adieresis" unicode="ä" d="M320 158 l21 96 q-10 -6 -78 -19 l-50 -9 q-68 -12 -105 -34 q-37 -22 -37 -71 q0 -83 97 -83 q55 0 97 29.5 q42 29.5 55 90.5 ZM117 329 l-54 13 q8 74 64.5 109.5 q56.5 35.5 134.5 35.5 q156 0 156 -118 q0 -23 -7 -55 l-46 -216 q-4 -19 -4 -30 q0 -28 30 -28 q22 0 38 10 l-10 -47 q-18 -10 -49 -10 q-65 0 -65 51 q0 10 3 22 l-1 1 q-45 -79 -154 -79 q-63 0 -102 33.5 q-39 33.5 -39 93.5 q0 72 49 107 q49 35 147 51 l111 19 q20 4 27.5 10.5 q7.5 6.5 10.5 21.5 q5 23 5 38 q0 76 -107 76 q-64 0 -98 -30 q-34 -30 -40 -79 ZM159 566 l20 91 l62 0 l-20 -91 l-62 0 ZM346 566 l20 91 l62 0 l-20 -91 l-62 0 Z" /><glyph glyph-name="aring" unicode="å" d="M320 158 l21 96 q-10 -6 -78 -19 l-50 -9 q-68 -12 -105 -34 q-37 -22 -37 -71 q0 -83 97 -83 q55 0 97 29.5 q42 29.5 55 90.5 ZM117 329 l-54 13 q8 74 64.5 109.5 q56.5 35.5 134.5 35.5 q156 0 156 -118 q0 -23 -7 -55 l-46 -216 q-4 -19 -4 -30 q0 -28 30 -28 q22 0 38 10 l-10 -47 q-18 -10 -49 -10 q-65 0 -65 51 q0 10 3 22 l-1 1 q-45 -79 -154 -79 q-63 0 -102 33.5 q-39 33.5 -39 93.5 q0 72 49 107 q49 35 147 51 l111 19 q20 4 27.5 10.5 q7.5 6.5 10.5 21.5 q5 23 5 38 q0 76 -107 76 q-64 0 -98 -30 q-34 -30 -40 -79 ZM240 560.5 q-24 23.5 -24 57.5 q0 34 24 57.5 q24 23.5 58 23.5 q34 0 58 -23.5 q24 -23.5 24 -57.5 q0 -34 -24 -57.5 q-24 -23.5 -58 -23.5 q-34 0 -58 23.5 ZM267 648.5 q-13 -12.5 -13 -30.5 q0 -18 13 -30.5 q13 -12.5 30 -12.5 q17 0 30 12.5 q13 12.5 13 30.5 q0 18 -13 30.5 q-13 12.5 -30 12.5 q-17 0 -30 -12.5 Z" /><glyph glyph-name="ae" unicode="æ" d="M743 234 l-353 0 q-3 -21 -3 -43 q0 -66 32 -108.5 q32 -42.5 102 -42.5 q104 0 167 110 l45 -31 q-73 -131 -217 -131 q-133 0 -172 103 q-67 -103 -187 -103 q-66 0 -105.5 33.5 q-39.5 33.5 -39.5 93.5 q0 72 49 107 q49 35 147 51 l111 19 q20 4 27.5 10.5 q7.5 6.5 10.5 21.5 q5 23 5 38 q0 76 -107 76 q-64 0 -98 -30 q-34 -30 -40 -79 l-54 13 q8 74 64.5 109.5 q56.5 35.5 134.5 35.5 q121 0 148 -73 q73 73 168 73 q87 0 130 -52 q43 -52 43 -132 q0 -35 -8 -69 ZM320 158 l21 96 q-10 -6 -78 -19 l-50 -9 q-68 -12 -105 -34 q-37 -22 -37 -71 q0 -83 97 -83 q55 0 97 29.5 q42 29.5 55 90.5 ZM572 437 q-63 0 -109 -47 q-46 -47 -62 -108 l287 0 q2 18 2 29 q0 54 -28 90 q-28 36 -90 36 Z" /><glyph glyph-name="ccedilla" unicode="ç" d="M455 351 l-53 -28 q-27 113 -130 113 q-57 0 -100 -39 q-43 -39 -62.5 -93 q-19.5 -54 -19.5 -111 q0 -72 32.5 -112.5 q32.5 -40.5 95.5 -40.5 q102 0 157 111 l46 -31 q-68 -128 -199 -132 l-29 -33 q4 1 13 1 q30 0 49.5 -17 q19.5 -17 19.5 -46 q0 -39 -31 -62.5 q-31 -23.5 -77 -23.5 q-25 0 -51 9 l15 28 q14 -5 31 -5 q27 0 45 11.5 q18 11.5 18 34.5 q0 37 -48 37 q-15 0 -31 -7 l-9 23 l47 52 q-75 9 -114.5 60 q-39.5 51 -39.5 135 q0 122 67.5 212 q67.5 90 180.5 90 q69 0 115.5 -36.5 q46.5 -36.5 61.5 -99.5 Z" /><glyph glyph-name="egrave" unicode="è" d="M446 234 l-353 0 q-3 -21 -3 -43 q0 -66 32 -108.5 q32 -42.5 102 -42.5 q104 0 167 110 l45 -31 q-73 -131 -217 -131 q-93 0 -141 52.5 q-48 52.5 -48 153.5 q0 119 71.5 206 q71.5 87 179.5 87 q87 0 130 -52 q43 -52 43 -132 q0 -35 -8 -69 ZM275 437 q-63 0 -109 -47 q-46 -47 -62 -108 l287 0 q2 18 2 29 q0 54 -28 90 q-28 36 -90 36 ZM177 680 l94 0 l94 -128 l-56 0 l-132 128 Z" /><glyph glyph-name="eacute" unicode="é" d="M446 234 l-353 0 q-3 -21 -3 -43 q0 -66 32 -108.5 q32 -42.5 102 -42.5 q104 0 167 110 l45 -31 q-73 -131 -217 -131 q-93 0 -141 52.5 q-48 52.5 -48 153.5 q0 119 71.5 206 q71.5 87 179.5 87 q87 0 130 -52 q43 -52 43 -132 q0 -35 -8 -69 ZM275 437 q-63 0 -109 -47 q-46 -47 -62 -108 l287 0 q2 18 2 29 q0 54 -28 90 q-28 36 -90 36 ZM341 680 l94 0 l-132 -128 l-56 0 l94 128 Z" /><glyph glyph-name="ecircumflex" unicode="ê" d="M446 234 l-353 0 q-3 -21 -3 -43 q0 -66 32 -108.5 q32 -42.5 102 -42.5 q104 0 167 110 l45 -31 q-73 -131 -217 -131 q-93 0 -141 52.5 q-48 52.5 -48 153.5 q0 119 71.5 206 q71.5 87 179.5 87 q87 0 130 -52 q43 -52 43 -132 q0 -35 -8 -69 ZM275 437 q-63 0 -109 -47 q-46 -47 -62 -108 l287 0 q2 18 2 29 q0 54 -28 90 q-28 36 -90 36 ZM224 552 l-67 0 l140 128 l42 0 l86 -128 l-59 0 l-54 77 l-88 -77 Z" /><glyph glyph-name="edieresis" unicode="ë" d="M446 234 l-353 0 q-3 -21 -3 -43 q0 -66 32 -108.5 q32 -42.5 102 -42.5 q104 0 167 110 l45 -31 q-73 -131 -217 -131 q-93 0 -141 52.5 q-48 52.5 -48 153.5 q0 119 71.5 206 q71.5 87 179.5 87 q87 0 130 -52 q43 -52 43 -132 q0 -35 -8 -69 ZM275 437 q-63 0 -109 -47 q-46 -47 -62 -108 l287 0 q2 18 2 29 q0 54 -28 90 q-28 36 -90 36 ZM169 566 l20 91 l62 0 l-20 -91 l-62 0 ZM356 566 l20 91 l62 0 l-20 -91 l-62 0 Z" /><glyph glyph-name="igrave" unicode="ì" d="M169 475 l-101 -475 l-59 0 l101 475 l59 0 ZM-2 680 l94 0 l94 -128 l-56 0 l-132 128 Z" /><glyph glyph-name="iacute" unicode="í" d="M169 475 l-101 -475 l-59 0 l101 475 l59 0 ZM206 680 l94 0 l-132 -128 l-56 0 l94 128 Z" /><glyph glyph-name="icircumflex" unicode="î" d="M169 475 l-101 -475 l-59 0 l101 475 l59 0 ZM86 552 l-67 0 l140 128 l42 0 l86 -128 l-59 0 l-54 77 l-88 -77 Z" /><glyph glyph-name="idieresis" unicode="ï" d="M169 475 l-101 -475 l-59 0 l101 475 l59 0 ZM34 566 l20 91 l62 0 l-20 -91 l-62 0 ZM221 566 l20 91 l62 0 l-20 -91 l-62 0 Z" /><glyph glyph-name="eth" unicode="ð" d="M208 550 l155 46 q-26 48 -52 78 l50 27 q35 -43 58 -90 l111 34 l10 -40 l-103 -32 q36 -98 36 -209 q0 -72 -15 -136.5 q-15 -64.5 -45 -119.5 q-30 -55 -83 -87.5 q-53 -32.5 -122 -32.5 q-83 0 -131 51.5 q-48 51.5 -48 140.5 q0 116 66.5 205.5 q66.5 89.5 175.5 89.5 q55 0 94 -29 q39 -29 54 -77 q-2 108 -39 190 l-162 -48 l-10 39 ZM270 425 q-56 0 -99 -37 q-43 -37 -62.5 -90.5 q-19.5 -53.5 -19.5 -110.5 q0 -71 33 -109.5 q33 -38.5 92 -38.5 q85 0 134 74 q49 74 49 165 q0 69 -34 108 q-34 39 -93 39 Z" /><glyph glyph-name="ntilde" unicode="ñ" d="M436 278 l-59 -278 l-59 0 l54 255 q14 62 14 96 q0 81 -92 81 q-65 0 -111 -50.5 q-46 -50.5 -59 -115.5 l-56 -266 l-59 0 l101 476 l59 0 l-17 -79 q19 37 65 63.5 q46 26.5 98 26.5 q63 0 97.5 -34 q34.5 -34 34.5 -93 q0 -33 -11 -82 ZM438 666 l41 -10 q-10 -21 -16 -32 q-6 -11 -18 -27 q-12 -16 -27 -23.5 q-15 -7.5 -33 -7.5 q-27 0 -77 26 q-44 22 -55 22 q-33 0 -47 -47 l-42 9 q36 90 96 90 q23 0 67 -22 q46 -23 62 -23 q34 0 49 45 Z" /><glyph glyph-name="ograve" unicode="ò" d="M29 185 q0 77 28 144.5 q28 67.5 88 112.5 q60 45 139 45 q86 0 135 -53 q49 -53 49 -145 q0 -120 -68 -210.5 q-68 -90.5 -187 -90.5 q-86 0 -135 52.5 q-49 52.5 -49 144.5 ZM277 437 q-86 0 -136.5 -75.5 q-50.5 -75.5 -50.5 -169.5 q0 -72 34.5 -112.5 q34.5 -40.5 94.5 -40.5 q87 0 137.5 76.5 q50.5 76.5 50.5 170.5 q0 72 -34.5 111.5 q-34.5 39.5 -95.5 39.5 ZM188 680 l94 0 l94 -128 l-56 0 l-132 128 Z" /><glyph glyph-name="oacute" unicode="ó" d="M29 185 q0 77 28 144.5 q28 67.5 88 112.5 q60 45 139 45 q86 0 135 -53 q49 -53 49 -145 q0 -120 -68 -210.5 q-68 -90.5 -187 -90.5 q-86 0 -135 52.5 q-49 52.5 -49 144.5 ZM277 437 q-86 0 -136.5 -75.5 q-50.5 -75.5 -50.5 -169.5 q0 -72 34.5 -112.5 q34.5 -40.5 94.5 -40.5 q87 0 137.5 76.5 q50.5 76.5 50.5 170.5 q0 72 -34.5 111.5 q-34.5 39.5 -95.5 39.5 ZM344 680 l94 0 l-132 -128 l-56 0 l94 128 Z" /><glyph glyph-name="ocircumflex" unicode="ô" d="M29 185 q0 77 28 144.5 q28 67.5 88 112.5 q60 45 139 45 q86 0 135 -53 q49 -53 49 -145 q0 -120 -68 -210.5 q-68 -90.5 -187 -90.5 q-86 0 -135 52.5 q-49 52.5 -49 144.5 ZM277 437 q-86 0 -136.5 -75.5 q-50.5 -75.5 -50.5 -169.5 q0 -72 34.5 -112.5 q34.5 -40.5 94.5 -40.5 q87 0 137.5 76.5 q50.5 76.5 50.5 170.5 q0 72 -34.5 111.5 q-34.5 39.5 -95.5 39.5 ZM244 552 l-67 0 l140 128 l42 0 l86 -128 l-59 0 l-54 77 l-88 -77 Z" /><glyph glyph-name="otilde" unicode="õ" d="M29 185 q0 77 28 144.5 q28 67.5 88 112.5 q60 45 139 45 q86 0 135 -53 q49 -53 49 -145 q0 -120 -68 -210.5 q-68 -90.5 -187 -90.5 q-86 0 -135 52.5 q-49 52.5 -49 144.5 ZM277 437 q-86 0 -136.5 -75.5 q-50.5 -75.5 -50.5 -169.5 q0 -72 34.5 -112.5 q34.5 -40.5 94.5 -40.5 q87 0 137.5 76.5 q50.5 76.5 50.5 170.5 q0 72 -34.5 111.5 q-34.5 39.5 -95.5 39.5 ZM441 666 l41 -10 q-10 -21 -16 -32 q-6 -11 -18 -27 q-12 -16 -27 -23.5 q-15 -7.5 -33 -7.5 q-27 0 -77 26 q-44 22 -55 22 q-33 0 -47 -47 l-42 9 q36 90 96 90 q23 0 67 -22 q46 -23 62 -23 q34 0 49 45 Z" /><glyph glyph-name="odieresis" unicode="ö" d="M29 185 q0 77 28 144.5 q28 67.5 88 112.5 q60 45 139 45 q86 0 135 -53 q49 -53 49 -145 q0 -120 -68 -210.5 q-68 -90.5 -187 -90.5 q-86 0 -135 52.5 q-49 52.5 -49 144.5 ZM277 437 q-86 0 -136.5 -75.5 q-50.5 -75.5 -50.5 -169.5 q0 -72 34.5 -112.5 q34.5 -40.5 94.5 -40.5 q87 0 137.5 76.5 q50.5 76.5 50.5 170.5 q0 72 -34.5 111.5 q-34.5 39.5 -95.5 39.5 ZM181 566 l20 91 l62 0 l-20 -91 l-62 0 ZM368 566 l20 91 l62 0 l-20 -91 l-62 0 Z" /><glyph glyph-name="divide" unicode="÷" d="M727 267 l0 -57 l-673 0 l0 57 l673 0 ZM351 476 l78 0 l0 -100 l-78 0 l0 100 ZM351 101 l78 0 l0 -101 l-78 0 l0 101 Z" /><glyph glyph-name="oslash" unicode="ø" d="M284 487 q84 0 133 -49 l71 72 l39 -35 l-79 -80 q21 -45 21 -98 q0 -123 -67.5 -216 q-67.5 -93 -187.5 -93 q-79 0 -126 41 l-65 -66 l-35 36 l68 70 q-26 47 -26 116 q0 122 69 212 q69 90 185 90 ZM90 193 q0 -44 12 -77 l274 280 q-34 40 -99 40 q-85 0 -136 -76.5 q-51 -76.5 -51 -166.5 ZM218 40 q63 0 108 41 q45 41 64 95.5 q19 54.5 19 111.5 q0 30 -8 59 l-271 -275 q32 -32 88 -32 Z" /><glyph glyph-name="ugrave" unicode="ù" d="M46 197 l59 279 l59 0 l-54 -256 q-14 -62 -14 -97 q0 -80 88 -80 q65 0 110.5 50.5 q45.5 50.5 58.5 115.5 l56 267 l59 0 l-101 -476 l-59 0 l17 78 q-19 -37 -64 -63.5 q-45 -26.5 -98 -26.5 q-60 0 -94 33.5 q-34 33.5 -34 90.5 q0 36 11 85 ZM173 680 l94 0 l94 -128 l-56 0 l-132 128 Z" /><glyph glyph-name="uacute" unicode="ú" d="M46 197 l59 279 l59 0 l-54 -256 q-14 -62 -14 -97 q0 -80 88 -80 q65 0 110.5 50.5 q45.5 50.5 58.5 115.5 l56 267 l59 0 l-101 -476 l-59 0 l17 78 q-19 -37 -64 -63.5 q-45 -26.5 -98 -26.5 q-60 0 -94 33.5 q-34 33.5 -34 90.5 q0 36 11 85 ZM334 680 l94 0 l-132 -128 l-56 0 l94 128 Z" /><glyph glyph-name="ucircumflex" unicode="û" d="M46 197 l59 279 l59 0 l-54 -256 q-14 -62 -14 -97 q0 -80 88 -80 q65 0 110.5 50.5 q45.5 50.5 58.5 115.5 l56 267 l59 0 l-101 -476 l-59 0 l17 78 q-19 -37 -64 -63.5 q-45 -26.5 -98 -26.5 q-60 0 -94 33.5 q-34 33.5 -34 90.5 q0 36 11 85 ZM229 552 l-67 0 l140 128 l42 0 l86 -128 l-59 0 l-54 77 l-88 -77 Z" /><glyph glyph-name="udieresis" unicode="ü" d="M46 197 l59 279 l59 0 l-54 -256 q-14 -62 -14 -97 q0 -80 88 -80 q65 0 110.5 50.5 q45.5 50.5 58.5 115.5 l56 267 l59 0 l-101 -476 l-59 0 l17 78 q-19 -37 -64 -63.5 q-45 -26.5 -98 -26.5 q-60 0 -94 33.5 q-34 33.5 -34 90.5 q0 36 11 85 ZM177 566 l20 91 l62 0 l-20 -91 l-62 0 ZM364 566 l20 91 l62 0 l-20 -91 l-62 0 Z" /><glyph glyph-name="yacute" unicode="ý" d="M120 476 l44 -317 l12 -83 l1 0 q17 32 50 86 l187 314 l63 0 l-327 -540 q-41 -69 -59 -91 q-38 -47 -96 -47 q-34 0 -61 18 l11 56 q26 -21 55 -21 q29 0 47 21 q14 16 38 56 l43 74 l-69 474 l61 0 ZM326 680 l94 0 l-132 -128 l-56 0 l94 128 Z" /><glyph glyph-name="thorn" unicode="þ" d="M28 -190 l-59 0 l184 869 l58 0 l-60 -282 l1 0 q22 39 65 64.5 q43 25.5 94 25.5 q79 0 125.5 -50.5 q46.5 -50.5 46.5 -140.5 q0 -126 -68 -217 q-68 -91 -178 -91 q-65 0 -102 32.5 q-37 32.5 -46 79.5 l-61 -290 ZM294 436 q-84 0 -132.5 -79 q-48.5 -79 -48.5 -170 q0 -69 31.5 -108.5 q31.5 -39.5 94.5 -39.5 q56 0 99.5 39 q43.5 39 64 94 q20.5 55 20.5 112 q0 71 -32 111.5 q-32 40.5 -97 40.5 Z" /><glyph glyph-name="ydieresis" unicode="ÿ" d="M120 476 l44 -317 l12 -83 l1 0 q17 32 50 86 l187 314 l63 0 l-327 -540 q-41 -69 -59 -91 q-38 -47 -96 -47 q-34 0 -61 18 l11 56 q26 -21 55 -21 q29 0 47 21 q14 16 38 56 l43 74 l-69 474 l61 0 ZM154 566 l20 91 l62 0 l-20 -91 l-62 0 ZM341 566 l20 91 l62 0 l-20 -91 l-62 0 Z" /><glyph glyph-name="Amacron" unicode="&#x100;" d="M140 205 l-120 -205 l-69 0 l403 680 l64 0 l115 -680 l-65 0 l-33 205 l-295 0 ZM426 260 l-40 255 q-6 37 -14 95 l-1 0 q-31 -60 -45 -84 l-155 -266 l255 0 ZM272 778 l11 53 l271 0 l-11 -53 l-271 0 Z" /><glyph glyph-name="amacron" unicode="&#x101;" d="M320 158 l21 96 q-10 -6 -78 -19 l-50 -9 q-68 -12 -105 -34 q-37 -22 -37 -71 q0 -83 97 -83 q55 0 97 29.5 q42 29.5 55 90.5 ZM117 329 l-54 13 q8 74 64.5 109.5 q56.5 35.5 134.5 35.5 q156 0 156 -118 q0 -23 -7 -55 l-46 -216 q-4 -19 -4 -30 q0 -28 30 -28 q22 0 38 10 l-10 -47 q-18 -10 -49 -10 q-65 0 -65 51 q0 10 3 22 l-1 1 q-45 -79 -154 -79 q-63 0 -102 33.5 q-39 33.5 -39 93.5 q0 72 49 107 q49 35 147 51 l111 19 q20 4 27.5 10.5 q7.5 6.5 10.5 21.5 q5 23 5 38 q0 76 -107 76 q-64 0 -98 -30 q-34 -30 -40 -79 ZM147 579 l11 53 l271 0 l-11 -53 l-271 0 Z" /><glyph glyph-name="Abreve" unicode="&#x102;" d="M140 205 l-120 -205 l-69 0 l403 680 l64 0 l115 -680 l-65 0 l-33 205 l-295 0 ZM426 260 l-40 255 q-6 37 -14 95 l-1 0 q-31 -60 -45 -84 l-155 -266 l255 0 ZM341 850 q2 -67 72 -67 q70 0 100 67 l48 0 q-19 -54 -59 -83 q-40 -29 -94 -29 q-57 0 -88 29.5 q-31 29.5 -27 82.5 l48 0 Z" /><glyph glyph-name="abreve" unicode="&#x103;" d="M320 158 l21 96 q-10 -6 -78 -19 l-50 -9 q-68 -12 -105 -34 q-37 -22 -37 -71 q0 -83 97 -83 q55 0 97 29.5 q42 29.5 55 90.5 ZM117 329 l-54 13 q8 74 64.5 109.5 q56.5 35.5 134.5 35.5 q156 0 156 -118 q0 -23 -7 -55 l-46 -216 q-4 -19 -4 -30 q0 -28 30 -28 q22 0 38 10 l-10 -47 q-18 -10 -49 -10 q-65 0 -65 51 q0 10 3 22 l-1 1 q-45 -79 -154 -79 q-63 0 -102 33.5 q-39 33.5 -39 93.5 q0 72 49 107 q49 35 147 51 l111 19 q20 4 27.5 10.5 q7.5 6.5 10.5 21.5 q5 23 5 38 q0 76 -107 76 q-64 0 -98 -30 q-34 -30 -40 -79 ZM218 649 q2 -67 72 -67 q70 0 100 67 l48 0 q-19 -54 -59 -83 q-40 -29 -94 -29 q-57 0 -88 29.5 q-31 29.5 -27 82.5 l48 0 Z" /><glyph glyph-name="Aogonek" unicode="&#x104;" d="M490 -174 l18 -41 q-22 -6 -46 -6 q-45 0 -71.5 24.5 q-26.5 24.5 -26.5 66.5 q0 69 104 130 l-33 205 l-295 0 l-120 -205 l-69 0 l403 680 l64 0 l115 -680 l-8 0 q-111 -67 -111 -126 q0 -51 54 -51 q11 0 22 3 ZM426 260 l-40 255 q-6 37 -14 95 l-1 0 q-31 -60 -45 -84 l-155 -266 l255 0 Z" /><glyph glyph-name="aogonek" unicode="&#x105;" d="M377 -174 l18 -41 q-22 -6 -46 -6 q-45 0 -71.5 24.5 q-26.5 24.5 -26.5 66.5 q0 67 96 125 q-42 10 -42 49 q0 10 3 22 l-1 1 q-45 -79 -154 -79 q-63 0 -102 33.5 q-39 33.5 -39 93.5 q0 72 49 107 q49 35 147 51 l111 19 q20 4 27.5 10.5 q7.5 6.5 10.5 21.5 q5 23 5 38 q0 76 -107 76 q-64 0 -98 -30 q-34 -30 -40 -79 l-54 13 q8 74 64.5 109.5 q56.5 35.5 134.5 35.5 q156 0 156 -118 q0 -23 -7 -55 l-46 -216 q-4 -19 -4 -30 q0 -28 30 -28 q22 0 38 10 l-10 -47 q-3 -3 -8 -3 q-110 -70 -110 -126 q0 -51 54 -51 q11 0 22 3 ZM320 158 l21 96 q-10 -6 -78 -19 l-50 -9 q-68 -12 -105 -34 q-37 -22 -37 -71 q0 -83 97 -83 q55 0 97 29.5 q42 29.5 55 90.5 Z" /><glyph glyph-name="Cacute" unicode="&#x106;" d="M414 753 l-56 0 l102 136 l96 0 l-142 -136 ZM629 522 l-57 -36 q-32 150 -182 150 q-86 0 -149.5 -58 q-63.5 -58 -92 -138.5 q-28.5 -80.5 -28.5 -165.5 q0 -107 48 -168.5 q48 -61.5 143 -61.5 q72 0 128 41 q56 41 92 110 l48 -36 q-96 -171 -277 -171 q-120 0 -183 73 q-63 73 -63 209 q0 108 39.5 203 q39.5 95 118.5 157 q79 62 182 62 q89 0 149.5 -44 q60.5 -44 83.5 -126 Z" /><glyph glyph-name="cacute" unicode="&#x107;" d="M455 351 l-53 -28 q-27 113 -130 113 q-57 0 -100 -39 q-43 -39 -62.5 -93 q-19.5 -54 -19.5 -111 q0 -72 32.5 -112.5 q32.5 -40.5 95.5 -40.5 q102 0 157 111 l46 -31 q-70 -132 -207 -132 q-90 0 -137 52.5 q-47 52.5 -47 144.5 q0 122 67.5 212 q67.5 90 180.5 90 q69 0 115.5 -36.5 q46.5 -36.5 61.5 -99.5 ZM345 680 l94 0 l-132 -128 l-56 0 l94 128 Z" /><glyph glyph-name="Ccircumflex" unicode="&#x108;" d="M439 834 l-96 -81 l-65 0 l148 136 l42 0 l92 -136 l-59 0 l-62 81 ZM629 522 l-57 -36 q-32 150 -182 150 q-86 0 -149.5 -58 q-63.5 -58 -92 -138.5 q-28.5 -80.5 -28.5 -165.5 q0 -107 48 -168.5 q48 -61.5 143 -61.5 q72 0 128 41 q56 41 92 110 l48 -36 q-96 -171 -277 -171 q-120 0 -183 73 q-63 73 -63 209 q0 108 39.5 203 q39.5 95 118.5 157 q79 62 182 62 q89 0 149.5 -44 q60.5 -44 83.5 -126 Z" /><glyph glyph-name="ccircumflex" unicode="&#x109;" d="M455 351 l-53 -28 q-27 113 -130 113 q-57 0 -100 -39 q-43 -39 -62.5 -93 q-19.5 -54 -19.5 -111 q0 -72 32.5 -112.5 q32.5 -40.5 95.5 -40.5 q102 0 157 111 l46 -31 q-70 -132 -207 -132 q-90 0 -137 52.5 q-47 52.5 -47 144.5 q0 122 67.5 212 q67.5 90 180.5 90 q69 0 115.5 -36.5 q46.5 -36.5 61.5 -99.5 ZM244 552 l-67 0 l140 128 l42 0 l86 -128 l-59 0 l-54 77 l-88 -77 Z" /><glyph glyph-name="Cdotaccent" unicode="&#x10a;" d="M629 522 l-57 -36 q-32 150 -182 150 q-86 0 -149.5 -58 q-63.5 -58 -92 -138.5 q-28.5 -80.5 -28.5 -165.5 q0 -107 48 -168.5 q48 -61.5 143 -61.5 q72 0 128 41 q56 41 92 110 l48 -36 q-96 -171 -277 -171 q-120 0 -183 73 q-63 73 -63 209 q0 108 39.5 203 q39.5 95 118.5 157 q79 62 182 62 q89 0 149.5 -44 q60.5 -44 83.5 -126 ZM386 768 l20 91 l62 0 l-20 -91 l-62 0 Z" /><glyph glyph-name="cdotaccent" unicode="&#x10b;" d="M455 351 l-53 -28 q-27 113 -130 113 q-57 0 -100 -39 q-43 -39 -62.5 -93 q-19.5 -54 -19.5 -111 q0 -72 32.5 -112.5 q32.5 -40.5 95.5 -40.5 q102 0 157 111 l46 -31 q-70 -132 -207 -132 q-90 0 -137 52.5 q-47 52.5 -47 144.5 q0 122 67.5 212 q67.5 90 180.5 90 q69 0 115.5 -36.5 q46.5 -36.5 61.5 -99.5 ZM264 566 l20 91 l62 0 l-20 -91 l-62 0 Z" /><glyph glyph-name="Ccaron" unicode="&#x10c;" d="M435 808 l96 81 l65 0 l-148 -136 l-42 0 l-92 136 l59 0 l62 -81 ZM629 522 l-57 -36 q-32 150 -182 150 q-86 0 -149.5 -58 q-63.5 -58 -92 -138.5 q-28.5 -80.5 -28.5 -165.5 q0 -107 48 -168.5 q48 -61.5 143 -61.5 q72 0 128 41 q56 41 92 110 l48 -36 q-96 -171 -277 -171 q-120 0 -183 73 q-63 73 -63 209 q0 108 39.5 203 q39.5 95 118.5 157 q79 62 182 62 q89 0 149.5 -44 q60.5 -44 83.5 -126 Z" /><glyph glyph-name="ccaron" unicode="&#x10d;" d="M455 351 l-53 -28 q-27 113 -130 113 q-57 0 -100 -39 q-43 -39 -62.5 -93 q-19.5 -54 -19.5 -111 q0 -72 32.5 -112.5 q32.5 -40.5 95.5 -40.5 q102 0 157 111 l46 -31 q-70 -132 -207 -132 q-90 0 -137 52.5 q-47 52.5 -47 144.5 q0 122 67.5 212 q67.5 90 180.5 90 q69 0 115.5 -36.5 q46.5 -36.5 61.5 -99.5 ZM415 680 l67 0 l-140 -128 l-42 0 l-86 128 l59 0 l54 -77 l88 77 Z" /><glyph glyph-name="Dcaron" unicode="&#x10e;" d="M401 808 l96 81 l65 0 l-148 -136 l-42 0 l-92 136 l59 0 l62 -81 ZM231 0 l-208 0 l145 680 l151 0 q158 0 243 -57 q85 -57 85 -194 q0 -117 -47 -223 q-47 -106 -133 -157 q-53 -31 -102.5 -40 q-49.5 -9 -133.5 -9 ZM219 625 l-121 -570 l138 0 q135 0 204 46 q70 47 106.5 143 q36.5 96 36.5 185 q0 106 -75 157 q-27 18 -64 27 q-37 9 -65.5 10.5 q-28.5 1.5 -78.5 1.5 l-81 0 Z" /><glyph glyph-name="dcaron" unicode="&#x10f;" d="M488 680 l59 0 l-145 -680 l-59 0 l18 78 l-1 0 q-22 -39 -65 -64.5 q-43 -25.5 -94 -25.5 q-79 0 -125.5 50.5 q-46.5 50.5 -46.5 140.5 q0 126 68 217 q68 91 178 91 q65 0 102 -32.5 q37 -32.5 46 -79.5 l65 305 ZM218 39 q58 0 101.5 41 q43.5 41 62 96 q18.5 55 18.5 112 q0 69 -32 108.5 q-32 39.5 -95 39.5 q-56 0 -99.5 -39 q-43.5 -39 -64 -94 q-20.5 -55 -20.5 -112 q0 -71 32 -111.5 q32 -40.5 97 -40.5 ZM616 552 l-48 0 l49 128 l82 0 l-83 -128 Z" /><glyph glyph-name="Dcroat" unicode="&#x110;" d="M3 337 l11 56 l104 0 l61 287 l151 0 q158 0 243 -57 q85 -57 85 -194 q0 -117 -47 -223 q-47 -106 -133 -157 q-53 -31 -102.5 -40 q-49.5 -9 -133.5 -9 l-208 0 l72 337 l-103 0 ZM230 625 l-49 -232 l202 0 l-12 -56 l-202 0 l-60 -282 l138 0 q135 0 204 46 q70 47 106.5 143 q36.5 96 36.5 185 q0 106 -75 157 q-27 18 -64 27 q-37 9 -65.5 10.5 q-28.5 1.5 -78.5 1.5 l-81 0 Z" /><glyph glyph-name="dcroat" unicode="&#x111;" d="M218 39 q58 0 101.5 41 q43.5 41 62 96 q18.5 55 18.5 112 q0 69 -32 108.5 q-32 39.5 -95 39.5 q-56 0 -99.5 -39 q-43.5 -39 -64 -94 q-20.5 -55 -20.5 -112 q0 -71 32 -111.5 q32 -40.5 97 -40.5 ZM488 680 l59 0 l-15 -72 l79 0 l-12 -56 l-79 0 l-118 -552 l-59 0 l18 78 l-1 0 q-22 -39 -65 -64.5 q-43 -25.5 -94 -25.5 q-79 0 -125.5 50.5 q-46.5 50.5 -46.5 140.5 q0 126 68 217 q68 91 178 91 q65 0 102 -32.5 q37 -32.5 46 -79.5 l38 177 l-149 0 l12 56 l149 0 l15 72 Z" /><glyph glyph-name="Emacron" unicode="&#x112;" d="M501 55 l-12 -55 l-466 0 l145 680 l446 0 l-12 -55 l-383 0 l-53 -247 l347 0 l-11 -55 l-347 0 l-58 -268 l404 0 ZM260 778 l11 53 l271 0 l-11 -53 l-271 0 Z" /><glyph glyph-name="emacron" unicode="&#x113;" d="M446 234 l-353 0 q-3 -21 -3 -43 q0 -66 32 -108.5 q32 -42.5 102 -42.5 q104 0 167 110 l45 -31 q-73 -131 -217 -131 q-93 0 -141 52.5 q-48 52.5 -48 153.5 q0 119 71.5 206 q71.5 87 179.5 87 q87 0 130 -52 q43 -52 43 -132 q0 -35 -8 -69 ZM275 437 q-63 0 -109 -47 q-46 -47 -62 -108 l287 0 q2 18 2 29 q0 54 -28 90 q-28 36 -90 36 ZM168 579 l11 53 l271 0 l-11 -53 l-271 0 Z" /><glyph glyph-name="Ebreve" unicode="&#x114;" d="M501 55 l-12 -55 l-466 0 l145 680 l446 0 l-12 -55 l-383 0 l-53 -247 l347 0 l-11 -55 l-347 0 l-58 -268 l404 0 ZM340 850 q2 -67 72 -67 q70 0 100 67 l48 0 q-19 -54 -59 -83 q-40 -29 -94 -29 q-57 0 -88 29.5 q-31 29.5 -27 82.5 l48 0 Z" /><glyph glyph-name="ebreve" unicode="&#x115;" d="M446 234 l-353 0 q-3 -21 -3 -43 q0 -66 32 -108.5 q32 -42.5 102 -42.5 q104 0 167 110 l45 -31 q-73 -131 -217 -131 q-93 0 -141 52.5 q-48 52.5 -48 153.5 q0 119 71.5 206 q71.5 87 179.5 87 q87 0 130 -52 q43 -52 43 -132 q0 -35 -8 -69 ZM275 437 q-63 0 -109 -47 q-46 -47 -62 -108 l287 0 q2 18 2 29 q0 54 -28 90 q-28 36 -90 36 ZM243 649 q2 -67 72 -67 q70 0 100 67 l48 0 q-19 -54 -59 -83 q-40 -29 -94 -29 q-57 0 -88 29.5 q-31 29.5 -27 82.5 l48 0 Z" /><glyph glyph-name="Edotaccent" unicode="&#x116;" d="M501 55 l-12 -55 l-466 0 l145 680 l446 0 l-12 -55 l-383 0 l-53 -247 l347 0 l-11 -55 l-347 0 l-58 -268 l404 0 ZM377 768 l20 91 l62 0 l-20 -91 l-62 0 Z" /><glyph glyph-name="edotaccent" unicode="&#x117;" d="M446 234 l-353 0 q-3 -21 -3 -43 q0 -66 32 -108.5 q32 -42.5 102 -42.5 q104 0 167 110 l45 -31 q-73 -131 -217 -131 q-93 0 -141 52.5 q-48 52.5 -48 153.5 q0 119 71.5 206 q71.5 87 179.5 87 q87 0 130 -52 q43 -52 43 -132 q0 -35 -8 -69 ZM275 437 q-63 0 -109 -47 q-46 -47 -62 -108 l287 0 q2 18 2 29 q0 54 -28 90 q-28 36 -90 36 ZM266 566 l20 91 l62 0 l-20 -91 l-62 0 Z" /><glyph glyph-name="Eogonek" unicode="&#x118;" d="M448 -174 l18 -41 q-23 -6 -46 -6 q-45 0 -71.5 24.5 q-26.5 24.5 -26.5 66.5 q0 37 31 71.5 q31 34.5 73 58.5 l-403 0 l145 680 l446 0 l-12 -55 l-383 0 l-53 -247 l347 0 l-11 -55 l-347 0 l-58 -268 l404 0 l-12 -55 l-6 0 q-111 -67 -111 -126 q0 -51 54 -51 q11 0 22 3 Z" /><glyph glyph-name="eogonek" unicode="&#x119;" d="M229 -174 l18 -41 q-23 -6 -46 -6 q-45 0 -71.5 24.5 q-26.5 24.5 -26.5 66.5 q0 65 87 119 q-160 18 -160 205 q0 119 71.5 206 q71.5 87 179.5 87 q87 0 130 -52 q43 -52 43 -132 q0 -35 -8 -69 l-353 0 q-3 -21 -3 -43 q0 -66 32 -108.5 q32 -42.5 102 -42.5 q104 0 167 110 l45 -31 q-68 -118 -189 -130 q-94 -62 -94 -115 q0 -51 54 -51 q11 0 22 3 ZM275 437 q-63 0 -109 -47 q-46 -47 -62 -108 l287 0 q2 18 2 29 q0 54 -28 90 q-28 36 -90 36 Z" /><glyph glyph-name="Ecaron" unicode="&#x11a;" d="M411 834 l-96 -81 l-65 0 l148 136 l42 0 l92 -136 l-59 0 l-62 81 ZM501 55 l-12 -55 l-466 0 l145 680 l446 0 l-12 -55 l-383 0 l-53 -247 l347 0 l-11 -55 l-347 0 l-58 -268 l404 0 Z" /><glyph glyph-name="ecaron" unicode="&#x11b;" d="M446 234 l-353 0 q-3 -21 -3 -43 q0 -66 32 -108.5 q32 -42.5 102 -42.5 q104 0 167 110 l45 -31 q-73 -131 -217 -131 q-93 0 -141 52.5 q-48 52.5 -48 153.5 q0 119 71.5 206 q71.5 87 179.5 87 q87 0 130 -52 q43 -52 43 -132 q0 -35 -8 -69 ZM275 437 q-63 0 -109 -47 q-46 -47 -62 -108 l287 0 q2 18 2 29 q0 54 -28 90 q-28 36 -90 36 ZM399 680 l67 0 l-140 -128 l-42 0 l-86 128 l59 0 l54 -77 l88 77 Z" /><glyph glyph-name="Gcircumflex" unicode="&#x11c;" d="M440 834 l-96 -81 l-65 0 l148 136 l42 0 l92 -136 l-59 0 l-62 81 ZM311 44 q102 0 168 70 q54 58 78 168 l1 6 l-243 0 l12 56 l297 0 l-73 -344 l-58 0 l22 97 l-1 1 q-73 -110 -214 -110 q-118 0 -181 73.5 q-63 73.5 -63 208.5 q0 108 39.5 203 q39.5 95 118.5 157 q79 62 182 62 q89 0 149.5 -44 q60.5 -44 83.5 -126 l-57 -36 q-32 150 -182 150 q-86 0 -149.5 -58 q-63.5 -58 -92 -138.5 q-28.5 -80.5 -28.5 -165.5 q0 -107 48 -168.5 q48 -61.5 143 -61.5 Z" /><glyph glyph-name="gcircumflex" unicode="&#x11d;" d="M220 46 q58 0 101 39.5 q43 39.5 61.5 92.5 q18.5 53 18.5 110 q0 69 -32 108.5 q-32 39.5 -95 39.5 q-83 0 -133 -73 q-50 -73 -50 -163 q0 -71 32.5 -112.5 q32.5 -41.5 96.5 -41.5 ZM364 85 l-1 0 q-22 -39 -65.5 -64.5 q-43.5 -25.5 -94.5 -25.5 q-79 0 -125.5 51.5 q-46.5 51.5 -46.5 141.5 q0 123 67.5 211 q67.5 88 174.5 88 q65 0 104 -33 q39 -33 47 -79 l21 101 l59 0 l-92 -439 q-26 -123 -69 -173 q-54 -62 -167 -62 q-93 0 -136.5 42 q-43.5 42 -43.5 101 q0 13 1 20 l58 18 q-1 -8 -1 -22 q0 -109 126 -109 q37 0 64.5 10.5 q27.5 10.5 44 24.5 q16.5 14 30 42 q13.5 28 19.5 49 q6 21 15 59 l11 48 ZM244 552 l-67 0 l140 128 l42 0 l86 -128 l-59 0 l-54 77 l-88 -77 Z" /><glyph glyph-name="Gbreve" unicode="&#x11e;" d="M311 44 q102 0 168 70 q54 58 78 168 l1 6 l-243 0 l12 56 l297 0 l-73 -344 l-58 0 l22 97 l-1 1 q-73 -110 -214 -110 q-118 0 -181 73.5 q-63 73.5 -63 208.5 q0 108 39.5 203 q39.5 95 118.5 157 q79 62 182 62 q89 0 149.5 -44 q60.5 -44 83.5 -126 l-57 -36 q-32 150 -182 150 q-86 0 -149.5 -58 q-63.5 -58 -92 -138.5 q-28.5 -80.5 -28.5 -165.5 q0 -107 48 -168.5 q48 -61.5 143 -61.5 ZM354 850 q2 -67 72 -67 q70 0 100 67 l48 0 q-19 -54 -59 -83 q-40 -29 -94 -29 q-57 0 -88 29.5 q-31 29.5 -27 82.5 l48 0 Z" /><glyph glyph-name="gbreve" unicode="&#x11f;" d="M220 46 q58 0 101 39.5 q43 39.5 61.5 92.5 q18.5 53 18.5 110 q0 69 -32 108.5 q-32 39.5 -95 39.5 q-83 0 -133 -73 q-50 -73 -50 -163 q0 -71 32.5 -112.5 q32.5 -41.5 96.5 -41.5 ZM364 85 l-1 0 q-22 -39 -65.5 -64.5 q-43.5 -25.5 -94.5 -25.5 q-79 0 -125.5 51.5 q-46.5 51.5 -46.5 141.5 q0 123 67.5 211 q67.5 88 174.5 88 q65 0 104 -33 q39 -33 47 -79 l21 101 l59 0 l-92 -439 q-26 -123 -69 -173 q-54 -62 -167 -62 q-93 0 -136.5 42 q-43.5 42 -43.5 101 q0 13 1 20 l58 18 q-1 -8 -1 -22 q0 -109 126 -109 q37 0 64.5 10.5 q27.5 10.5 44 24.5 q16.5 14 30 42 q13.5 28 19.5 49 q6 21 15 59 l11 48 ZM241 649 q2 -67 72 -67 q70 0 100 67 l48 0 q-19 -54 -59 -83 q-40 -29 -94 -29 q-57 0 -88 29.5 q-31 29.5 -27 82.5 l48 0 Z" /><glyph glyph-name="Gdotaccent" unicode="&#x120;" d="M311 44 q102 0 168 70 q54 58 78 168 l1 6 l-243 0 l12 56 l297 0 l-73 -344 l-58 0 l22 97 l-1 1 q-73 -110 -214 -110 q-118 0 -181 73.5 q-63 73.5 -63 208.5 q0 108 39.5 203 q39.5 95 118.5 157 q79 62 182 62 q89 0 149.5 -44 q60.5 -44 83.5 -126 l-57 -36 q-32 150 -182 150 q-86 0 -149.5 -58 q-63.5 -58 -92 -138.5 q-28.5 -80.5 -28.5 -165.5 q0 -107 48 -168.5 q48 -61.5 143 -61.5 ZM385 768 l20 91 l62 0 l-20 -91 l-62 0 Z" /><glyph glyph-name="gdotaccent" unicode="&#x121;" d="M220 46 q58 0 101 39.5 q43 39.5 61.5 92.5 q18.5 53 18.5 110 q0 69 -32 108.5 q-32 39.5 -95 39.5 q-83 0 -133 -73 q-50 -73 -50 -163 q0 -71 32.5 -112.5 q32.5 -41.5 96.5 -41.5 ZM364 85 l-1 0 q-22 -39 -65.5 -64.5 q-43.5 -25.5 -94.5 -25.5 q-79 0 -125.5 51.5 q-46.5 51.5 -46.5 141.5 q0 123 67.5 211 q67.5 88 174.5 88 q65 0 104 -33 q39 -33 47 -79 l21 101 l59 0 l-92 -439 q-26 -123 -69 -173 q-54 -62 -167 -62 q-93 0 -136.5 42 q-43.5 42 -43.5 101 q0 13 1 20 l58 18 q-1 -8 -1 -22 q0 -109 126 -109 q37 0 64.5 10.5 q27.5 10.5 44 24.5 q16.5 14 30 42 q13.5 28 19.5 49 q6 21 15 59 l11 48 ZM263 566 l20 91 l62 0 l-20 -91 l-62 0 Z" /><glyph glyph-name="Gcommaaccent" unicode="&#x122;" d="M311 44 q102 0 168 70 q54 58 78 168 l1 6 l-243 0 l12 56 l297 0 l-73 -344 l-58 0 l22 97 l-1 1 q-73 -110 -214 -110 q-118 0 -181 73.5 q-63 73.5 -63 208.5 q0 108 39.5 203 q39.5 95 118.5 157 q79 62 182 62 q89 0 149.5 -44 q60.5 -44 83.5 -126 l-57 -36 q-32 150 -182 150 q-86 0 -149.5 -58 q-63.5 -58 -92 -138.5 q-28.5 -80.5 -28.5 -165.5 q0 -107 48 -168.5 q48 -61.5 143 -61.5 ZM192 -278 l7 35 q33 9 45 25.5 q12 16.5 21 58.5 l-42 0 l21 94 l77 0 l-24 -110 q-11 -49 -34.5 -72 q-23.5 -23 -70.5 -31 Z" /><glyph glyph-name="gcommaaccent" unicode="&#x123;" d="M220 46 q58 0 101 39.5 q43 39.5 61.5 92.5 q18.5 53 18.5 110 q0 69 -32 108.5 q-32 39.5 -95 39.5 q-83 0 -133 -73 q-50 -73 -50 -163 q0 -71 32.5 -112.5 q32.5 -41.5 96.5 -41.5 ZM364 85 l-1 0 q-22 -39 -65.5 -64.5 q-43.5 -25.5 -94.5 -25.5 q-79 0 -125.5 51.5 q-46.5 51.5 -46.5 141.5 q0 123 67.5 211 q67.5 88 174.5 88 q65 0 104 -33 q39 -33 47 -79 l21 101 l59 0 l-92 -439 q-26 -123 -69 -173 q-54 -62 -167 -62 q-93 0 -136.5 42 q-43.5 42 -43.5 101 q0 13 1 20 l58 18 q-1 -8 -1 -22 q0 -109 126 -109 q37 0 64.5 10.5 q27.5 10.5 44 24.5 q16.5 14 30 42 q13.5 28 19.5 49 q6 21 15 59 l11 48 ZM384 799 l-7 -35 q-33 -9 -45 -25.5 q-12 -16.5 -21 -58.5 l42 0 l-21 -94 l-77 0 l24 110 q11 49 34.5 72 q23.5 23 70.5 31 Z" /><glyph glyph-name="Hcircumflex" unicode="&#x124;" d="M449 834 l-96 -81 l-65 0 l148 136 l42 0 l92 -136 l-59 0 l-62 81 ZM694 680 l-144 -680 l-63 0 l69 322 l-401 0 l-69 -322 l-63 0 l145 680 l63 0 l-64 -301 l401 0 l64 301 l62 0 Z" /><glyph glyph-name="hcircumflex" unicode="&#x125;" d="M360 834 l-96 -81 l-65 0 l148 136 l42 0 l92 -136 l-59 0 l-62 81 ZM153 680 l58 0 l-59 -283 q19 37 65 63.5 q46 26.5 98 26.5 q63 0 97.5 -34 q34.5 -34 34.5 -93 q0 -33 -11 -82 l-59 -278 l-59 0 l54 255 q14 62 14 96 q0 81 -92 81 q-65 0 -111 -50.5 q-46 -50.5 -59 -115.5 l-56 -266 l-59 0 l144 680 Z" /><glyph glyph-name="Hbar" unicode="&#x126;" d="M694 680 l-144 -680 l-63 0 l69 322 l-401 0 l-69 -322 l-63 0 l145 680 l63 0 l-34 -158 l401 0 l34 158 l62 0 ZM167 379 l401 0 l19 90 l-401 0 l-19 -90 Z" /><glyph glyph-name="hbar" unicode="&#x127;" d="M153 680 l58 0 l-16 -75 l165 0 l-11 -53 l-165 0 l-32 -154 q19 37 65 63.5 q46 26.5 98 26.5 q63 0 97.5 -34 q34.5 -34 34.5 -93 q0 -33 -11 -82 l-59 -279 l-59 0 l54 256 q14 62 14 96 q0 81 -92 81 q-65 0 -111 -50.5 q-46 -50.5 -59 -115.5 l-56 -267 l-59 0 l117 552 l-80 0 l11 53 l80 0 l16 75 Z" /><glyph glyph-name="Itilde" unicode="&#x128;" d="M168 680 l63 0 l-145 -680 l-63 0 l145 680 ZM347 868 l41 -10 q-10 -21 -16 -32 q-6 -11 -18 -27 q-12 -16 -27 -23.5 q-15 -7.5 -33 -7.5 q-27 0 -77 26 q-44 22 -55 22 q-33 0 -47 -47 l-42 9 q36 90 96 90 q23 0 67 -22 q46 -23 62 -23 q34 0 49 45 Z" /><glyph glyph-name="itilde" unicode="&#x129;" d="M169 476 l-101 -476 l-59 0 l101 476 l59 0 ZM285 666 l41 -10 q-10 -21 -16 -32 q-6 -11 -18 -27 q-12 -16 -27 -23.5 q-15 -7.5 -33 -7.5 q-27 0 -77 26 q-44 22 -55 22 q-33 0 -47 -47 l-42 9 q36 90 96 90 q23 0 67 -22 q46 -23 62 -23 q34 0 49 45 Z" /><glyph glyph-name="Imacron" unicode="&#x12a;" d="M168 680 l63 0 l-145 -680 l-63 0 l145 680 ZM86 778 l11 53 l271 0 l-11 -53 l-271 0 Z" /><glyph glyph-name="imacron" unicode="&#x12b;" d="M169 476 l-101 -476 l-59 0 l101 476 l59 0 ZM27 579 l11 53 l271 0 l-11 -53 l-271 0 Z" /><glyph glyph-name="Ibreve" unicode="&#x12c;" d="M168 680 l63 0 l-145 -680 l-63 0 l145 680 ZM159 850 q2 -67 72 -67 q70 0 100 67 l48 0 q-19 -54 -59 -83 q-40 -29 -94 -29 q-57 0 -88 29.5 q-31 29.5 -27 82.5 l48 0 Z" /><glyph glyph-name="ibreve" unicode="&#x12d;" d="M169 476 l-101 -476 l-59 0 l101 476 l59 0 ZM100 649 q2 -67 72 -67 q70 0 100 67 l48 0 q-19 -54 -59 -83 q-40 -29 -94 -29 q-57 0 -88 29.5 q-31 29.5 -27 82.5 l48 0 Z" /><glyph glyph-name="Iogonek" unicode="&#x12e;" d="M45 -174 l18 -41 q-22 -6 -46 -6 q-45 0 -71.5 24.5 q-26.5 24.5 -26.5 66.5 q0 70 104 130 l145 680 l63 0 l-145 -680 l-6 0 q-111 -67 -111 -126 q0 -51 54 -51 q11 0 22 3 Z" /><glyph glyph-name="iogonek" unicode="&#x12f;" d="M31 -174 l18 -41 q-23 -6 -46 -6 q-45 0 -71.5 24.5 q-26.5 24.5 -26.5 66.5 q0 70 104 130 l101 476 l59 0 l-101 -476 l-2 0 q-111 -67 -111 -126 q0 -51 54 -51 q12 0 22 3 ZM212 680 l-20 -98 l-59 0 l20 98 l59 0 Z" /><glyph glyph-name="Idotaccent" unicode="&#x130;" d="M168 680 l63 0 l-145 -680 l-63 0 l145 680 ZM186 768 l20 91 l62 0 l-20 -91 l-62 0 Z" /><glyph glyph-name="dotlessi" unicode="&#x131;" d="M169 476 l-101 -476 l-59 0 l101 476 l59 0 Z" /><glyph glyph-name="IJ" unicode="&#x132;" d="M168 680 l63 0 l-145 -680 l-63 0 l145 680 ZM643 680 l62 0 l-96 -454 q-21 -101 -48 -149 q-53 -92 -177 -92 q-87 0 -133.5 41 q-46.5 41 -46.5 120 q0 14 2 34 l65 25 q-5 -28 -5 -47 q0 -55 30 -87.5 q30 -32.5 91 -32.5 q89 0 127 82 q17 36 30 100 l99 460 Z" /><glyph glyph-name="ij" unicode="&#x133;" d="M169 476 l-101 -476 l-59 0 l101 476 l59 0 ZM212 680 l-20 -98 l-59 0 l20 98 l59 0 ZM327 476 l59 0 l-104 -485 q-19 -89 -28 -117 q-9 -28 -28 -48 q-28 -28 -82 -28 q-43 0 -78 20 l13 57 q30 -23 66 -23 q32 0 45 20.5 q13 20.5 25 79.5 l112 524 ZM430 680 l-21 -98 l-59 0 l21 98 l59 0 Z" /><glyph glyph-name="Jcircumflex" unicode="&#x134;" d="M488 834 l-96 -81 l-65 0 l148 136 l42 0 l92 -136 l-59 0 l-62 81 ZM428 680 l62 0 l-96 -454 q-21 -101 -48 -149 q-53 -92 -177 -92 q-87 0 -133.5 41 q-46.5 41 -46.5 120 q0 14 2 34 l65 25 q-5 -28 -5 -47 q0 -55 30 -87.5 q30 -32.5 91 -32.5 q89 0 127 82 q17 36 30 100 l99 460 Z" /><glyph glyph-name="jcircumflex" unicode="&#x135;" d="M110 476 l59 0 l-104 -485 q-19 -89 -28 -117 q-9 -28 -28 -48 q-28 -28 -82 -28 q-43 0 -78 20 l13 57 q30 -23 66 -23 q32 0 45 20.5 q13 20.5 25 79.5 l112 524 ZM79 552 l-67 0 l140 128 l42 0 l86 -128 l-59 0 l-54 77 l-88 -77 Z" /><glyph glyph-name="Kcommaaccent" unicode="&#x136;" d="M367 406 l195 -406 l-73 0 l-173 366 l-182 -155 l-45 -211 l-65 0 l144 680 l66 0 l-83 -384 l451 384 l92 0 l-327 -274 ZM196 -278 l7 35 q33 9 45 25.5 q12 16.5 21 58.5 l-42 0 l21 94 l77 0 l-24 -110 q-11 -49 -34.5 -72 q-23.5 -23 -70.5 -31 Z" /><glyph glyph-name="kcommaaccent" unicode="&#x137;" d="M153 680 l60 0 l-95 -444 l300 240 l90 0 l-229 -177 l141 -299 l-68 0 l-121 261 l-129 -100 l-34 -161 l-59 0 l144 680 ZM119 -278 l7 35 q33 9 45 25.5 q12 16.5 21 58.5 l-42 0 l21 94 l77 0 l-24 -110 q-11 -49 -34.5 -72 q-23.5 -23 -70.5 -31 Z" /><glyph glyph-name="kgreenlandic" unicode="&#x138;" d="M168 475 l-51 -239 l200 161 q43 33 60.5 45.5 q17.5 12.5 44 23 q26.5 10.5 54.5 10.5 l7 0 l-12 -56 l-6 0 q-13 0 -26 -4 q-13 -4 -28.5 -14 q-15.5 -10 -24.5 -17 q-9 -7 -28 -22.5 q-19 -15.5 -25 -20.5 l-55 -43 l141 -299 l-68 0 l-121 261 l-129 -100 l-34 -161 l-59 0 l101 475 l59 0 Z" /><glyph glyph-name="Lacute" unicode="&#x139;" d="M234 753 l-56 0 l102 136 l96 0 l-142 -136 ZM471 55 l-12 -55 l-436 0 l145 680 l62 0 l-133 -625 l374 0 Z" /><glyph glyph-name="lacute" unicode="&#x13a;" d="M227 753 l-56 0 l102 136 l96 0 l-142 -136 ZM159 680 l59 0 l-145 -680 l-59 0 l145 680 Z" /><glyph glyph-name="Lcommaaccent" unicode="&#x13b;" d="M471 55 l-12 -55 l-436 0 l145 680 l62 0 l-133 -625 l374 0 ZM169 -278 l7 35 q33 9 45 25.5 q12 16.5 21 58.5 l-42 0 l21 94 l77 0 l-24 -110 q-11 -49 -34.5 -72 q-23.5 -23 -70.5 -31 Z" /><glyph glyph-name="lcommaaccent" unicode="&#x13c;" d="M159 680 l59 0 l-145 -680 l-59 0 l145 680 ZM-61 -278 l7 35 q33 9 45 25.5 q12 16.5 21 58.5 l-42 0 l21 94 l77 0 l-24 -110 q-11 -49 -34.5 -72 q-23.5 -23 -70.5 -31 Z" /><glyph glyph-name="Lcaron" unicode="&#x13d;" d="M471 55 l-12 -55 l-436 0 l145 680 l62 0 l-133 -625 l374 0 ZM375 553 l-48 0 l49 128 l82 0 l-83 -128 Z" /><glyph glyph-name="lcaron" unicode="&#x13e;" d="M159 680 l59 0 l-145 -680 l-59 0 l145 680 ZM290 552 l-48 0 l49 128 l82 0 l-83 -128 Z" /><glyph glyph-name="Ldot" unicode="&#x13f;" d="M471 55 l-12 -55 l-436 0 l145 680 l62 0 l-133 -625 l374 0 ZM289 476 l78 0 l-25 -114 l-78 0 l25 114 Z" /><glyph glyph-name="ldot" unicode="&#x140;" d="M159 680 l59 0 l-145 -680 l-59 0 l145 680 ZM252 476 l78 0 l-25 -114 l-78 0 l25 114 Z" /><glyph glyph-name="Lslash" unicode="&#x141;" d="M479 55 l-12 -55 l-436 0 l55 258 l-102 -58 l14 62 l101 57 l77 361 l62 0 l-68 -320 l223 127 l-14 -62 l-222 -127 l-52 -243 l374 0 Z" /><glyph glyph-name="lslash" unicode="&#x142;" d="M165 680 l59 0 l-54 -254 l84 48 l-13 -60 l-84 -48 l-78 -366 l-59 0 l70 327 l-78 -44 l12 60 l79 45 l62 292 Z" /><glyph glyph-name="Nacute" unicode="&#x143;" d="M430 753 l-56 0 l102 136 l96 0 l-142 -136 ZM563 0 l-69 0 l-244 511 q-27 56 -38 91 l-1 0 q-4 -35 -17 -97 l-108 -505 l-63 0 l145 680 l69 0 l246 -511 q15 -31 37 -83 l1 0 q6 37 17 90 l107 504 l63 0 l-145 -680 Z" /><glyph glyph-name="nacute" unicode="&#x144;" d="M436 278 l-59 -278 l-59 0 l54 255 q14 62 14 96 q0 81 -92 81 q-65 0 -111 -50.5 q-46 -50.5 -59 -115.5 l-56 -266 l-59 0 l101 476 l59 0 l-17 -79 q19 37 65 63.5 q46 26.5 98 26.5 q63 0 97.5 -34 q34.5 -34 34.5 -93 q0 -33 -11 -82 ZM332 680 l94 0 l-132 -128 l-56 0 l94 128 Z" /><glyph glyph-name="Ncommaaccent" unicode="&#x145;" d="M563 0 l-69 0 l-244 511 q-27 56 -38 91 l-1 0 q-4 -35 -17 -97 l-108 -505 l-63 0 l145 680 l69 0 l246 -511 q15 -31 37 -83 l1 0 q6 37 17 90 l107 504 l63 0 l-145 -680 ZM205 -278 l7 35 q33 9 45 25.5 q12 16.5 21 58.5 l-42 0 l21 94 l77 0 l-24 -110 q-11 -49 -34.5 -72 q-23.5 -23 -70.5 -31 Z" /><glyph glyph-name="ncommaaccent" unicode="&#x146;" d="M436 278 l-59 -278 l-59 0 l54 255 q14 62 14 96 q0 81 -92 81 q-65 0 -111 -50.5 q-46 -50.5 -59 -115.5 l-56 -266 l-59 0 l101 476 l59 0 l-17 -79 q19 37 65 63.5 q46 26.5 98 26.5 q63 0 97.5 -34 q34.5 -34 34.5 -93 q0 -33 -11 -82 ZM106 -278 l7 35 q33 9 45 25.5 q12 16.5 21 58.5 l-42 0 l21 94 l77 0 l-24 -110 q-11 -49 -34.5 -72 q-23.5 -23 -70.5 -31 Z" /><glyph glyph-name="Ncaron" unicode="&#x147;" d="M439 808 l96 81 l65 0 l-148 -136 l-42 0 l-92 136 l59 0 l62 -81 ZM563 0 l-69 0 l-244 511 q-27 56 -38 91 l-1 0 q-4 -35 -17 -97 l-108 -505 l-63 0 l145 680 l69 0 l246 -511 q15 -31 37 -83 l1 0 q6 37 17 90 l107 504 l63 0 l-145 -680 Z" /><glyph glyph-name="ncaron" unicode="&#x148;" d="M436 278 l-59 -278 l-59 0 l54 255 q14 62 14 96 q0 81 -92 81 q-65 0 -111 -50.5 q-46 -50.5 -59 -115.5 l-56 -266 l-59 0 l101 476 l59 0 l-17 -79 q19 37 65 63.5 q46 26.5 98 26.5 q63 0 97.5 -34 q34.5 -34 34.5 -93 q0 -33 -11 -82 ZM379 680 l67 0 l-140 -128 l-42 0 l-86 128 l59 0 l54 -77 l88 77 Z" /><glyph glyph-name="napostrophe" unicode="&#x149;" d="M436 278 l-59 -278 l-59 0 l54 255 q14 62 14 96 q0 81 -92 81 q-65 0 -111 -50.5 q-46 -50.5 -59 -115.5 l-56 -266 l-59 0 l101 476 l59 0 l-17 -79 q19 37 65 63.5 q46 26.5 98 26.5 q63 0 97.5 -34 q34.5 -34 34.5 -93 q0 -33 -11 -82 ZM79 561 l7 35 q33 9 45 25.5 q12 16.5 21 58.5 l-42 0 l21 94 l77 0 l-24 -110 q-11 -49 -34.5 -72 q-23.5 -23 -70.5 -31 Z" /><glyph glyph-name="Eng" unicode="&#x14a;" d="M168 -38 l62 23 l0 -10 q0 -55 30 -87.5 q30 -32.5 91 -32.5 q89 0 127 82 q12 25 22 63 l-250 511 q-27 56 -38 91 l-1 0 q-4 -35 -17 -97 l-108 -505 l-63 0 l145 680 l69 0 l247 -505 q15 -31 37 -83 l1 0 q6 37 17 90 l106 498 l63 0 l-135 -637 q-21 -101 -48 -149 q-53 -92 -177 -92 q-87 0 -133 41 q-46 41 -47 119 Z" /><glyph glyph-name="eng" unicode="&#x14b;" d="M436 279 l-61 -288 q-19 -89 -28 -117 q-9 -28 -28 -48 q-28 -28 -82 -28 q-43 0 -78 20 l13 57 q30 -23 66 -23 q32 0 45 20.5 q13 20.5 25 79.5 l64 304 q14 62 14 96 q0 81 -92 81 q-65 0 -111 -50.5 q-46 -50.5 -59 -115.5 l-56 -267 l-59 0 l101 476 l59 0 l-17 -78 q19 37 65 63.5 q46 26.5 98 26.5 q63 0 97.5 -34 q34.5 -34 34.5 -93 q0 -33 -11 -82 Z" /><glyph glyph-name="Omacron" unicode="&#x14c;" d="M401 692 q113 0 180 -71.5 q67 -71.5 67 -198.5 q0 -81 -22 -157 q-22 -76 -63.5 -138.5 q-41.5 -62.5 -109.5 -100.5 q-68 -38 -152 -38 q-120 0 -183 74 q-63 74 -63 208 q0 108 40 203 q40 95 120.5 157 q80.5 62 185.5 62 ZM310 44 q65 0 119 35 q54 35 86.5 90 q32.5 55 50 118 q17.5 63 17.5 125 q0 104 -49 164 q-49 60 -142 60 q-64 0 -117 -33.5 q-53 -33.5 -86 -87 q-33 -53.5 -51 -116.5 q-18 -63 -18 -125 q0 -107 47.5 -168.5 q47.5 -61.5 142.5 -61.5 ZM293 778 l11 53 l271 0 l-11 -53 l-271 0 Z" /><glyph glyph-name="omacron" unicode="&#x14d;" d="M29 185 q0 77 28 144.5 q28 67.5 88 112.5 q60 45 139 45 q86 0 135 -53 q49 -53 49 -145 q0 -120 -68 -210.5 q-68 -90.5 -187 -90.5 q-86 0 -135 52.5 q-49 52.5 -49 144.5 ZM277 437 q-86 0 -136.5 -75.5 q-50.5 -75.5 -50.5 -169.5 q0 -72 34.5 -112.5 q34.5 -40.5 94.5 -40.5 q87 0 137.5 76.5 q50.5 76.5 50.5 170.5 q0 72 -34.5 111.5 q-34.5 39.5 -95.5 39.5 ZM169 579 l11 53 l271 0 l-11 -53 l-271 0 Z" /><glyph glyph-name="Obreve" unicode="&#x14e;" d="M401 692 q113 0 180 -71.5 q67 -71.5 67 -198.5 q0 -81 -22 -157 q-22 -76 -63.5 -138.5 q-41.5 -62.5 -109.5 -100.5 q-68 -38 -152 -38 q-120 0 -183 74 q-63 74 -63 208 q0 108 40 203 q40 95 120.5 157 q80.5 62 185.5 62 ZM310 44 q65 0 119 35 q54 35 86.5 90 q32.5 55 50 118 q17.5 63 17.5 125 q0 104 -49 164 q-49 60 -142 60 q-64 0 -117 -33.5 q-53 -33.5 -86 -87 q-33 -53.5 -51 -116.5 q-18 -63 -18 -125 q0 -107 47.5 -168.5 q47.5 -61.5 142.5 -61.5 ZM356 850 q2 -67 72 -67 q70 0 100 67 l48 0 q-19 -54 -59 -83 q-40 -29 -94 -29 q-57 0 -88 29.5 q-31 29.5 -27 82.5 l48 0 Z" /><glyph glyph-name="obreve" unicode="&#x14f;" d="M29 185 q0 77 28 144.5 q28 67.5 88 112.5 q60 45 139 45 q86 0 135 -53 q49 -53 49 -145 q0 -120 -68 -210.5 q-68 -90.5 -187 -90.5 q-86 0 -135 52.5 q-49 52.5 -49 144.5 ZM277 437 q-86 0 -136.5 -75.5 q-50.5 -75.5 -50.5 -169.5 q0 -72 34.5 -112.5 q34.5 -40.5 94.5 -40.5 q87 0 137.5 76.5 q50.5 76.5 50.5 170.5 q0 72 -34.5 111.5 q-34.5 39.5 -95.5 39.5 ZM240 649 q2 -67 72 -67 q70 0 100 67 l48 0 q-19 -54 -59 -83 q-40 -29 -94 -29 q-57 0 -88 29.5 q-31 29.5 -27 82.5 l48 0 Z" /><glyph glyph-name="Ohungarumlaut" unicode="&#x150;" d="M401 692 q113 0 180 -71.5 q67 -71.5 67 -198.5 q0 -81 -22 -157 q-22 -76 -63.5 -138.5 q-41.5 -62.5 -109.5 -100.5 q-68 -38 -152 -38 q-120 0 -183 74 q-63 74 -63 208 q0 108 40 203 q40 95 120.5 157 q80.5 62 185.5 62 ZM310 44 q65 0 119 35 q54 35 86.5 90 q32.5 55 50 118 q17.5 63 17.5 125 q0 104 -49 164 q-49 60 -142 60 q-64 0 -117 -33.5 q-53 -33.5 -86 -87 q-33 -53.5 -51 -116.5 q-18 -63 -18 -125 q0 -107 47.5 -168.5 q47.5 -61.5 142.5 -61.5 ZM540 884 l94 0 l-132 -128 l-56 0 l94 128 ZM381 884 l94 0 l-132 -128 l-56 0 l94 128 Z" /><glyph glyph-name="ohungarumlaut" unicode="&#x151;" d="M29 185 q0 77 28 144.5 q28 67.5 88 112.5 q60 45 139 45 q86 0 135 -53 q49 -53 49 -145 q0 -120 -68 -210.5 q-68 -90.5 -187 -90.5 q-86 0 -135 52.5 q-49 52.5 -49 144.5 ZM277 437 q-86 0 -136.5 -75.5 q-50.5 -75.5 -50.5 -169.5 q0 -72 34.5 -112.5 q34.5 -40.5 94.5 -40.5 q87 0 137.5 76.5 q50.5 76.5 50.5 170.5 q0 72 -34.5 111.5 q-34.5 39.5 -95.5 39.5 ZM423 680 l94 0 l-132 -128 l-56 0 l94 128 ZM264 680 l94 0 l-132 -128 l-56 0 l94 128 Z" /><glyph glyph-name="OE" unicode="&#x152;" d="M827 55 l-12 -55 l-425 0 l4 16 q-48 -17 -93 -17 q-119 0 -181 73 q-62 73 -62 206 q0 107 39 200 q39 93 118.5 153.5 q79.5 60.5 183.5 60.5 q77 0 131 -33 l5 21 l405 0 l-12 -55 l-342 0 l-53 -247 l306 0 l-11 -55 l-306 0 l-58 -268 l363 0 ZM309 52 q51 0 97 24 l111 518 q-51 45 -127 45 q-63 0 -115.5 -33 q-52.5 -33 -85 -86 q-32.5 -53 -50 -115 q-17.5 -62 -17.5 -123 q0 -107 46.5 -168.5 q46.5 -61.5 140.5 -61.5 Z" /><glyph glyph-name="oe" unicode="&#x153;" d="M408 96 q-71 -108 -197 -108 q-89 0 -135 52.5 q-46 52.5 -46 144.5 q0 122 67.5 212 q67.5 90 183.5 90 q62 0 105.5 -27.5 q43.5 -27.5 62.5 -79.5 q74 107 195 107 q87 0 130 -52 q43 -52 43 -132 q0 -35 -8 -69 l-353 0 q-3 -21 -3 -43 q0 -66 32 -108.5 q32 -42.5 102 -42.5 q104 0 167 110 l45 -31 q-73 -131 -217 -131 q-134 0 -174 108 ZM121 80.5 q31 -40.5 94 -40.5 q63 0 107.5 41.5 q44.5 41.5 62.5 95.5 q18 54 18 111 q0 148 -129 148 q-58 0 -101.5 -39 q-43.5 -39 -63 -93 q-19.5 -54 -19.5 -111 q0 -72 31 -112.5 ZM638 437 q-63 0 -109 -47 q-46 -47 -62 -108 l287 0 q2 18 2 29 q0 54 -28 90 q-28 36 -90 36 Z" /><glyph glyph-name="Racute" unicode="&#x154;" d="M394 753 l-56 0 l102 136 l96 0 l-142 -136 ZM364 300 l-215 0 l-64 -300 l-62 0 l145 680 l237 0 q101 0 151 -28 q72 -40 72 -128 q0 -65 -27.5 -116 q-27.5 -51 -77.5 -79 q-38 -21 -96 -26 l119 -303 l-68 0 l-114 300 ZM161 356 l202 0 q99 0 141 29 q63 43 63 134 q0 71 -68 95 q-32 11 -98 11 l-183 0 l-57 -269 Z" /><glyph glyph-name="racute" unicode="&#x155;" d="M345 483 l-13 -60 q-16 4 -36 4 q-64 0 -110.5 -46.5 q-46.5 -46.5 -60.5 -111.5 l-57 -269 l-59 0 l101 476 l59 0 l-20 -92 q21 42 65 72.5 q44 30.5 96 30.5 q20 0 35 -4 ZM216 680 l94 0 l-132 -128 l-56 0 l94 128 Z" /><glyph glyph-name="Rcommaaccent" unicode="&#x156;" d="M364 300 l-215 0 l-64 -300 l-62 0 l145 680 l237 0 q101 0 151 -28 q72 -40 72 -128 q0 -65 -27.5 -116 q-27.5 -51 -77.5 -79 q-38 -21 -96 -26 l119 -303 l-68 0 l-114 300 ZM161 356 l202 0 q99 0 141 29 q63 43 63 134 q0 71 -68 95 q-32 11 -98 11 l-183 0 l-57 -269 ZM182 -278 l7 35 q33 9 45 25.5 q12 16.5 21 58.5 l-42 0 l21 94 l77 0 l-24 -110 q-11 -49 -34.5 -72 q-23.5 -23 -70.5 -31 Z" /><glyph glyph-name="rcommaaccent" unicode="&#x157;" d="M345 483 l-13 -60 q-16 4 -36 4 q-64 0 -110.5 -46.5 q-46.5 -46.5 -60.5 -111.5 l-57 -269 l-59 0 l101 476 l59 0 l-20 -92 q21 42 65 72.5 q44 30.5 96 30.5 q20 0 35 -4 ZM-66 -278 l7 35 q33 9 45 25.5 q12 16.5 21 58.5 l-42 0 l21 94 l77 0 l-24 -110 q-11 -49 -34.5 -72 q-23.5 -23 -70.5 -31 Z" /><glyph glyph-name="Rcaron" unicode="&#x158;" d="M384 808 l96 81 l65 0 l-148 -136 l-42 0 l-92 136 l59 0 l62 -81 ZM364 300 l-215 0 l-64 -300 l-62 0 l145 680 l237 0 q101 0 151 -28 q72 -40 72 -128 q0 -65 -27.5 -116 q-27.5 -51 -77.5 -79 q-38 -21 -96 -26 l119 -303 l-68 0 l-114 300 ZM161 356 l202 0 q99 0 141 29 q63 43 63 134 q0 71 -68 95 q-32 11 -98 11 l-183 0 l-57 -269 Z" /><glyph glyph-name="rcaron" unicode="&#x159;" d="M345 483 l-13 -60 q-16 4 -36 4 q-64 0 -110.5 -46.5 q-46.5 -46.5 -60.5 -111.5 l-57 -269 l-59 0 l101 476 l59 0 l-20 -92 q21 42 65 72.5 q44 30.5 96 30.5 q20 0 35 -4 ZM323 680 l67 0 l-140 -128 l-42 0 l-86 128 l59 0 l54 -77 l88 77 Z" /><glyph glyph-name="Sacute" unicode="&#x15a;" d="M362 753 l-56 0 l102 136 l96 0 l-142 -136 ZM560 566 l-50 -38 q-24 49 -73 78.5 q-49 29.5 -119 29.5 q-72 0 -117.5 -30.5 q-45.5 -30.5 -45.5 -87.5 q0 -52 30.5 -77.5 q30.5 -25.5 95.5 -48.5 l95 -35 q74 -27 115 -63.5 q41 -36.5 41 -106.5 q0 -97 -69.5 -148 q-69.5 -51 -178.5 -51 q-103 0 -171 48.5 q-68 48.5 -92 130.5 l55 35 q14 -67 67 -113 q53 -46 142 -46 q86 0 133.5 36 q47.5 36 47.5 99 q0 53 -33 78.5 q-33 25.5 -104 51.5 l-95 35 q-26 9 -42 16 q-16 7 -38 21.5 q-22 14.5 -34 30.5 q-12 16 -21 41.5 q-9 25.5 -9 57.5 q0 81 63.5 131.5 q63.5 50.5 167.5 50.5 q88 0 148.5 -36 q60.5 -36 90.5 -90 Z" /><glyph glyph-name="sacute" unicode="&#x15b;" d="M400 389 l-48 -34 q-39 82 -130 82 q-45 0 -73.5 -20 q-28.5 -20 -28.5 -58 q0 -32 18 -47.5 q18 -15.5 61 -30.5 l65 -24 q54 -20 84 -46 q30 -26 30 -76 q0 -70 -50.5 -108.5 q-50.5 -38.5 -127.5 -38.5 q-76 0 -127 36 q-51 36 -71 98 l51 32 q38 -116 151 -116 q48 0 79 23 q31 23 31 65 q0 33 -19 48.5 q-19 15.5 -67 32.5 l-67 25 q-22 8 -35.5 15 q-13.5 7 -31.5 20.5 q-18 13.5 -27 34 q-9 20.5 -9 48.5 q0 64 49 100.5 q49 36.5 118 36.5 q125 0 175 -98 ZM303 680 l94 0 l-132 -128 l-56 0 l94 128 Z" /><glyph glyph-name="Scircumflex" unicode="&#x15c;" d="M384 834 l-96 -81 l-65 0 l148 136 l42 0 l92 -136 l-59 0 l-62 81 ZM560 566 l-50 -38 q-24 49 -73 78.5 q-49 29.5 -119 29.5 q-72 0 -117.5 -30.5 q-45.5 -30.5 -45.5 -87.5 q0 -52 30.5 -77.5 q30.5 -25.5 95.5 -48.5 l95 -35 q74 -27 115 -63.5 q41 -36.5 41 -106.5 q0 -97 -69.5 -148 q-69.5 -51 -178.5 -51 q-103 0 -171 48.5 q-68 48.5 -92 130.5 l55 35 q14 -67 67 -113 q53 -46 142 -46 q86 0 133.5 36 q47.5 36 47.5 99 q0 53 -33 78.5 q-33 25.5 -104 51.5 l-95 35 q-26 9 -42 16 q-16 7 -38 21.5 q-22 14.5 -34 30.5 q-12 16 -21 41.5 q-9 25.5 -9 57.5 q0 81 63.5 131.5 q63.5 50.5 167.5 50.5 q88 0 148.5 -36 q60.5 -36 90.5 -90 Z" /><glyph glyph-name="scircumflex" unicode="&#x15d;" d="M400 389 l-48 -34 q-39 82 -130 82 q-45 0 -73.5 -20 q-28.5 -20 -28.5 -58 q0 -32 18 -47.5 q18 -15.5 61 -30.5 l65 -24 q54 -20 84 -46 q30 -26 30 -76 q0 -70 -50.5 -108.5 q-50.5 -38.5 -127.5 -38.5 q-76 0 -127 36 q-51 36 -71 98 l51 32 q38 -116 151 -116 q48 0 79 23 q31 23 31 65 q0 33 -19 48.5 q-19 15.5 -67 32.5 l-67 25 q-22 8 -35.5 15 q-13.5 7 -31.5 20.5 q-18 13.5 -27 34 q-9 20.5 -9 48.5 q0 64 49 100.5 q49 36.5 118 36.5 q125 0 175 -98 ZM205 552 l-67 0 l140 128 l42 0 l86 -128 l-59 0 l-54 77 l-88 -77 Z" /><glyph glyph-name="Scedilla" unicode="&#x15e;" d="M208 -62 l48 51 q-92 7 -152.5 54.5 q-60.5 47.5 -82.5 123.5 l55 35 q14 -67 67 -113 q53 -46 142 -46 q86 0 133.5 36 q47.5 36 47.5 99 q0 53 -33 78.5 q-33 25.5 -104 51.5 l-95 35 q-26 9 -42 16 q-16 7 -38 21.5 q-22 14.5 -34 30.5 q-12 16 -21 41.5 q-9 25.5 -9 57.5 q0 81 63.5 131.5 q63.5 50.5 167.5 50.5 q88 0 148.5 -36 q60.5 -36 90.5 -90 l-50 -38 q-24 49 -73 78.5 q-49 29.5 -119 29.5 q-72 0 -117.5 -30.5 q-45.5 -30.5 -45.5 -87.5 q0 -52 30.5 -77.5 q30.5 -25.5 95.5 -48.5 l95 -35 q74 -27 115 -63.5 q41 -36.5 41 -106.5 q0 -94 -65.5 -145 q-65.5 -51 -170.5 -54 l-32 -33 q4 1 13 1 q30 0 49.5 -17 q19.5 -17 19.5 -46 q0 -39 -31 -62.5 q-31 -23.5 -77 -23.5 q-26 0 -51 9 l15 28 q14 -5 31 -5 q27 0 45 11.5 q18 11.5 18 34.5 q0 37 -48 37 q-15 0 -31 -7 l-9 23 Z" /><glyph glyph-name="scedilla" unicode="&#x15f;" d="M128 -62 l48 51 q-66 6 -111 41 q-45 35 -63 92 l51 32 q38 -116 151 -116 q48 0 79 23 q31 23 31 65 q0 33 -19 48.5 q-19 15.5 -67 32.5 l-67 25 q-22 8 -35.5 15 q-13.5 7 -31.5 20.5 q-18 13.5 -27 34 q-9 20.5 -9 48.5 q0 64 49 100.5 q49 36.5 118 36.5 q125 0 175 -98 l-48 -34 q-39 82 -130 82 q-45 0 -73.5 -20 q-28.5 -20 -28.5 -58 q0 -32 18 -47.5 q18 -15.5 61 -30.5 l65 -24 q54 -20 84 -46 q30 -26 30 -76 q0 -67 -46 -105 q-46 -38 -116 -42 l-32 -33 q4 1 13 1 q30 0 49.5 -17 q19.5 -17 19.5 -46 q0 -39 -31 -62.5 q-31 -23.5 -77 -23.5 q-26 0 -51 9 l15 28 q14 -5 31 -5 q27 0 45 11.5 q18 11.5 18 34.5 q0 37 -48 37 q-15 0 -31 -7 l-9 23 Z" /><glyph glyph-name="Scaron" unicode="&#x160;" d="M560 566 l-50 -38 q-24 49 -73 78.5 q-49 29.5 -119 29.5 q-72 0 -117.5 -30.5 q-45.5 -30.5 -45.5 -87.5 q0 -52 30.5 -77.5 q30.5 -25.5 95.5 -48.5 l95 -35 q74 -27 115 -63.5 q41 -36.5 41 -106.5 q0 -97 -69.5 -148 q-69.5 -51 -178.5 -51 q-103 0 -171 48.5 q-68 48.5 -92 130.5 l55 35 q14 -67 67 -113 q53 -46 142 -46 q86 0 133.5 36 q47.5 36 47.5 99 q0 53 -33 78.5 q-33 25.5 -104 51.5 l-95 35 q-26 9 -42 16 q-16 7 -38 21.5 q-22 14.5 -34 30.5 q-12 16 -21 41.5 q-9 25.5 -9 57.5 q0 81 63.5 131.5 q63.5 50.5 167.5 50.5 q88 0 148.5 -36 q60.5 -36 90.5 -90 ZM360 808 l96 81 l65 0 l-148 -136 l-42 0 l-92 136 l59 0 l62 -81 Z" /><glyph glyph-name="scaron" unicode="&#x161;" d="M348 680 l67 0 l-140 -128 l-42 0 l-86 128 l59 0 l54 -77 l88 77 ZM400 389 l-48 -34 q-39 82 -130 82 q-45 0 -73.5 -20 q-28.5 -20 -28.5 -58 q0 -32 18 -47.5 q18 -15.5 61 -30.5 l65 -24 q54 -20 84 -46 q30 -26 30 -76 q0 -70 -50.5 -108.5 q-50.5 -38.5 -127.5 -38.5 q-76 0 -127 36 q-51 36 -71 98 l51 32 q38 -116 151 -116 q48 0 79 23 q31 23 31 65 q0 33 -19 48.5 q-19 15.5 -67 32.5 l-67 25 q-22 8 -35.5 15 q-13.5 7 -31.5 20.5 q-18 13.5 -27 34 q-9 20.5 -9 48.5 q0 64 49 100.5 q49 36.5 118 36.5 q125 0 175 -98 Z" /><glyph glyph-name="uni0162" unicode="&#x162;" d="M123 -62 l58 62 l-9 0 l133 625 l-219 0 l12 55 l500 0 l-12 -55 l-219 0 l-133 -625 l-12 0 l-43 -45 q4 1 13 1 q30 0 49.5 -17 q19.5 -17 19.5 -46 q0 -39 -31 -62.5 q-31 -23.5 -77 -23.5 q-25 0 -51 9 l15 28 q14 -5 31 -5 q27 0 45 11.5 q18 11.5 18 34.5 q0 37 -48 37 q-15 0 -31 -7 l-9 23 Z" /><glyph glyph-name="uni0163" unicode="&#x163;" d="M42 -62 l53 57 q-36 12 -36 55 q0 16 6 46 l71 331 l-96 0 l10 49 l96 0 l40 179 l61 12 l-42 -191 l114 0 l-10 -49 l-114 0 l-67 -311 q-6 -27 -6 -40 q0 -32 34 -32 q36 0 77 22 l-12 -58 q-39 -18 -89 -18 l-1 0 l-33 -35 q4 1 13 1 q30 0 49.5 -17 q19.5 -17 19.5 -46 q0 -39 -31 -62.5 q-31 -23.5 -77 -23.5 q-26 0 -51 9 l15 28 q14 -5 31 -5 q27 0 45 11.5 q18 11.5 18 34.5 q0 37 -48 37 q-15 0 -31 -7 l-9 23 Z" /><glyph glyph-name="Tcaron" unicode="&#x164;" d="M373 808 l96 81 l65 0 l-148 -136 l-42 0 l-92 136 l59 0 l62 -81 ZM86 625 l12 55 l500 0 l-12 -55 l-219 0 l-133 -625 l-62 0 l133 625 l-219 0 Z" /><glyph glyph-name="tcaron" unicode="&#x165;" d="M40 427 l10 49 l96 0 l40 179 l61 12 l-42 -191 l114 0 l-10 -49 l-114 0 l-67 -311 q-6 -27 -6 -40 q0 -32 34 -32 q36 0 77 22 l-12 -58 q-39 -18 -89 -18 q-73 0 -73 60 q0 16 6 46 l71 331 l-96 0 ZM350 552 l-48 0 l49 128 l82 0 l-83 -128 Z" /><glyph glyph-name="Tbar" unicode="&#x166;" d="M86 625 l12 55 l500 0 l-12 -55 l-219 0 l-37 -173 l133 0 l-11 -53 l-133 0 l-85 -399 l-62 0 l85 399 l-136 0 l11 53 l136 0 l37 173 l-219 0 Z" /><glyph glyph-name="tbar" unicode="&#x167;" d="M48 427 l10 49 l96 0 l40 179 l61 12 l-42 -191 l114 0 l-10 -49 l-114 0 l-26 -119 l119 0 l-11 -53 l-119 0 l-30 -139 q-6 -27 -6 -40 q0 -32 34 -32 q36 0 77 22 l-12 -58 q-39 -18 -89 -18 q-73 0 -73 60 q0 16 6 46 l34 159 l-103 0 l11 53 l103 0 l26 119 l-96 0 Z" /><glyph glyph-name="Utilde" unicode="&#x168;" d="M291 -13 q-112 0 -170 52 q-58 52 -58 145 q0 31 12 91 l87 405 l62 0 l-85 -401 q-13 -61 -13 -90 q0 -146 172 -146 q96 0 149 49 q49 46 74 155 l92 433 l62 0 l-90 -425 q-32 -146 -94 -204 q-67 -64 -200 -64 ZM561 868 l41 -10 q-10 -21 -16 -32 q-6 -11 -18 -27 q-12 -16 -27 -23.5 q-15 -7.5 -33 -7.5 q-27 0 -77 26 q-44 22 -55 22 q-33 0 -47 -47 l-42 9 q36 90 96 90 q23 0 67 -22 q46 -23 62 -23 q34 0 49 45 Z" /><glyph glyph-name="utilde" unicode="&#x169;" d="M46 197 l59 279 l59 0 l-54 -256 q-14 -62 -14 -97 q0 -80 88 -80 q65 0 110.5 50.5 q45.5 50.5 58.5 115.5 l56 267 l59 0 l-101 -476 l-59 0 l17 78 q-19 -37 -64 -63.5 q-45 -26.5 -98 -26.5 q-60 0 -94 33.5 q-34 33.5 -34 90.5 q0 36 11 85 ZM432 666 l41 -10 q-10 -21 -16 -32 q-6 -11 -18 -27 q-12 -16 -27 -23.5 q-15 -7.5 -33 -7.5 q-27 0 -77 26 q-44 22 -55 22 q-33 0 -47 -47 l-42 9 q36 90 96 90 q23 0 67 -22 q46 -23 62 -23 q34 0 49 45 Z" /><glyph glyph-name="Umacron" unicode="&#x16a;" d="M291 -13 q-112 0 -170 52 q-58 52 -58 145 q0 31 12 91 l87 405 l62 0 l-85 -401 q-13 -61 -13 -90 q0 -146 172 -146 q96 0 149 49 q49 46 74 155 l92 433 l62 0 l-90 -425 q-32 -146 -94 -204 q-67 -64 -200 -64 ZM299 778 l11 53 l271 0 l-11 -53 l-271 0 Z" /><glyph glyph-name="umacron" unicode="&#x16b;" d="M46 197 l59 279 l59 0 l-54 -256 q-14 -62 -14 -97 q0 -80 88 -80 q65 0 110.5 50.5 q45.5 50.5 58.5 115.5 l56 267 l59 0 l-101 -476 l-59 0 l17 78 q-19 -37 -64 -63.5 q-45 -26.5 -98 -26.5 q-60 0 -94 33.5 q-34 33.5 -34 90.5 q0 36 11 85 ZM173 579 l11 53 l271 0 l-11 -53 l-271 0 Z" /><glyph glyph-name="Ubreve" unicode="&#x16c;" d="M291 -13 q-112 0 -170 52 q-58 52 -58 145 q0 31 12 91 l87 405 l62 0 l-85 -401 q-13 -61 -13 -90 q0 -146 172 -146 q96 0 149 49 q49 46 74 155 l92 433 l62 0 l-90 -425 q-32 -146 -94 -204 q-67 -64 -200 -64 ZM370 850 q2 -67 72 -67 q70 0 100 67 l48 0 q-19 -54 -59 -83 q-40 -29 -94 -29 q-57 0 -88 29.5 q-31 29.5 -27 82.5 l48 0 Z" /><glyph glyph-name="ubreve" unicode="&#x16d;" d="M46 197 l59 279 l59 0 l-54 -256 q-14 -62 -14 -97 q0 -80 88 -80 q65 0 110.5 50.5 q45.5 50.5 58.5 115.5 l56 267 l59 0 l-101 -476 l-59 0 l17 78 q-19 -37 -64 -63.5 q-45 -26.5 -98 -26.5 q-60 0 -94 33.5 q-34 33.5 -34 90.5 q0 36 11 85 ZM248 649 q2 -67 72 -67 q70 0 100 67 l48 0 q-19 -54 -59 -83 q-40 -29 -94 -29 q-57 0 -88 29.5 q-31 29.5 -27 82.5 l48 0 Z" /><glyph glyph-name="Uring" unicode="&#x16e;" d="M291 -13 q-112 0 -170 52 q-58 52 -58 145 q0 31 12 91 l87 405 l62 0 l-85 -401 q-13 -61 -13 -90 q0 -146 172 -146 q96 0 149 49 q49 46 74 155 l92 433 l62 0 l-90 -425 q-32 -146 -94 -204 q-67 -64 -200 -64 ZM391 761.5 q-24 23.5 -24 57.5 q0 34 24 57.5 q24 23.5 58 23.5 q34 0 58 -23.5 q24 -23.5 24 -57.5 q0 -34 -24 -57.5 q-24 -23.5 -58 -23.5 q-34 0 -58 23.5 ZM418 849.5 q-13 -12.5 -13 -30.5 q0 -18 13 -30.5 q13 -12.5 30 -12.5 q17 0 30 12.5 q13 12.5 13 30.5 q0 18 -13 30.5 q-13 12.5 -30 12.5 q-17 0 -30 -12.5 Z" /><glyph glyph-name="uring" unicode="&#x16f;" d="M46 197 l59 279 l59 0 l-54 -256 q-14 -62 -14 -97 q0 -80 88 -80 q65 0 110.5 50.5 q45.5 50.5 58.5 115.5 l56 267 l59 0 l-101 -476 l-59 0 l17 78 q-19 -37 -64 -63.5 q-45 -26.5 -98 -26.5 q-60 0 -94 33.5 q-34 33.5 -34 90.5 q0 36 11 85 ZM246 560.5 q-24 23.5 -24 57.5 q0 34 24 57.5 q24 23.5 58 23.5 q34 0 58 -23.5 q24 -23.5 24 -57.5 q0 -34 -24 -57.5 q-24 -23.5 -58 -23.5 q-34 0 -58 23.5 ZM273 648.5 q-13 -12.5 -13 -30.5 q0 -18 13 -30.5 q13 -12.5 30 -12.5 q17 0 30 12.5 q13 12.5 13 30.5 q0 18 -13 30.5 q-13 12.5 -30 12.5 q-17 0 -30 -12.5 Z" /><glyph glyph-name="Uhungarumlaut" unicode="&#x170;" d="M291 -13 q-112 0 -170 52 q-58 52 -58 145 q0 31 12 91 l87 405 l62 0 l-85 -401 q-13 -61 -13 -90 q0 -146 172 -146 q96 0 149 49 q49 46 74 155 l92 433 l62 0 l-90 -425 q-32 -146 -94 -204 q-67 -64 -200 -64 ZM538 882 l94 0 l-132 -128 l-56 0 l94 128 ZM379 882 l94 0 l-132 -128 l-56 0 l94 128 Z" /><glyph glyph-name="uhungarumlaut" unicode="&#x171;" d="M46 197 l59 279 l59 0 l-54 -256 q-14 -62 -14 -97 q0 -80 88 -80 q65 0 110.5 50.5 q45.5 50.5 58.5 115.5 l56 267 l59 0 l-101 -476 l-59 0 l17 78 q-19 -37 -64 -63.5 q-45 -26.5 -98 -26.5 q-60 0 -94 33.5 q-34 33.5 -34 90.5 q0 36 11 85 ZM418 680 l94 0 l-132 -128 l-56 0 l94 128 ZM259 680 l94 0 l-132 -128 l-56 0 l94 128 Z" /><glyph glyph-name="Uogonek" unicode="&#x172;" d="M296 -174 l18 -41 q-22 -6 -46 -6 q-45 0 -71.5 24.5 q-26.5 24.5 -26.5 66.5 q0 61 85 118 q-95 9 -143.5 60 q-48.5 51 -48.5 136 q0 31 12 91 l87 405 l62 0 l-85 -401 q-13 -61 -13 -90 q0 -146 172 -146 q96 0 149 49 q49 46 74 155 l92 433 l62 0 l-90 -425 q-32 -146 -94 -204 q-63 -60 -181 -64 q-90 -63 -90 -113 q0 -51 54 -51 q12 0 22 3 Z" /><glyph glyph-name="uogonek" unicode="&#x173;" d="M330 -174 l18 -41 q-23 -6 -46 -6 q-45 0 -71.5 24.5 q-26.5 24.5 -26.5 66.5 q0 70 104 130 l17 78 q-19 -37 -64 -63.5 q-45 -26.5 -98 -26.5 q-60 0 -94 33.5 q-34 33.5 -34 90.5 q0 36 11 85 l59 279 l59 0 l-54 -256 q-14 -62 -14 -97 q0 -80 88 -80 q65 0 110.5 50.5 q45.5 50.5 58.5 115.5 l56 267 l59 0 l-101 -476 l-2 0 q-111 -67 -111 -126 q0 -51 54 -51 q12 0 22 3 Z" /><glyph glyph-name="Wcircumflex" unicode="&#x174;" d="M556 834 l-96 -81 l-65 0 l148 136 l42 0 l92 -136 l-59 0 l-62 81 ZM606 0 l-58 0 l-35 406 q-12 134 -12 170 l-1 0 q-21 -55 -82 -172 l-205 -404 l-57 0 l-55 680 l62 0 l34 -403 q12 -147 12 -167 l1 0 q19 49 80 167 l202 403 l59 0 l37 -403 q12 -147 12 -168 l1 0 q13 35 79 166 l200 405 l66 0 l-340 -680 Z" /><glyph glyph-name="wcircumflex" unicode="&#x175;" d="M410 476 l28 -288 q2 -23 5.5 -62 q3.5 -39 3.5 -42 l1 0 q15 33 54 109 l148 283 l60 0 l-253 -476 l-56 0 l-27 306 q-2 23 -3.5 53.5 q-1.5 30.5 -1.5 33.5 l-1 0 l-44 -88 l-156 -305 l-53 0 l-59 476 l59 0 l33 -286 q6 -42 11 -105 l1 0 q37 78 52 106 l147 285 l51 0 ZM331 552 l-67 0 l140 128 l42 0 l86 -128 l-59 0 l-54 77 l-88 -77 Z" /><glyph glyph-name="Ycircumflex" unicode="&#x176;" d="M396 834 l-96 -81 l-65 0 l148 136 l42 0 l92 -136 l-59 0 l-62 81 ZM250 0 l-63 0 l60 280 l-161 400 l67 0 l138 -338 l283 338 l76 0 l-340 -400 l-60 -280 Z" /><glyph glyph-name="ycircumflex" unicode="&#x177;" d="M120 476 l44 -317 l12 -83 l1 0 q17 32 50 86 l187 314 l63 0 l-327 -540 q-41 -69 -59 -91 q-38 -47 -96 -47 q-34 0 -61 18 l11 56 q26 -21 55 -21 q29 0 47 21 q14 16 38 56 l43 74 l-69 474 l61 0 ZM206 552 l-67 0 l140 128 l42 0 l86 -128 l-59 0 l-54 77 l-88 -77 Z" /><glyph glyph-name="Ydieresis" unicode="&#x178;" d="M250 0 l-63 0 l60 280 l-161 400 l67 0 l138 -338 l283 338 l76 0 l-340 -400 l-60 -280 ZM242 768 l19 91 l62 0 l-19 -91 l-62 0 ZM429 768 l19 91 l62 0 l-19 -91 l-62 0 Z" /><glyph glyph-name="Zacute" unicode="&#x179;" d="M370 753 l-56 0 l102 136 l96 0 l-142 -136 ZM484 55 l-12 -55 l-511 0 l9 41 l537 584 l-391 0 l12 55 l480 0 l-10 -45 l-532 -580 l418 0 Z" /><glyph glyph-name="zacute" unicode="&#x17a;" d="M328 50 l-11 -50 l-347 0 l8 40 l339 387 l-244 0 l10 49 l321 0 l-8 -39 l-340 -387 l272 0 ZM282 680 l94 0 l-132 -128 l-56 0 l94 128 Z" /><glyph glyph-name="Zdotaccent" unicode="&#x17b;" d="M484 55 l-12 -55 l-511 0 l9 41 l537 584 l-391 0 l12 55 l480 0 l-10 -45 l-532 -580 l418 0 ZM344 768 l20 91 l62 0 l-20 -91 l-62 0 Z" /><glyph glyph-name="zdotaccent" unicode="&#x17c;" d="M328 50 l-11 -50 l-347 0 l8 40 l339 387 l-244 0 l10 49 l321 0 l-8 -39 l-340 -387 l272 0 ZM227 566 l20 91 l62 0 l-20 -91 l-62 0 Z" /><glyph glyph-name="Zcaron" unicode="&#x17d;" d="M484 55 l-12 -55 l-511 0 l9 41 l537 584 l-391 0 l12 55 l480 0 l-10 -45 l-532 -580 l418 0 ZM382 808 l96 81 l65 0 l-148 -136 l-42 0 l-92 136 l59 0 l62 -81 Z" /><glyph glyph-name="zcaron" unicode="&#x17e;" d="M328 50 l-11 -50 l-347 0 l8 40 l339 387 l-244 0 l10 49 l321 0 l-8 -39 l-340 -387 l272 0 ZM345 680 l67 0 l-140 -128 l-42 0 l-86 128 l59 0 l54 -77 l88 77 Z" /><glyph glyph-name="florin" unicode="&#x192;" d="M25 -190 l21 52 q40 -9 67 -9 q32 0 47 14 q19 16 31 76 l101 479 l-112 0 l11 54 l111 0 l20 99 q13 63 42.5 90.5 q29.5 27.5 81.5 27.5 q41 0 95 -16 l-16 -52 q-53 11 -72 11 q-30 0 -47 -18 q-17 -17 -26 -64 l-16 -78 l116 0 l-11 -54 l-115 0 l-107 -502 q-14 -64 -44 -93 q-30 -29 -85 -29 q-45 0 -93 12 Z" /><glyph glyph-name="Aringacute" unicode="&#x1fa;" d="M363.5 724 q-16.5 16 -16.5 39 q0 23 16.5 39 q16.5 16 39.5 16 q23 0 39 -16 q16 -16 16 -39 q0 -23 -16 -39 q-16 -16 -39 -16 q-23 0 -39.5 16 ZM373 763 q0 -13 8.5 -21 q8.5 -8 20.5 -8 q12 0 20.5 8 q8.5 8 8.5 21 q0 12 -8.5 20.5 q-8.5 8.5 -20.5 8.5 q-12 0 -20.5 -8.5 q-8.5 -8.5 -8.5 -20.5 ZM396 839 l-56 0 l86 80 l96 0 l-126 -80 ZM140 205 l-120 -205 l-69 0 l403 680 l64 0 l115 -680 l-65 0 l-33 205 l-295 0 ZM426 260 l-40 255 q-6 37 -14 95 l-1 0 q-31 -60 -45 -84 l-155 -266 l255 0 Z" /><glyph glyph-name="aringacute" unicode="&#x1fb;" d="M247.5 544 q-16.5 16 -16.5 39 q0 23 16.5 39 q16.5 16 39.5 16 q23 0 39 -16 q16 -16 16 -39 q0 -23 -16 -39 q-16 -16 -39 -16 q-23 0 -39.5 16 ZM257 583 q0 -13 8.5 -21 q8.5 -8 20.5 -8 q12 0 20.5 8 q8.5 8 8.5 21 q0 12 -8.5 20.5 q-8.5 8.5 -20.5 8.5 q-12 0 -20.5 -8.5 q-8.5 -8.5 -8.5 -20.5 ZM288 659 l-56 0 l86 80 l96 0 l-126 -80 ZM320 158 l21 96 q-10 -6 -78 -19 l-50 -9 q-68 -12 -105 -34 q-37 -22 -37 -71 q0 -83 97 -83 q55 0 97 29.5 q42 29.5 55 90.5 ZM117 329 l-54 13 q8 74 64.5 109.5 q56.5 35.5 134.5 35.5 q156 0 156 -118 q0 -23 -7 -55 l-46 -216 q-4 -19 -4 -30 q0 -28 30 -28 q22 0 38 10 l-10 -47 q-18 -10 -49 -10 q-65 0 -65 51 q0 10 3 22 l-1 1 q-45 -79 -154 -79 q-63 0 -102 33.5 q-39 33.5 -39 93.5 q0 72 49 107 q49 35 147 51 l111 19 q20 4 27.5 10.5 q7.5 6.5 10.5 21.5 q5 23 5 38 q0 76 -107 76 q-64 0 -98 -30 q-34 -30 -40 -79 Z" /><glyph glyph-name="AEacute" unicode="&#x1fc;" d="M582 753 l-56 0 l102 136 l96 0 l-142 -136 ZM164 206 l-170 -206 l-72 0 l562 680 l456 0 l-12 -55 l-364 0 l-52 -247 l329 0 l-12 -55 l-329 0 l-57 -268 l384 0 l-12 -55 l-448 0 l45 206 l-248 0 ZM423 261 l51 234 q9 40 17 75.5 q8 35.5 11 48.5 l3 13 l-1 0 q-40 -60 -106 -139 l-191 -232 l216 0 Z" /><glyph glyph-name="aeacute" unicode="&#x1fd;" d="M743 234 l-353 0 q-3 -21 -3 -43 q0 -66 32 -108.5 q32 -42.5 102 -42.5 q104 0 167 110 l45 -31 q-73 -131 -217 -131 q-133 0 -172 103 q-67 -103 -187 -103 q-66 0 -105.5 33.5 q-39.5 33.5 -39.5 93.5 q0 72 49 107 q49 35 147 51 l111 19 q20 4 27.5 10.5 q7.5 6.5 10.5 21.5 q5 23 5 38 q0 76 -107 76 q-64 0 -98 -30 q-34 -30 -40 -79 l-54 13 q8 74 64.5 109.5 q56.5 35.5 134.5 35.5 q121 0 148 -73 q73 73 168 73 q87 0 130 -52 q43 -52 43 -132 q0 -35 -8 -69 ZM320 158 l21 96 q-10 -6 -78 -19 l-50 -9 q-68 -12 -105 -34 q-37 -22 -37 -71 q0 -83 97 -83 q55 0 97 29.5 q42 29.5 55 90.5 ZM572 437 q-63 0 -109 -47 q-46 -47 -62 -108 l287 0 q2 18 2 29 q0 54 -28 90 q-28 36 -90 36 ZM490 680 l94 0 l-132 -128 l-56 0 l94 128 Z" /><glyph glyph-name="Oslashacute" unicode="&#x1fe;" d="M409 692 q126 0 193 -87 l123 111 l38 -43 l-132 -119 q25 -58 25 -132 q0 -81 -22 -157 q-22 -76 -63.5 -138.5 q-41.5 -62.5 -109.5 -100.5 q-68 -38 -152 -38 q-137 0 -199 95 l-116 -105 l-39 43 l128 116 q-20 58 -20 133 q0 108 40 203 q40 95 120.5 157 q80.5 62 185.5 62 ZM318 44 q65 0 119 35 q54 35 86.5 90 q32.5 55 50 118 q17.5 63 17.5 125 q0 54 -13 94 l-418 -378 q48 -84 158 -84 ZM128 274 q0 -49 9 -88 l416 375 q-49 75 -153 75 q-64 0 -117 -33.5 q-53 -33.5 -86 -87 q-33 -53.5 -51 -116.5 q-18 -63 -18 -125 ZM421 753 l-56 0 l102 136 l96 0 l-142 -136 Z" /><glyph glyph-name="oslashacute" unicode="&#x1ff;" d="M284 487 q84 0 133 -49 l71 72 l39 -35 l-79 -80 q21 -45 21 -98 q0 -123 -67.5 -216 q-67.5 -93 -187.5 -93 q-79 0 -126 41 l-65 -66 l-35 36 l68 70 q-26 47 -26 116 q0 122 69 212 q69 90 185 90 ZM90 193 q0 -44 12 -77 l274 280 q-34 40 -99 40 q-85 0 -136 -76.5 q-51 -76.5 -51 -166.5 ZM218 40 q63 0 108 41 q45 41 64 95.5 q19 54.5 19 111.5 q0 30 -8 59 l-271 -275 q32 -32 88 -32 ZM344 680 l94 0 l-132 -128 l-56 0 l94 128 Z" /><glyph glyph-name="uni0218" unicode="&#x218;" d="M560 566 l-50 -38 q-24 49 -73 78.5 q-49 29.5 -119 29.5 q-72 0 -117.5 -30.5 q-45.5 -30.5 -45.5 -87.5 q0 -52 30.5 -77.5 q30.5 -25.5 95.5 -48.5 l95 -35 q74 -27 115 -63.5 q41 -36.5 41 -106.5 q0 -97 -69.5 -148 q-69.5 -51 -178.5 -51 q-103 0 -171 48.5 q-68 48.5 -92 130.5 l55 35 q14 -67 67 -113 q53 -46 142 -46 q86 0 133.5 36 q47.5 36 47.5 99 q0 53 -33 78.5 q-33 25.5 -104 51.5 l-95 35 q-26 9 -42 16 q-16 7 -38 21.5 q-22 14.5 -34 30.5 q-12 16 -21 41.5 q-9 25.5 -9 57.5 q0 81 63.5 131.5 q63.5 50.5 167.5 50.5 q88 0 148.5 -36 q60.5 -36 90.5 -90 ZM186 -278 l7 35 q33 9 45 25.5 q12 16.5 21 58.5 l-42 0 l21 94 l77 0 l-24 -110 q-11 -49 -34.5 -72 q-23.5 -23 -70.5 -31 Z" /><glyph glyph-name="uni0219" unicode="&#x219;" d="M400 389 l-48 -34 q-39 82 -130 82 q-45 0 -73.5 -20 q-28.5 -20 -28.5 -58 q0 -32 18 -47.5 q18 -15.5 61 -30.5 l65 -24 q54 -20 84 -46 q30 -26 30 -76 q0 -70 -50.5 -108.5 q-50.5 -38.5 -127.5 -38.5 q-76 0 -127 36 q-51 36 -71 98 l51 32 q38 -116 151 -116 q48 0 79 23 q31 23 31 65 q0 33 -19 48.5 q-19 15.5 -67 32.5 l-67 25 q-22 8 -35.5 15 q-13.5 7 -31.5 20.5 q-18 13.5 -27 34 q-9 20.5 -9 48.5 q0 64 49 100.5 q49 36.5 118 36.5 q125 0 175 -98 ZM91 -278 l7 35 q33 9 45 25.5 q12 16.5 21 58.5 l-42 0 l21 94 l77 0 l-24 -110 q-11 -49 -34.5 -72 q-23.5 -23 -70.5 -31 Z" /><glyph glyph-name="uni021A" unicode="&#x21a;" d="M86 625 l12 55 l500 0 l-12 -55 l-219 0 l-133 -625 l-62 0 l133 625 l-219 0 ZM99 -278 l7 35 q33 9 45 25.5 q12 16.5 21 58.5 l-42 0 l21 94 l77 0 l-24 -110 q-11 -49 -34.5 -72 q-23.5 -23 -70.5 -31 Z" /><glyph glyph-name="uni021B" unicode="&#x21b;" d="M40 427 l10 49 l96 0 l40 179 l61 12 l-42 -191 l114 0 l-10 -49 l-114 0 l-67 -311 q-6 -27 -6 -40 q0 -32 34 -32 q36 0 77 22 l-12 -58 q-39 -18 -89 -18 q-73 0 -73 60 q0 16 6 46 l71 331 l-96 0 ZM-4 -278 l7 35 q33 9 45 25.5 q12 16.5 21 58.5 l-42 0 l21 94 l77 0 l-24 -110 q-11 -49 -34.5 -72 q-23.5 -23 -70.5 -31 Z" /><glyph glyph-name="circumflex" unicode="&#x2c6;" d="M212 552 l-67 0 l140 128 l42 0 l86 -128 l-59 0 l-54 77 l-88 -77 Z" /><glyph glyph-name="caron" unicode="&#x2c7;" d="M381 680 l67 0 l-140 -128 l-42 0 l-86 128 l59 0 l54 -77 l88 77 Z" /><glyph glyph-name="breve" unicode="&#x2d8;" d="M216 649 q2 -67 72 -67 q70 0 100 67 l48 0 q-19 -54 -59 -83 q-40 -29 -94 -29 q-57 0 -88 29.5 q-31 29.5 -27 82.5 l48 0 Z" /><glyph glyph-name="dotaccent" unicode="&#x2d9;" d="M255 566 l20 91 l62 0 l-20 -91 l-62 0 Z" /><glyph glyph-name="ring" unicode="&#x2da;" d="M233 560.5 q-24 23.5 -24 57.5 q0 34 24 57.5 q24 23.5 58 23.5 q34 0 58 -23.5 q24 -23.5 24 -57.5 q0 -34 -24 -57.5 q-24 -23.5 -58 -23.5 q-34 0 -58 23.5 ZM260 648.5 q-13 -12.5 -13 -30.5 q0 -18 13 -30.5 q13 -12.5 30 -12.5 q17 0 30 12.5 q13 12.5 13 30.5 q0 18 -13 30.5 q-13 12.5 -30 12.5 q-17 0 -30 -12.5 Z" /><glyph glyph-name="ogonek" unicode="&#x2db;" d="M212 -174 l18 -41 q-22 -6 -46 -6 q-45 0 -71.5 24.5 q-26.5 24.5 -26.5 66.5 q0 39 33 74 q33 35 78 60 l57 0 l-7 -4 q-111 -67 -111 -126 q0 -51 54 -51 q12 0 22 3 Z" /><glyph glyph-name="tilde" unicode="&#x2dc;" d="M409 666 l41 -10 q-10 -21 -16 -32 q-6 -11 -18 -27 q-12 -16 -27 -23.5 q-15 -7.5 -33 -7.5 q-27 0 -77 26 q-44 22 -55 22 q-33 0 -47 -47 l-42 9 q36 90 96 90 q23 0 67 -22 q46 -23 62 -23 q34 0 49 45 Z" /><glyph glyph-name="hungarumlaut" unicode="&#x2dd;" d="M389 680 l94 0 l-132 -128 l-56 0 l94 128 ZM230 680 l94 0 l-132 -128 l-56 0 l94 128 Z" /><glyph glyph-name="uni0394" unicode="&#x394;" d="M52 0 l265 679 l59 0 l265 -679 l-589 0 ZM346 610 l-215 -560 l432 0 l-217 560 Z" /><glyph glyph-name="uni03A9" unicode="&#x3a9;" d="M390 690 q151 0 234.5 -88.5 q83.5 -88.5 83.5 -229.5 q0 -103 -45 -184.5 q-45 -81.5 -128 -131.5 l179 0 l0 -56 l-248 0 l0 61 q174 101 174 310 q0 117 -67 190 q-67 73 -184 73 q-115 0 -182 -73 q-67 -73 -67 -190 q0 -208 174 -310 l0 -61 l-247 0 l0 56 l179 0 q-173 109 -173 316 q0 140 83.5 229 q83.5 89 233.5 89 Z" /><glyph glyph-name="uni03BC" unicode="&#x3bc;" d="M28 -190 l-59 0 l141 666 l59 0 l-56 -265 q-14 -62 -14 -88 q0 -80 90 -80 q65 0 110.5 50.5 q45.5 50.5 58.5 115.5 l56 267 l59 0 l-101 -476 l-59 0 l17 78 q-21 -40 -66.5 -65 q-45.5 -25 -96.5 -25 q-65 0 -92 43 l-47 -221 Z" /><glyph glyph-name="pi" unicode="&#x3c0;" d="M218 427 l-92 -427 l-60 0 l93 427 l-114 0 l10 49 l561 0 l-10 -49 l-114 0 l-67 -311 q-6 -27 -6 -40 q0 -32 34 -32 q36 0 77 22 l-12 -58 q-39 -18 -89 -18 q-73 0 -73 60 q0 16 6 46 l71 331 l-215 0 Z" /><glyph glyph-name="Wgrave" unicode="&#x1e80;" d="M553 753 l-56 0 l-142 136 l96 0 l102 -136 ZM606 0 l-58 0 l-35 406 q-12 134 -12 170 l-1 0 q-21 -55 -82 -172 l-205 -404 l-57 0 l-55 680 l62 0 l34 -403 q12 -147 12 -167 l1 0 q19 49 80 167 l202 403 l59 0 l37 -403 q12 -147 12 -168 l1 0 q13 35 79 166 l200 405 l66 0 l-340 -680 Z" /><glyph glyph-name="wgrave" unicode="&#x1e81;" d="M410 476 l28 -288 q2 -23 5.5 -62 q3.5 -39 3.5 -42 l1 0 q15 33 54 109 l148 283 l60 0 l-253 -476 l-56 0 l-27 306 q-2 23 -3.5 53.5 q-1.5 30.5 -1.5 33.5 l-1 0 l-44 -88 l-156 -305 l-53 0 l-59 476 l59 0 l33 -286 q6 -42 11 -105 l1 0 q37 78 52 106 l147 285 l51 0 ZM235 680 l94 0 l94 -128 l-56 0 l-132 128 Z" /><glyph glyph-name="Wacute" unicode="&#x1e82;" d="M540 753 l-56 0 l102 136 l96 0 l-142 -136 ZM606 0 l-58 0 l-35 406 q-12 134 -12 170 l-1 0 q-21 -55 -82 -172 l-205 -404 l-57 0 l-55 680 l62 0 l34 -403 q12 -147 12 -167 l1 0 q19 49 80 167 l202 403 l59 0 l37 -403 q12 -147 12 -168 l1 0 q13 35 79 166 l200 405 l66 0 l-340 -680 Z" /><glyph glyph-name="wacute" unicode="&#x1e83;" d="M410 476 l28 -288 q2 -23 5.5 -62 q3.5 -39 3.5 -42 l1 0 q15 33 54 109 l148 283 l60 0 l-253 -476 l-56 0 l-27 306 q-2 23 -3.5 53.5 q-1.5 30.5 -1.5 33.5 l-1 0 l-44 -88 l-156 -305 l-53 0 l-59 476 l59 0 l33 -286 q6 -42 11 -105 l1 0 q37 78 52 106 l147 285 l51 0 ZM444 680 l94 0 l-132 -128 l-56 0 l94 128 Z" /><glyph glyph-name="Wdieresis" unicode="&#x1e84;" d="M606 0 l-58 0 l-35 406 q-12 134 -12 170 l-1 0 q-21 -55 -82 -172 l-205 -404 l-57 0 l-55 680 l62 0 l34 -403 q12 -147 12 -167 l1 0 q19 49 80 167 l202 403 l59 0 l37 -403 q12 -147 12 -168 l1 0 q13 35 79 166 l200 405 l66 0 l-340 -680 ZM416 768 l20 91 l62 0 l-20 -91 l-62 0 ZM603 768 l20 91 l62 0 l-20 -91 l-62 0 Z" /><glyph glyph-name="wdieresis" unicode="&#x1e85;" d="M410 476 l28 -288 q2 -23 5.5 -62 q3.5 -39 3.5 -42 l1 0 q15 33 54 109 l148 283 l60 0 l-253 -476 l-56 0 l-27 306 q-2 23 -3.5 53.5 q-1.5 30.5 -1.5 33.5 l-1 0 l-44 -88 l-156 -305 l-53 0 l-59 476 l59 0 l33 -286 q6 -42 11 -105 l1 0 q37 78 52 106 l147 285 l51 0 ZM282 566 l20 91 l62 0 l-20 -91 l-62 0 ZM469 566 l20 91 l62 0 l-20 -91 l-62 0 Z" /><glyph glyph-name="Ygrave" unicode="&#x1ef2;" d="M413 753 l-56 0 l-142 136 l96 0 l102 -136 ZM250 0 l-63 0 l60 280 l-161 400 l67 0 l138 -338 l283 338 l76 0 l-340 -400 l-60 -280 Z" /><glyph glyph-name="ygrave" unicode="&#x1ef3;" d="M120 476 l44 -317 l12 -83 l1 0 q17 32 50 86 l187 314 l63 0 l-327 -540 q-41 -69 -59 -91 q-38 -47 -96 -47 q-34 0 -61 18 l11 56 q26 -21 55 -21 q29 0 47 21 q14 16 38 56 l43 74 l-69 474 l61 0 ZM119 680 l94 0 l94 -128 l-56 0 l-132 128 Z" /><glyph glyph-name="enspace" unicode="&#x2002;" d="" /><glyph glyph-name="emspace" unicode="&#x2003;" d="" /><glyph glyph-name="threeperemspace" unicode="&#x2004;" d="" /><glyph glyph-name="fourperemspace" unicode="&#x2005;" d="" /><glyph glyph-name="thinspace" unicode="&#x2009;" d="" /><glyph glyph-name="hairspace" unicode="&#x200a;" d="" /><glyph glyph-name="endash" unicode="&#x2013;" d="M576 298 l-11 -56 l-508 0 l11 56 l508 0 Z" /><glyph glyph-name="emdash" unicode="&#x2014;" d="M767 298 l-11 -56 l-699 0 l11 56 l699 0 Z" /><glyph glyph-name="quoteleft" unicode="&#x2018;" d="M227 690 l-7 -35 q-32 -8 -44.5 -27 q-12.5 -19 -21.5 -58 l-5 -21 l42 0 l-25 -114 l-78 0 l34 152 q11 49 34.5 72 q23.5 23 70.5 31 Z" /><glyph glyph-name="quoteright" unicode="&#x2019;" d="M85 425 l7 35 q32 8 44.5 27 q12.5 19 21.5 58 l5 21 l-42 0 l25 114 l78 0 l-34 -152 q-11 -49 -34.5 -72 q-23.5 -23 -70.5 -31 Z" /><glyph glyph-name="quotesinglbase" unicode="&#x201a;" d="M-35 -141 l7 35 q32 8 44.5 27 q12.5 19 21.5 58 l5 21 l-42 0 l25 114 l78 0 l-34 -152 q-11 -49 -34.5 -72 q-23.5 -23 -70.5 -31 Z" /><glyph glyph-name="quotedblleft" unicode="&#x201c;" d="M227 690 l-7 -35 q-32 -8 -44.5 -27 q-12.5 -19 -21.5 -58 l-5 -21 l42 0 l-25 -114 l-78 0 l34 152 q11 49 34.5 72 q23.5 23 70.5 31 ZM359 690 l-7 -35 q-32 -8 -44.5 -27 q-12.5 -19 -21.5 -58 l-5 -21 l42 0 l-25 -114 l-78 0 l34 152 q11 49 34.5 72 q23.5 23 70.5 31 Z" /><glyph glyph-name="quotedblright" unicode="&#x201d;" d="M217 425 l7 35 q32 8 44.5 27 q12.5 19 21.5 58 l5 21 l-42 0 l25 114 l78 0 l-34 -152 q-11 -49 -34.5 -72 q-23.5 -23 -70.5 -31 ZM85 425 l7 35 q32 8 44.5 27 q12.5 19 21.5 58 l5 21 l-42 0 l25 114 l78 0 l-34 -152 q-11 -49 -34.5 -72 q-23.5 -23 -70.5 -31 Z" /><glyph glyph-name="quotedblbase" unicode="&#x201e;" d="M97 -141 l7 35 q32 8 44.5 27 q12.5 19 21.5 58 l5 21 l-42 0 l25 114 l78 0 l-34 -152 q-11 -49 -34.5 -72 q-23.5 -23 -70.5 -31 ZM-35 -141 l7 35 q32 8 44.5 27 q12.5 19 21.5 58 l5 21 l-42 0 l25 114 l78 0 l-34 -152 q-11 -49 -34.5 -72 q-23.5 -23 -70.5 -31 Z" /><glyph glyph-name="dagger" unicode="&#x2020;" d="M450 452 l-162 0 l-96 -452 l-61 0 l96 452 l-161 0 l12 57 l161 0 l37 171 l61 0 l-37 -171 l162 0 l-12 -57 Z" /><glyph glyph-name="daggerdbl" unicode="&#x2021;" d="M259 229 l162 0 l-12 -57 l-162 0 l-37 -172 l-61 0 l37 172 l-161 0 l12 57 l161 0 l47 222 l-161 0 l12 57 l161 0 l37 172 l61 0 l-37 -172 l162 0 l-12 -57 l-162 0 l-47 -222 Z" /><glyph glyph-name="bullet" unicode="&#x2022;" d="M116 260 q-34 34 -34 83 q0 49 34 83 q34 34 83 34 q49 0 83 -34 q34 -34 34 -83 q0 -49 -34 -83 q-34 -34 -83 -34 q-49 0 -83 34 Z" /><glyph glyph-name="ellipsis" unicode="&#x2026;" d="M26 114 l78 0 l-25 -114 l-78 0 l25 114 ZM361 114 l78 0 l-25 -114 l-78 0 l25 114 ZM696 114 l78 0 l-25 -114 l-78 0 l25 114 Z" /><glyph glyph-name="perthousand" unicode="&#x2030;" d="M769 424 q23 0 44 -7 q21 -7 42 -23.5 q21 -16.5 33.5 -48.5 q12.5 -32 12.5 -77 q0 -67 -21.5 -130 q-21.5 -63 -67 -106.5 q-45.5 -43.5 -103.5 -43.5 q-66 0 -100.5 43.5 q-34.5 43.5 -34.5 118.5 q0 106 54 190 q54 84 141 84 ZM626 155 q0 -62 24 -91 q24 -29 62 -29 q60 0 98.5 69.5 q38.5 69.5 39.5 154.5 q0 55 -21.5 86 q-21.5 31 -62.5 31 q-66 0 -103 -69.5 q-37 -69.5 -37 -151.5 ZM274 0 l-55 0 l454 680 l55 0 l-454 -680 ZM264 692 q23 0 44 -7 q21 -7 42 -23.5 q21 -16.5 33.5 -48.5 q12.5 -32 12.5 -77 q0 -67 -21.5 -130 q-21.5 -63 -67 -106.5 q-45.5 -43.5 -103.5 -43.5 q-66 0 -100.5 43.5 q-34.5 43.5 -34.5 118.5 q0 106 54 190 q54 84 141 84 ZM121 423 q0 -62 24 -91 q24 -29 62 -29 q60 0 98.5 69.5 q38.5 69.5 39.5 154.5 q0 55 -21.5 86 q-21.5 31 -62.5 31 q-66 0 -103 -69.5 q-37 -69.5 -37 -151.5 ZM1170 424 q23 0 44 -7 q21 -7 42 -23.5 q21 -16.5 33.5 -48.5 q12.5 -32 12.5 -77 q0 -67 -21.5 -130 q-21.5 -63 -67 -106.5 q-45.5 -43.5 -103.5 -43.5 q-66 0 -100.5 43.5 q-34.5 43.5 -34.5 118.5 q0 106 54 190 q54 84 141 84 ZM1027 155 q0 -62 24 -91 q24 -29 62 -29 q60 0 98.5 69.5 q38.5 69.5 39.5 154.5 q0 55 -21.5 86 q-21.5 31 -62.5 31 q-66 0 -103 -69.5 q-37 -69.5 -37 -151.5 Z" /><glyph glyph-name="guilsinglleft" unicode="&#x2039;" d="M47 276 l16 73 l163 137 l-18 -83 l-120 -93 l79 -99 l-16 -75 l-104 140 Z" /><glyph glyph-name="guilsinglright" unicode="&#x203a;" d="M206 346 l-16 -73 l-163 -137 l18 84 l120 95 l-79 96 l16 75 l104 -140 Z" /><glyph glyph-name="fraction" unicode="&#x2044;" d="M438 680 l63 0 l-496 -680 l-64 0 l497 680 Z" /><glyph glyph-name="Euro" unicode="&#x20ac;" d="M56 300 l56 0 q3 41 12 79 l-71 0 l30 53 l54 0 q36 115 108.5 187 q72.5 72 173.5 73 q31 0 60.5 -9 q29.5 -9 59 -28.5 q29.5 -19.5 51.5 -57.5 q22 -38 31 -90 l-58 -28 q-10 74 -47.5 116 q-37.5 42 -101.5 42 q-76 0 -131 -57 q-55 -57 -85 -148 l268 0 l-31 -53 l-251 0 q-11 -48 -13 -79 l225 0 l-31 -53 l-196 0 q2 -106 44.5 -154.5 q42.5 -48.5 110.5 -48.5 q115 0 187 142 l47 -32 q-40 -76 -101 -120.5 q-61 -44.5 -138 -44.5 q-104 0 -156.5 68.5 q-52.5 68.5 -52.5 189.5 l-85 0 l31 53 Z" /><glyph glyph-name="trademark" unicode="&#x2122;" d="M830 584 l-111 -342 l-43 0 l-115 330 q-9 24 -17 60 q1 -16 1 -68 l0 -322 l-50 0 l0 438 l77 0 l110 -318 l17 -53 q1 4 5.5 21.5 q4.5 17.5 9.5 31.5 l103 318 l79 0 l0 -438 l-50 0 l0 322 q0 57 1 76 l-17 -56 ZM131 633 l0 47 l326 0 l0 -47 l-138 0 l0 -390 l-50 0 l0 390 l-138 0 Z" /><glyph glyph-name="Omega" unicode="&#x2126;" d="M399 690 q151 0 234.5 -88.5 q83.5 -88.5 83.5 -229.5 q0 -103 -45 -184.5 q-45 -81.5 -128 -131.5 l179 0 l0 -56 l-248 0 l0 61 q174 101 174 310 q0 117 -67 190 q-67 73 -184 73 q-115 0 -182 -73 q-67 -73 -67 -190 q0 -208 174 -310 l0 -61 l-247 0 l0 56 l179 0 q-173 109 -173 316 q0 140 83.5 229 q83.5 89 233.5 89 Z" /><glyph glyph-name="arrowleft" unicode="&#x2190;" d="M277 476 l75 0 l-216 -213 l626 0 l0 -50 l-625 0 l215 -213 l-75 0 l-237 238 l237 238 Z" /><glyph glyph-name="arrowup" unicode="&#x2191;" d="M50 415 l0 70 l238 237 l238 -237 l0 -70 l-209 208 l0 -623 l-58 0 l0 625 l-209 -210 Z" /><glyph glyph-name="arrowright" unicode="&#x2192;" d="M460 476 l75 0 l237 -238 l-237 -238 l-75 0 l215 213 l-625 0 l0 50 l626 0 l-216 213 Z" /><glyph glyph-name="arrowdown" unicode="&#x2193;" d="M50 227 l0 70 l209 -210 l0 625 l58 0 l0 -623 l209 208 l0 -70 l-238 -237 l-238 237 Z" /><glyph glyph-name="uni2196" unicode="&#x2196;" d="M613 29 l-39 -39 l-444 444 l1 -298 l-54 49 l1 336 l336 0 l49 -49 l-295 2 l445 -445 Z" /><glyph glyph-name="uni2197" unicode="&#x2197;" d="M170 472 l49 49 l336 0 l1 -336 l-54 -49 l1 298 l-444 -444 l-39 39 l445 445 l-295 -2 Z" /><glyph glyph-name="uni2198" unicode="&#x2198;" d="M219 0 l-49 49 l295 -2 l-445 445 l39 39 l444 -444 l-1 298 l54 -49 l-1 -336 l-336 0 Z" /><glyph glyph-name="uni2199" unicode="&#x2199;" d="M574 531 l39 -39 l-445 -445 l295 2 l-49 -49 l-336 0 l-1 336 l54 49 l-1 -298 l444 444 Z" /><glyph glyph-name="uni21A4" unicode="&#x21a4;" d="M277 476 l75 0 l-216 -213 l567 0 l0 213 l59 0 l0 -476 l-59 0 l0 213 l-566 0 l215 -213 l-75 0 l-237 238 l237 238 Z" /><glyph glyph-name="uni21A5" unicode="&#x21a5;" d="M60 415 l0 70 l238 237 l238 -237 l0 -70 l-209 208 l0 -573 l209 0 l0 -50 l-476 0 l0 50 l209 0 l0 575 l-209 -210 Z" /><glyph glyph-name="uni21A6" unicode="&#x21a6;" d="M487 476 l75 0 l237 -238 l-237 -238 l-75 0 l215 213 l-566 0 l0 -213 l-59 0 l0 476 l59 0 l0 -213 l567 0 l-216 213 Z" /><glyph glyph-name="uni21A7" unicode="&#x21a7;" d="M60 227 l0 70 l209 -210 l0 575 l-209 0 l0 50 l476 0 l0 -50 l-209 0 l0 -573 l209 208 l0 -70 l-238 -237 l-238 237 Z" /><glyph glyph-name="uni21B0" unicode="&#x21b0;" d="M762 263 l0 -263 l-59 0 l0 213 l-568 0 l217 -213 l-75 0 l-237 238 l237 238 l75 0 l-215 -213 l625 0 Z" /><glyph glyph-name="uni21B1" unicode="&#x21b1;" d="M77 0 l0 263 l625 0 l-215 213 l75 0 l237 -238 l-237 -238 l-75 0 l217 213 l-568 0 l0 -213 l-59 0 Z" /><glyph glyph-name="uni21B2" unicode="&#x21b2;" d="M762 476 l0 -263 l-625 0 l215 -213 l-75 0 l-237 238 l237 238 l75 0 l-217 -213 l568 0 l0 213 l59 0 Z" /><glyph glyph-name="uni21B3" unicode="&#x21b3;" d="M77 213 l0 263 l59 0 l0 -213 l568 0 l-217 213 l75 0 l237 -238 l-237 -238 l-75 0 l215 213 l-625 0 Z" /><glyph glyph-name="uni21B4" unicode="&#x21b4;" d="M60 227 l0 70 l209 -210 l0 575 l-209 0 l0 50 l267 0 l0 -623 l209 208 l0 -70 l-238 -237 l-238 237 Z" /><glyph glyph-name="carriagereturn" unicode="&#x21b5;" d="M762 476 l0 -263 l-625 0 l215 -213 l-75 0 l-237 238 l237 238 l75 0 l-217 -213 l568 0 l0 213 l59 0 Z" /><glyph glyph-name="partialdiff" unicode="&#x2202;" d="M226 615 l-12 54 q41 23 93 23 q79 0 119.5 -54 q40.5 -54 40.5 -157 q0 -90 -30.5 -210 q-30.5 -120 -86.5 -191 q-71 -92 -174 -92 q-79 0 -119.5 48 q-40.5 48 -40.5 121 q0 121 73.5 205.5 q73.5 84.5 166.5 84.5 q52 0 88 -27 q36 -27 47 -68 l1 0 q14 76 14 133 q0 155 -105 155 q-44 0 -75 -25 ZM374 285 q-4 42 -37.5 75.5 q-33.5 33.5 -81.5 33.5 q-69 0 -122 -68.5 q-53 -68.5 -53 -163.5 q0 -57 26.5 -89 q26.5 -32 72.5 -32 q51 0 94 41.5 q43 41.5 66.5 94 q23.5 52.5 34.5 108.5 Z" /><glyph glyph-name="Delta" unicode="&#x2206;" d="M-7 0 l265 679 l59 0 l265 -679 l-589 0 ZM287 610 l-215 -560 l432 0 l-217 560 Z" /><glyph glyph-name="product" unicode="&#x220f;" d="M105 680 l785 0 l0 -56 l-107 0 l0 -814 l-63 0 l0 814 l-445 0 l0 -814 l-63 0 l0 814 l-107 0 l0 56 Z" /><glyph glyph-name="summation" unicode="&#x2211;" d="M108 -142 l247 382 l-249 388 l0 52 l530 0 l0 -56 l-451 0 l240 -381 l-242 -377 l453 0 l0 -56 l-528 0 l0 48 Z" /><glyph glyph-name="minus" unicode="&#x2212;" d="M754 319 l0 -57 l-673 0 l0 57 l673 0 Z" /><glyph glyph-name="uni2219" unicode="&#x2219;" d="M84 377 l78 0 l-25 -114 l-78 0 l25 114 Z" /><glyph glyph-name="radical" unicode="&#x221a;" d="M485 680 l56 0 l-182 -683 l-64 0 l-147 439 l-93 0 l0 40 l149 0 l96 -301 q23 -70 28 -85 l1 0 q7 29 22 84 l134 506 Z" /><glyph glyph-name="infinity" unicode="&#x221e;" d="M887 349 q0 -68 -42.5 -115 q-42.5 -47 -121.5 -47 q-46 0 -98 24 q-52 24 -79 44.5 q-27 20.5 -77 61.5 q-5 -4 -35.5 -27.5 q-30.5 -23.5 -41.5 -31.5 q-11 -8 -39 -26.5 q-28 -18.5 -45.5 -25.5 q-17.5 -7 -42.5 -14 q-25 -7 -48 -7 q-79 0 -117 45.5 q-38 45.5 -38 112.5 q0 72 42 116 q42 44 118 44 q39 0 83 -19 q44 -19 75 -40 q31 -21 94 -69 q13 9 45 33 q32 24 50.5 36.5 q18.5 12.5 47 28.5 q28.5 16 56 23 q27.5 7 56.5 7 q77 0 117.5 -44 q40.5 -44 40.5 -110 ZM829 345 q0 52 -29 80 q-29 28 -78 28 q-17 0 -36.5 -6 q-19.5 -6 -34 -12 q-14.5 -6 -38.5 -20.5 q-24 -14.5 -33 -21 q-9 -6.5 -35.5 -25.5 q-26.5 -19 -30.5 -22 q4 -3 29.5 -21.5 q25.5 -18.5 35.5 -25.5 q10 -7 34.5 -22 q24.5 -15 39.5 -21.5 q15 -6.5 36 -12.5 q21 -6 39 -6 q48 0 74.5 30 q26.5 30 26.5 78 ZM223 237 q21 0 43 6.5 q22 6.5 48 21.5 q26 15 39.5 23.5 q13.5 8.5 43.5 30.5 q30 22 34 25 q-2 1 -36 25 q-34 24 -46.5 32 q-12.5 8 -40 24 q-27.5 16 -48 22 q-20.5 6 -39.5 6 q-48 0 -75.5 -30 q-27.5 -30 -27.5 -77 q0 -51 28 -80 q28 -29 77 -29 Z" /><glyph glyph-name="uni2224" unicode="&#x2224;" d="M104 377 l78 0 l-25 -114 l-78 0 l25 114 Z" /><glyph glyph-name="logicaland" unicode="&#x2227;" d="M84 377 l78 0 l-25 -114 l-78 0 l25 114 Z" /><glyph glyph-name="integral" unicode="&#x222b;" d="M72 -57 l128 631 q13 63 42.5 90.5 q29.5 27.5 81.5 27.5 q41 0 95 -16 l-16 -52 q-53 11 -72 11 q-30 0 -48 -18 q-16 -18 -25 -64 l-130 -633 q-12 -63 -44 -93 q-30 -29 -85 -29 q-44 0 -92 12 l21 52 q39 -9 66 -9 q32 0 47 14 q19 16 31 76 Z" /><glyph glyph-name="approxequal" unicode="&#x2248;" d="M492 437 l29 -48 q-62 -77 -126 -77 q-37 0 -98 30 l-41 20 q-42 19 -72 19 q-27 0 -43 -12.5 q-16 -12.5 -48 -50.5 l-31 46 q52 81 122 81 q36 0 98 -28 l47 -22 q46 -21 66 -21 q46 0 97 63 ZM492 250 l29 -48 q-62 -77 -126 -77 q-37 0 -98 30 l-41 20 q-42 19 -72 19 q-27 0 -43 -12.5 q-16 -12.5 -48 -50.5 l-31 46 q52 81 122 81 q36 0 98 -28 l47 -22 q46 -21 66 -21 q46 0 97 63 Z" /><glyph glyph-name="notequal" unicode="&#x2260;" d="M734 406 l0 -57 l-297 0 l-62 -118 l359 0 l0 -56 l-388 0 l-92 -175 l-63 0 l92 175 l-222 0 l0 56 l252 0 l62 118 l-314 0 l0 57 l344 0 l100 189 l62 0 l-100 -189 l267 0 Z" /><glyph glyph-name="lessequal" unicode="&#x2264;" d="M706 56 l0 -56 l-643 0 l0 56 l643 0 ZM706 154 l0 -63 l-643 262 l0 66 l643 266 l0 -63 l-579 -235 l579 -233 Z" /><glyph glyph-name="greaterequal" unicode="&#x2265;" d="M110 0 l0 56 l643 0 l0 -56 l-643 0 ZM110 91 l0 63 l579 233 l-579 235 l0 63 l643 -266 l0 -66 l-643 -262 Z" /><glyph glyph-name="dotmath" unicode="&#x22c5;" d="M84 377 l78 0 l-25 -114 l-78 0 l25 114 Z" /><glyph glyph-name="lozenge" unicode="&#x25ca;" d="M270 65 l157 272 l-157 276 l-156 -276 l156 -272 ZM245 681 l51 0 l201 -344 l-201 -340 l-51 0 l-201 340 l201 344 Z" /><glyph glyph-name="uni2B0F" unicode="&#x2b0f;" d="M60 415 l0 70 l238 237 l238 -237 l0 -70 l-209 208 l0 -623 l-267 0 l0 50 l209 0 l0 575 l-209 -210 Z" /><glyph glyph-name="uni2B10" unicode="&#x2b10;" d="M536 297 l0 -70 l-238 -237 l-238 237 l0 70 l209 -208 l0 623 l267 0 l0 -50 l-209 0 l0 -575 l209 210 Z" /><glyph glyph-name="uni2B11" unicode="&#x2b11;" d="M536 0 l-267 0 l0 623 l-209 -208 l0 70 l238 237 l238 -237 l0 -70 l-209 210 l0 -575 l209 0 l0 -50 Z" /><glyph glyph-name="commaaccent" unicode="&#xf6c3;" d="M75 -278 l7 35 q33 9 45 25.5 q12 16.5 21 58.5 l-42 0 l21 94 l77 0 l-24 -110 q-11 -49 -34.5 -72 q-23.5 -23 -70.5 -31 Z" /><glyph glyph-name="uniF8FF" unicode="&#xf8ff;" d="M148.5 98.5 q-108.5 108.5 -108.5 262.5 q0 154 108.5 263 q108.5 109 262.5 109 q154 0 263 -109 q109 -109 109 -263 q0 -154 -109 -262.5 q-109 -108.5 -263 -108.5 q-154 0 -262.5 108.5 Z" /><glyph glyph-name="fi" unicode="&#xfb01;" d="M332 476 l-10 -49 l-108 0 l-91 -427 l-59 0 l91 427 l-108 0 l10 49 l108 0 l23 109 q12 55 39 79 q31 28 83 28 q35 0 66 -11 l-12 -54 q-30 12 -54 12 q-28 0 -42.5 -14 q-14.5 -14 -21.5 -47 l-22 -102 l108 0 ZM469 475 l-101 -475 l-59 0 l101 475 l59 0 ZM512 680 l-20 -98 l-59 0 l20 98 l59 0 Z" /><glyph glyph-name="fl" unicode="&#xfb02;" d="M332 476 l-10 -49 l-108 0 l-91 -427 l-59 0 l91 427 l-108 0 l10 49 l108 0 l23 109 q12 55 39 79 q31 28 83 28 q35 0 66 -11 l-12 -54 q-30 12 -54 12 q-28 0 -42.5 -14 q-14.5 -14 -21.5 -47 l-22 -102 l108 0 ZM453 680 l59 0 l-145 -680 l-59 0 l145 680 Z" /></font>
</defs>
</svg>
